<?xml version="1.0" encoding="utf-8"?>
<!-- Generator: Adobe Illustrator 25.2.1, SVG Export Plug-In . SVG Version: 6.00 Build 0)  -->
<svg version="1.1" id="Camada_1" xmlns="http://www.w3.org/2000/svg" xmlns:xlink="http://www.w3.org/1999/xlink" x="0px" y="0px"
	 viewBox="0 0 447.6 35.9" style="enable-background:new 0 0 447.6 35.9;" xml:space="preserve">
<style type="text/css">
	.st0{fill:#4BFF5A;}
</style>
<g>
	<path class="st0" d="M189.4,0c-2.9,0-5.8,0.1-8.8,0.2c-9.9,0.5-19.9,0.9-29.8,0.9c-0.2,0-0.4,0-0.5,0c-11.1,0-22.2-0.4-33.3-0.8
		c-2.5-0.1-5.1-0.2-7.7-0.2c-2.4,0-4.9,0.1-7.2,0.3c-0.7,0.1-1.3,0.1-2,0.1c-0.9,0-1.7,0-2.6-0.1c-0.9,0-1.7-0.1-2.6-0.1
		c-0.4,0-0.8,0-1.2,0C90.2,0.7,86.8,0.8,83.4,1c-6.6,0.3-13.3,0.4-20,0.5c-2.1,0-4.3,0-6.4,0c-0.4,0-0.7,0-1.1,0c-1.2,0-2.5,0-3.7,0
		c-6.6,0-13.1,0.1-19.6,0.7C30.1,2.5,27.5,2.8,25,3c-2.4,0.2-4.7,0.8-7.1,0.9c-0.3,0-0.7,0-1,0c-0.7,0-1.3,0-1.9,0
		c-0.6,0-1.3,0-1.9,0c-0.5,0-0.9,0-1.4,0C10.1,3.9,8.6,4,7.1,4.2C5.6,4.4,4.4,4.5,3.2,5.4C2,6.3,1.9,7,2.2,8.5C2.3,9,2.3,9.6,2,9.9
		c-0.2,0.3-0.6,0.4-0.9,0.6C0.4,11,0.2,12,0.3,12.8c0.2,0.9,0.6,1.6,0.8,2.5c0.2,0.8,0.3,1.8-0.3,2.5c-0.3,0.3-0.6,0.6-0.8,1
		c-0.2,0.5,0,1,0.3,1.4C0.7,20.6,1,21,1.2,21.5c0.5,1.3-0.7,2.6-0.9,4c-0.1,0.6,0.1,1.1,0.1,1.7c0,0.7-0.2,1.3-0.1,2
		c0.2,1.4,0.8,2.7,1.4,3.9c0.3,0.6,0.6,1.3,1.1,1.8c0.7,0.6,1.6,0.8,2.5,0.9c1.2,0.2,2.4,0.2,3.6,0.2c3.7,0,7.4-0.6,11-0.9
		c2.2-0.2,4.3-0.1,6.4-0.4c3.1-0.4,6.1-0.2,9.2-0.6c3.5-0.5,7.1-0.7,10.6-0.9c9.7-0.6,19.4-0.4,29.1-0.9c6.5-0.3,12.9-0.5,19.4-0.5
		c3.4,0,6.8,0,10.2,0.2c14.1,0.4,28.2,0.9,42.3,1c0.2,0,0.3,0,0.5,0c6.6,0,13.3-0.8,19.9-0.9c1,0,2,0,3.1,0
		c15.2,0,30.4,0.8,45.6,1.3c7.1,0.2,14.1,0.4,21.2,0.4c0.5,0,1,0,1.5,0c17.8,0,35.6-1.6,53.4-1.6c2.2,0,4.5,0,6.8,0.1
		c9.7,0.2,19.8,0.4,29.7,0.6c12.8,0.3,25.6,0.5,38.4,0.5c17.9,0,35.7-0.4,53.6-1.5c4-0.2,8.8,0.1,12.7-0.6c1.1-0.1,2.2-0.8,2.5-1.8
		c0.3-0.8,0-1.8,0.1-2.6c0.1-1.1,0.6-2,1.2-2.9c0.5-0.8,1-1.6,1.7-2.2c0.7-0.5,1.6-0.9,1.8-1.7c0.2-0.7-0.2-1.3-0.4-2
		c-0.2-0.6,0-1.6,0.7-1.6c0,0,0.1,0,0.1,0c0.1,0,0.1,0,0.2,0c0.1,0,0.1,0,0.2,0c0.2,0,0.3,0,0.4-0.1c0.2-0.2-0.1-0.5,0-0.7
		c0.3-0.6,0.7-1,1.4-1.3c0.7-0.3,1.4-0.5,1.8-1.1c0.5-0.7,0.2-1.9-0.6-2.3c0-0.3,0-0.6,0-0.8c0.5-0.2,1.9-0.5,2.2-0.9
		c0.5-0.6-0.1-1.1-0.2-1.8c-0.4-2,2.2-2.4,0-4.2c-1.4-1.1-3.2-2.1-5-2.5c-0.5-0.1-1-0.2-1.5-0.2c-1.4,0-2.8,0.3-4.2,0.4
		c-2.1,0-4.2,0.5-6.4,0.8c-5.9,0.7-11.8,0.9-17.7,0.9c-9.3,0-18.6-0.6-27.9-0.8c-2.8-0.1-5.6-0.1-8.4-0.1c-6.8,0-13.6,0.2-20.5,0.4
		c-6.8,0.2-13.6,0.4-20.4,0.4c-3.9,0-7.7-0.1-11.6-0.2c-12.8-0.5-25.6-0.8-38.4-0.8c-8,0-16,0.1-24,0.3C253.4,1.8,246.1,2,238.8,2
		c-2.5,0-5,0-7.6-0.1C217.2,1.5,203.4,0,189.4,0"/>
</g>
</svg>
