<svg id="Camada_1" data-name="Camada 1" xmlns="http://www.w3.org/2000/svg" viewBox="0 0 382.08 37.08"><defs><style>.cls-1{fill:#4bff5a;}</style></defs><path class="cls-1" d="M375.77,0c-1.2,0-2.37.34-3.6.38a50.35,50.35,0,0,0-5.43.78,117.31,117.31,0,0,1-15.88,1c-7.69,0-15.39-.49-23.08-.7-2,0-4-.07-6-.07-6.21,0-12.42.22-18.62.44s-12.39.45-18.59.45c-2.91,0-5.83,0-8.75-.17Q261,1.44,246.15,1.44q-11.79,0-23.57.39c-6.54.22-13.08.52-19.62.52-1.84,0-3.68,0-5.51-.08C185.64,1.9,174.08.48,162.33.48c-2.7,0-5.4.08-8.12.26-8.62.56-17.25,1-25.88,1h-1c-9.18,0-18.31-.32-27.44-.65-2-.08-4.11-.16-6.18-.16a52.77,52.77,0,0,0-6.54.36,15.76,15.76,0,0,1-1.8.1c-.71,0-1.42,0-2.13-.08s-1.42-.08-2.13-.08c-.38,0-.75,0-1.13,0-2.9.2-5.8.4-8.71.55-5.67.3-11.35.49-17,.62q-3.23.06-6.45.06a173.16,173.16,0,0,0-19.89.79q-3.24.41-6.5.71c-2,.19-4,.78-6.07.9-.32,0-.64,0-1,0-.52,0-1,0-1.57,0s-1,0-1.56,0-.83,0-1.24,0c-1.31.11-2.61.27-3.91.46A5.43,5.43,0,0,0,2.8,6.56c-1,1-1.1,1.66-.86,3.11a1.86,1.86,0,0,1-.22,1.42,4.14,4.14,0,0,1-.76.56A2.59,2.59,0,0,0,.31,14c.12.85.47,1.64.67,2.47A3.21,3.21,0,0,1,.74,19a4.35,4.35,0,0,0-.68,1,1.8,1.8,0,0,0,.26,1.42A6.07,6.07,0,0,1,1,22.65c.39,1.31-.6,2.61-.8,4a9.42,9.42,0,0,0,.11,1.69,17.06,17.06,0,0,0-.08,2,15.39,15.39,0,0,0,1.15,3.88,5.14,5.14,0,0,0,1,1.75,3.56,3.56,0,0,0,2.13.89,19.76,19.76,0,0,0,3,.2c3.18,0,6.36-.61,9.53-.89,1.85-.16,3.67-.09,5.49-.37,2.61-.41,5.24-.22,7.83-.65,3-.48,6-.72,9.05-1,8.29-.67,16.59-.51,24.88-1C70.14,32.9,76,32.7,82,32.7c2.53,0,5.07,0,7.6.12,12,.38,24.08.76,36.12.8h.21c5.71,0,11.5-.89,17.26-1,1.34,0,2.68,0,4,0,12.5,0,25.05.7,37.52,1.15q8.06.28,16.12.29h3.26c15.55-.12,31-1.83,46.56-1.83q2.41,0,4.83.06c8.32.21,16.89.28,25.31.5,9.67.25,19.33.41,29,.41,16.5,0,33-.46,49.53-1.69,3.44-.26,7.48.08,10.82-.69A2.61,2.61,0,0,0,372.24,29a12.79,12.79,0,0,0,.06-2.63,7.65,7.65,0,0,1,1-2.91,7.51,7.51,0,0,1,1.48-2.21c.58-.52,1.37-.91,1.54-1.74a4.61,4.61,0,0,0-.35-1.95c-.15-.65,0-1.56.58-1.65H377a.41.41,0,0,0,.36-.15c.21-.24-.08-.46,0-.67a2.29,2.29,0,0,1,1.16-1.26,3.31,3.31,0,0,0,1.53-1.13,1.78,1.78,0,0,0-.53-2.28c0-.27,0-.55,0-.83.45-.23,1.59-.51,1.91-.95.44-.59,0-1.14-.15-1.81-.32-2,1.88-2.45,0-4.22A10.27,10.27,0,0,0,377.06.16,4.75,4.75,0,0,0,375.77,0" transform="translate(0 0)"/></svg>