<svg xmlns="http://www.w3.org/2000/svg" viewBox="0 0 173.45 203.79"><defs><style>.cls-1{isolation:isolate;}.cls-2,.cls-3{mix-blend-mode:multiply;}.cls-3{fill:#9fffff;}.cls-4{fill:#438dff;}.cls-5{fill:#212121;}</style></defs><g class="cls-1"><g id="Camada_1" data-name="Camada 1"><g class="cls-2"><path class="cls-3" d="M146.09,52.61q-3.06-.47-6.1-1c-6.76-1.23-86.36.81-93.1-.81-2.15-.51-32.15,0-34.33-.22C9.38,50.27,7,51.74,6,56.26v.06c-.4.65-.24,1.67-.78,2.23L3.8,60.89l-.6,9h0c0,.38,0,.75,0,1.12.38,4.49.9,5.29,3.94,5.48a54.33,54.33,0,0,0,6.12,0c1.9-.09,31.61-.9,33.52-.52a25,25,0,0,0,4.48.43c5.31.09,83.36-1.56,88.64-.52a10.37,10.37,0,0,0,7.62-.89v0c.26-.4.53-.79.78-1.21.33-3.87.63-7.75,1-11.6a18.43,18.43,0,0,0-.55-6.59C148.32,53.79,147.47,52.81,146.09,52.61Z" transform="translate(0 0)"/><path class="cls-3" d="M14.54,91.79a18.25,18.25,0,0,0,8.69,1c6.56-.56,103.12-1.44,109.67-2.1a5.69,5.69,0,0,1,2.53.5,11.91,11.91,0,0,0,7.61.37c0-.36-.07-.72-.1-1.07l.09-.05a6.79,6.79,0,0,0,.6-1c.24-.42.48-.84.73-1.25,1-2.48.58-5.37.92-8h0c-.1-1.5-.21-3-.31-4.5h0c-.07-4.19-1.75-6.47-4.13-7.76-2.22-1.2-4.56-2.2-6.85-2-4.16.37-56.19.89-60.33,1.35-2.69.29-16.85.89-19.54,1.18h0c-2.81-1.4-36.21.38-39,1-1.17.26-2,1.55-2.28,3.25a47.62,47.62,0,0,0-.61,14.37C12.5,89.09,13,91.08,14.54,91.79Z" transform="translate(0 0)"/><path class="cls-3" d="M141.35,95h0c-.8-4.9-3-7.31-6.58-7.34h0c-1.37-1-2.84-.88-4.3-.81s-17.62.85-19,.59c-5.7-1.07-49.16.1-54.86-.22-3-.16-39.68.31-42.53,2.32h0a3.48,3.48,0,0,0-3,2.93c-1.19,5.47-1.89,11,.12,16.52h0l.18,2.18h0c2.11,1.66,4.37-.83,6.49.6,3.19-.4,39.9-1.14,43.1-.53,5.41,1,63.26.25,68.71-.54a14.32,14.32,0,0,1,4.38-.12,6.11,6.11,0,0,0,5.26-1.87c0-.37-.07-.74-.1-1.11v-.06c.45-.58.22-1.54.6-2.16l0-1.21a6.91,6.91,0,0,0,.53-1Z" transform="translate(0 0)"/><path class="cls-3" d="M137.7,118.79c-1.78-.65-3.61-1-5.42-1.49-3.69.08-38.28.28-42,.8s-36.57,1.55-40.41,1c-2-.29-34.84,1-36.8,1.21-1.36.15-2.27,1.31-2.62,3.32a47.87,47.87,0,0,0-.68,13.81c.41,3.58,1.31,4.83,3.7,5.14,2,.26,34.84-.38,36.81-.23,2.46.2,16.53.27,19,.13,5.18-.27,58.62-1.72,63.72.36a6,6,0,0,0,2.2.08c.48-1,.93-2.08,1.45-3.05a9.87,9.87,0,0,0,1.13-5,30.85,30.85,0,0,0,1.48-11.43h0C139.47,120.26,139.23,119.34,137.7,118.79Z" transform="translate(0 0)"/><path class="cls-3" d="M9.37,124.1a1.78,1.78,0,0,0,.39.07c3.78-.08,40.45.24,44.23-.38h0c1.82.21,16,.31,17.81.24,4.31-.16,60-.38,64.34-1a5.07,5.07,0,0,1,2,.28,15.7,15.7,0,0,0,5.87.25,2.6,2.6,0,0,0,2.81-1,4,4,0,0,0,.66-1.41,26.24,26.24,0,0,1,1-4.76,9.09,9.09,0,0,0,.25-1.59c-.16-1.78.69-3.81-.67-5.3-.28-.86-.61-1.69-.85-2.57-1-3.68-2.84-5.79-5.47-6.65s-5.34-1.71-8.1-1.41c-2.2.24-37.31,1.23-39.51,1.39l-1.64-1c-1.94.14-34.73,1.09-36.66,1.27-4.91.44-42.75-.06-47.65.83h0c-.74.81-1.47,1.63-2.21,2.45h0a49.88,49.88,0,0,0-1.7,11C3.83,120.77,5.29,123.25,9.37,124.1Z" transform="translate(0 0)"/></g><rect class="cls-4" x="155.02" y="24.58" width="8" height="6.19"/><rect class="cls-4" x="161.13" y="30.41" width="10.98" height="7.22"/><rect class="cls-4" x="158.34" y="46.23" width="10.98" height="7.22"/><rect class="cls-4" x="154.15" y="69.49" width="10.89" height="8.19"/><rect class="cls-4" x="150.58" y="95.61" width="10.89" height="8.19"/><path d="M28.37,76.34V75.13h.22a3.87,3.87,0,0,0,.62,0,1,1,0,0,0,.45-.18.78.78,0,0,0,.27-.38,2.27,2.27,0,0,0,.08-.66V62.42L25.45,76.34H23.92L19.14,62.42V73.66a2.31,2.31,0,0,0,.11.78,1,1,0,0,0,.33.44,1.25,1.25,0,0,0,.53.2,3.76,3.76,0,0,0,.71,0H21v1.21H15.34V75.13h.95a2.15,2.15,0,0,0,.45,0,.85.85,0,0,0,.37-.18.87.87,0,0,0,.25-.41,2.32,2.32,0,0,0,.09-.71v-11a2.37,2.37,0,0,0-.09-.73.87.87,0,0,0-.25-.41.77.77,0,0,0-.37-.19,1.64,1.64,0,0,0-.45,0h-.95v-1.2h6.51l3.76,10.92,3.6-10.92H35.6v1.2h-1a1.64,1.64,0,0,0-.45,0,.79.79,0,0,0-.37.2,1.08,1.08,0,0,0-.24.44,2.66,2.66,0,0,0-.09.77V73.66a2.69,2.69,0,0,0,.09.78,1.08,1.08,0,0,0,.24.44.79.79,0,0,0,.37.2,1.64,1.64,0,0,0,.45,0h1v1.21Z" transform="translate(0 0)"/><path d="M36.89,75.13a2.59,2.59,0,0,0,.54,0,1.37,1.37,0,0,0,.52-.2,1.22,1.22,0,0,0,.4-.44,1.68,1.68,0,0,0,.16-.78V66.8a1.49,1.49,0,0,0-.16-.73,1.27,1.27,0,0,0-.41-.42,1.42,1.42,0,0,0-.52-.19,3.32,3.32,0,0,0-.53,0h-.26V64.21h5.31v9.45a1.56,1.56,0,0,0,.16.78,1.22,1.22,0,0,0,.4.44,1.31,1.31,0,0,0,.52.2,2.55,2.55,0,0,0,.53,0h.27v1.21H36.63V75.13Zm1.29-14.58a1.65,1.65,0,0,1,.15-.74,1.38,1.38,0,0,1,.41-.51,2,2,0,0,1,.61-.28,2.59,2.59,0,0,1,.76-.1,2.64,2.64,0,0,1,.74.1,1.9,1.9,0,0,1,.61.28,1.43,1.43,0,0,1,.43.51,1.77,1.77,0,0,1,0,1.47,1.49,1.49,0,0,1-.43.5,1.59,1.59,0,0,1-.61.3,2.64,2.64,0,0,1-.74.1,2.59,2.59,0,0,1-.76-.1,1.66,1.66,0,0,1-.61-.3,1.43,1.43,0,0,1-.41-.5A1.67,1.67,0,0,1,38.18,60.55Z" transform="translate(0 0)"/><path d="M51.3,74.73a4.66,4.66,0,0,0,.85-.06c.27,0,.52-.09.75-.14V76a2.38,2.38,0,0,1-.48.19,4.72,4.72,0,0,1-.7.18,7.28,7.28,0,0,1-.91.14,9.53,9.53,0,0,1-1.11.06,4.91,4.91,0,0,1-1.38-.18,2.62,2.62,0,0,1-1-.61,2.72,2.72,0,0,1-.66-1.11A5.34,5.34,0,0,1,46.38,73V65.76h-1.7V64.6a2.89,2.89,0,0,0,1.3-.29,3.15,3.15,0,0,0,.92-.66,4.68,4.68,0,0,0,1-2.24h1.88v2.8H52.7v1.55H49.81v7a2.59,2.59,0,0,0,.35,1.5A1.3,1.3,0,0,0,51.3,74.73Z" transform="translate(0 0)"/><path d="M66.15,70.23A6.66,6.66,0,0,1,64.66,75a5.84,5.84,0,0,1-4.4,1.57,7.14,7.14,0,0,1-2.44-.39A4.9,4.9,0,0,1,56,75a5.22,5.22,0,0,1-1.16-2,8.63,8.63,0,0,1-.4-2.78,6.66,6.66,0,0,1,1.49-4.75,5.84,5.84,0,0,1,4.41-1.55,7.14,7.14,0,0,1,2.44.38,4.72,4.72,0,0,1,1.83,1.17,5.13,5.13,0,0,1,1.16,2A8.63,8.63,0,0,1,66.15,70.23Zm-8.22,0a14.78,14.78,0,0,0,.13,2.12,5.83,5.83,0,0,0,.4,1.54,2.27,2.27,0,0,0,.74.93,1.87,1.87,0,0,0,1.1.31,1.85,1.85,0,0,0,1.1-.31,2.25,2.25,0,0,0,.73-.93,5.47,5.47,0,0,0,.4-1.54,16.53,16.53,0,0,0,.12-2.12,16.31,16.31,0,0,0-.12-2.12,5.45,5.45,0,0,0-.41-1.52,2.07,2.07,0,0,0-.74-.91,2.11,2.11,0,0,0-2.2,0,2,2,0,0,0-.73.91,5.15,5.15,0,0,0-.4,1.52A16.31,16.31,0,0,0,57.93,70.23Z" transform="translate(0 0)"/><path d="M72.44,76.56a9.55,9.55,0,0,1-2.09-.2,4.57,4.57,0,0,1-1.42-.55,2.17,2.17,0,0,1-1-1.89A1.65,1.65,0,0,1,68.1,73a1.82,1.82,0,0,1,.54-.53,2.18,2.18,0,0,1,.69-.24A4.25,4.25,0,0,1,70,72.2a4.54,4.54,0,0,0,.17,1.27,3,3,0,0,0,.5,1,2.15,2.15,0,0,0,.77.6,2.33,2.33,0,0,0,1,.21,3.78,3.78,0,0,0,1-.12,1.86,1.86,0,0,0,.69-.34,1.45,1.45,0,0,0,.41-.49,1.53,1.53,0,0,0,.13-.59,1.57,1.57,0,0,0-.14-.67,1.46,1.46,0,0,0-.46-.55,3.66,3.66,0,0,0-.85-.51c-.36-.17-.8-.34-1.33-.53a12,12,0,0,1-1.62-.68,4.81,4.81,0,0,1-1.18-.81,3.11,3.11,0,0,1-.73-1,3.75,3.75,0,0,1,.1-2.93,3,3,0,0,1,1-1.12A4.47,4.47,0,0,1,71,64.17,8.19,8.19,0,0,1,73,64a7.93,7.93,0,0,1,1.82.18,4.15,4.15,0,0,1,1.23.48,2.11,2.11,0,0,1,.69.67,1.48,1.48,0,0,1,.22.77,1.35,1.35,0,0,1-.53,1.15,3,3,0,0,1-1.78.4,2.7,2.7,0,0,0-.5-1.75,1.8,1.8,0,0,0-1.48-.62,2.63,2.63,0,0,0-.7.09,1.76,1.76,0,0,0-.59.26A1.3,1.3,0,0,0,71,66a1.2,1.2,0,0,0-.15.61,1.51,1.51,0,0,0,.14.65,1.55,1.55,0,0,0,.49.55,4.64,4.64,0,0,0,.94.52c.4.18.91.38,1.53.59a9.72,9.72,0,0,1,1.38.6,4.72,4.72,0,0,1,1.09.77,3.19,3.19,0,0,1,.72,1,3,3,0,0,1,.25,1.27A4.06,4.06,0,0,1,77,74.26a3.23,3.23,0,0,1-1,1.25,4.35,4.35,0,0,1-1.55.78A7.34,7.34,0,0,1,72.44,76.56Z" transform="translate(0 0)"/><path d="M96.51,73.55a1.89,1.89,0,0,0,.15.83,1.16,1.16,0,0,0,.42.48,1.61,1.61,0,0,0,.59.22,5.55,5.55,0,0,0,.72,0h.08v1.21H94.09l-.63-1.77h-.21a4.55,4.55,0,0,1-.58.83,3.44,3.44,0,0,1-.75.62,3.53,3.53,0,0,1-1,.4,4.94,4.94,0,0,1-1.2.14,5,5,0,0,1-2-.37,3.58,3.58,0,0,1-1.45-1.14,5.18,5.18,0,0,1-.9-2,11.49,11.49,0,0,1-.3-2.8,11.84,11.84,0,0,1,.3-2.84,5.51,5.51,0,0,1,.89-2,3.59,3.59,0,0,1,1.44-1.16A4.57,4.57,0,0,1,89.73,64a4.07,4.07,0,0,1,1.15.14,3.69,3.69,0,0,1,.93.37,3.18,3.18,0,0,1,.73.57,3.63,3.63,0,0,1,.56.73h.15c0-.42-.06-.82-.09-1.18,0-.16,0-.32,0-.48s0-.31,0-.46,0-.27,0-.38,0-.2,0-.26V61.75a1.76,1.76,0,0,0-.14-.75,1.16,1.16,0,0,0-.4-.42,1.53,1.53,0,0,0-.58-.19,5.33,5.33,0,0,0-.71,0h-.18v-1.2h5.45Zm-5.77,1.32a2.17,2.17,0,0,0,1.13-.28,2,2,0,0,0,.71-.86A4.69,4.69,0,0,0,93,72.29a15.29,15.29,0,0,0,.11-2,14.74,14.74,0,0,0-.11-2,5,5,0,0,0-.38-1.46,2.15,2.15,0,0,0-.71-.89,2,2,0,0,0-1.13-.31,1.58,1.58,0,0,0-1,.31,2,2,0,0,0-.65.9,5.74,5.74,0,0,0-.37,1.46,14.79,14.79,0,0,0-.11,2,9.47,9.47,0,0,0,.48,3.46A1.65,1.65,0,0,0,90.74,74.87Z" transform="translate(0 0)"/><path d="M105.33,65.31a1.33,1.33,0,0,0-.72.18,1.29,1.29,0,0,0-.47.51,2.32,2.32,0,0,0-.25.77,5.94,5.94,0,0,0-.07,1,5.8,5.8,0,0,1-2.29-.35,1.19,1.19,0,0,1-.77-1.17,1.59,1.59,0,0,1,.37-1.06,2.7,2.7,0,0,1,1-.71,6,6,0,0,1,1.48-.41,13,13,0,0,1,1.81-.12,9.17,9.17,0,0,1,2.08.2,3.73,3.73,0,0,1,1.48.66,2.79,2.79,0,0,1,.89,1.18,4.77,4.77,0,0,1,.3,1.8v5.76a3.31,3.31,0,0,0,.07.77,1.16,1.16,0,0,0,.23.5.89.89,0,0,0,.42.26,2.36,2.36,0,0,0,.64.07h.08v1.21h-4.2l-.48-1.56h-.2c-.25.3-.48.56-.7.79a3.72,3.72,0,0,1-.71.56,3.12,3.12,0,0,1-.84.32,5.21,5.21,0,0,1-1.11.11,4.47,4.47,0,0,1-1.4-.22,3,3,0,0,1-1.88-1.83,4.25,4.25,0,0,1-.28-1.63,3.11,3.11,0,0,1,1.26-2.73,7.06,7.06,0,0,1,3.81-1l1.85-.06V67.88c0-.38,0-.72,0-1a2.67,2.67,0,0,0-.19-.82,1.23,1.23,0,0,0-.42-.53A1.39,1.39,0,0,0,105.33,65.31Zm-2,7.66a2.73,2.73,0,0,0,.31,1.46,1.08,1.08,0,0,0,1,.48,1.93,1.93,0,0,0,.88-.2,2,2,0,0,0,.67-.58,2.74,2.74,0,0,0,.43-.91,4.48,4.48,0,0,0,.15-1.2v-1.7l-1,.06a3.91,3.91,0,0,0-1.14.22,1.83,1.83,0,0,0-.74.5,2,2,0,0,0-.4.79A4.35,4.35,0,0,0,103.32,73Z" transform="translate(0 0)"/><path d="M21.63,103.69a7.06,7.06,0,0,1-2.53-.42,4.81,4.81,0,0,1-1.84-1.21,5.2,5.2,0,0,1-1.12-2,8.53,8.53,0,0,1-.37-2.63,9.5,9.5,0,0,1,.37-2.8,5.41,5.41,0,0,1,1.1-2A4.42,4.42,0,0,1,19,91.47a6.52,6.52,0,0,1,2.38-.41,6.65,6.65,0,0,1,2.21.35,4.4,4.4,0,0,1,1.66,1,4.53,4.53,0,0,1,1.05,1.7,6.86,6.86,0,0,1,.37,2.37v1.15H19.26a8.35,8.35,0,0,0,.25,2A4.2,4.2,0,0,0,20.1,101a2.47,2.47,0,0,0,.93.78,2.91,2.91,0,0,0,1.25.25,4.23,4.23,0,0,0,1.09-.13,3.31,3.31,0,0,0,.9-.39,3.6,3.6,0,0,0,.7-.58,3.56,3.56,0,0,0,.51-.73,1.16,1.16,0,0,1,.6,1.11,1.81,1.81,0,0,1-.26.92A2.45,2.45,0,0,1,25,103a5.18,5.18,0,0,1-1.39.53A8.74,8.74,0,0,1,21.63,103.69Zm-.21-11.16a1.68,1.68,0,0,0-1.5.94,5.76,5.76,0,0,0-.62,2.75h3.91a10.35,10.35,0,0,0-.1-1.55,4.34,4.34,0,0,0-.31-1.16,2,2,0,0,0-.55-.73A1.34,1.34,0,0,0,21.42,92.53Z" transform="translate(0 0)"/><path d="M32.84,103.69a9.67,9.67,0,0,1-2.09-.19,4.57,4.57,0,0,1-1.42-.56,2.17,2.17,0,0,1-1-1.88,1.56,1.56,0,0,1,.22-.89,1.52,1.52,0,0,1,.54-.53,2.12,2.12,0,0,1,.69-.25,4,4,0,0,1,.66-.06,4.14,4.14,0,0,0,.18,1.27,2.72,2.72,0,0,0,.49,1,2.24,2.24,0,0,0,.77.6,2.33,2.33,0,0,0,1,.21,3.73,3.73,0,0,0,1-.12,2.08,2.08,0,0,0,.7-.34,1.36,1.36,0,0,0,.4-.5,1.31,1.31,0,0,0,.13-.59,1.46,1.46,0,0,0-.14-.67,1.71,1.71,0,0,0-.45-.55,4.16,4.16,0,0,0-.86-.5,12.66,12.66,0,0,0-1.33-.53,12.56,12.56,0,0,1-1.62-.68,4.83,4.83,0,0,1-1.18-.82,3.12,3.12,0,0,1-.73-1,3.62,3.62,0,0,1-.25-1.36,3.44,3.44,0,0,1,.35-1.58,3.12,3.12,0,0,1,1-1.12,4.43,4.43,0,0,1,1.53-.66,8.18,8.18,0,0,1,2-.23,7.82,7.82,0,0,1,1.82.19,4.15,4.15,0,0,1,1.23.48,1.85,1.85,0,0,1,.69.67,1.46,1.46,0,0,1,.23.76,1.34,1.34,0,0,1-.54,1.16,3,3,0,0,1-1.77.4,2.74,2.74,0,0,0-.5-1.75,1.8,1.8,0,0,0-1.49-.63,2.69,2.69,0,0,0-.7.09,1.78,1.78,0,0,0-.59.27,1.45,1.45,0,0,0-.39.43,1.24,1.24,0,0,0-.15.62,1.51,1.51,0,0,0,.13.65,1.75,1.75,0,0,0,.49.55,5.32,5.32,0,0,0,.95.52,16.18,16.18,0,0,0,1.52.58,9.73,9.73,0,0,1,1.38.61,4.78,4.78,0,0,1,1.1.77,3.28,3.28,0,0,1,.71,1,3.08,3.08,0,0,1,.25,1.28,4.13,4.13,0,0,1-.32,1.68,3.36,3.36,0,0,1-1,1.25,4.54,4.54,0,0,1-1.54.77A7.41,7.41,0,0,1,32.84,103.69Z" transform="translate(0 0)"/><path d="M45.32,103.69a7.48,7.48,0,0,1-2.28-.32,4.1,4.1,0,0,1-1.77-1.06,4.78,4.78,0,0,1-1.15-1.93,9.13,9.13,0,0,1-.41-2.92,9.49,9.49,0,0,1,.42-3.06,5.19,5.19,0,0,1,1.17-2,4.31,4.31,0,0,1,1.77-1.05,7.27,7.27,0,0,1,2.18-.32,9.25,9.25,0,0,1,1.93.18,5.14,5.14,0,0,1,1.41.51,2.42,2.42,0,0,1,.85.75,1.63,1.63,0,0,1,.29.94,2.16,2.16,0,0,1-.12.71,1.54,1.54,0,0,1-.45.61,2.52,2.52,0,0,1-.9.43,5.29,5.29,0,0,1-1.45.17,10,10,0,0,0-.07-1.12,3.94,3.94,0,0,0-.24-.93,1.64,1.64,0,0,0-.45-.63,1.05,1.05,0,0,0-.71-.24,1.67,1.67,0,0,0-.89.24,1.92,1.92,0,0,0-.67.81A5.41,5.41,0,0,0,43.35,95a16,16,0,0,0-.15,2.4,7.34,7.34,0,0,0,.63,3.44A2.15,2.15,0,0,0,45.88,102a4.31,4.31,0,0,0,1.1-.13,3.51,3.51,0,0,0,.93-.39,3.58,3.58,0,0,0,.74-.58,3.21,3.21,0,0,0,.51-.73,1,1,0,0,1,.41.45,1.34,1.34,0,0,1,.13.59,1.7,1.7,0,0,1-.25.87,2.4,2.4,0,0,1-.79.8,4.59,4.59,0,0,1-1.37.59A7.59,7.59,0,0,1,45.32,103.69Z" transform="translate(0 0)"/><path d="M58.57,103.47H51v-1.2h.06a3.92,3.92,0,0,0,.71-.06,1.23,1.23,0,0,0,.55-.22,1.14,1.14,0,0,0,.36-.49,2.49,2.49,0,0,0,.13-.85V94.09a2.21,2.21,0,0,0-.12-.8,1,1,0,0,0-.33-.47,1.24,1.24,0,0,0-.51-.22,4.61,4.61,0,0,0-.68,0h-.06v-1.2H55.7l.45,1.77h.11a4.94,4.94,0,0,1,.49-.89,2.26,2.26,0,0,1,.63-.64,2.87,2.87,0,0,1,.87-.38,5.25,5.25,0,0,1,1.2-.13,3.34,3.34,0,0,1,2,.47,1.61,1.61,0,0,1,.63,1.37,1.91,1.91,0,0,1-.75,1.61,3.45,3.45,0,0,1-2.12.57,6.27,6.27,0,0,0,0-.81A2.06,2.06,0,0,0,59,93.7a1,1,0,0,0-.34-.35,1.13,1.13,0,0,0-.54-.12,1.12,1.12,0,0,0-.68.2,1.71,1.71,0,0,0-.49.51,3.07,3.07,0,0,0-.32.71,4.68,4.68,0,0,0-.2.8,7.76,7.76,0,0,0-.1.77c0,.24,0,.45,0,.63v3.91a2.21,2.21,0,0,0,.12.8,1.07,1.07,0,0,0,.33.46,1.16,1.16,0,0,0,.51.2,4,4,0,0,0,.62,0h.73Z" transform="translate(0 0)"/><path d="M63,102.27a3.5,3.5,0,0,0,.54,0,1.44,1.44,0,0,0,.52-.2,1.24,1.24,0,0,0,.39-.45,1.55,1.55,0,0,0,.16-.77V93.93a1.37,1.37,0,0,0-.16-.72,1.16,1.16,0,0,0-.4-.42,1.4,1.4,0,0,0-.53-.19,3.26,3.26,0,0,0-.52,0h-.26v-1.2h5.31v9.45a1.55,1.55,0,0,0,.16.77,1.24,1.24,0,0,0,.39.45,1.42,1.42,0,0,0,.53.2,3.49,3.49,0,0,0,.53,0H70v1.2H62.78v-1.2Zm1.29-14.59a1.72,1.72,0,0,1,.15-.74,1.43,1.43,0,0,1,.41-.5,1.92,1.92,0,0,1,.61-.29,3.13,3.13,0,0,1,1.49,0,2,2,0,0,1,.62.29,1.49,1.49,0,0,1,.43.5,1.72,1.72,0,0,1,.16.74,1.64,1.64,0,0,1-.16.73,1.43,1.43,0,0,1-.43.51,2,2,0,0,1-.62.3,2.83,2.83,0,0,1-1.49,0,1.93,1.93,0,0,1-.61-.3,1.38,1.38,0,0,1-.41-.51A1.64,1.64,0,0,1,64.33,87.68Z" transform="translate(0 0)"/><path d="M77.45,101.87a5.63,5.63,0,0,0,.84-.06,7.31,7.31,0,0,0,.76-.15v1.47a4.36,4.36,0,0,1-.48.19,4.87,4.87,0,0,1-.71.18,8.82,8.82,0,0,1-.91.14,9.46,9.46,0,0,1-1.1,0,4.91,4.91,0,0,1-1.38-.18,2.41,2.41,0,0,1-1-.61,2.68,2.68,0,0,1-.66-1.1,5,5,0,0,1-.24-1.67V92.9h-1.7V91.74a2.93,2.93,0,0,0,1.31-.29,3,3,0,0,0,.91-.66,4.72,4.72,0,0,0,1-2.25H76v2.81h2.89V92.9H76v7a2.59,2.59,0,0,0,.35,1.5A1.33,1.33,0,0,0,77.45,101.87Z" transform="translate(0 0)"/><path d="M86,92.44a1.33,1.33,0,0,0-.72.18,1.44,1.44,0,0,0-.47.51,2.49,2.49,0,0,0-.25.77,6,6,0,0,0-.07,1,5.83,5.83,0,0,1-2.29-.34,1.19,1.19,0,0,1-.77-1.17,1.58,1.58,0,0,1,.37-1.06,2.83,2.83,0,0,1,1-.72,6,6,0,0,1,1.48-.4,11.59,11.59,0,0,1,1.81-.13,9.13,9.13,0,0,1,2.08.21,3.72,3.72,0,0,1,1.48.65,2.88,2.88,0,0,1,.89,1.19,4.75,4.75,0,0,1,.3,1.79v5.77a3.31,3.31,0,0,0,.07.77,1.07,1.07,0,0,0,.23.49.83.83,0,0,0,.41.26,2.38,2.38,0,0,0,.64.08h.09v1.2h-4.2l-.48-1.55h-.2c-.25.3-.48.56-.7.79a3.31,3.31,0,0,1-.71.55,2.79,2.79,0,0,1-.85.33,5.13,5.13,0,0,1-1.11.1,4.18,4.18,0,0,1-1.39-.22,2.9,2.9,0,0,1-1.13-.68,3.06,3.06,0,0,1-.75-1.14,4.28,4.28,0,0,1-.28-1.63,3.11,3.11,0,0,1,1.26-2.73,7.06,7.06,0,0,1,3.81-1l1.85-.07V95c0-.38,0-.73,0-1a2.67,2.67,0,0,0-.19-.82,1.24,1.24,0,0,0-.42-.53A1.3,1.3,0,0,0,86,92.44Zm-2,7.67a2.69,2.69,0,0,0,.31,1.45,1.06,1.06,0,0,0,1,.49,1.91,1.91,0,0,0,1.55-.78,2.79,2.79,0,0,0,.43-.92,4.35,4.35,0,0,0,.15-1.19v-1.7l-1,.06a3.61,3.61,0,0,0-1.14.22,1.83,1.83,0,0,0-.74.5,1.93,1.93,0,0,0-.4.78A4.37,4.37,0,0,0,84,100.11Z" transform="translate(0 0)"/><path d="M21.25,119.58a1.39,1.39,0,0,0-.73.18,1.37,1.37,0,0,0-.47.51,2.4,2.4,0,0,0-.24.77,6,6,0,0,0-.08,1,5.86,5.86,0,0,1-2.29-.34,1.19,1.19,0,0,1-.76-1.17,1.62,1.62,0,0,1,.36-1.06,2.64,2.64,0,0,1,1-.72,5.9,5.9,0,0,1,1.48-.4,11.37,11.37,0,0,1,1.8-.13,9.88,9.88,0,0,1,2.09.2,4,4,0,0,1,1.48.66,2.72,2.72,0,0,1,.88,1.19,4.75,4.75,0,0,1,.3,1.79v5.77a4,4,0,0,0,.07.77,1.18,1.18,0,0,0,.23.49.82.82,0,0,0,.42.26,2.38,2.38,0,0,0,.64.08h.09v1.2H23.32l-.47-1.56h-.2a9.91,9.91,0,0,1-.71.79,3.13,3.13,0,0,1-.71.56,2.83,2.83,0,0,1-.84.33,5.13,5.13,0,0,1-1.11.1,4.24,4.24,0,0,1-1.4-.22,3,3,0,0,1-1.12-.68,3.12,3.12,0,0,1-.76-1.15,4.45,4.45,0,0,1-.27-1.63A3.1,3.1,0,0,1,17,124.43a7,7,0,0,1,3.8-1l1.86-.07v-1.25c0-.37,0-.72,0-1a3,3,0,0,0-.18-.81,1.14,1.14,0,0,0-.43-.53A1.27,1.27,0,0,0,21.25,119.58Zm-2,7.66a2.71,2.71,0,0,0,.31,1.46,1.05,1.05,0,0,0,1,.49,1.81,1.81,0,0,0,.87-.21,1.89,1.89,0,0,0,.68-.58,2.65,2.65,0,0,0,.43-.91,4.48,4.48,0,0,0,.15-1.2v-1.7l-1,.07a3.5,3.5,0,0,0-1.13.21,1.84,1.84,0,0,0-.74.51,1.81,1.81,0,0,0-.4.78A4.35,4.35,0,0,0,19.24,127.24Z" transform="translate(0 0)"/><path d="M34.93,130.83a7.48,7.48,0,0,1-2.28-.32,4.2,4.2,0,0,1-1.77-1.06,4.85,4.85,0,0,1-1.15-1.93,8.92,8.92,0,0,1-.41-2.93,9.57,9.57,0,0,1,.42-3.06,5.22,5.22,0,0,1,1.17-2,4.33,4.33,0,0,1,1.77-1.06,7.27,7.27,0,0,1,2.18-.31,9.25,9.25,0,0,1,1.93.18,5.15,5.15,0,0,1,1.41.5,2.54,2.54,0,0,1,.85.76,1.6,1.6,0,0,1,.29.93,2.22,2.22,0,0,1-.12.72,1.54,1.54,0,0,1-.45.61,2.52,2.52,0,0,1-.9.43,5.33,5.33,0,0,1-1.45.16,9.87,9.87,0,0,0-.07-1.11,3.94,3.94,0,0,0-.24-.93,1.64,1.64,0,0,0-.45-.63,1.05,1.05,0,0,0-.71-.24,1.67,1.67,0,0,0-.89.24,1.85,1.85,0,0,0-.67.81,5.33,5.33,0,0,0-.43,1.53,16.11,16.11,0,0,0-.15,2.41,7.34,7.34,0,0,0,.63,3.44,2.17,2.17,0,0,0,2.05,1.13,3.9,3.9,0,0,0,1.1-.14,3.86,3.86,0,0,0,.93-.38,3.31,3.31,0,0,0,.74-.59,3,3,0,0,0,.51-.72,1,1,0,0,1,.41.45,1.31,1.31,0,0,1,.13.59,1.73,1.73,0,0,1-.25.87,2.6,2.6,0,0,1-.79.8,4.86,4.86,0,0,1-1.37.59A7.59,7.59,0,0,1,34.93,130.83Z" transform="translate(0 0)"/><path d="M46.71,119.58a1.33,1.33,0,0,0-.72.18,1.22,1.22,0,0,0-.47.51,2.4,2.4,0,0,0-.25.77,6,6,0,0,0-.07,1,5.92,5.92,0,0,1-2.3-.34,1.19,1.19,0,0,1-.76-1.17,1.58,1.58,0,0,1,.37-1.06,2.53,2.53,0,0,1,1-.72,6,6,0,0,1,1.48-.4,11.59,11.59,0,0,1,1.81-.13,9.78,9.78,0,0,1,2.08.2,4,4,0,0,1,1.48.66,2.82,2.82,0,0,1,.89,1.19,4.75,4.75,0,0,1,.3,1.79v5.77a3.37,3.37,0,0,0,.07.77,1.17,1.17,0,0,0,.22.49.91.91,0,0,0,.42.26,2.38,2.38,0,0,0,.64.08H53v1.2H48.78l-.47-1.56h-.2a8.29,8.29,0,0,1-.71.79,3.31,3.31,0,0,1-.7.56,2.79,2.79,0,0,1-.85.33,5.13,5.13,0,0,1-1.11.1,4.18,4.18,0,0,1-1.39-.22,3,3,0,0,1-1.13-.68,3.25,3.25,0,0,1-.76-1.15,4.45,4.45,0,0,1-.27-1.63,3.1,3.1,0,0,1,1.26-2.72,7.06,7.06,0,0,1,3.81-1l1.85-.07v-1.25c0-.37,0-.72,0-1a2.68,2.68,0,0,0-.19-.81,1.14,1.14,0,0,0-.43-.53A1.25,1.25,0,0,0,46.71,119.58Zm-2,7.66A2.71,2.71,0,0,0,45,128.7a1.05,1.05,0,0,0,1,.49,1.84,1.84,0,0,0,.88-.21,1.94,1.94,0,0,0,.67-.58,2.65,2.65,0,0,0,.43-.91,4.48,4.48,0,0,0,.15-1.2v-1.7l-1,.07a3.62,3.62,0,0,0-1.14.21,1.84,1.84,0,0,0-.74.51,1.81,1.81,0,0,0-.4.78A4.35,4.35,0,0,0,44.7,127.24Z" transform="translate(0 0)"/><path d="M66.11,127.83a1.81,1.81,0,0,0,.16.83,1.18,1.18,0,0,0,.41.47,1.45,1.45,0,0,0,.59.22,4.2,4.2,0,0,0,.72.06h.09v1.2H63.69l-.63-1.77h-.21a4.23,4.23,0,0,1-.58.83,3.06,3.06,0,0,1-.75.63,3.51,3.51,0,0,1-1,.39,4.44,4.44,0,0,1-1.2.14,4.86,4.86,0,0,1-2-.37A3.48,3.48,0,0,1,56,129.32a5.37,5.37,0,0,1-.9-1.94,11.58,11.58,0,0,1-.3-2.81,11.75,11.75,0,0,1,.3-2.83,5.66,5.66,0,0,1,.89-2,3.67,3.67,0,0,1,1.44-1.16,4.73,4.73,0,0,1,1.94-.38,4.47,4.47,0,0,1,1.15.14,3.92,3.92,0,0,1,.93.37,3.47,3.47,0,0,1,.74.57,4.81,4.81,0,0,1,.55.73h.15c0-.42-.06-.81-.09-1.18,0-.15,0-.31,0-.47s0-.32,0-.46,0-.27,0-.38V116a1.6,1.6,0,0,0-.15-.74,1,1,0,0,0-.4-.43,1.72,1.72,0,0,0-.58-.18,5.27,5.27,0,0,0-.71,0h-.17v-1.19h5.44Zm-5.76,1.31a2,2,0,0,0,1.12-.28,2,2,0,0,0,.71-.85,5.15,5.15,0,0,0,.39-1.45,16.87,16.87,0,0,0,.11-2,16.65,16.65,0,0,0-.11-2,5.24,5.24,0,0,0-.39-1.45,2.1,2.1,0,0,0-.71-.9,2,2,0,0,0-1.12-.3,1.58,1.58,0,0,0-1,.3,2.08,2.08,0,0,0-.65.9,5.83,5.83,0,0,0-.37,1.47,16.53,16.53,0,0,0-.11,2,9.38,9.38,0,0,0,.48,3.45A1.66,1.66,0,0,0,60.35,129.14Z" transform="translate(0 0)"/><path d="M75.32,130.83a7,7,0,0,1-2.53-.42A4.73,4.73,0,0,1,71,129.2a5.07,5.07,0,0,1-1.12-1.95,8.55,8.55,0,0,1-.37-2.64,9.43,9.43,0,0,1,.37-2.79,5.54,5.54,0,0,1,1.09-2,4.48,4.48,0,0,1,1.77-1.21,6.47,6.47,0,0,1,2.37-.4,6.61,6.61,0,0,1,2.21.35,4.32,4.32,0,0,1,1.67,1,4.45,4.45,0,0,1,1,1.7,7.09,7.09,0,0,1,.36,2.36v1.16H72.94a9.56,9.56,0,0,0,.25,2,4.27,4.27,0,0,0,.6,1.34,2.27,2.27,0,0,0,.93.79,2.91,2.91,0,0,0,1.25.25,3.71,3.71,0,0,0,1.08-.14,3.64,3.64,0,0,0,.9-.38,3.14,3.14,0,0,0,.71-.59,3.2,3.2,0,0,0,.5-.72,1.15,1.15,0,0,1,.61,1.1,1.76,1.76,0,0,1-.27.93,2.21,2.21,0,0,1-.81.76,4.86,4.86,0,0,1-1.39.53A8.22,8.22,0,0,1,75.32,130.83ZM71.2,116.61l.62-.74q.36-.42.72-.87c.23-.3.45-.59.66-.89a6,6,0,0,0,.5-.82h3a5.87,5.87,0,0,0,.49.82c.21.3.44.59.67.89s.47.59.71.87l.62.74v.3H77.67l-.55-.44-.66-.53-.67-.56-.58-.5-.58.5-.66.56-.66.53-.54.44H71.2Zm3.91,3.06a1.69,1.69,0,0,0-1.51.94,5.86,5.86,0,0,0-.61,2.75H76.9a11.87,11.87,0,0,0-.1-1.55,4.22,4.22,0,0,0-.32-1.16,1.74,1.74,0,0,0-.55-.73A1.31,1.31,0,0,0,75.11,119.67Z" transform="translate(0 0)"/><path d="M90.78,130.61v-7.44a7.23,7.23,0,0,0-.1-1.3,2.87,2.87,0,0,0-.3-1,1.65,1.65,0,0,0-.57-.6,1.68,1.68,0,0,0-.84-.2,1.5,1.5,0,0,0-.94.29,2,2,0,0,0-.6.77,4.26,4.26,0,0,0-.33,1.11,8.16,8.16,0,0,0-.1,1.33v4.32a2,2,0,0,0,.12.76,1,1,0,0,0,.32.45,1.29,1.29,0,0,0,.52.21,4.61,4.61,0,0,0,.68,0h.06v1.2H81.76v-1.2h0a5.16,5.16,0,0,0,.71,0,1.35,1.35,0,0,0,.55-.22,1,1,0,0,0,.37-.47,2.09,2.09,0,0,0,.14-.82v-6.76a2,2,0,0,0-.12-.76,1.1,1.1,0,0,0-.33-.45,1.31,1.31,0,0,0-.51-.21,4.61,4.61,0,0,0-.68,0h-.06v-1.13h4.75l.29,1.61H87a4.06,4.06,0,0,1,.73-1,2.72,2.72,0,0,1,.81-.57,3.17,3.17,0,0,1,.91-.26c.32,0,.66,0,1,0a4.65,4.65,0,0,1,2.13.45,2.64,2.64,0,0,1,1.29,1.45h.2a3.85,3.85,0,0,1,.75-1,2.93,2.93,0,0,1,.86-.57,3.41,3.41,0,0,1,1-.26c.33,0,.68,0,1,0a4.54,4.54,0,0,1,1.57.25,2.9,2.9,0,0,1,1.18.79,3.49,3.49,0,0,1,.73,1.35,6.74,6.74,0,0,1,.25,2v5.25a3.11,3.11,0,0,0,.1.84,1,1,0,0,0,.28.48.9.9,0,0,0,.47.22,3.4,3.4,0,0,0,.67.06H103v1.2H98v-7.44a5.21,5.21,0,0,0-.4-2.25,1.45,1.45,0,0,0-1.4-.8,1.6,1.6,0,0,0-.91.26,2,2,0,0,0-.61.7,3.78,3.78,0,0,0-.35,1,7.18,7.18,0,0,0-.11,1.25v4.45a2.75,2.75,0,0,0,.1.84,1,1,0,0,0,.28.48.9.9,0,0,0,.47.22,3.37,3.37,0,0,0,.68.06h.06v1.2Z" transform="translate(0 0)"/><path d="M104.25,129.41a3.5,3.5,0,0,0,.54,0,1.35,1.35,0,0,0,.51-.21,1.14,1.14,0,0,0,.4-.44,1.55,1.55,0,0,0,.16-.77v-6.87a1.37,1.37,0,0,0-.16-.72,1.16,1.16,0,0,0-.4-.42,1.42,1.42,0,0,0-.53-.2,3.2,3.2,0,0,0-.52,0H104v-1.2h5.32v9.45a1.55,1.55,0,0,0,.16.77,1.12,1.12,0,0,0,.39.44,1.44,1.44,0,0,0,.53.21,3.49,3.49,0,0,0,.53,0h.26v1.2H104v-1.2Zm1.29-14.59a1.68,1.68,0,0,1,.15-.74,1.35,1.35,0,0,1,.41-.5,1.65,1.65,0,0,1,.61-.29,3.13,3.13,0,0,1,1.49,0,1.77,1.77,0,0,1,.62.29,1.4,1.4,0,0,1,.43.5,1.77,1.77,0,0,1,0,1.47,1.43,1.43,0,0,1-.43.51,2,2,0,0,1-.62.3,3.13,3.13,0,0,1-1.49,0,1.83,1.83,0,0,1-.61-.3,1.38,1.38,0,0,1-.41-.51A1.67,1.67,0,0,1,105.54,114.82Z" transform="translate(0 0)"/><path d="M118.23,130.83a7.48,7.48,0,0,1-2.28-.32,4.2,4.2,0,0,1-1.77-1.06,4.85,4.85,0,0,1-1.15-1.93,9.2,9.2,0,0,1-.41-2.93,9.57,9.57,0,0,1,.42-3.06,5.22,5.22,0,0,1,1.17-2,4.33,4.33,0,0,1,1.77-1.06,7.27,7.27,0,0,1,2.18-.31,9.25,9.25,0,0,1,1.93.18,5.15,5.15,0,0,1,1.41.5,2.54,2.54,0,0,1,.85.76,1.6,1.6,0,0,1,.29.93,2.22,2.22,0,0,1-.12.72,1.54,1.54,0,0,1-.45.61,2.52,2.52,0,0,1-.9.43,5.33,5.33,0,0,1-1.45.16,9.87,9.87,0,0,0-.07-1.11,3.94,3.94,0,0,0-.24-.93,1.64,1.64,0,0,0-.45-.63,1.05,1.05,0,0,0-.71-.24,1.67,1.67,0,0,0-.89.24,1.92,1.92,0,0,0-.67.81,5.33,5.33,0,0,0-.43,1.53,16.11,16.11,0,0,0-.15,2.41,7.34,7.34,0,0,0,.63,3.44,2.17,2.17,0,0,0,2.05,1.13,3.9,3.9,0,0,0,1.1-.14,3.86,3.86,0,0,0,.93-.38,3.31,3.31,0,0,0,.74-.59,3,3,0,0,0,.51-.72,1,1,0,0,1,.41.45,1.31,1.31,0,0,1,.13.59,1.73,1.73,0,0,1-.25.87,2.5,2.5,0,0,1-.79.8,4.86,4.86,0,0,1-1.37.59A7.59,7.59,0,0,1,118.23,130.83Z" transform="translate(0 0)"/><path d="M130,119.58a1.33,1.33,0,0,0-.72.18,1.22,1.22,0,0,0-.47.51,2.4,2.4,0,0,0-.25.77,6,6,0,0,0-.07,1,5.83,5.83,0,0,1-2.29-.34,1.19,1.19,0,0,1-.77-1.17,1.58,1.58,0,0,1,.37-1.06,2.61,2.61,0,0,1,1-.72,6,6,0,0,1,1.48-.4,11.59,11.59,0,0,1,1.81-.13,9.78,9.78,0,0,1,2.08.2,3.88,3.88,0,0,1,1.48.66,2.82,2.82,0,0,1,.89,1.19,4.75,4.75,0,0,1,.3,1.79v5.77a3.37,3.37,0,0,0,.07.77,1.17,1.17,0,0,0,.22.49.91.91,0,0,0,.42.26,2.38,2.38,0,0,0,.64.08h.09v1.2h-4.2l-.48-1.56h-.2a9.94,9.94,0,0,1-.7.79,3.64,3.64,0,0,1-.71.56,2.79,2.79,0,0,1-.85.33,5.13,5.13,0,0,1-1.11.1,4.18,4.18,0,0,1-1.39-.22,3,3,0,0,1-1.13-.68,3.11,3.11,0,0,1-.75-1.15,4.25,4.25,0,0,1-.28-1.63,3.1,3.1,0,0,1,1.26-2.72,7.06,7.06,0,0,1,3.81-1l1.85-.07v-1.25c0-.37,0-.72,0-1a2.68,2.68,0,0,0-.19-.81,1.19,1.19,0,0,0-.42-.53A1.3,1.3,0,0,0,130,119.58Zm-2,7.66a2.71,2.71,0,0,0,.31,1.46,1.06,1.06,0,0,0,1,.49,1.84,1.84,0,0,0,.88-.21,1.94,1.94,0,0,0,.67-.58,2.65,2.65,0,0,0,.43-.91,4.48,4.48,0,0,0,.15-1.2v-1.7l-1,.07a3.62,3.62,0,0,0-1.14.21,1.84,1.84,0,0,0-.74.51,1.93,1.93,0,0,0-.4.78A4.35,4.35,0,0,0,128,127.24Z" transform="translate(0 0)"/><path class="cls-5" d="M173.23,32.71c.06-2.44.06-2.49-.52-2.88a1.07,1.07,0,0,0-.8-.24,18.35,18.35,0,0,1-3,.17,9.65,9.65,0,0,1-3.87-.38c-1.32-.5-1.36-.7-.85-3.61.29-1.65.19-1.93-1.07-2.66-1-.6-1-.61-1-1.94,0-.71-.06-1.9-.11-2.6s-.15-2.26-.24-3.48a21.82,21.82,0,0,0-.26-2.41,2.81,2.81,0,0,0-1.38,0c-1.36.16-1.32.19-1.25-1.27a2.52,2.52,0,0,0-.3-1.26c-.3-.4-.42-.42-1.5-.14-1.69.44-1.9.21-1.6-1.67.21-1.33.19-1.46-.26-1.83a4.4,4.4,0,0,0-1.68-.54c-1.55-.21-2-.82-1.78-2.56.07-.68,0-3.34-.2-3.34s-2.88-.15-3.14.13c-.46.49-.65.5-4.64.47l-4.16,0S138,.1,137.66.33c-.59.36-3.22.38-43,.24C51.56.43,38.61.34,18.43.1,8.67,0,7,0,6.56.29A9.43,9.43,0,0,1,3.77.8C1.54,1,1.49,1,1.05,1.7A3.08,3.08,0,0,0,.6,2.8a1,1,0,0,1-.37.68c-.33.28-.31.35.11.66S.81,4.82.82,9c0,2.49.07,8.56.13,13.49S1.1,43.39,1.17,58s.19,33.81.25,42.75.17,18.66.24,44.42.21,46.92.31,47.06a2.91,2.91,0,0,1,.35.89c.16.63.21.66,1.26.59l1.1-.09.1,1.59c.16,2,.45,2.23,2.56,1.76.44-.1.59,1,.23,1.66a1.1,1.1,0,0,0,1.51,1.53,2.41,2.41,0,0,1,.75-.37c.25,0,1,1.33,1,1.75a1.09,1.09,0,0,0,.54.68c.52.35,2.25.43,14,.73,2.18.05,4.37.14,4.88.19,3.74.37,17.11.65,18.59.37a9.53,9.53,0,0,1,2.2.07,4.44,4.44,0,0,0,2.46-.18c.8-.31,1.3-.33,3.24-.12,2.35.24,9.45.31,13.37.14a10.8,10.8,0,0,1,2.58.1c.52.28,1.5.3,7.06.11,6.41-.23,6.25-.23,8.14,0a22.94,22.94,0,0,0,3.71.14l2.91-.1c.45,0,1.34,0,2,0,1.44,0,4.18-.05,8.14-.28,3.43-.19,11.36-.19,17.17,0a19.9,19.9,0,0,0,4.72-.14,6.76,6.76,0,0,1,3,0c1.24.14,3.66.31,5.38.38,2.93.09,4.69.11,13.83,0,1.91,0,3.95,0,4.53,0,3.94.21,6.66.06,7.67-.45a4.76,4.76,0,0,0,1-.66,19.22,19.22,0,0,0-.11-2.9c-.28-3.48-.17-21.75-.07-32.12.09-8.68-.06-16.34,0-20.79,0-.25-.19,11.7,0,4s.17-17.18,0-22.08-.18-21.81,0-22.08a5.07,5.07,0,0,0,.14-1.31,4.4,4.4,0,0,1,.48-1.9c.42-.68.44-.91.21-2.2-.14-.8-.38-2.8-.54-4.46-.36-3.8-.31-16.31.05-17.45l.27-.8h1.81c1.76,0,1.83,0,1.93-.57a5,5,0,0,0-.05-1.47,23.13,23.13,0,0,1,0-3.76c.14-2.49.1-3-.23-3.56s-.45-.64-1.88-.59c-2.16.1-2.14.14-2.16-7s0-7,2.26-7.28a14.24,14.24,0,0,1,4.88.29c.35.12.68,0,1.28-.49s.76-.71.5-1.27a11.93,11.93,0,0,1-.14-3.68,14,14,0,0,0,0-3.27c-.52-.67-1.66-.75-4.86-.44-1.78.18-3.37.3-3.54.26-.51-.1-.68-4-.3-6.34a2.82,2.82,0,0,1,1.5-.26,13.75,13.75,0,0,0,2.91-.44,6.7,6.7,0,0,1,3-.22c2.18.24,3.52.19,3.94-.16s.31-.56.16-1.69A31.26,31.26,0,0,1,173.23,32.71ZM159,14.55a1.46,1.46,0,0,1,.82-.38c.37,0,.43.24.52,1.79,0,1,0,3.09,0,4.65-.09,2.6-.14,2.85-.54,2.85a.87.87,0,0,1-.7-.65,26,26,0,0,1-.38-4.25C158.58,15.37,158.61,14.9,159,14.55Zm-3.83-2.81a5,5,0,0,1,1.06-.17l.92-.09,0,5.75.06,5.75h-.93c-.54,0-1-.12-1-.27C155.11,22.22,155,11.83,155.13,11.74ZM154.9,33c.1-.42.36-.61.94-.73a2.32,2.32,0,0,1,1-.07c.36.22.43,2.63.56,18.52,0,9.17.17,16.95.24,17.26a1.05,1.05,0,0,1-.14.92,2.1,2.1,0,0,1-2.35,0c-.26-.32-.32-3.45-.33-17.85C154.76,41.42,154.81,33.3,154.9,33Zm-3.8,41.52s.1-14.17.17-31.43c.14-28.74.21-33.36.53-34.91.15-.8,1-.68,1.36.21s.45,14,.47,59.57V95.14l-.93-.07a4.4,4.4,0,0,1-1.27-.28c-.31-.17-.35-1.55-.35-10.21C151.08,79.05,151.08,74.52,151.1,74.51ZM4.4,191.71l-.75-.14,0-3.4c0-1.86,0-7-.12-11.41-.16-7.51-.24-1.08-.54-58.84-.14-28-.24-45.16-.44-72.38-.08-11.45-.19-21.35-.22-22a5.18,5.18,0,0,1,0-1.3c.06,0,.13-2.58.18-5.65.16-10.06.33-14.07.59-14.34s.44-.18.91,0a5.5,5.5,0,0,0,2.26,0c2-.26,32.16.11,32.63.38.12.09,4.27.18,9.24.23,8.49.09,9.08.07,10.33-.37,1.07-.36,1.43-.4,1.83-.19a4.37,4.37,0,0,0,2.08.11c1-.11,1.62-.07,1.72.1s.86.19,2.18.11c1.12-.07,3.28-.16,4.81-.19s3.44-.14,4.24-.25c1.1-.14,1.53-.1,1.83.14s.42.25.7-.12,1.29-.44,28.86-.44c16,0,28.71.09,28.88.21a53.21,53.21,0,0,0,6.26.21,37.08,37.08,0,0,1,6.38.28,1,1,0,0,0,1,0c.37-.17.61-.17.78,0s.28,9.52.09,25.05c-.07,4.74-.1,8.87-.09,9.18.06.77.06,66.32,0,67.51,0,.52,0,3.24,0,6,.09,16-.48,77.85-.69,81.15a4.44,4.44,0,0,0,0,.8c.07.59,9.94.59-108.57,0-16.29-.07-29.71-.19-29.82-.26a21.44,21.44,0,0,0-3-.11A27.45,27.45,0,0,1,4.4,191.71Zm2.07,3.35a1.17,1.17,0,0,1,0-1.57c.26-.21,10.61-.24,44.56-.14,48.11.14,68.62.28,77.81.49,3.26.08,9.55.17,14,.19l8.07,0,.12-.81c.07-.44,0-4.41,0-8.82-.17-8.82-.21-17.76-.08-19.77s.12-12.29,0-15c-.05-1.27-.08,2.83-.07-13.73l0-30.06.56-.42a2.12,2.12,0,0,1,1.15-.43c.54,0,.62.1.73,1,.22,1.64,0,41.87-.25,45.59a69.33,69.33,0,0,0-.28,7.13c0,12.27-.08,24.71-.15,27.66s-.14,6.08-.16,7l0,1.62-1.4.16C148.73,195.41,6.8,195.3,6.47,195.06Zm148-2.39c-.3-1.31-.32-2.75-.13-12.9.09-4.91.18-11.76.2-15.21a49.43,49.43,0,0,1,.27-6.63c-.09-8.4.09-4,.27-10.26.44-15.71.12-31.19.22-34.4s.18-6.35.16-7a5.36,5.36,0,0,1,0-1.23l1.06-.14c.91-.11,1-.09.87.31-.07.23-.12,4.08-.1,8.56,0,10.54,0,47.3,0,52.44,0,2.18,0,9.95,0,17.27l.06,13.33-.82.33a9.2,9.2,0,0,1-2.36.49c-1.69.14-2.16-.12-1.25-.73a2.74,2.74,0,0,1,.77-.37C154.57,196.5,154.92,194.69,154.45,192.67ZM9.31,198l-.07-.59c0-.34,0-.65.12-.7a44.37,44.37,0,0,1,4.48-.16c2.37,0,5.82-.08,7.67-.14s13.27-.1,25.34-.08l22.54,0,28.11,0c34.25,0,49.92.1,51.59.43l2,.37c1.05.17,1,.47-.22.68-.54.08-9.52.21-19.94.28-20.45.12-24.21.17-32.47.41-4.5.14-5.68.11-7-.19-.88-.19-2.1-.43-2.74-.52-1.05-.16-9.38-.12-11.61,0-5.65.41-47.48.6-62.29.3Zm151.36-56.69c-.09,3.38-.14,10-.14,14.64.07,19.57.05,42.4,0,45.47,0,.24-.43.45-1.3.66-1.8.42-20.06.61-25,.26-3.52-.25-15-.51-22-.49-3.56,0-5.49.07-12.08.4-2.06.11-4.93.18-6.4.16-14.5-.25-19.92-.3-30.55-.37-6.78,0-14.52,0-17.2.14-5.67.25-15.1-.09-16-.56-.4-.22-2.65-.29-8.78-.33-5.72,0-8.41-.1-8.75-.29-.56-.3-.88-1.19-.47-1.33.15,0,2.52,0,5.26,0,5.61.09,11.92.13,24.4.13H56.14c8.39.06,21-.17,22.54-.4a66.92,66.92,0,0,1,9.19,0,17.26,17.26,0,0,1,4.09.75,87.35,87.35,0,0,0,9.15,0c3.07-.13,8.54-.14,9.19-.06a7,7,0,0,0,1.71-.26,8,8,0,0,1,2.31-.16c.54.07,3.52.13,6.66.13h17.08c6.75,0,12-.11,12.9-.25a35.47,35.47,0,0,1,4-.29c2.19,0,2.51-.09,3.2-.61l.77-.58-.19-2.32c-.11-1.29-.18-5-.14-8.26s0-7.91,0-10.33,0-10.55,0-18,0,1.32,0-3.28c0-11.91,0-13.06,0-19.4,0-3.14,0-8.21-.09-11.28-.26-11.17-.08-20.06.4-20.37a.85.85,0,0,1,1.35.41c.14.39.22,4.38.21,10.41,0,5.39.05,12,.15,14.68S160.76,137.9,160.67,141.28Zm-.12-38.9c-.23.07-.61.22-.88.31a18.21,18.21,0,0,1-7.09,1l-1.5-.16,0-3c0-3.54,0-3.74.68-3.9a24.73,24.73,0,0,1,6.1.09.62.62,0,0,0,.76,0,3,3,0,0,1,1.15-.25h.7l.28,2C161.16,101.59,161.12,102.2,160.55,102.38Zm-5.46-22.49c.07-.5.23-.63.94-.73a2.15,2.15,0,0,1,1.05.07c.5.45.76,7.58.47,13-.16,2.74-.18,2.84-.73,3-1.28.49-1.36.3-1.54-3.68C155.09,86.9,155,80.68,155.09,79.89Zm3.57,5.86a56,56,0,0,1,.2-6.63.84.84,0,0,1,.66-.59c.35,0,.49.25.64,1.1.19,1.13.14,14.9,0,15.23s-1.25.2-1.36-.12a9.94,9.94,0,0,1-.17-2.82C158.63,91.85,158.68,89.08,158.66,85.75Zm3.82-15.55a5.54,5.54,0,0,1,1.74.21c.32.19.37,2,.16,5.63l0,.87h-2a22.61,22.61,0,0,0-3.48.28,20,20,0,0,1-2.65.28l-1.15,0L155,74.31a14.62,14.62,0,0,1,.12-3.29A51.26,51.26,0,0,1,162.48,70.2Zm-2.32-24.8c.14.33,0,.38-.71.33l-.87-.09-.06-5.57c0-3.07-.1-5.79-.17-6a4.76,4.76,0,0,1,0-1.33c.07-.75.18-.85.84-.94a2.88,2.88,0,0,1,1,0c.45.18.47,2.35.09,9A39,39,0,0,0,160.16,45.4Zm-1.58,12.51c.07-2.79.07-2.85.59-2.85a1.89,1.89,0,0,1,.94.29c.37.28.4.84.37,6.1,0,3.19,0,6.15,0,6.57,0,.61-.09.79-.57.89a1,1,0,0,1-.82-.09,7.8,7.8,0,0,1-.33-2.52C158.52,61.64,158.51,60.68,158.58,57.91Zm3.19-10.73c2.91-.67,7.28-.49,7.33.29a32.29,32.29,0,0,1-.21,4l-.15,1.4-2,.14c-1.1.07-3.31.28-5,.43a23.92,23.92,0,0,1-3,.21,25.14,25.14,0,0,1-.19-2.94c-.13-3.19-.07-3.3,1.48-3.31A11.05,11.05,0,0,0,161.77,47.18Zm-1.62-16.72-3.84.23-1.29.09,0-2.32c-.06-3,.17-3.84,1-3.87a5.55,5.55,0,0,1,.88,0c.12,0,1.36.08,2.73.1a10.83,10.83,0,0,1,2.7.26,10.72,10.72,0,0,1,.3,2.79l.07,2.54Zm11.48,6.35a2.43,2.43,0,0,1-1.08.28c-.49,0-2.35.17-4.17.33a23.74,23.74,0,0,1-3.88.12c-.58-.14-.61-.23-.58-1.36a20.78,20.78,0,0,1,.3-2.74c.26-1.48.26-1.5,1.06-1.58a2.55,2.55,0,0,0,1.15-.37,3.8,3.8,0,0,1,1.45-.47c1.48-.21,5,.1,5.4.47S171.94,36.48,171.63,36.81Z" transform="translate(0 0)"/></g></g></svg>