<svg xmlns="http://www.w3.org/2000/svg" viewBox="0 0 447.86 45.39"><defs><style>.cls-1{isolation:isolate;}.cls-2{opacity:0.61;}.cls-2,.cls-35{mix-blend-mode:multiply;}.cls-10,.cls-11,.cls-12,.cls-13,.cls-14,.cls-15,.cls-16,.cls-17,.cls-18,.cls-19,.cls-20,.cls-21,.cls-22,.cls-23,.cls-24,.cls-25,.cls-26,.cls-27,.cls-28,.cls-29,.cls-3,.cls-30,.cls-31,.cls-32,.cls-33,.cls-34,.cls-36,.cls-4,.cls-5,.cls-6,.cls-7,.cls-8,.cls-9{fill:#fcee21;}.cls-3{opacity:0;}.cls-4{opacity:0.02;}.cls-5{opacity:0.05;}.cls-6{opacity:0.07;}.cls-7{opacity:0.09;}.cls-8{opacity:0.12;}.cls-9{opacity:0.14;}.cls-10{opacity:0.16;}.cls-11{opacity:0.19;}.cls-12{opacity:0.21;}.cls-13{opacity:0.23;}.cls-14{opacity:0.26;}.cls-15{opacity:0.28;}.cls-16{opacity:0.3;}.cls-17{opacity:0.33;}.cls-18{opacity:0.35;}.cls-19{opacity:0.37;}.cls-20{opacity:0.39;}.cls-21{opacity:0.42;}.cls-22{opacity:0.44;}.cls-23{opacity:0.46;}.cls-24{opacity:0.49;}.cls-25{opacity:0.51;}.cls-26{opacity:0.53;}.cls-27{opacity:0.56;}.cls-28{opacity:0.58;}.cls-29{opacity:0.6;}.cls-30{opacity:0.63;}.cls-31{opacity:0.65;}.cls-32{opacity:0.67;}.cls-33{opacity:0.7;}.cls-34{opacity:0.72;}.cls-35{opacity:0.45;}</style></defs><g class="cls-1"><g id="Camada_1" data-name="Camada 1"><g class="cls-2"><path class="cls-3" d="M448.34,20.2c.25-.31-.1-.58,0-.85a2.87,2.87,0,0,1,1.37-1.58,3.89,3.89,0,0,0,1.81-1.41,2.31,2.31,0,0,0-.6-2.86l0-1.05c.53-.29,1.86-.63,2.25-1.18.52-.74,0-1.43-.17-2.27-.35-2.52,2.24-3.07,0-5.31C450.61,1.27,448,.14,444.85.56c-1.68.22-3.36.33-5,.51-2.65.29-5.25,1.47-7.8,2.36A19.62,19.62,0,0,0,425.16,7a11,11,0,0,0-3.75,7.69,27.92,27.92,0,0,0,.86,5.89,29,29,0,0,1,.22,9c-.35,2.58-1,5.51.27,7.58s3.42,2.09,5.38,2.07l6-.06c1.76,0,3.83.36,5.54-.06a3.15,3.15,0,0,0,2.52-2.26,17.33,17.33,0,0,0,.1-3.31,10.13,10.13,0,0,1,1.21-3.66,9.43,9.43,0,0,1,1.76-2.77c.68-.65,1.61-1.13,1.81-2.17a6.11,6.11,0,0,0-.38-2.45c-.18-.82,0-2,.69-2.08C447.71,20.32,448.08,20.52,448.34,20.2Z" transform="translate(-12.12 0)"/><path class="cls-4" d="M425.67,6.91A11,11,0,0,0,422,14.65a10.29,10.29,0,0,0,0,1.11,45.6,45.6,0,0,0,.81,4.79,25.72,25.72,0,0,1,.33,2.64c.06.87.07,1.75.07,2.64s0,1.78-.12,2.67c0,.36-.08.71-.13,1.07s-.12.78-.18,1.18c-.12.83-.21,1.67-.26,2.49a11.88,11.88,0,0,0,0,1.79,5,5,0,0,0,.7,2.15,3.58,3.58,0,0,0,1,1.09,7.11,7.11,0,0,0,4.29.92l2.16,0,3.74-.06c1.72,0,3.72.27,5.39-.11a3.25,3.25,0,0,0,2.45-2.3,18.89,18.89,0,0,0,.11-3.29,6.19,6.19,0,0,1,.21-1.14,14,14,0,0,1,1-2.5c.16-.32.32-.64.49-1A7.26,7.26,0,0,1,445.32,27c.27-.26.58-.49.86-.75a2.58,2.58,0,0,0,.91-1.43,2.87,2.87,0,0,0,0-1.13c-.1-.44-.24-.87-.33-1.31a2.75,2.75,0,0,1,.07-1.37.92.92,0,0,1,.65-.67h.17c.27,0,.54.08.74-.18a.45.45,0,0,0,.09-.2c0-.23-.15-.44-.07-.65A2.83,2.83,0,0,1,449.41,18l.32-.2a3.86,3.86,0,0,0,1.8-1.41,2.31,2.31,0,0,0-.6-2.86l0-1.05c.53-.29,1.86-.63,2.25-1.18.52-.74,0-1.43-.17-2.27-.35-2.52,2.27-3.1,0-5.31-2.4-2.4-5-3.5-8.09-3.11-.94.11-1.88.19-2.82.27l-.35,0-1.78.17c-2.6.29-5.16,1.45-7.66,2.34A19.81,19.81,0,0,0,425.67,6.91Z" transform="translate(-12.12 0)"/><path class="cls-5" d="M426.19,6.84a11,11,0,0,0-3.67,7.77c0,.38,0,.75,0,1.12a46.16,46.16,0,0,0,.79,4.8,21.27,21.27,0,0,1,.3,2.65c.05.88,0,1.76,0,2.65s0,1.8-.11,2.69c0,.36-.09.72-.14,1.07s-.13.79-.19,1.19c-.12.84-.19,1.68-.24,2.51a10.75,10.75,0,0,0,0,1.79,4.87,4.87,0,0,0,.69,2.17,3.83,3.83,0,0,0,1,1.06,7.08,7.08,0,0,0,4.21.89l2.11,0,3.66-.07c1.68-.05,3.63.25,5.25-.16a3.26,3.26,0,0,0,2.37-2.34,20.85,20.85,0,0,0,.14-3.27,6.25,6.25,0,0,1,.21-1.13,13.5,13.5,0,0,1,1-2.48c.16-.32.32-.64.49-.95A7.23,7.23,0,0,1,445.37,27c.26-.26.56-.5.84-.76a2.54,2.54,0,0,0,.88-1.43,3,3,0,0,0-.06-1.12c-.1-.44-.24-.87-.32-1.31A2.66,2.66,0,0,1,446.8,21a.94.94,0,0,1,.65-.65h.18c.26,0,.51.05.71-.2a.42.42,0,0,0,.08-.2c0-.23-.14-.44-.05-.64A2.83,2.83,0,0,1,449.42,18l.32-.2a3.77,3.77,0,0,0,1.79-1.4,2.31,2.31,0,0,0-.6-2.86l0-1.05c.53-.29,1.86-.63,2.25-1.18.52-.74,0-1.43-.17-2.27-.35-2.52,2.27-3.1,0-5.31S448.21.24,445.16.59c-.93.11-1.85.18-2.78.25l-.34,0c-.58.05-1.17.1-1.75.17-2.56.27-5.07,1.43-7.52,2.32A19.61,19.61,0,0,0,426.19,6.84Z" transform="translate(-12.12 0)"/><path class="cls-6" d="M426.7,6.77a11,11,0,0,0-3.63,7.81,10.47,10.47,0,0,0,0,1.12,48.38,48.38,0,0,0,.75,4.8,22.17,22.17,0,0,1,.29,2.68c0,.88,0,1.76,0,2.66s0,1.81-.09,2.7c0,.37-.1.72-.15,1.08s-.14.79-.2,1.2c-.11.83-.16,1.69-.22,2.52a10.83,10.83,0,0,0-.05,1.79,4.84,4.84,0,0,0,.7,2.19,3.93,3.93,0,0,0,.95,1,7,7,0,0,0,4.12.85l2.08,0q1.78,0,3.57-.09c1.64-.06,3.54.22,5.11-.22a3.26,3.26,0,0,0,2.29-2.36,22,22,0,0,0,.17-3.26,6.14,6.14,0,0,1,.21-1.12,14.6,14.6,0,0,1,1-2.47c.16-.32.33-.64.5-.94A7.89,7.89,0,0,1,445.41,27c.27-.26.56-.5.83-.76a2.54,2.54,0,0,0,.84-1.44,3,3,0,0,0-.06-1.11c-.1-.44-.24-.87-.31-1.31a2.58,2.58,0,0,1,.11-1.33.94.94,0,0,1,.66-.63l.17,0c.26,0,.5,0,.69-.21a.42.42,0,0,0,.08-.2c0-.23-.13-.44,0-.64A2.82,2.82,0,0,1,449.43,18l.32-.2a3.86,3.86,0,0,0,1.78-1.4,2.31,2.31,0,0,0-.6-2.86l0-1.05c.53-.29,1.86-.63,2.25-1.18.52-.74,0-1.43-.17-2.27-.35-2.52,2.27-3.1,0-5.31S448.3.29,445.31.61c-.91.1-1.82.16-2.72.23l-.34,0L440.53,1c-2.51.27-5,1.41-7.39,2.3A19.82,19.82,0,0,0,426.7,6.77Z" transform="translate(-12.12 0)"/><path class="cls-7" d="M427.21,6.7a11,11,0,0,0-3.58,7.84c0,.38,0,.75,0,1.13.1,1.62.48,3.21.73,4.81a20.4,20.4,0,0,1,.26,2.69c0,.89-.05,1.76-.07,2.67s0,1.82-.09,2.73a9.51,9.51,0,0,1-.16,1.07c-.07.4-.14.8-.2,1.21-.11.84-.14,1.7-.21,2.54a12.2,12.2,0,0,0-.07,1.8,4.58,4.58,0,0,0,.71,2.19,3.78,3.78,0,0,0,.93,1,6.91,6.91,0,0,0,4,.81l2,0c1.16,0,2.33-.06,3.49-.11,1.6-.07,3.46.19,5-.27a3.32,3.32,0,0,0,2.22-2.4,26.61,26.61,0,0,0,.18-3.24,6.81,6.81,0,0,1,.22-1.11,14.07,14.07,0,0,1,1-2.46c.16-.31.33-.63.5-.93a8,8,0,0,1,1.29-1.73c.26-.26.55-.5.81-.77a2.54,2.54,0,0,0,.81-1.43,3.24,3.24,0,0,0-.07-1.12c-.1-.43-.23-.86-.3-1.3a2.54,2.54,0,0,1,.13-1.32.94.94,0,0,1,.66-.6.55.55,0,0,1,.18,0c.25,0,.48,0,.66-.23a.64.64,0,0,0,.08-.2c0-.23-.12-.44,0-.64A2.84,2.84,0,0,1,449.44,18l.32-.2a3.75,3.75,0,0,0,1.77-1.39,2.31,2.31,0,0,0-.6-2.86l0-1.05c.53-.29,1.86-.63,2.25-1.18.52-.74,0-1.43-.17-2.27-.35-2.52,2.27-3.1,0-5.31S448.39.34,445.46.63c-.89.08-1.78.14-2.67.2l-.33,0c-.57,0-1.13.09-1.69.15-2.47.27-4.88,1.39-7.25,2.28A19.82,19.82,0,0,0,427.21,6.7Z" transform="translate(-12.12 0)"/><path class="cls-8" d="M427.72,6.63a11.09,11.09,0,0,0-3.54,7.88,10.4,10.4,0,0,0,0,1.12c.09,1.63.45,3.23.7,4.83a19.06,19.06,0,0,1,.23,2.71c0,.89-.09,1.76-.11,2.68s0,1.83-.08,2.74c0,.36-.1.72-.17,1.08s-.15.8-.21,1.21c-.11.85-.12,1.71-.19,2.55a14.11,14.11,0,0,0-.1,1.81,4.43,4.43,0,0,0,.72,2.21,3.74,3.74,0,0,0,.91,1,6.87,6.87,0,0,0,4,.77l2-.05c1.14,0,2.28-.06,3.41-.12,1.57-.08,3.37.16,4.84-.32a3.33,3.33,0,0,0,2.13-2.44,28.54,28.54,0,0,0,.21-3.22,6,6,0,0,1,.23-1.1,13.57,13.57,0,0,1,1-2.44c.16-.32.33-.63.5-.93a8.32,8.32,0,0,1,1.29-1.72c.26-.25.55-.5.8-.76a2.54,2.54,0,0,0,.77-1.44,3.47,3.47,0,0,0-.07-1.11c-.1-.43-.23-.86-.29-1.29a2.48,2.48,0,0,1,.15-1.31,1,1,0,0,1,.67-.59l.17,0c.26,0,.47,0,.64-.25a.52.52,0,0,0,.08-.19c0-.23-.11-.44,0-.64a2.81,2.81,0,0,1,1.05-1.32l.32-.19a3.78,3.78,0,0,0,1.76-1.39,2.31,2.31,0,0,0-.6-2.86l0-1.05c.53-.29,1.86-.63,2.25-1.18.52-.74,0-1.43-.17-2.27-.35-2.52,2.27-3.1,0-5.31a9,9,0,0,0-7.48-3c-.87.07-1.75.12-2.62.17l-.33,0c-.55,0-1.1.08-1.66.14-2.41.26-4.78,1.38-7.1,2.27A19.49,19.49,0,0,0,427.72,6.63Z" transform="translate(-12.12 0)"/><path class="cls-9" d="M428.23,6.56a11.07,11.07,0,0,0-3.49,7.91c0,.38,0,.76,0,1.13.09,1.63.44,3.23.67,4.84a17.93,17.93,0,0,1,.21,2.73c0,.89-.12,1.76-.15,2.68s0,1.84-.07,2.76c0,.37-.11.73-.18,1.09s-.16.79-.22,1.21c-.11.86-.1,1.72-.17,2.57a14.3,14.3,0,0,0-.13,1.82,4.34,4.34,0,0,0,.73,2.21,3.92,3.92,0,0,0,.89,1,6.82,6.82,0,0,0,3.87.73l1.94-.05c1.11,0,2.23-.07,3.33-.14,1.53-.09,3.29.13,4.7-.38a3.33,3.33,0,0,0,2.05-2.46,30.89,30.89,0,0,0,.23-3.2,6.73,6.73,0,0,1,.24-1.1,13.82,13.82,0,0,1,1.05-2.43c.16-.31.32-.62.5-.92a8.88,8.88,0,0,1,1.3-1.7c.25-.26.53-.5.78-.77a2.51,2.51,0,0,0,.74-1.44,3.39,3.39,0,0,0-.09-1.1c-.09-.43-.21-.86-.27-1.29a2.31,2.31,0,0,1,.18-1.29,1,1,0,0,1,.67-.57l.16,0c.26,0,.45,0,.62-.27a.49.49,0,0,0,.07-.19c0-.23-.09-.44,0-.64a2.75,2.75,0,0,1,1-1.3,3.37,3.37,0,0,1,.32-.19,3.87,3.87,0,0,0,1.75-1.39,2.31,2.31,0,0,0-.6-2.86l0-1.05c.53-.29,1.86-.63,2.25-1.18.52-.74,0-1.43-.17-2.27-.35-2.52,2.26-3.1,0-5.31a9,9,0,0,0-7.33-3c-.85.07-1.71.11-2.57.15l-.32,0c-.54,0-1.08.08-1.63.14-2.36.25-4.69,1.35-7,2.24A19.8,19.8,0,0,0,428.23,6.56Z" transform="translate(-12.12 0)"/><path class="cls-10" d="M428.74,6.49a11,11,0,0,0-3.44,8c0,.38,0,.75,0,1.13.09,1.63.43,3.23.65,4.85a18.12,18.12,0,0,1,.19,2.74c0,.9-.17,1.77-.2,2.7s.05,1.85-.06,2.77a9.93,9.93,0,0,1-.19,1.09c-.08.4-.17.8-.23,1.22-.11.86-.07,1.73-.15,2.59a16.59,16.59,0,0,0-.16,1.82,4.3,4.3,0,0,0,.74,2.23,3.41,3.41,0,0,0,.88.93,6.75,6.75,0,0,0,3.78.69l1.89-.05c1.09,0,2.18-.08,3.25-.16,1.49-.1,3.2.1,4.56-.43a3.42,3.42,0,0,0,2-2.5c.23-1,.1-2.13.25-3.18a6.39,6.39,0,0,1,.24-1.09,14.15,14.15,0,0,1,1-2.42c.17-.31.33-.61.51-.91a9.51,9.51,0,0,1,1.3-1.68c.26-.26.53-.5.77-.78a2.53,2.53,0,0,0,.71-1.44,3.36,3.36,0,0,0-.1-1.09c-.09-.43-.21-.86-.26-1.29a2.15,2.15,0,0,1,.2-1.27,1,1,0,0,1,.67-.55l.17,0c.25,0,.43,0,.59-.28a.56.56,0,0,0,.07-.19c0-.23-.08-.44,0-.64a2.85,2.85,0,0,1,1.06-1.29,3.37,3.37,0,0,1,.32-.19,3.71,3.71,0,0,0,1.74-1.38,2.31,2.31,0,0,0-.6-2.86l0-1.05c.53-.29,1.86-.63,2.25-1.18.52-.74,0-1.43-.17-2.27-.35-2.52,2.26-3.1,0-5.31a9,9,0,0,0-7.18-3c-.84.06-1.67.09-2.51.12l-.32,0c-.53,0-1.07.07-1.6.13a26.93,26.93,0,0,0-6.82,2.22A19.84,19.84,0,0,0,428.74,6.49Z" transform="translate(-12.12 0)"/><path class="cls-11" d="M429.25,6.42a11.12,11.12,0,0,0-3.4,8c0,.38,0,.76,0,1.13.08,1.64.41,3.25.62,4.87a16,16,0,0,1,.16,2.76c0,.91-.21,1.77-.25,2.7s.07,1.87,0,2.79a9.71,9.71,0,0,1-.2,1.1c-.09.4-.18.8-.24,1.22-.11.87-.05,1.75-.13,2.61a14.57,14.57,0,0,0-.19,1.83,4.14,4.14,0,0,0,.75,2.23,3.41,3.41,0,0,0,.86.91,6.7,6.7,0,0,0,3.69.66l1.85-.07c1.07,0,2.13-.09,3.18-.17,1.44-.12,3.11.07,4.41-.48a3.49,3.49,0,0,0,1.9-2.54c.23-1,.12-2.12.27-3.16a7.73,7.73,0,0,1,.26-1.08,14.4,14.4,0,0,1,1.05-2.41c.16-.3.33-.6.51-.89a10,10,0,0,1,1.31-1.67c.25-.26.52-.51.75-.78a2.54,2.54,0,0,0,.67-1.45,3.39,3.39,0,0,0-.1-1.09,11.13,11.13,0,0,1-.25-1.28,2.18,2.18,0,0,1,.22-1.26,1.11,1.11,0,0,1,.68-.52l.16,0c.25-.05.42-.05.57-.29a.56.56,0,0,0,.07-.19c0-.23-.08-.44,0-.63a2.85,2.85,0,0,1,1.06-1.29l.32-.18a3.75,3.75,0,0,0,1.73-1.38,2.31,2.31,0,0,0-.6-2.86l0-1.05c.53-.29,1.86-.63,2.25-1.18.52-.74,0-1.43-.17-2.27-.35-2.52,2.26-3.1,0-5.31a8.91,8.91,0,0,0-7-3L443.6.8h-.31c-.52,0-1.05.07-1.57.12A25.91,25.91,0,0,0,435,3.13,19.9,19.9,0,0,0,429.25,6.42Z" transform="translate(-12.12 0)"/><path class="cls-12" d="M429.76,6.35a11.08,11.08,0,0,0-3.35,8c0,.38,0,.76,0,1.13.08,1.64.39,3.25.59,4.88a14.38,14.38,0,0,1,.14,2.77c0,.92-.25,1.77-.29,2.72s.08,1.87,0,2.8a10.34,10.34,0,0,1-.21,1.11,12,12,0,0,0-.24,1.22c-.12.88,0,1.76-.13,2.62-.06.65-.21,1.23-.21,1.84a4.1,4.1,0,0,0,.76,2.25,3.54,3.54,0,0,0,.84.88,6.69,6.69,0,0,0,3.61.62l1.81-.07c1,0,2.07-.1,3.09-.19,1.4-.13,3,0,4.27-.54a3.51,3.51,0,0,0,1.82-2.56c.22-1,.13-2.11.3-3.15a7.27,7.27,0,0,1,.26-1.07,13.88,13.88,0,0,1,1.06-2.39,8.64,8.64,0,0,1,.52-.89,10.17,10.17,0,0,1,1.3-1.65c.25-.26.52-.51.74-.79a2.54,2.54,0,0,0,.64-1.44,3.64,3.64,0,0,0-.11-1.09,11.34,11.34,0,0,1-.24-1.27,2.12,2.12,0,0,1,.24-1.25,1.13,1.13,0,0,1,.69-.5l.16,0c.25-.06.4-.07.54-.31a1.59,1.59,0,0,0,.07-.2c0-.22-.07-.43,0-.62a2.8,2.8,0,0,1,1.06-1.27,3.37,3.37,0,0,1,.32-.19,3.69,3.69,0,0,0,1.72-1.37,2.31,2.31,0,0,0-.6-2.86l0-1.05c.53-.29,1.86-.63,2.25-1.18.52-.74,0-1.43-.17-2.27-.35-2.52,2.26-3.09,0-5.31a8.88,8.88,0,0,0-6.87-3L443.8.79h-.3c-.52,0-1,.06-1.54.11a24.58,24.58,0,0,0-6.54,2.19A20.18,20.18,0,0,0,429.76,6.35Z" transform="translate(-12.12 0)"/><path class="cls-13" d="M430.27,6.28A11.14,11.14,0,0,0,427,14.33c0,.38,0,.76,0,1.14.07,1.64.37,3.26.56,4.89a15.41,15.41,0,0,1,.12,2.79c-.08.92-.29,1.77-.34,2.72s.09,1.89,0,2.83a10.19,10.19,0,0,1-.22,1.1,9.92,9.92,0,0,0-.25,1.23c-.12.88,0,1.77-.11,2.64a17.62,17.62,0,0,0-.23,1.85,3.92,3.92,0,0,0,.75,2.25,3.59,3.59,0,0,0,.83.86,6.67,6.67,0,0,0,3.53.58l1.76-.07c1,0,2-.11,3-.21,1.37-.14,2.94,0,4.13-.59a3.61,3.61,0,0,0,1.75-2.6c.21-1,.14-2.1.31-3.13a9.85,9.85,0,0,1,.27-1.07,13.72,13.72,0,0,1,1.07-2.37,9.68,9.68,0,0,1,.52-.88,10,10,0,0,1,1.31-1.63c.24-.26.5-.51.72-.79a2.55,2.55,0,0,0,.6-1.45,3.61,3.61,0,0,0-.11-1.08,9.42,9.42,0,0,1-.23-1.27,2,2,0,0,1,.26-1.23,1.19,1.19,0,0,1,.69-.49l.16,0c.25-.06.38-.08.52-.33a.6.6,0,0,0,.06-.19c.05-.22,0-.43,0-.62a2.82,2.82,0,0,1,1.06-1.26l.32-.18a3.73,3.73,0,0,0,1.71-1.37,2.31,2.31,0,0,0-.6-2.86l0-1.05c.53-.29,1.86-.63,2.25-1.18.52-.74,0-1.43-.17-2.27-.35-2.52,2.26-3.09,0-5.31A8.81,8.81,0,0,0,446.37.74L444,.78h-.29c-.51,0-1,0-1.51.11a23.26,23.26,0,0,0-6.4,2.16A20.15,20.15,0,0,0,430.27,6.28Z" transform="translate(-12.12 0)"/><path class="cls-14" d="M430.78,6.2c-2.08,1.82-3.2,5-3.26,8.1,0,.38,0,.76,0,1.13.07,1.65.36,3.27.54,4.9a14.83,14.83,0,0,1,.09,2.82c-.09.92-.33,1.77-.38,2.73s.1,1.89,0,2.84a9.92,9.92,0,0,1-.23,1.11,9.94,9.94,0,0,0-.26,1.23c-.12.89,0,1.78-.09,2.66-.07.65-.25,1.23-.26,1.85a3.92,3.92,0,0,0,.76,2.27,3.82,3.82,0,0,0,.81.84,6.66,6.66,0,0,0,3.44.53l1.72-.08c1,0,2-.11,2.93-.22,1.33-.15,2.86,0,4-.64a3.73,3.73,0,0,0,1.66-2.64c.21-1,.15-2.09.34-3.11a7.84,7.84,0,0,1,.27-1.06,14.81,14.81,0,0,1,1.07-2.36c.17-.3.34-.59.53-.87a11.5,11.5,0,0,1,1.31-1.61,7.66,7.66,0,0,0,.71-.8,2.52,2.52,0,0,0,.57-1.45,3.86,3.86,0,0,0-.12-1.07,9.38,9.38,0,0,1-.22-1.27,2,2,0,0,1,.28-1.21,1.22,1.22,0,0,1,.7-.47l.16,0c.24-.08.36-.11.49-.35a.7.7,0,0,0,.06-.19c.05-.22,0-.43.05-.62a2.85,2.85,0,0,1,1.06-1.25l.31-.18a3.71,3.71,0,0,0,1.71-1.36,2.31,2.31,0,0,0-.6-2.86l0-1.05c.53-.29,1.86-.63,2.25-1.18.52-.74,0-1.43-.17-2.27-.35-2.52,2.26-3.09,0-5.31A8.8,8.8,0,0,0,446.52.75c-.77,0-1.54,0-2.32,0h-.29c-.49,0-1,0-1.47.1A22.22,22.22,0,0,0,436.18,3,20.36,20.36,0,0,0,430.78,6.2Z" transform="translate(-12.12 0)"/><path class="cls-15" d="M431.29,6.13c-2.09,1.82-3.15,5-3.22,8.13,0,.39,0,.77,0,1.14.06,1.65.33,3.28.5,4.91a13.46,13.46,0,0,1,.07,2.83c-.1.93-.37,1.78-.42,2.74s.11,1.91,0,2.86a10.62,10.62,0,0,1-.24,1.12,8.27,8.27,0,0,0-.27,1.24c-.12.89,0,1.78-.07,2.67-.08.65-.27,1.23-.29,1.85a3.77,3.77,0,0,0,.77,2.28,3.87,3.87,0,0,0,.79.82,6.65,6.65,0,0,0,3.36.49l1.67-.08q1.44-.06,2.85-.24c1.29-.16,2.77-.07,3.86-.69a3.85,3.85,0,0,0,1.58-2.67c.2-1,.17-2.08.36-3.1a7.4,7.4,0,0,1,.29-1.05A14.21,14.21,0,0,1,444,29c.17-.3.34-.59.53-.87a12,12,0,0,1,1.32-1.59,7.57,7.57,0,0,0,.69-.81,2.49,2.49,0,0,0,.53-1.45,4.34,4.34,0,0,0-.12-1.07,7.71,7.71,0,0,1-.21-1.26,1.83,1.83,0,0,1,.3-1.19,1.3,1.3,0,0,1,.71-.45l.15-.05a.61.61,0,0,0,.47-.36,1.39,1.39,0,0,0,.06-.19c.05-.22,0-.43.06-.62a2.79,2.79,0,0,1,1.06-1.23,2.48,2.48,0,0,1,.31-.18,3.68,3.68,0,0,0,1.7-1.36,2.31,2.31,0,0,0-.6-2.86l0-1.05c.53-.29,1.86-.63,2.25-1.18.52-.74,0-1.43-.17-2.27-.35-2.52,2.26-3.09,0-5.31A8.77,8.77,0,0,0,446.67.77c-.75,0-1.51,0-2.26,0h-.29q-.72,0-1.44.09A20.76,20.76,0,0,0,436.56,3,20.49,20.49,0,0,0,431.29,6.13Z" transform="translate(-12.12 0)"/><path class="cls-16" d="M431.8,6.06c-2.09,1.82-3.11,5-3.17,8.16,0,.39,0,.77,0,1.15.07,1.65.32,3.28.48,4.92a13,13,0,0,1,0,2.85c-.11.93-.41,1.77-.46,2.74s.13,1.93,0,2.88a7.94,7.94,0,0,1-.25,1.12,8.41,8.41,0,0,0-.28,1.25c-.12.89.05,1.8-.05,2.68-.08.66-.29,1.24-.32,1.87a3.75,3.75,0,0,0,.78,2.29,3.62,3.62,0,0,0,.77.79,6.66,6.66,0,0,0,3.27.46l1.63-.09c.93,0,1.86-.13,2.77-.26,1.25-.17,2.69-.11,3.72-.75a3.94,3.94,0,0,0,1.5-2.7c.2-1,.18-2.07.39-3.08a7.65,7.65,0,0,1,.29-1A13.71,13.71,0,0,1,444,29c.17-.29.34-.58.53-.85a13.75,13.75,0,0,1,1.32-1.59,5.75,5.75,0,0,0,.68-.8,2.59,2.59,0,0,0,.5-1.46,4.8,4.8,0,0,0-.13-1.06,6.75,6.75,0,0,1-.2-1.26,1.81,1.81,0,0,1,.32-1.18,1.42,1.42,0,0,1,.71-.42l.16-.05a.6.6,0,0,0,.44-.38c0-.07,0-.13.06-.19.05-.22,0-.42.07-.62a2.89,2.89,0,0,1,1.06-1.22l.31-.18a3.59,3.59,0,0,0,1.69-1.35,2.31,2.31,0,0,0-.6-2.86l0-1.05c.53-.29,1.86-.63,2.25-1.18.52-.74,0-1.43-.17-2.27-.35-2.52,2.26-3.09,0-5.31a8.77,8.77,0,0,0-6.27-2.9c-.73,0-1.47,0-2.21,0a2.62,2.62,0,0,0-.28,0c-.47,0-.94,0-1.41.08a20.08,20.08,0,0,0-6,2.11A21,21,0,0,0,431.8,6.06Z" transform="translate(-12.12 0)"/><path class="cls-17" d="M432.31,6c-2.1,1.82-3.07,5.08-3.13,8.2,0,.39,0,.77,0,1.14.07,1.66.3,3.3.46,4.94a12.53,12.53,0,0,1,0,2.87c-.13.93-.46,1.77-.52,2.75s.15,1.93,0,2.89a8.41,8.41,0,0,1-.25,1.13,7.12,7.12,0,0,0-.29,1.25c-.11.9.08,1.81,0,2.7-.08.66-.31,1.23-.34,1.87a4,4,0,0,0,1.54,3.07,6.7,6.7,0,0,0,3.19.42l1.58-.1a23.79,23.79,0,0,0,2.69-.27c1.22-.19,2.6-.15,3.58-.8a4.09,4.09,0,0,0,1.43-2.74c.19-1,.19-2.06.4-3.06a9.32,9.32,0,0,1,.3-1,14.07,14.07,0,0,1,1.09-2.32,9.13,9.13,0,0,1,.53-.84,14.49,14.49,0,0,1,1.33-1.57,5.82,5.82,0,0,0,.66-.81,2.58,2.58,0,0,0,.47-1.45,5.4,5.4,0,0,0-.14-1.06,6.75,6.75,0,0,1-.19-1.25,1.79,1.79,0,0,1,.34-1.17,1.55,1.55,0,0,1,.72-.4l.15-.06a.63.63,0,0,0,.42-.39,1.8,1.8,0,0,0,.05-.19c.06-.22,0-.42.09-.61a2.74,2.74,0,0,1,1.06-1.21,2.48,2.48,0,0,1,.31-.18,3.67,3.67,0,0,0,1.68-1.35,2.31,2.31,0,0,0-.6-2.86l0-1.05c.53-.29,1.86-.63,2.25-1.18.52-.74,0-1.43-.17-2.27-.35-2.52,2.26-3.09,0-5.31A8.76,8.76,0,0,0,447,.81L444.81.75a2.43,2.43,0,0,0-.27,0,13.1,13.1,0,0,0-1.39.08,19.22,19.22,0,0,0-5.84,2.08A21.4,21.4,0,0,0,432.31,6Z" transform="translate(-12.12 0)"/><path class="cls-18" d="M432.82,5.92c-2.1,1.82-3,5.11-3.08,8.23,0,.39,0,.78,0,1.15.06,1.66.28,3.3.42,4.95a12.06,12.06,0,0,1,0,2.88c-.14.94-.49,1.78-.56,2.76s.16,1.95,0,2.91a8.23,8.23,0,0,1-.26,1.14,6.34,6.34,0,0,0-.3,1.25c-.11.91.1,1.82,0,2.72-.08.66-.33,1.23-.37,1.88a3.57,3.57,0,0,0,.8,2.31,3.66,3.66,0,0,0,.73.74,6.61,6.61,0,0,0,3.11.38l1.53-.1a20.79,20.79,0,0,0,2.62-.29c1.17-.2,2.51-.19,3.43-.85a4.2,4.2,0,0,0,1.35-2.77c.18-1,.2-2.05.43-3.05a8.6,8.6,0,0,1,.31-1,13.93,13.93,0,0,1,1.08-2.31c.17-.28.35-.57.54-.83A16.66,16.66,0,0,1,446,26.45a5.7,5.7,0,0,0,.66-.81,2.68,2.68,0,0,0,.42-1.46,4.75,4.75,0,0,0-.15-1.05,6.71,6.71,0,0,1-.17-1.25,1.67,1.67,0,0,1,.36-1.15,2,2,0,0,1,.73-.39l.15-.05a.63.63,0,0,0,.39-.42,1.21,1.21,0,0,0,.05-.18c.06-.22,0-.42.1-.61a2.67,2.67,0,0,1,1.07-1.2l.3-.18a3.56,3.56,0,0,0,1.67-1.34,2.31,2.31,0,0,0-.6-2.86l0-1.05c.53-.29,1.86-.63,2.25-1.18.52-.74,0-1.43-.17-2.27-.35-2.52,2.26-3.09,0-5.31a8.71,8.71,0,0,0-6-2.86c-.7,0-1.4-.07-2.11-.09a2.25,2.25,0,0,0-.26,0,12.39,12.39,0,0,0-1.36.07,17.92,17.92,0,0,0-5.7,2.07A21.47,21.47,0,0,0,432.82,5.92Z" transform="translate(-12.12 0)"/><path class="cls-19" d="M433.33,5.85c-2.1,1.82-3,5.14-3,8.27,0,.39,0,.77,0,1.15.06,1.66.27,3.31.4,5a11.71,11.71,0,0,1,0,2.9,27.19,27.19,0,0,0-.6,2.77c-.07,1,.17,2,0,2.93a6.22,6.22,0,0,1-.28,1.13,7.47,7.47,0,0,0-.3,1.26c-.11.92.12,1.83,0,2.74-.09.67-.35,1.23-.4,1.88a3.51,3.51,0,0,0,.81,2.32,3.47,3.47,0,0,0,.71.72,6.65,6.65,0,0,0,3,.34l1.5-.1a19.42,19.42,0,0,0,2.53-.31c1.13-.21,2.42-.23,3.29-.91a4.33,4.33,0,0,0,1.27-2.8c.18-1,.22-2,.46-3a9,9,0,0,1,.31-1,13.77,13.77,0,0,1,1.09-2.29,9.87,9.87,0,0,1,.54-.83A19.82,19.82,0,0,1,446,26.41a5.65,5.65,0,0,0,.64-.82,2.66,2.66,0,0,0,.39-1.46,5.45,5.45,0,0,0-.16-1.05,6.48,6.48,0,0,1-.16-1.24,1.61,1.61,0,0,1,.38-1.13,2,2,0,0,1,.73-.37l.15-.06a.58.58,0,0,0,.37-.43c0-.06,0-.12.05-.18.06-.22,0-.42.11-.61a2.7,2.7,0,0,1,1.07-1.19,2.14,2.14,0,0,1,.3-.17,3.66,3.66,0,0,0,1.66-1.34,2.31,2.31,0,0,0-.6-2.86l0-1.05c.53-.29,1.86-.63,2.25-1.18.52-.74,0-1.43-.17-2.27-.35-2.52,2.26-3.09,0-5.31A8.79,8.79,0,0,0,447.27.84l-2-.11a2.25,2.25,0,0,0-.26,0c-.45,0-.89,0-1.33.06a17.29,17.29,0,0,0-5.56,2.05A22,22,0,0,0,433.33,5.85Z" transform="translate(-12.12 0)"/><path class="cls-20" d="M433.84,5.78c-2.11,1.82-2.94,5.18-3,8.3,0,.4,0,.78,0,1.15.05,1.67.24,3.32.37,5a11.77,11.77,0,0,1-.05,2.91,23,23,0,0,0-.65,2.78c-.07,1,.18,2,.05,3a6.35,6.35,0,0,1-.29,1.14,6.63,6.63,0,0,0-.31,1.26c-.11.92.14,1.84,0,2.76-.09.67-.37,1.23-.42,1.89a3.4,3.4,0,0,0,.81,2.33,3.51,3.51,0,0,0,.7.69,6.51,6.51,0,0,0,2.93.3l1.45-.1a16.78,16.78,0,0,0,2.45-.33c1.09-.22,2.34-.28,3.15-1a4.58,4.58,0,0,0,1.2-2.84c.16-1,.22-2,.47-3,.09-.35.2-.68.32-1a14.12,14.12,0,0,1,1.1-2.28c.17-.28.35-.56.54-.82.41-.54.9-1,1.34-1.51a4.65,4.65,0,0,0,.63-.83,2.64,2.64,0,0,0,.35-1.46,5.35,5.35,0,0,0-.16-1,5.76,5.76,0,0,1-.15-1.24,1.53,1.53,0,0,1,.4-1.12,2.4,2.4,0,0,1,.74-.34l.14-.06a.61.61,0,0,0,.35-.45c0-.06,0-.12.05-.18a2.87,2.87,0,0,1,.12-.61,2.65,2.65,0,0,1,1.07-1.17l.3-.18a3.6,3.6,0,0,0,1.65-1.33,2.31,2.31,0,0,0-.6-2.86l0-1.05c.53-.29,1.86-.63,2.25-1.18.52-.74,0-1.43-.17-2.27-.35-2.52,2.26-3.09,0-5.31A8.77,8.77,0,0,0,447.43.86l-2-.14h-.25a11.2,11.2,0,0,0-1.3.07,16.27,16.27,0,0,0-5.42,2A22.71,22.71,0,0,0,433.84,5.78Z" transform="translate(-12.12 0)"/><path class="cls-21" d="M434.35,5.71c-2.11,1.82-2.9,5.21-3,8.34,0,.39,0,.78,0,1.15,0,1.67.23,3.32.34,5a11.45,11.45,0,0,1-.07,2.93,21.06,21.06,0,0,0-.69,2.79c-.08,1,.19,2,.06,3a6.48,6.48,0,0,1-.3,1.15,6.65,6.65,0,0,0-.32,1.26c-.11.93.17,1.86,0,2.77-.1.68-.39,1.24-.45,1.9a3.39,3.39,0,0,0,.81,2.34,4,4,0,0,0,.69.67,6.57,6.57,0,0,0,2.84.26l1.41-.11a15.55,15.55,0,0,0,2.37-.34,6.49,6.49,0,0,0,3-1,4.88,4.88,0,0,0,1.11-2.87,29.13,29.13,0,0,1,.5-3c.09-.34.2-.68.32-1a14.47,14.47,0,0,1,1.11-2.27,9.31,9.31,0,0,1,.54-.8c.42-.54.91-1,1.35-1.5a4.55,4.55,0,0,0,.61-.83A2.68,2.68,0,0,0,447,24a6.1,6.1,0,0,0-.17-1,5.75,5.75,0,0,1-.14-1.24,1.51,1.51,0,0,1,.42-1.1,2.69,2.69,0,0,1,.75-.32l.14-.07c.23-.13.24-.23.32-.46,0-.06,0-.13,0-.18a5,5,0,0,1,.13-.61,2.82,2.82,0,0,1,1.08-1.16,2.14,2.14,0,0,1,.3-.17,3.53,3.53,0,0,0,1.64-1.33,2.31,2.31,0,0,0-.6-2.86l0-1.05c.53-.29,1.86-.63,2.25-1.18.52-.74,0-1.43-.17-2.27-.35-2.52,2.26-3.09,0-5.31A8.82,8.82,0,0,0,447.58.88c-.65-.06-1.31-.13-2-.17h-.25q-.63,0-1.26.06a15.07,15.07,0,0,0-5.28,2A22.93,22.93,0,0,0,434.35,5.71Z" transform="translate(-12.12 0)"/><path class="cls-22" d="M434.86,5.64C432.75,7.46,432,10.88,432,14c0,.4,0,.78,0,1.16.05,1.67.22,3.33.32,5a11.21,11.21,0,0,1-.1,3,21.16,21.16,0,0,0-.74,2.79c-.08,1,.22,2,.08,3a6.29,6.29,0,0,1-.31,1.15,6.08,6.08,0,0,0-.33,1.27c-.11.94.19,1.87.06,2.79-.1.68-.42,1.24-.48,1.91A3.67,3.67,0,0,0,432,39a6.69,6.69,0,0,0,2.76.23l1.36-.12a14.56,14.56,0,0,0,2.29-.36,6.07,6.07,0,0,0,2.88-1.07,5.1,5.1,0,0,0,1-2.9,25.93,25.93,0,0,1,.52-3c.1-.34.21-.67.34-1a14.11,14.11,0,0,1,1.1-2.24c.18-.28.36-.55.55-.8.42-.53.92-1,1.35-1.48a4.15,4.15,0,0,0,.6-.84A2.66,2.66,0,0,0,447,24a7.14,7.14,0,0,0-.17-1,5.15,5.15,0,0,1-.13-1.23,1.47,1.47,0,0,1,.44-1.09,3.36,3.36,0,0,1,.75-.3l.14-.07c.23-.14.23-.25.3-.49a1.16,1.16,0,0,1,0-.18,4.27,4.27,0,0,1,.14-.59,2.82,2.82,0,0,1,1.08-1.16l.3-.17a3.55,3.55,0,0,0,1.63-1.32,2.31,2.31,0,0,0-.6-2.86l0-1.05c.53-.29,1.86-.63,2.25-1.18.52-.74,0-1.43-.17-2.27-.35-2.52,2.26-3.09,0-5.31A8.81,8.81,0,0,0,447.73.9c-.63-.07-1.27-.15-1.91-.19l-.24,0a10.12,10.12,0,0,0-1.23.05,14.44,14.44,0,0,0-5.14,2A23.59,23.59,0,0,0,434.86,5.64Z" transform="translate(-12.12 0)"/><path class="cls-23" d="M435.37,5.57c-2.12,1.82-2.81,5.28-2.86,8.41,0,.39,0,.78,0,1.15,0,1.68.19,3.34.29,5a10.87,10.87,0,0,1-.13,3,20.09,20.09,0,0,0-.78,2.81c-.08,1,.23,2,.09,3a6.41,6.41,0,0,1-.32,1.16,5.94,5.94,0,0,0-.34,1.27c-.11.94.21,1.88.07,2.81-.1.68-.43,1.24-.5,1.91a3.26,3.26,0,0,0,.83,2.36,3.45,3.45,0,0,0,.65.62,6.83,6.83,0,0,0,2.68.19l1.31-.12a12.45,12.45,0,0,0,2.21-.38,5.66,5.66,0,0,0,2.74-1.12,5.46,5.46,0,0,0,1-2.94,20.46,20.46,0,0,1,.54-3c.1-.34.21-.66.34-1a14,14,0,0,1,1.11-2.23,7.48,7.48,0,0,1,.56-.79c.41-.52.91-1,1.35-1.46a3.87,3.87,0,0,0,.58-.85,2.84,2.84,0,0,0,.25-1.46,9.68,9.68,0,0,0-.18-1,4.18,4.18,0,0,1-.12-1.22,1.38,1.38,0,0,1,.46-1.07,4.81,4.81,0,0,1,.76-.29l.14-.07c.23-.15.21-.27.27-.5a1.16,1.16,0,0,1,0-.18,3.18,3.18,0,0,1,.15-.59,2.71,2.71,0,0,1,1.08-1.14,2.14,2.14,0,0,1,.3-.17,3.57,3.57,0,0,0,1.62-1.32,2.31,2.31,0,0,0-.6-2.86l0-1.05c.53-.29,1.86-.63,2.25-1.18.52-.74,0-1.43-.17-2.27-.35-2.52,2.26-3.09,0-5.31A9,9,0,0,0,447.88.92C447.26.83,446.65.75,446,.7l-.24,0a9.63,9.63,0,0,0-1.2,0,13.86,13.86,0,0,0-5,2A24.56,24.56,0,0,0,435.37,5.57Z" transform="translate(-12.12 0)"/><path class="cls-24" d="M435.88,5.49c-2.12,1.84-2.77,5.32-2.81,8.45,0,.4,0,.79,0,1.16,0,1.68.18,3.35.26,5a10.61,10.61,0,0,1-.14,3,17.82,17.82,0,0,0-.83,2.81c-.09,1,.24,2,.1,3a6.54,6.54,0,0,1-.33,1.17,5.37,5.37,0,0,0-.35,1.28c-.11.94.23,1.88.09,2.82-.1.68-.45,1.24-.53,1.91a3.27,3.27,0,0,0,.84,2.38,3.48,3.48,0,0,0,.63.59,6.8,6.8,0,0,0,2.59.15l1.27-.13a10.81,10.81,0,0,0,2.13-.39,5.18,5.18,0,0,0,2.6-1.17,5.7,5.7,0,0,0,.88-3,18.86,18.86,0,0,1,.56-2.94c.1-.33.22-.66.35-1a14.88,14.88,0,0,1,1.12-2.22,7.35,7.35,0,0,1,.56-.78c.42-.51.92-.95,1.35-1.45a3.28,3.28,0,0,0,.57-.84,2.89,2.89,0,0,0,.22-1.47c0-.34-.12-.68-.19-1a4.18,4.18,0,0,1-.11-1.22,1.33,1.33,0,0,1,.48-1,7.51,7.51,0,0,1,.76-.27.61.61,0,0,0,.14-.07c.23-.16.2-.29.24-.52,0-.06,0-.12.05-.18a3.16,3.16,0,0,1,.16-.59,2.74,2.74,0,0,1,1.08-1.13l.3-.17a3.46,3.46,0,0,0,1.61-1.31,2.31,2.31,0,0,0-.6-2.86l0-1.05c.53-.29,1.86-.63,2.25-1.18.52-.74,0-1.43-.17-2.27-.35-2.52,2.25-3.09,0-5.31A9.06,9.06,0,0,0,448,.93c-.6-.09-1.2-.18-1.8-.24l-.23,0a9.15,9.15,0,0,0-1.17,0,12.69,12.69,0,0,0-4.86,2A26.08,26.08,0,0,0,435.88,5.49Z" transform="translate(-12.12 0)"/><path class="cls-25" d="M436.39,5.42c-2.13,1.84-2.73,5.35-2.77,8.49,0,.39,0,.78,0,1.16,0,1.68.15,3.35.23,5a10.4,10.4,0,0,1-.17,3,16.48,16.48,0,0,0-.87,2.82c-.09,1,.25,2,.11,3a5.93,5.93,0,0,1-.34,1.16,5.6,5.6,0,0,0-.36,1.29c-.11.95.26,1.89.11,2.83-.11.69-.47,1.25-.56,1.93a3.19,3.19,0,0,0,.85,2.38,3.69,3.69,0,0,0,.61.58,7.25,7.25,0,0,0,2.51.1L437,39.1a9.55,9.55,0,0,0,2-.41,4.79,4.79,0,0,0,2.45-1.22,6.06,6.06,0,0,0,.8-3,16.6,16.6,0,0,1,.59-2.92c.1-.33.23-.65.36-1a12.63,12.63,0,0,1,1.12-2.2,6.45,6.45,0,0,1,.56-.78c.42-.5.93-.94,1.36-1.43a3.11,3.11,0,0,0,.55-.85,2.88,2.88,0,0,0,.18-1.47c0-.34-.12-.67-.19-1a3.86,3.86,0,0,1-.1-1.22,1.32,1.32,0,0,1,.5-1c.23-.13.51-.12.77-.24l.14-.08c.22-.17.17-.3.21-.53a1.16,1.16,0,0,0,0-.18,3.15,3.15,0,0,1,.18-.59,2.78,2.78,0,0,1,1.08-1.12l.3-.16a3.5,3.5,0,0,0,1.6-1.31,2.31,2.31,0,0,0-.6-2.86l0-1.05c.53-.29,1.86-.63,2.25-1.18.52-.74,0-1.43-.17-2.27-.35-2.52,2.25-3.08,0-5.31A9.17,9.17,0,0,0,448.18,1c-.58-.1-1.16-.2-1.75-.27l-.22,0a7.24,7.24,0,0,0-1.14,0,12,12,0,0,0-4.72,1.93A27.38,27.38,0,0,0,436.39,5.42Z" transform="translate(-12.12 0)"/><path class="cls-26" d="M436.9,5.35c-2.13,1.84-2.68,5.39-2.72,8.52,0,.4,0,.79,0,1.16,0,1.69.14,3.37.21,5a10.1,10.1,0,0,1-.2,3,17,17,0,0,0-.91,2.83c-.1,1,.26,2,.11,3.05a5.82,5.82,0,0,1-.34,1.17,5,5,0,0,0-.37,1.29c-.11.95.28,1.91.13,2.85-.11.69-.49,1.25-.59,1.93a3.15,3.15,0,0,0,.86,2.4,4.33,4.33,0,0,0,.59.55,7.59,7.59,0,0,0,2.43.06l1.18-.13a8.77,8.77,0,0,0,2-.43,4.4,4.4,0,0,0,2.31-1.28,6.5,6.5,0,0,0,.72-3,15.4,15.4,0,0,1,.61-2.9c.11-.33.24-.65.37-1a14.54,14.54,0,0,1,1.12-2.19,6.28,6.28,0,0,1,.57-.76c.43-.5.94-.93,1.36-1.42a3,3,0,0,0,.54-.85A2.91,2.91,0,0,0,447,23.8c0-.34-.13-.68-.2-1a3.85,3.85,0,0,1-.09-1.22,1.26,1.26,0,0,1,.52-1c.24-.12.52-.09.78-.22l.13-.08c.22-.18.16-.33.19-.55a1.16,1.16,0,0,1,0-.18,3.14,3.14,0,0,1,.19-.59,2.72,2.72,0,0,1,1.08-1.1l.29-.17a3.43,3.43,0,0,0,1.6-1.3,2.31,2.31,0,0,0-.6-2.86l0-1.05c.53-.29,1.86-.63,2.25-1.18.52-.74,0-1.43-.17-2.27-.35-2.52,2.25-3.08,0-5.31A9.28,9.28,0,0,0,448.33,1c-.56-.11-1.13-.22-1.7-.3l-.21,0a6.82,6.82,0,0,0-1.11,0,11.39,11.39,0,0,0-4.58,1.91A29.26,29.26,0,0,0,436.9,5.35Z" transform="translate(-12.12 0)"/><path class="cls-27" d="M437.41,5.28c-2.13,1.84-2.64,5.42-2.68,8.56,0,.4,0,.79,0,1.16,0,1.69.12,3.37.17,5.06a9.61,9.61,0,0,1-.22,3,15.28,15.28,0,0,0-.95,2.84c-.1,1,.28,2,.12,3.06a5.51,5.51,0,0,1-.35,1.18,5.06,5.06,0,0,0-.38,1.29c-.1,1,.3,1.92.15,2.87-.12.7-.51,1.25-.62,1.94a3.07,3.07,0,0,0,.87,2.4,4,4,0,0,0,.57.53,7.64,7.64,0,0,0,2.34,0c.38,0,.76-.08,1.14-.14a7.22,7.22,0,0,0,1.89-.44,4.09,4.09,0,0,0,2.17-1.33,7,7,0,0,0,.65-3.07,13.29,13.29,0,0,1,.63-2.89c.11-.32.24-.64.37-.95a14,14,0,0,1,1.13-2.18,6.16,6.16,0,0,1,.57-.75c.43-.49.95-.91,1.37-1.4a2.86,2.86,0,0,0,.52-.86,2.91,2.91,0,0,0,.11-1.47c0-.34-.13-.67-.2-1a3.46,3.46,0,0,1-.08-1.2,1.21,1.21,0,0,1,.55-1c.23-.11.51-.07.77-.2l.14-.09c.21-.18.14-.34.16-.57a1.36,1.36,0,0,1,0-.17,3.14,3.14,0,0,1,.2-.59,2.7,2.7,0,0,1,1.08-1.09l.29-.16a3.4,3.4,0,0,0,1.59-1.3,2.31,2.31,0,0,0-.6-2.86l0-1.05c.53-.29,1.86-.63,2.25-1.18.52-.74,0-1.43-.17-2.27-.35-2.52,2.25-3.08,0-5.31A9.45,9.45,0,0,0,448.48,1c-.54-.13-1.09-.24-1.65-.32l-.21,0a6.49,6.49,0,0,0-1.08,0,10.83,10.83,0,0,0-4.43,1.9A31.3,31.3,0,0,0,437.41,5.28Z" transform="translate(-12.12 0)"/><path class="cls-28" d="M437.92,5.21c-2.14,1.84-2.6,5.45-2.63,8.59q0,.6,0,1.17c0,1.69.1,3.38.15,5.07a10,10,0,0,1-.24,3.05,15.09,15.09,0,0,0-1,2.85c-.1,1,.3,2.06.14,3.08A5.21,5.21,0,0,1,434,30.2a4.88,4.88,0,0,0-.39,1.3c-.1,1,.32,1.93.16,2.89-.11.7-.53,1.25-.63,1.94a3,3,0,0,0,.87,2.42,3.23,3.23,0,0,0,.55.5,8.56,8.56,0,0,0,2.26,0l1.09-.15a6.69,6.69,0,0,0,1.81-.46,4,4,0,0,0,2-1.38,7.88,7.88,0,0,0,.56-3.11,12.47,12.47,0,0,1,.65-2.87c.12-.32.25-.63.38-.94a13.94,13.94,0,0,1,1.14-2.17,5.83,5.83,0,0,1,.57-.74c.43-.48,1-.89,1.37-1.38a2.6,2.6,0,0,0,.51-.87A3,3,0,0,0,447,23.7c-.05-.33-.14-.67-.22-1a3.72,3.72,0,0,1-.06-1.2,1.14,1.14,0,0,1,.57-1c.24-.1.52-.05.78-.19a.57.57,0,0,0,.13-.08c.22-.2.13-.36.14-.59a1,1,0,0,1,0-.17,2.81,2.81,0,0,1,.21-.58,2.76,2.76,0,0,1,1.08-1.09l.29-.16a3.36,3.36,0,0,0,1.58-1.29,2.31,2.31,0,0,0-.6-2.86l0-1.05c.53-.29,1.86-.63,2.25-1.18.52-.74,0-1.43-.17-2.27-.35-2.52,2.25-3.08,0-5.31A9.64,9.64,0,0,0,448.64,1c-.53-.14-1.07-.26-1.6-.35l-.21,0a5.26,5.26,0,0,0-1.05,0,10.07,10.07,0,0,0-4.3,1.87A33.91,33.91,0,0,0,437.92,5.21Z" transform="translate(-12.12 0)"/><path class="cls-29" d="M438.43,5.14c-2.14,1.84-2.56,5.49-2.59,8.63v1.16c0,1.7.08,3.39.13,5.08a9.84,9.84,0,0,1-.27,3.08,14.32,14.32,0,0,0-1.05,2.85c-.11,1,.31,2.08.15,3.1a5.31,5.31,0,0,1-.37,1.19,4.9,4.9,0,0,0-.4,1.3c-.1,1,.35,1.94.18,2.9-.12.71-.55,1.26-.66,2a3,3,0,0,0,.88,2.42,4,4,0,0,0,.53.48,8.77,8.77,0,0,0,2.17,0l1.05-.15a5.87,5.87,0,0,0,1.73-.48,3.68,3.68,0,0,0,1.9-1.44,8.57,8.57,0,0,0,.48-3.14,11.86,11.86,0,0,1,.68-2.85c.12-.31.25-.63.39-.93a13.69,13.69,0,0,1,1.13-2.15,6.11,6.11,0,0,1,.58-.74c.44-.47,1-.87,1.38-1.36a2.76,2.76,0,0,0,.49-.87,3.07,3.07,0,0,0,.05-1.48c-.06-.33-.16-.66-.23-1a3.45,3.45,0,0,1-.05-1.2,1.12,1.12,0,0,1,.59-1c.24-.1.53,0,.79-.17l.13-.09c.21-.2.1-.38.11-.6a.86.86,0,0,1,0-.17,3.5,3.5,0,0,1,.23-.58,2.71,2.71,0,0,1,1.08-1.07l.29-.16a3.44,3.44,0,0,0,1.57-1.29,2.31,2.31,0,0,0-.6-2.86l0-1.05c.53-.29,1.86-.63,2.25-1.18.52-.74,0-1.43-.17-2.27-.35-2.52,2.25-3.08,0-5.31A10,10,0,0,0,448.79,1c-.52-.14-1-.27-1.55-.37l-.2,0a5.79,5.79,0,0,0-1,0,9.53,9.53,0,0,0-4.16,1.85A37.61,37.61,0,0,0,438.43,5.14Z" transform="translate(-12.12 0)"/><path class="cls-30" d="M438.94,5.07c-2.15,1.84-2.51,5.52-2.54,8.66,0,.4,0,.79,0,1.17,0,1.7.06,3.4.09,5.09a9.38,9.38,0,0,1-.29,3.1A14.3,14.3,0,0,0,435.11,26c-.11,1,.32,2.08.16,3.11a4.37,4.37,0,0,1-.39,1.19,5.24,5.24,0,0,0-.4,1.31c-.1,1,.37,2,.2,2.92-.12.71-.57,1.26-.69,2a3,3,0,0,0,.88,2.44,3.72,3.72,0,0,0,.53.45,9.72,9.72,0,0,0,2.08-.09l1-.16a5.07,5.07,0,0,0,1.65-.49,3.49,3.49,0,0,0,1.76-1.49,9.67,9.67,0,0,0,.41-3.17,10,10,0,0,1,.7-2.83q.18-.48.39-.93A14.51,14.51,0,0,1,444.53,28a6,6,0,0,1,.58-.73c.44-.46,1-.85,1.38-1.34a2.51,2.51,0,0,0,.48-.88,3.08,3.08,0,0,0,0-1.48c-.06-.33-.16-.65-.23-1a3.45,3.45,0,0,1,0-1.2,1.13,1.13,0,0,1,.61-1c.25-.08.54,0,.79-.14a.38.38,0,0,0,.13-.09c.21-.21.09-.4.09-.62a.47.47,0,0,1,0-.17,3.49,3.49,0,0,1,.24-.58,2.75,2.75,0,0,1,1.08-1.06l.29-.16a3.34,3.34,0,0,0,1.56-1.28,2.31,2.31,0,0,0-.6-2.86l0-1.05c.53-.29,1.86-.63,2.25-1.18.52-.74,0-1.43-.17-2.27-.35-2.52,2.25-3.08,0-5.31A10.33,10.33,0,0,0,448.94,1c-.5-.16-1-.29-1.5-.4l-.19,0a4.68,4.68,0,0,0-1,0,9,9,0,0,0-4,1.84C441.07,3.26,440,4.21,438.94,5.07Z" transform="translate(-12.12 0)"/><path class="cls-31" d="M439.46,5C437.3,6.84,437,10.55,437,13.7v1.17c0,1.7.05,3.4.07,5.1a9.41,9.41,0,0,1-.31,3.11A13.63,13.63,0,0,0,435.57,26c-.12,1.05.33,2.1.17,3.14a4.91,4.91,0,0,1-.4,1.19,4.53,4.53,0,0,0-.4,1.31c-.11,1,.38,2,.21,2.94-.13.71-.59,1.26-.72,2a2.9,2.9,0,0,0,.89,2.44,3.42,3.42,0,0,0,.51.43,10.4,10.4,0,0,0,2-.13l.95-.16a4.45,4.45,0,0,0,1.57-.51A3.32,3.32,0,0,0,442,37a10.71,10.71,0,0,0,.33-3.21A9.85,9.85,0,0,1,443,31c.13-.32.26-.62.4-.93A14.85,14.85,0,0,1,444.57,28a5.12,5.12,0,0,1,.58-.71c.44-.46,1-.84,1.39-1.33A2.47,2.47,0,0,0,447,25a3.22,3.22,0,0,0,0-1.48c-.07-.33-.17-.66-.24-1a3.12,3.12,0,0,1,0-1.18,1.08,1.08,0,0,1,.63-.95c.25-.07.55,0,.8-.12a.58.58,0,0,0,.12-.1c.21-.22.08-.41.07-.63a.57.57,0,0,1,0-.18,3.76,3.76,0,0,1,.24-.57,2.89,2.89,0,0,1,1.09-1.05l.29-.15a3.37,3.37,0,0,0,1.55-1.28,2.31,2.31,0,0,0-.6-2.86l0-1.05c.53-.29,1.86-.63,2.25-1.18.52-.74,0-1.43-.17-2.27-.35-2.52,2.24-3.08,0-5.31a10.75,10.75,0,0,0-4-2.63,12.64,12.64,0,0,0-1.45-.43l-.18,0a4.4,4.4,0,0,0-1,0,8.36,8.36,0,0,0-3.88,1.82C441.49,3.22,440.42,4.17,439.46,5Z" transform="translate(-12.12 0)"/><path class="cls-32" d="M440,4.93c-2.16,1.84-2.44,5.59-2.46,8.73,0,.4,0,.8,0,1.18,0,1.7,0,3.41,0,5.11a9.3,9.3,0,0,1-.34,3.13A12.65,12.65,0,0,0,436,26c-.12,1.05.34,2.1.18,3.15a5.16,5.16,0,0,1-.41,1.2,4.54,4.54,0,0,0-.41,1.31c-.11,1,.41,2,.23,3-.13.71-.61,1.26-.75,2a2.84,2.84,0,0,0,.9,2.46,4.52,4.52,0,0,0,.49.4,12.32,12.32,0,0,0,1.91-.17l.92-.16a4.17,4.17,0,0,0,1.49-.53,3.15,3.15,0,0,0,1.47-1.6,12.19,12.19,0,0,0,.25-3.24,9.15,9.15,0,0,1,.75-2.79c.13-.31.27-.62.41-.92a13.25,13.25,0,0,1,1.15-2.1,5.12,5.12,0,0,1,.58-.71,15.8,15.8,0,0,0,1.39-1.32A2.16,2.16,0,0,0,447,25a3.1,3.1,0,0,0-.06-1.48c-.07-.33-.17-.65-.24-1a3.12,3.12,0,0,1,0-1.18,1,1,0,0,1,.65-.93c.26-.06.56,0,.81-.1a.6.6,0,0,0,.12-.11c.2-.22.06-.43,0-.65a.36.36,0,0,1,0-.17,3.76,3.76,0,0,1,.25-.57,2.77,2.77,0,0,1,1.09-1l.29-.16a3.33,3.33,0,0,0,1.54-1.27,2.31,2.31,0,0,0-.6-2.86l0-1.05c.53-.29,1.86-.63,2.25-1.18.52-.74,0-1.43-.17-2.27-.35-2.52,2.24-3.07,0-5.31a11.15,11.15,0,0,0-3.85-2.61,10.7,10.7,0,0,0-1.39-.45l-.18,0a3.62,3.62,0,0,0-.93,0A7.76,7.76,0,0,0,443,2.36C441.92,3.18,440.89,4.13,440,4.93Z" transform="translate(-12.12 0)"/><path class="cls-33" d="M440.48,4.85c-2.17,1.85-2.4,5.63-2.42,8.78V14.8c0,1.71,0,3.42,0,5.13a8.83,8.83,0,0,1-.36,3.14c-.37,1-1.1,1.81-1.23,2.89s.37,2.12.2,3.17a4.5,4.5,0,0,1-.42,1.2,4.39,4.39,0,0,0-.42,1.33c-.11,1,.43,2,.25,3-.14.72-.63,1.27-.78,2a2.82,2.82,0,0,0,.91,2.47,4.12,4.12,0,0,0,.47.38,14,14,0,0,0,1.83-.21c.29-.05.58-.1.87-.17a3.65,3.65,0,0,0,1.41-.54,3,3,0,0,0,1.33-1.65,14.66,14.66,0,0,0,.18-3.27,8.5,8.5,0,0,1,.76-2.78c.13-.31.28-.61.42-.91a15,15,0,0,1,1.15-2.09,6.81,6.81,0,0,1,.59-.7,14.36,14.36,0,0,0,1.4-1.3,2.06,2.06,0,0,0,.43-.89,3.24,3.24,0,0,0-.09-1.48c-.08-.32-.18-.65-.25-1a2.93,2.93,0,0,1,0-1.18c.09-.46.31-.84.67-.91s.57.07.81-.09a.38.38,0,0,0,.12-.1c.21-.24,0-.45,0-.67a.52.52,0,0,1,0-.17,5.07,5.07,0,0,1,.27-.57,2.82,2.82,0,0,1,1.09-1l.29-.15a3.3,3.3,0,0,0,1.53-1.27,2.31,2.31,0,0,0-.6-2.86l0-1.05c.53-.29,1.86-.63,2.25-1.18.52-.74,0-1.43-.17-2.27-.35-2.52,2.24-3.07,0-5.31a11.65,11.65,0,0,0-3.7-2.59,8.6,8.6,0,0,0-1.34-.48l-.18,0a3.33,3.33,0,0,0-.89,0,7.29,7.29,0,0,0-3.6,1.77C442.34,3.15,441.36,4.1,440.48,4.85Z" transform="translate(-12.12 0)"/><path class="cls-34" d="M448.34,20.2c.25-.31-.1-.58,0-.85a2.87,2.87,0,0,1,1.37-1.58,3.89,3.89,0,0,0,1.81-1.41,2.31,2.31,0,0,0-.6-2.86l0-1.05c.53-.29,1.86-.63,2.25-1.18.52-.74,0-1.43-.17-2.27-.35-2.52,2.24-3.07,0-5.31A11.89,11.89,0,0,0,448.25.61l-.17,0C445.46.1,443,3.07,441,4.78c-2.45,2.09-2.37,6.68-2.38,10v5.14a8.75,8.75,0,0,1-.39,3.16c-.38,1-1.14,1.8-1.27,2.9s.38,2.13.21,3.18-.77,1.62-.86,2.54.45,2,.26,3c-.13.72-.65,1.27-.8,2a2.79,2.79,0,0,0,.92,2.48,3,3,0,0,0,.45.35,19.14,19.14,0,0,0,2.57-.42,3.15,3.15,0,0,0,2.52-2.26,17.33,17.33,0,0,0,.1-3.31,10.13,10.13,0,0,1,1.21-3.66,9.43,9.43,0,0,1,1.76-2.77c.68-.65,1.61-1.13,1.81-2.17a6.11,6.11,0,0,0-.38-2.45c-.18-.82,0-2,.69-2.08C447.71,20.32,448.08,20.52,448.34,20.2Z" transform="translate(-12.12 0)"/></g><g class="cls-35"><path class="cls-3" d="M20.33,5.51a21.57,21.57,0,0,0-2.42.09c-2.22.21-3.83,2.47-3.42,5.23a2.43,2.43,0,0,1-.27,1.78c-.25.33-.61.45-.9.7a3.43,3.43,0,0,0-.78,3c.14,1.07.54,2.06.77,3.11A4.37,4.37,0,0,1,13,22.52a5.56,5.56,0,0,0-.81,1.21,2.43,2.43,0,0,0,.29,1.8,7.72,7.72,0,0,1,.8,1.6c.44,1.65-.73,3.29-1,5a13.57,13.57,0,0,0,.11,2.13,24,24,0,0,0-.1,2.55,19.25,19.25,0,0,0,2.3,7c.53,1,2.87,1.13,3.72,1.28a17.88,17.88,0,0,0,4.68.22,2.14,2.14,0,0,0,1.39-.42,3.13,3.13,0,0,0,.81-2.22c.11-2.55-1-5.17-.26-7.58S27.74,31.41,28,29c.21-1.88-.82-3.57-1.14-5.42-.46-2.62.52-5,1.63-7.17.92-1.77.86-3.87,1.65-5.83.49-1.21.85-2.75.23-3.83s-1.88-1.13-3-1.08C25.09,5.78,22.68,5.53,20.33,5.51Z" transform="translate(-12.12 0)"/><path class="cls-4" d="M17.8,5.77A3.84,3.84,0,0,0,15.56,7a4.41,4.41,0,0,0-.86,1.38A5.28,5.28,0,0,0,14.42,11a2.46,2.46,0,0,1-.26,1.77c-.23.32-.58.45-.86.7a3.47,3.47,0,0,0-.74,2.93c0,.1,0,.2,0,.3.17.95.51,1.85.7,2.79a5.82,5.82,0,0,1,.11,1.72A3.08,3.08,0,0,1,13,22.55c-.12.18-.25.34-.38.5a2.23,2.23,0,0,0-.41.7,2.43,2.43,0,0,0,.29,1.78,8,8,0,0,1,.8,1.6,2,2,0,0,1,.05.24c.28,1.56-.78,3.11-1,4.74a3.72,3.72,0,0,0,0,1,10.1,10.1,0,0,1,.1,1.13c0,.43,0,.84-.08,1.26a7.66,7.66,0,0,0,0,1.27,14.73,14.73,0,0,0,.25,1.66,21.77,21.77,0,0,0,2,5.34c.52,1,2.78,1.11,3.62,1.28a16.4,16.4,0,0,0,3.57.29c.32,0,.65,0,1-.06a2.09,2.09,0,0,0,1.36-.44,2.22,2.22,0,0,0,.62-1.15,4.74,4.74,0,0,0,.14-1.06,12,12,0,0,0-.08-1.69c-.05-.55-.12-1.1-.19-1.65A22.14,22.14,0,0,1,24.37,37a6.83,6.83,0,0,1,.23-2c.62-2.17,2.52-3.59,2.94-5.78,0-.11,0-.22.05-.33a7,7,0,0,0-.4-2.89,19.83,19.83,0,0,1-.69-2.51,6.8,6.8,0,0,1-.1-1.18A10.73,10.73,0,0,1,27.46,18c.22-.52.46-1,.71-1.52C29,14.85,29,13,29.54,11.26c.07-.22.15-.44.24-.65.49-1.21.87-2.73.26-3.81s-1.82-1.12-2.86-1.09c-2.27.08-4.64-.18-6.94-.19-.3,0-.61,0-.91,0C18.79,5.61,18.29,5.68,17.8,5.77Z" transform="translate(-12.12 0)"/><path class="cls-5" d="M17.69,5.94a4.25,4.25,0,0,0-2.18,1.2,4.63,4.63,0,0,0-.86,1.36,5.14,5.14,0,0,0-.29,2.6,2.58,2.58,0,0,1-.25,1.75,5,5,0,0,1-.83.7,3.5,3.5,0,0,0-.7,2.9c0,.11,0,.21.05.3.17.94.5,1.83.68,2.77a5.62,5.62,0,0,1,.1,1.69A3.22,3.22,0,0,1,13,22.57a4.7,4.7,0,0,1-.38.5,2.18,2.18,0,0,0-.39.7,2.42,2.42,0,0,0,.29,1.76,7.61,7.61,0,0,1,.79,1.59,1.83,1.83,0,0,1,.06.25c.28,1.55-.77,3.09-1,4.72a3.66,3.66,0,0,0,0,1c0,.37.09.73.1,1.12s0,.84-.08,1.26a7.66,7.66,0,0,0,0,1.27,14.9,14.9,0,0,0,.24,1.65,21.73,21.73,0,0,0,2,5.32c.5,1,2.7,1.11,3.51,1.28a15.09,15.09,0,0,0,3.48.32c.32,0,.64,0,.94-.06a2.1,2.1,0,0,0,1.33-.47,2.21,2.21,0,0,0,.58-1.16,4.63,4.63,0,0,0,.12-1,15.74,15.74,0,0,0-.08-1.68q-.08-.83-.18-1.65c-.09-.75-.19-1.5-.21-2.24a6.82,6.82,0,0,1,.22-2c.59-2.16,2.43-3.61,2.86-5.78l.06-.33A6.9,6.9,0,0,0,26.81,26a22.12,22.12,0,0,1-.67-2.51,7.91,7.91,0,0,1-.09-1.18A11.07,11.07,0,0,1,27.15,18c.23-.52.46-1,.7-1.52.77-1.58.78-3.41,1.33-5.16q.11-.33.24-.66c.49-1.2.9-2.7.3-3.79S28,5.72,26.94,5.74c-2.21.06-4.53-.2-6.79-.22-.32,0-.63,0-.95.08C18.64,5.69,18.16,5.82,17.69,5.94Z" transform="translate(-12.12 0)"/><path class="cls-6" d="M17.58,6.1a4.71,4.71,0,0,0-2.11,1.23,4.48,4.48,0,0,0-.86,1.33,5,5,0,0,0-.31,2.57A2.67,2.67,0,0,1,14.06,13a5.28,5.28,0,0,1-.8.7,3.53,3.53,0,0,0-.65,2.88c0,.1,0,.2,0,.3.17.93.49,1.81.67,2.73a5.57,5.57,0,0,1,.07,1.68,3,3,0,0,1-.45,1.34c-.11.18-.25.33-.37.5a2.06,2.06,0,0,0-.38.68,2.4,2.4,0,0,0,.29,1.75,7.53,7.53,0,0,1,.79,1.58l.06.25c.28,1.55-.76,3.08-1,4.7a4,4,0,0,0,0,1c0,.37.09.74.09,1.12s0,.84-.06,1.26a7.53,7.53,0,0,0,0,1.26,13.12,13.12,0,0,0,.24,1.65,21.13,21.13,0,0,0,2,5.3c.49,1,2.62,1.11,3.41,1.29a14.75,14.75,0,0,0,3.38.34c.31,0,.62,0,.91-.07a2,2,0,0,0,1.29-.5,2.27,2.27,0,0,0,.56-1.15,5.26,5.26,0,0,0,.09-1,15.71,15.71,0,0,0-.09-1.67c0-.55-.1-1.1-.16-1.64-.08-.75-.18-1.5-.2-2.24a6.74,6.74,0,0,1,.2-1.95c.57-2.16,2.35-3.63,2.8-5.79l.06-.33A6.88,6.88,0,0,0,26.43,26a21.86,21.86,0,0,1-.65-2.5,6.75,6.75,0,0,1-.08-1.18A11.33,11.33,0,0,1,26.85,18c.22-.52.45-1,.69-1.52.74-1.58.73-3.41,1.28-5.16.07-.22.15-.43.24-.65.5-1.19.92-2.68.34-3.77s-1.71-1.11-2.7-1.09c-2.15,0-4.42-.23-6.63-.25a6.38,6.38,0,0,0-1,.12A12.34,12.34,0,0,0,17.58,6.1Z" transform="translate(-12.12 0)"/><path class="cls-7" d="M17.47,6.27a3.87,3.87,0,0,0-2,1.25,4.75,4.75,0,0,0-.87,1.31,5,5,0,0,0-.33,2.53A2.64,2.64,0,0,1,14,13.09c-.21.31-.52.45-.76.71a3.54,3.54,0,0,0-.61,2.84c0,.1,0,.2,0,.3.16.92.47,1.79.64,2.71a5.7,5.7,0,0,1,.06,1.65,3.2,3.2,0,0,1-.46,1.33c-.11.17-.24.33-.36.49a2.16,2.16,0,0,0-.38.68,2.44,2.44,0,0,0,.3,1.73,8,8,0,0,1,.79,1.58l.06.24c.28,1.54-.75,3.07-1,4.68a3.6,3.6,0,0,0,0,1c0,.37.09.73.09,1.12s0,.83-.06,1.25a8.63,8.63,0,0,0,0,1.25,14.71,14.71,0,0,0,.23,1.64,21,21,0,0,0,1.94,5.29c.48.95,2.54,1.1,3.32,1.29a13.87,13.87,0,0,0,3.28.37c.3,0,.61,0,.88-.08a2,2,0,0,0,1.26-.52,2.3,2.3,0,0,0,.52-1.16,5.92,5.92,0,0,0,.08-1c0-.55-.06-1.1-.1-1.66s-.09-1.09-.14-1.64c-.08-.75-.18-1.49-.2-2.23A7.06,7.06,0,0,1,23.56,35c.55-2.16,2.27-3.65,2.73-5.8a1.65,1.65,0,0,0,.06-.32A6.86,6.86,0,0,0,26.06,26a21.14,21.14,0,0,1-.64-2.49,6.68,6.68,0,0,1-.07-1.17A11.65,11.65,0,0,1,26.54,18c.22-.51.45-1,.68-1.51.72-1.59.69-3.42,1.24-5.15.07-.22.15-.44.24-.65.5-1.19.94-2.66.38-3.76s-1.66-1.1-2.62-1.09c-2.09,0-4.32-.25-6.48-.27a5.12,5.12,0,0,0-1,.15A4.81,4.81,0,0,0,17.47,6.27Z" transform="translate(-12.12 0)"/><path class="cls-8" d="M17.36,6.44a3.9,3.9,0,0,0-2,1.27A4.71,4.71,0,0,0,14.52,9a4.89,4.89,0,0,0-.35,2.51A2.76,2.76,0,0,1,14,13.2c-.2.32-.5.46-.73.72a3.61,3.61,0,0,0-.57,2.82c0,.09,0,.19,0,.29.16.91.47,1.78.62,2.68a5.63,5.63,0,0,1,0,1.64,3.22,3.22,0,0,1-.47,1.3c-.11.17-.24.33-.36.49a2.11,2.11,0,0,0-.36.68,2.45,2.45,0,0,0,.3,1.71,8.55,8.55,0,0,1,.79,1.57,2,2,0,0,1,.05.24c.29,1.54-.73,3.06-1,4.66a4,4,0,0,0,0,1c0,.37.08.73.09,1.11s0,.83-.06,1.25a8.63,8.63,0,0,0,0,1.25,12.77,12.77,0,0,0,.22,1.63,21.21,21.21,0,0,0,1.92,5.27c.47.93,2.46,1.1,3.21,1.29a13.28,13.28,0,0,0,3.19.4c.3,0,.59-.06.85-.09a1.84,1.84,0,0,0,1.22-.55,2.19,2.19,0,0,0,.49-1.15,5.1,5.1,0,0,0,.06-1c0-.54-.07-1.09-.11-1.65s-.07-1.09-.12-1.63c-.07-.75-.17-1.49-.2-2.22a7,7,0,0,1,.18-1.94c.52-2.15,2.19-3.67,2.66-5.8l.06-.33a6.6,6.6,0,0,0-.26-2.85,21.73,21.73,0,0,1-.62-2.5A7.58,7.58,0,0,1,25,22.27,12,12,0,0,1,26.24,18c.22-.51.44-1,.66-1.51.7-1.59.66-3.42,1.2-5.14.07-.22.15-.44.24-.65.5-1.19,1-2.64.41-3.74s-1.6-1.09-2.53-1.1c-2,0-4.21-.28-6.33-.29a4.9,4.9,0,0,0-1.07.19A3.9,3.9,0,0,0,17.36,6.44Z" transform="translate(-12.12 0)"/><path class="cls-9" d="M17.25,6.61a4.1,4.1,0,0,0-1.91,1.28,5.11,5.11,0,0,0-.87,1.27,4.73,4.73,0,0,0-.36,2.47,2.87,2.87,0,0,1-.22,1.69,5.9,5.9,0,0,1-.69.72,3.63,3.63,0,0,0-.52,2.79c0,.1,0,.19,0,.29.17.9.46,1.76.6,2.66a5.12,5.12,0,0,1,0,1.61,3.18,3.18,0,0,1-.47,1.29c-.11.17-.23.32-.35.49a2,2,0,0,0-.35.67,2.45,2.45,0,0,0,.3,1.69,7.84,7.84,0,0,1,.78,1.56,1.05,1.05,0,0,1,.06.24c.29,1.53-.71,3.05-1,4.65a4,4,0,0,0,0,1c0,.37.08.72.08,1.1s0,.83,0,1.25a8.49,8.49,0,0,0,0,1.24,12.36,12.36,0,0,0,.2,1.62,21.1,21.1,0,0,0,1.9,5.26c.45.91,2.37,1.1,3.11,1.3a12.45,12.45,0,0,0,3.1.42c.28,0,.57-.07.81-.1a1.84,1.84,0,0,0,1.19-.57,2.37,2.37,0,0,0,.46-1.15,6,6,0,0,0,0-1c0-.54-.08-1.09-.11-1.64S23,39.56,22.9,39c-.06-.74-.16-1.48-.19-2.21a7.45,7.45,0,0,1,.16-1.94c.5-2.14,2.11-3.69,2.6-5.8l.06-.32a6.77,6.77,0,0,0-.23-2.85,23.15,23.15,0,0,1-.6-2.49,6.48,6.48,0,0,1-.05-1.16A12.24,12.24,0,0,1,25.93,18l.65-1.51c.68-1.59.62-3.42,1.16-5.14.07-.22.15-.43.24-.64.5-1.19,1-2.63.45-3.73A2.49,2.49,0,0,0,26,5.87c-2,0-4.11-.3-6.18-.31a4.13,4.13,0,0,0-1.1.22A3.36,3.36,0,0,0,17.25,6.61Z" transform="translate(-12.12 0)"/><path class="cls-10" d="M17.14,6.78a4.31,4.31,0,0,0-1.85,1.3,5.82,5.82,0,0,0-.87,1.25,4.6,4.6,0,0,0-.37,2.44,3,3,0,0,1-.21,1.67,5.7,5.7,0,0,1-.66.72,3.7,3.7,0,0,0-.48,2.76,2.93,2.93,0,0,0,.05.29c.16.89.44,1.75.58,2.63a5.72,5.72,0,0,1,0,1.6,3.37,3.37,0,0,1-.48,1.26c-.11.17-.23.33-.34.49a1.77,1.77,0,0,0-.34.67,2.4,2.4,0,0,0,.3,1.67,7.84,7.84,0,0,1,.78,1.56,2.1,2.1,0,0,1,.06.24c.29,1.52-.7,3-1,4.62a3.92,3.92,0,0,0,0,1c0,.37.07.73.08,1.11s0,.82,0,1.24a8.46,8.46,0,0,0,0,1.24,12.61,12.61,0,0,0,.19,1.61,20.67,20.67,0,0,0,1.88,5.24c.44.9,2.29,1.09,3,1.3a11.79,11.79,0,0,0,3,.45c.27,0,.55-.07.78-.1a1.85,1.85,0,0,0,1.15-.6,2.42,2.42,0,0,0,.43-1.16,5.78,5.78,0,0,0,0-1c0-.54-.1-1.09-.13-1.65s0-1.07-.08-1.61c-.06-.74-.16-1.48-.19-2.21a7.37,7.37,0,0,1,.15-1.93c.47-2.14,2-3.71,2.52-5.8,0-.11.05-.22.07-.33a6.67,6.67,0,0,0-.2-2.83,21.83,21.83,0,0,1-.57-2.49,6.37,6.37,0,0,1-.05-1.15A12.5,12.5,0,0,1,25.63,18c.22-.5.43-1,.63-1.5.65-1.59.58-3.42,1.12-5.13.07-.22.15-.43.24-.65.51-1.18,1-2.6.49-3.7A2.41,2.41,0,0,0,25.74,5.9c-1.92-.07-4-.32-6-.33a4.18,4.18,0,0,0-1.14.26A3,3,0,0,0,17.14,6.78Z" transform="translate(-12.12 0)"/><path class="cls-11" d="M17,7a4.48,4.48,0,0,0-1.78,1.32,5.53,5.53,0,0,0-.87,1.22A4.49,4.49,0,0,0,14,11.9a3,3,0,0,1-.2,1.66,4.87,4.87,0,0,1-.62.72A3.8,3.8,0,0,0,12.72,17c0,.09,0,.19,0,.28.16.88.44,1.73.56,2.61a5.16,5.16,0,0,1,0,1.57,3.32,3.32,0,0,1-.48,1.25c-.1.17-.23.32-.34.48a2.15,2.15,0,0,0-.33.66,2.47,2.47,0,0,0,.31,1.66,8.33,8.33,0,0,1,.78,1.55l.06.24c.3,1.51-.69,3-1,4.6a3.92,3.92,0,0,0,0,1c0,.37.07.73.08,1.1s0,.82,0,1.24a8.35,8.35,0,0,0,0,1.23,12.59,12.59,0,0,0,.18,1.61,21.49,21.49,0,0,0,1.85,5.23c.43.87,2.21,1.08,2.91,1.3a11.42,11.42,0,0,0,2.91.47c.27,0,.54-.08.75-.11A1.82,1.82,0,0,0,22,44.32a2.26,2.26,0,0,0,.39-1.15,7,7,0,0,0,0-1c0-.54-.11-1.08-.14-1.64s0-1.07-.06-1.6c-.05-.74-.15-1.48-.19-2.21a8.29,8.29,0,0,1,.14-1.92c.45-2.13,1.95-3.73,2.46-5.81,0-.11.05-.21.07-.32a6.65,6.65,0,0,0-.17-2.83A21.12,21.12,0,0,1,24,23.34a6.35,6.35,0,0,1,0-1.15A13,13,0,0,1,25.32,18c.22-.5.43-1,.62-1.51.63-1.59.54-3.41,1.08-5.12.07-.21.15-.43.24-.64.51-1.18,1-2.58.52-3.69-.43-1-1.43-1.06-2.28-1.11-1.86-.09-3.89-.34-5.88-.35a3.87,3.87,0,0,0-1.18.3A2.7,2.7,0,0,0,17,7Z" transform="translate(-12.12 0)"/><path class="cls-12" d="M16.92,7.12A4.72,4.72,0,0,0,15.2,8.46a5.75,5.75,0,0,0-.87,1.2A4.44,4.44,0,0,0,13.92,12a3.16,3.16,0,0,1-.19,1.64,5.52,5.52,0,0,1-.59.73,3.84,3.84,0,0,0-.39,2.71c0,.09,0,.19,0,.28.16.87.43,1.72.54,2.59a4.74,4.74,0,0,1,0,1.55,3.57,3.57,0,0,1-.49,1.23c-.1.16-.22.31-.33.47a1.93,1.93,0,0,0-.32.66,2.49,2.49,0,0,0,.31,1.64,8.56,8.56,0,0,1,.78,1.54l.06.24c.3,1.51-.68,3-1,4.58a3.94,3.94,0,0,0,0,1c0,.37.06.72.07,1.09a10.27,10.27,0,0,1,0,1.24c0,.4,0,.8,0,1.22A10.73,10.73,0,0,0,12.5,38a20.56,20.56,0,0,0,1.82,5.22c.42.85,2.13,1.07,2.8,1.3a10.85,10.85,0,0,0,2.82.5c.26,0,.52-.09.72-.12a1.7,1.7,0,0,0,1.08-.65,2.3,2.3,0,0,0,.36-1.16,5.72,5.72,0,0,0,0-1c0-.53-.11-1.07-.14-1.63s0-1.06-.05-1.6c0-.73-.14-1.47-.18-2.19a8.27,8.27,0,0,1,.12-1.92c.43-2.13,1.87-3.75,2.39-5.81,0-.11.05-.22.08-.33a6.45,6.45,0,0,0-.14-2.82,23.63,23.63,0,0,1-.53-2.47,5.54,5.54,0,0,1,0-1.15A13.16,13.16,0,0,1,25,18c.21-.5.42-1,.61-1.51.6-1.59.49-3.41,1-5.11.07-.22.15-.43.24-.64.51-1.18,1.06-2.56.56-3.67C27.05,6.14,26.08,6,25.26,6c-1.8-.12-3.79-.36-5.73-.37a3.83,3.83,0,0,0-1.21.33A2.54,2.54,0,0,0,16.92,7.12Z" transform="translate(-12.12 0)"/><path class="cls-13" d="M16.81,7.29a5.11,5.11,0,0,0-1.65,1.36,5.83,5.83,0,0,0-.87,1.17,4.26,4.26,0,0,0-.43,2.35,3.32,3.32,0,0,1-.18,1.62,6.35,6.35,0,0,1-.56.73,3.93,3.93,0,0,0-.35,2.68,2.33,2.33,0,0,0,.05.28c.16.86.41,1.7.52,2.56a4.9,4.9,0,0,1,0,1.53,3.41,3.41,0,0,1-.5,1.21c-.1.16-.22.32-.32.48a1.86,1.86,0,0,0-.31.65,2.43,2.43,0,0,0,.31,1.62,8.15,8.15,0,0,1,.78,1.53,2,2,0,0,1,.05.24c.31,1.51-.66,3-1,4.57a4.39,4.39,0,0,0,0,.95c0,.36.06.72.07,1.09s0,.81,0,1.22a10,10,0,0,0,0,1.23A10.73,10.73,0,0,0,12.49,38a20.38,20.38,0,0,0,1.8,5.2c.4.84,2.05,1.07,2.7,1.3a10.16,10.16,0,0,0,2.72.53,6.63,6.63,0,0,0,.69-.13,1.68,1.68,0,0,0,1.05-.68A2.5,2.5,0,0,0,21.78,43a8.61,8.61,0,0,0,0-1c-.06-.53-.13-1.07-.16-1.62s0-1.06,0-1.59c0-.73-.14-1.47-.18-2.19a8.14,8.14,0,0,1,.11-1.91c.4-2.12,1.79-3.77,2.32-5.82,0-.11.05-.21.07-.32a6.38,6.38,0,0,0-.1-2.81,23.53,23.53,0,0,1-.51-2.47,5.44,5.44,0,0,1,0-1.14A13.59,13.59,0,0,1,24.71,18c.22-.51.41-1,.6-1.51.58-1.59.45-3.41,1-5.1a5,5,0,0,1,.25-.64c.5-1.17,1.07-2.54.59-3.66A2.2,2.2,0,0,0,25,6c-1.74-.15-3.68-.4-5.58-.4A3.65,3.65,0,0,0,18.19,6,2.46,2.46,0,0,0,16.81,7.29Z" transform="translate(-12.12 0)"/><path class="cls-14" d="M16.7,7.45a5.9,5.9,0,0,0-1.59,1.39A7,7,0,0,0,14.24,10a4.32,4.32,0,0,0-.45,2.31,3.4,3.4,0,0,1-.17,1.61,5.06,5.06,0,0,1-.53.73,4.14,4.14,0,0,0-.3,2.66c0,.09,0,.18.05.27.16.85.41,1.69.5,2.54a4.78,4.78,0,0,1-.06,1.51,3.39,3.39,0,0,1-.5,1.19c-.1.16-.21.31-.32.47a1.91,1.91,0,0,0-.29.65,2.42,2.42,0,0,0,.31,1.6,7.56,7.56,0,0,1,.77,1.53,1.12,1.12,0,0,1,.06.23c.31,1.5-.65,3-.94,4.55a4.41,4.41,0,0,0-.06.95c0,.36,0,.71.07,1.08s0,.81,0,1.22,0,.8,0,1.22a10.71,10.71,0,0,0,.16,1.59,20.33,20.33,0,0,0,1.78,5.18c.39.82,2,1.07,2.6,1.31a9.41,9.41,0,0,0,2.63.55,4.28,4.28,0,0,0,.65-.14,1.64,1.64,0,0,0,1-.7,2.44,2.44,0,0,0,.3-1.16,6.87,6.87,0,0,0-.06-1c-.06-.52-.14-1.06-.16-1.61s0-1.06,0-1.59c0-.72-.13-1.46-.17-2.18a8.08,8.08,0,0,1,.09-1.9c.38-2.12,1.71-3.79,2.25-5.82,0-.11.06-.22.08-.33a6.33,6.33,0,0,0-.07-2.8,23,23,0,0,1-.49-2.47,5.34,5.34,0,0,1,0-1.13A13.9,13.9,0,0,1,24.41,18c.21-.5.4-1,.58-1.5.56-1.59.41-3.41,1-5.1a4.86,4.86,0,0,1,.25-.63c.5-1.17,1.09-2.52.63-3.65a2.17,2.17,0,0,0-2-1.11,54.18,54.18,0,0,0-5.42-.42,3.69,3.69,0,0,0-1.3.4A2.41,2.41,0,0,0,16.7,7.45Z" transform="translate(-12.12 0)"/><path class="cls-15" d="M16.59,7.62A6.35,6.35,0,0,0,15.07,9a6.46,6.46,0,0,0-.88,1.13,4.16,4.16,0,0,0-.46,2.27,3.79,3.79,0,0,1-.16,1.6,5.84,5.84,0,0,1-.5.73,4.29,4.29,0,0,0-.25,2.63c0,.09,0,.18,0,.27.16.84.4,1.68.48,2.51a4.63,4.63,0,0,1-.07,1.49,3.62,3.62,0,0,1-.51,1.17l-.31.47a2.12,2.12,0,0,0-.29.65,2.51,2.51,0,0,0,.32,1.58,8.34,8.34,0,0,1,.77,1.52l.06.24c.31,1.49-.64,3-.93,4.52a3.83,3.83,0,0,0-.07.94c0,.37,0,.72.06,1.09s0,.8,0,1.21,0,.8,0,1.21a12.06,12.06,0,0,0,.15,1.58A20.09,20.09,0,0,0,14.23,43c.38.8,1.88,1.06,2.49,1.31a8.85,8.85,0,0,0,2.54.58,4.89,4.89,0,0,0,.62-.14,1.63,1.63,0,0,0,1-.73,2.6,2.6,0,0,0,.26-1.16,5.77,5.77,0,0,0-.08-1c-.07-.52-.15-1-.17-1.6s0-1.05,0-1.58c0-.73-.12-1.46-.17-2.17a8.62,8.62,0,0,1,.09-1.9c.35-2.12,1.63-3.81,2.18-5.83,0-.11.06-.22.08-.32a6.32,6.32,0,0,0,0-2.8,22.71,22.71,0,0,1-.47-2.46,6.09,6.09,0,0,1,0-1.13,14.46,14.46,0,0,1,1.54-4c.22-.5.4-1,.57-1.5.54-1.6.38-3.42.91-5.09a5,5,0,0,1,.25-.64c.51-1.16,1.12-2.49.66-3.62a2.08,2.08,0,0,0-1.95-1.12,43.52,43.52,0,0,0-5.27-.44,3.58,3.58,0,0,0-1.34.44A2.35,2.35,0,0,0,16.59,7.62Z" transform="translate(-12.12 0)"/><path class="cls-16" d="M16.48,7.79A7.49,7.49,0,0,0,15,9.22a7.65,7.65,0,0,0-.87,1.1,4,4,0,0,0-.48,2.25,3.73,3.73,0,0,1-.16,1.58,5.7,5.7,0,0,1-.46.73,4.39,4.39,0,0,0-.21,2.61,2.38,2.38,0,0,0,.05.26c.15.83.38,1.66.45,2.49a4.26,4.26,0,0,1-.09,1.47,3.61,3.61,0,0,1-.51,1.15c-.1.16-.21.31-.3.46a1.89,1.89,0,0,0-.28.65,2.51,2.51,0,0,0,.32,1.56A8.93,8.93,0,0,1,13.25,27l.06.24c.31,1.48-.62,3-.93,4.5a4.39,4.39,0,0,0-.07.94c0,.37,0,.72.06,1.08a9.77,9.77,0,0,1,0,1.21c0,.4,0,.8,0,1.21a12,12,0,0,0,.14,1.57,20.41,20.41,0,0,0,1.73,5.15c.37.78,1.8,1.06,2.4,1.31a8.59,8.59,0,0,0,2.44.62,5.23,5.23,0,0,0,.59-.16,1.57,1.57,0,0,0,.94-.76,2.41,2.41,0,0,0,.23-1.16,5.52,5.52,0,0,0-.1-1c-.07-.52-.16-1.05-.18-1.6s0-1.05,0-1.58c0-.72-.12-1.45-.17-2.16a8.55,8.55,0,0,1,.07-1.89c.33-2.11,1.55-3.83,2.12-5.83,0-.11.05-.22.08-.33a6.21,6.21,0,0,0,0-2.78,23.1,23.1,0,0,1-.45-2.46,5.23,5.23,0,0,1,0-1.12,14.92,14.92,0,0,1,1.59-4c.21-.5.39-1,.55-1.5.52-1.6.34-3.42.87-5.09a5.5,5.5,0,0,1,.25-.63c.51-1.16,1.14-2.47.7-3.61A2,2,0,0,0,24.3,6.09a38.77,38.77,0,0,0-5.12-.47,3.81,3.81,0,0,0-1.37.48A2.38,2.38,0,0,0,16.48,7.79Z" transform="translate(-12.12 0)"/><path class="cls-17" d="M16.37,8A9.29,9.29,0,0,0,15,9.41a7.68,7.68,0,0,0-.88,1.08,4,4,0,0,0-.49,2.21,4.15,4.15,0,0,1-.15,1.56A7.23,7.23,0,0,1,13,15a4.57,4.57,0,0,0-.17,2.58c0,.09,0,.18.05.26a23.7,23.7,0,0,1,.44,2.47,4.63,4.63,0,0,1-.11,1.44,3.93,3.93,0,0,1-.52,1.14l-.3.46a2,2,0,0,0-.26.63,2.48,2.48,0,0,0,.32,1.55A8.93,8.93,0,0,1,13.25,27l.06.23c.31,1.48-.61,2.95-.92,4.49a4.23,4.23,0,0,0-.08.93c0,.36,0,.71.06,1.07s0,.8,0,1.21,0,.79,0,1.2a11.72,11.72,0,0,0,.13,1.56,20.31,20.31,0,0,0,1.71,5.14c.36.77,1.72,1.05,2.29,1.32a8.36,8.36,0,0,0,2.35.64,3.88,3.88,0,0,0,.56-.17,1.59,1.59,0,0,0,.91-.78,2.58,2.58,0,0,0,.2-1.16,8.45,8.45,0,0,0-.12-1,10.46,10.46,0,0,1-.19-1.59c0-.54.05-1,.05-1.57,0-.72-.11-1.45-.16-2.16a8.56,8.56,0,0,1,.05-1.89c.31-2.1,1.48-3.84,2-5.83l.09-.32a6.2,6.2,0,0,0,0-2.78c-.14-.81-.37-1.63-.43-2.45a5.23,5.23,0,0,1,0-1.12c.21-1.49,1.05-2.61,1.63-4A14,14,0,0,0,24,16.55c.5-1.6.3-3.42.83-5.08.07-.21.16-.42.25-.63.51-1.16,1.16-2.45.74-3.59a2,2,0,0,0-1.79-1.13,30.89,30.89,0,0,0-5-.49,3.73,3.73,0,0,0-1.41.52A2.38,2.38,0,0,0,16.37,8Z" transform="translate(-12.12 0)"/><path class="cls-18" d="M16.25,8.13a12.48,12.48,0,0,0-1.32,1.46,9.59,9.59,0,0,0-.87,1.06,3.87,3.87,0,0,0-.52,2.19,4.3,4.3,0,0,1-.14,1.54,5.69,5.69,0,0,1-.39.74,4.68,4.68,0,0,0-.12,2.55c0,.09,0,.18,0,.26a19.17,19.17,0,0,1,.42,2.44,4.54,4.54,0,0,1-.12,1.43,4.05,4.05,0,0,1-.53,1.11c-.09.15-.2.3-.29.46a1.74,1.74,0,0,0-.25.63,2.41,2.41,0,0,0,.32,1.53,8.8,8.8,0,0,1,.76,1.5,2,2,0,0,1,.07.23c.31,1.48-.6,2.94-.92,4.47a4.94,4.94,0,0,0-.08.93c0,.36,0,.71,0,1.07a12,12,0,0,1,0,1.2c0,.4,0,.79,0,1.19a10.23,10.23,0,0,0,.11,1.56,20.13,20.13,0,0,0,1.69,5.12c.34.75,1.63,1.05,2.19,1.32a7.78,7.78,0,0,0,2.25.67,3.2,3.2,0,0,0,.53-.18A1.47,1.47,0,0,0,20,43.8a2.58,2.58,0,0,0,.17-1.16,8.72,8.72,0,0,0-.14-1,10.16,10.16,0,0,1-.2-1.59c0-.53.07-1,.07-1.55,0-.72-.11-1.44-.16-2.15a9.19,9.19,0,0,1,.05-1.89c.28-2.1,1.39-3.86,2-5.84l.09-.32a6.09,6.09,0,0,0,.05-2.76c-.13-.82-.36-1.63-.41-2.45a6,6,0,0,1,0-1.12c.23-1.48,1.09-2.58,1.68-3.95a13.93,13.93,0,0,0,.53-1.49c.46-1.6.25-3.42.78-5.07a5.9,5.9,0,0,1,.25-.63c.51-1.16,1.18-2.43.77-3.58a1.93,1.93,0,0,0-1.7-1.13A26.88,26.88,0,0,0,19,5.64a3.8,3.8,0,0,0-1.45.55A2.47,2.47,0,0,0,16.25,8.13Z" transform="translate(-12.12 0)"/><path class="cls-19" d="M16.14,8.3c-.39.36-.78.93-1.25,1.48a10.76,10.76,0,0,0-.88,1A3.8,3.8,0,0,0,13.48,13a5.05,5.05,0,0,1-.13,1.53c-.1.29-.25.49-.36.74a5,5,0,0,0-.08,2.53A2.21,2.21,0,0,0,13,18a18.74,18.74,0,0,1,.39,2.42,4.1,4.1,0,0,1-.14,1.4,4.3,4.3,0,0,1-.53,1.1c-.09.15-.2.29-.29.45a2,2,0,0,0-.24.63,2.58,2.58,0,0,0,.33,1.51A8.7,8.7,0,0,1,13.24,27a1.12,1.12,0,0,1,.06.23c.33,1.47-.58,2.93-.9,4.45a4.22,4.22,0,0,0-.09.92c0,.37,0,.71,0,1.07a12,12,0,0,1,0,1.2c0,.39,0,.78,0,1.19a9.12,9.12,0,0,0,.11,1.55,19.49,19.49,0,0,0,1.66,5.11c.33.72,1.55,1,2.08,1.32a7.53,7.53,0,0,0,2.17.69,2.27,2.27,0,0,0,.49-.19,1.49,1.49,0,0,0,.84-.83,2.77,2.77,0,0,0,.13-1.16,7,7,0,0,0-.16-1,8.13,8.13,0,0,1-.2-1.58c0-.53.07-1,.09-1.55,0-.71-.11-1.43-.16-2.14a9.1,9.1,0,0,1,0-1.88c.26-2.09,1.32-3.88,1.91-5.84,0-.11.07-.22.1-.32a6.07,6.07,0,0,0,.08-2.76c-.12-.81-.34-1.62-.39-2.45a5.76,5.76,0,0,1,.05-1.1c.24-1.48,1.14-2.55,1.72-3.92a12,12,0,0,0,.52-1.49c.44-1.61.21-3.42.74-5.07.07-.21.16-.42.25-.62.51-1.16,1.2-2.41.81-3.56a1.89,1.89,0,0,0-1.62-1.14,23.39,23.39,0,0,0-4.67-.53,3.66,3.66,0,0,0-1.48.59A2.48,2.48,0,0,0,16.14,8.3Z" transform="translate(-12.12 0)"/><path class="cls-20" d="M16,8.47c-.35.37-.72.95-1.19,1.5-.29.35-.62.64-.88,1a3.69,3.69,0,0,0-.54,2.11,5.36,5.36,0,0,1-.12,1.52c-.09.29-.23.49-.33.74a5.22,5.22,0,0,0,0,2.5c0,.09,0,.17.05.25a18.25,18.25,0,0,1,.38,2.39,4.31,4.31,0,0,1-.16,1.39A4.45,4.45,0,0,1,12.67,23c-.1.15-.2.3-.29.45a2,2,0,0,0-.23.63,2.52,2.52,0,0,0,.33,1.49A8.7,8.7,0,0,1,13.24,27a1.55,1.55,0,0,1,.06.23c.33,1.46-.57,2.91-.89,4.42a4.24,4.24,0,0,0-.1.92c0,.37,0,.71,0,1.06s0,.79,0,1.2-.05.78-.05,1.18a10,10,0,0,0,.1,1.54,19.64,19.64,0,0,0,1.64,5.1c.31.7,1.46,1,2,1.32a7,7,0,0,0,2.07.72,2.46,2.46,0,0,0,.46-.19,1.51,1.51,0,0,0,.8-.86,2.51,2.51,0,0,0,.1-1.16,8.59,8.59,0,0,0-.17-1A7.25,7.25,0,0,1,19.09,40c0-.53.09-1,.11-1.54,0-.71-.1-1.43-.15-2.14a9.75,9.75,0,0,1,0-1.87c.24-2.09,1.23-3.9,1.84-5.85l.09-.32a6,6,0,0,0,.12-2.75c-.11-.81-.33-1.62-.37-2.44a5.76,5.76,0,0,1,.06-1.1c.26-1.47,1.19-2.52,1.77-3.89a9.91,9.91,0,0,0,.5-1.48c.42-1.61.17-3.42.7-5.06.07-.21.16-.42.25-.63.52-1.14,1.22-2.37.85-3.54a1.82,1.82,0,0,0-1.54-1.13,19.35,19.35,0,0,0-4.52-.56,3.68,3.68,0,0,0-1.52.63A2.53,2.53,0,0,0,16,8.47Z" transform="translate(-12.12 0)"/><path class="cls-21" d="M15.92,8.64c-.32.39-.66,1-1.12,1.52-.29.35-.63.62-.88,1a3.69,3.69,0,0,0-.57,2.09,5.54,5.54,0,0,1-.11,1.49c-.08.3-.21.5-.29.76A5.41,5.41,0,0,0,13,18c0,.08,0,.16,0,.25a13.75,13.75,0,0,1,.36,2.36,4.1,4.1,0,0,1-.18,1.36A4.38,4.38,0,0,1,12.65,23a4.21,4.21,0,0,0-.28.45,1.64,1.64,0,0,0-.22.62,2.53,2.53,0,0,0,.33,1.47A8.61,8.61,0,0,1,13.24,27l.06.23c.33,1.45-.56,2.9-.89,4.41a4.09,4.09,0,0,0-.1.91,9.3,9.3,0,0,0,0,1.06,11.75,11.75,0,0,1,0,1.19c0,.39-.05.78-.05,1.17a10,10,0,0,0,.09,1.54A20,20,0,0,0,14,42.6c.31.69,1.39,1,1.89,1.32a6.37,6.37,0,0,0,2,.75,1.76,1.76,0,0,0,.43-.2,1.44,1.44,0,0,0,.76-.89,2.65,2.65,0,0,0,.08-1.16,9.14,9.14,0,0,0-.2-1,6.68,6.68,0,0,1-.23-1.56c0-.53.11-1,.13-1.54a17.08,17.08,0,0,0-.15-2.13,10.51,10.51,0,0,1,0-1.86c.22-2.09,1.16-3.93,1.77-5.85,0-.11.07-.22.1-.32a5.94,5.94,0,0,0,.16-2.74A22.39,22.39,0,0,1,20.4,23a4.49,4.49,0,0,1,.07-1.1c.27-1.46,1.22-2.48,1.8-3.85a8.66,8.66,0,0,0,.49-1.49c.4-1.6.14-3.41.66-5,.07-.22.16-.42.25-.63.52-1.14,1.24-2.35.89-3.52A1.8,1.8,0,0,0,23.1,6.25a16.56,16.56,0,0,0-4.37-.58,3.83,3.83,0,0,0-1.56.66A2.59,2.59,0,0,0,15.92,8.64Z" transform="translate(-12.12 0)"/><path class="cls-22" d="M15.81,8.8a18.18,18.18,0,0,1-1.06,1.55c-.29.35-.62.61-.88,1a3.54,3.54,0,0,0-.58,2,7,7,0,0,1-.1,1.48c-.07.29-.19.5-.26.76A5.78,5.78,0,0,0,13,18.05c0,.08,0,.16,0,.25a13.34,13.34,0,0,1,.33,2.33A3.81,3.81,0,0,1,13.17,22a5.13,5.13,0,0,1-.54,1,4.73,4.73,0,0,0-.28.44,1.82,1.82,0,0,0-.2.61,2.56,2.56,0,0,0,.33,1.46A9.73,9.73,0,0,1,13.24,27l.06.23c.33,1.45-.54,2.89-.88,4.39a4.81,4.81,0,0,0-.11.91,9.13,9.13,0,0,0,0,1,9.3,9.3,0,0,1,0,1.18c0,.4-.05.78-.05,1.18a9.94,9.94,0,0,0,.08,1.53A19.51,19.51,0,0,0,14,42.53c.3.67,1.3,1,1.78,1.33a6.17,6.17,0,0,0,1.88.77,1.1,1.1,0,0,0,.4-.21,1.43,1.43,0,0,0,.73-.91,2.82,2.82,0,0,0,0-1.16c0-.31-.14-.63-.22-1a6.19,6.19,0,0,1-.23-1.56c0-.52.12-1,.15-1.53a16.79,16.79,0,0,0-.15-2.12,11.54,11.54,0,0,1,0-1.86,27.06,27.06,0,0,1,1.71-5.86c0-.11.07-.21.1-.32a5.87,5.87,0,0,0,.19-2.73A22.49,22.49,0,0,1,20,23a4.42,4.42,0,0,1,.08-1.09c.29-1.46,1.27-2.46,1.85-3.82a8,8,0,0,0,.47-1.49c.38-1.6.1-3.41.63-5a4.67,4.67,0,0,1,.24-.62c.52-1.14,1.26-2.33.92-3.51a1.74,1.74,0,0,0-1.37-1.14,14.27,14.27,0,0,0-4.21-.6,3.66,3.66,0,0,0-1.6.7A2.62,2.62,0,0,0,15.81,8.8Z" transform="translate(-12.12 0)"/><path class="cls-23" d="M15.7,9a11.57,11.57,0,0,1-1,1.57c-.29.34-.62.6-.88,1a3.44,3.44,0,0,0-.6,2,7.66,7.66,0,0,1-.1,1.47c-.06.29-.16.5-.22.76A6.22,6.22,0,0,0,13,18.14c0,.08,0,.17.05.25a13.1,13.1,0,0,1,.32,2.31A3.63,3.63,0,0,1,13.15,22a4.74,4.74,0,0,1-.54,1c-.1.15-.19.29-.27.44a1.82,1.82,0,0,0-.2.61,2.6,2.6,0,0,0,.34,1.44A8.75,8.75,0,0,1,13.23,27c0,.08,0,.16.07.23.33,1.45-.53,2.88-.88,4.37a4.81,4.81,0,0,0-.11.91,7.32,7.32,0,0,0,0,1,11.35,11.35,0,0,1,0,1.17c0,.39,0,.78-.05,1.17a9.73,9.73,0,0,0,.07,1.52A19.67,19.67,0,0,0,14,42.46c.28.65,1.22,1,1.68,1.33a5.8,5.8,0,0,0,1.78.8.84.84,0,0,0,.37-.22,1.41,1.41,0,0,0,.69-.93,2.88,2.88,0,0,0,0-1.17c-.05-.31-.15-.62-.23-.94A5.35,5.35,0,0,1,18,39.78c0-.52.13-1,.17-1.52a13.65,13.65,0,0,0-.14-2.12,10.38,10.38,0,0,1,0-1.85,24.59,24.59,0,0,1,1.64-5.86c0-.11.07-.22.1-.32A5.8,5.8,0,0,0,20,25.39,22.42,22.42,0,0,1,19.68,23a4.42,4.42,0,0,1,.09-1.09c.31-1.45,1.32-2.42,1.89-3.78a8,8,0,0,0,.46-1.49c.36-1.61.06-3.42.59-5A4.67,4.67,0,0,1,23,11c.52-1.14,1.28-2.31,1-3.49a1.71,1.71,0,0,0-1.29-1.15,12.58,12.58,0,0,0-4.06-.62,3.8,3.8,0,0,0-1.64.73A2.71,2.71,0,0,0,15.7,9Z" transform="translate(-12.12 0)"/><path class="cls-24" d="M15.59,9.14a8.14,8.14,0,0,1-.92,1.59c-.29.34-.62.58-.89.92a3.36,3.36,0,0,0-.61,2,9.57,9.57,0,0,1-.09,1.45c-.05.28-.14.5-.19.76A6.85,6.85,0,0,0,13,18.24c0,.08,0,.16,0,.24a11.15,11.15,0,0,1,.3,2.29,3.74,3.74,0,0,1-.23,1.3,6.06,6.06,0,0,1-.55,1,2.73,2.73,0,0,0-.26.43,1.88,1.88,0,0,0-.19.61,2.62,2.62,0,0,0,.34,1.42A8.38,8.38,0,0,1,13.23,27a1.87,1.87,0,0,1,.07.22c.33,1.44-.52,2.87-.87,4.35a5.92,5.92,0,0,0-.13.9,9.13,9.13,0,0,0,0,1,11.33,11.33,0,0,1,.05,1.17c0,.39-.05.77-.06,1.16a9.76,9.76,0,0,0,.06,1.52,19.62,19.62,0,0,0,1.55,5c.27.63,1.14,1,1.57,1.33a5.37,5.37,0,0,0,1.7.83.66.66,0,0,0,.33-.23,1.4,1.4,0,0,0,.66-1,2.84,2.84,0,0,0,0-1.16c-.06-.31-.16-.62-.25-.94a4.92,4.92,0,0,1-.25-1.54c0-.52.14-1,.18-1.52a12.46,12.46,0,0,0-.13-2.11,11.36,11.36,0,0,1,0-1.85,23.58,23.58,0,0,1,1.57-5.86l.11-.32a5.86,5.86,0,0,0,.25-2.71c-.09-.81-.28-1.62-.29-2.43a4.27,4.27,0,0,1,.1-1.07c.32-1.45,1.36-2.39,1.94-3.76a8.43,8.43,0,0,0,.45-1.48c.33-1.61,0-3.42.54-5a4.54,4.54,0,0,1,.24-.61c.52-1.14,1.3-2.29,1-3.48a1.7,1.7,0,0,0-1.21-1.15,10.87,10.87,0,0,0-3.91-.64,3.8,3.8,0,0,0-1.68.77A2.76,2.76,0,0,0,15.59,9.14Z" transform="translate(-12.12 0)"/><path class="cls-25" d="M15.48,9.31a6.7,6.7,0,0,1-.86,1.61c-.28.34-.62.57-.89.9a3.29,3.29,0,0,0-.63,1.95A13.23,13.23,0,0,1,13,15.21c0,.28-.12.5-.16.76a7.54,7.54,0,0,0,.18,2.36c0,.08,0,.16,0,.24a10.26,10.26,0,0,1,.27,2.26,3.69,3.69,0,0,1-.24,1.29,6.62,6.62,0,0,1-.56,1,4.64,4.64,0,0,0-.26.44,1.73,1.73,0,0,0-.17.6,2.55,2.55,0,0,0,.34,1.4A10.45,10.45,0,0,1,13.23,27a2,2,0,0,1,.06.23c.34,1.43-.5,2.85-.85,4.33a4.58,4.58,0,0,0-.14.89,7.13,7.13,0,0,0,0,1,11.33,11.33,0,0,1,.05,1.17c0,.39,0,.77-.06,1.16a9.46,9.46,0,0,0,.06,1.5,19.36,19.36,0,0,0,1.51,5c.27.62,1.06,1,1.48,1.34a5,5,0,0,0,1.6.85.55.55,0,0,0,.3-.23,1.4,1.4,0,0,0,.62-1,2.9,2.9,0,0,0,0-1.17c-.08-.3-.18-.61-.28-.93a4.64,4.64,0,0,1-.26-1.53c0-.52.16-1,.2-1.51a10.54,10.54,0,0,0-.13-2.1,11.39,11.39,0,0,1,0-1.85,21.4,21.4,0,0,1,1.5-5.86A3,3,0,0,1,19,28a5.83,5.83,0,0,0,.28-2.71c-.08-.8-.27-1.61-.27-2.42a4.8,4.8,0,0,1,.11-1.07c.34-1.45,1.41-2.36,2-3.72a7.17,7.17,0,0,0,.44-1.48c.3-1.61,0-3.42.5-5a4.67,4.67,0,0,1,.24-.62c.53-1.13,1.31-2.26,1-3.45a1.66,1.66,0,0,0-1.12-1.16,9.48,9.48,0,0,0-3.76-.66,3.86,3.86,0,0,0-1.71.8A2.87,2.87,0,0,0,15.48,9.31Z" transform="translate(-12.12 0)"/><path class="cls-26" d="M15.37,9.48a5.26,5.26,0,0,1-.79,1.62c-.28.34-.62.56-.89.88A3.2,3.2,0,0,0,13,13.91c0,.47,0,1-.07,1.41s-.09.51-.12.77a8.38,8.38,0,0,0,.22,2.33l0,.24a9.44,9.44,0,0,1,.25,2.24,3.34,3.34,0,0,1-.26,1.26,6.51,6.51,0,0,1-.56,1,3.7,3.7,0,0,0-.25.43,1.72,1.72,0,0,0-.16.6,2.67,2.67,0,0,0,.34,1.38A10.92,10.92,0,0,1,13.23,27l.06.23c.35,1.42-.49,2.84-.85,4.31a6.85,6.85,0,0,0-.14.89,7.13,7.13,0,0,0,0,1,11,11,0,0,1,.05,1.16c0,.39,0,.77-.06,1.15a9.44,9.44,0,0,0,.05,1.5,19.5,19.5,0,0,0,1.49,5c.25.59,1,1,1.37,1.33a4.82,4.82,0,0,0,1.51.88c.14,0,.29-.2.27-.24a1.46,1.46,0,0,0,.59-1,3,3,0,0,0-.09-1.16c-.08-.3-.19-.61-.3-.93A4.56,4.56,0,0,1,17,39.59c0-.51.18-1,.23-1.5A10.49,10.49,0,0,0,17.05,36,12.49,12.49,0,0,1,17,34.16a20.6,20.6,0,0,1,1.43-5.87c0-.11.08-.21.11-.32a5.59,5.59,0,0,0,.32-2.69c-.08-.81-.25-1.61-.25-2.42a4.28,4.28,0,0,1,.12-1.07c.36-1.44,1.45-2.32,2-3.68a7.11,7.11,0,0,0,.42-1.48c.28-1.61-.07-3.42.46-5a4.67,4.67,0,0,1,.24-.62c.53-1.13,1.33-2.23,1.07-3.44a1.62,1.62,0,0,0-1-1.15,8.23,8.23,0,0,0-3.61-.69,3.83,3.83,0,0,0-1.75.84A2.93,2.93,0,0,0,15.37,9.48Z" transform="translate(-12.12 0)"/><path class="cls-27" d="M15.26,9.65a3.28,3.28,0,0,1-.73,1.64c-.27.34-.61.55-.89.86A3.12,3.12,0,0,0,13,14c0,.47,0,1-.06,1.4s-.08.51-.09.77a8.79,8.79,0,0,0,.27,2.31c0,.08,0,.15,0,.23A8.76,8.76,0,0,1,13.38,21a3.68,3.68,0,0,1-.28,1.25,7.59,7.59,0,0,1-.57.94,2.18,2.18,0,0,0-.24.42,1.56,1.56,0,0,0-.15.59,2.63,2.63,0,0,0,.34,1.37A10.33,10.33,0,0,1,13.23,27l.06.22c.35,1.42-.48,2.83-.84,4.29a5.52,5.52,0,0,0-.15.89,5.85,5.85,0,0,0,0,1,11,11,0,0,1,.06,1.16c0,.39,0,.76-.05,1.15a7.45,7.45,0,0,0,0,1.49,19.44,19.44,0,0,0,1.47,5c.24.57.89,1,1.27,1.34a4.7,4.7,0,0,0,1.41.9c.13,0,.27-.21.23-.25a1.39,1.39,0,0,0,.56-1A2.91,2.91,0,0,0,17.19,42c-.09-.3-.21-.6-.31-.92a4.06,4.06,0,0,1-.28-1.52c0-.51.18-1,.24-1.49A9.78,9.78,0,0,0,16.72,36a12.28,12.28,0,0,1-.08-1.83A19.14,19.14,0,0,1,18,28.25c0-.11.08-.22.11-.32a5.69,5.69,0,0,0,.35-2.69c-.07-.8-.24-1.61-.23-2.41a4.16,4.16,0,0,1,.13-1.06c.38-1.44,1.5-2.3,2.07-3.66a5.85,5.85,0,0,0,.41-1.47c.26-1.62-.1-3.42.42-5a4.54,4.54,0,0,1,.24-.61C22,9.9,22.85,8.81,22.62,7.6a1.65,1.65,0,0,0-1-1.16,7.29,7.29,0,0,0-3.46-.72,4.1,4.1,0,0,0-1.79.88C15.34,7.52,15.4,8.22,15.26,9.65Z" transform="translate(-12.12 0)"/><path class="cls-28" d="M15.15,9.82a3.14,3.14,0,0,1-.66,1.66c-.27.34-.62.53-.89.84a3,3,0,0,0-.68,1.85c0,.47,0,1-.06,1.39,0,.28,0,.51,0,.77a10.55,10.55,0,0,0,.31,2.28c0,.08,0,.15.05.23A8.52,8.52,0,0,1,13.38,21a3.32,3.32,0,0,1-.3,1.22,6.71,6.71,0,0,1-.57.92,3.5,3.5,0,0,0-.24.42,2,2,0,0,0-.14.59,2.74,2.74,0,0,0,.35,1.35A9.21,9.21,0,0,1,13.22,27a1.87,1.87,0,0,1,.07.22c.35,1.41-.47,2.82-.84,4.27a7,7,0,0,0-.15.88,5.83,5.83,0,0,0,0,1c0,.39.07.76.07,1.16s0,.76-.06,1.14a8.16,8.16,0,0,0,0,1.48,19.22,19.22,0,0,0,1.45,5A4.91,4.91,0,0,0,15,43.46a4.36,4.36,0,0,0,1.31.93c.13,0,.26-.22.2-.26A1.41,1.41,0,0,0,17,43.07a3.07,3.07,0,0,0-.16-1.17c-.09-.3-.22-.6-.33-.91a4.11,4.11,0,0,1-.29-1.52c0-.51.2-1,.26-1.49a8.48,8.48,0,0,0-.12-2.07,13.86,13.86,0,0,1-.08-1.83,18.3,18.3,0,0,1,1.29-5.88l.12-.31a5.52,5.52,0,0,0,.38-2.68c-.06-.8-.22-1.61-.21-2.41A4.74,4.74,0,0,1,18,21.74c.39-1.43,1.55-2.26,2.12-3.62a5.81,5.81,0,0,0,.39-1.47c.24-1.62-.14-3.42.38-5a4.54,4.54,0,0,1,.24-.61c.53-1.12,1.36-2.19,1.15-3.41a1.62,1.62,0,0,0-.88-1.16,6.33,6.33,0,0,0-3.31-.74,4,4,0,0,0-1.83.92C15.19,7.61,15.24,8.33,15.15,9.82Z" transform="translate(-12.12 0)"/><path class="cls-29" d="M15,10a2.92,2.92,0,0,1-.6,1.68,11.22,11.22,0,0,1-.89.81,3,3,0,0,0-.7,1.83c0,.45,0,.94,0,1.37,0,.27,0,.51,0,.77a12.83,12.83,0,0,0,.35,2.26c0,.07,0,.15,0,.22a7.6,7.6,0,0,1,.19,2.17,3.28,3.28,0,0,1-.31,1.2,10.61,10.61,0,0,1-.58.9,2.13,2.13,0,0,0-.23.42,1.63,1.63,0,0,0-.13.58,2.7,2.7,0,0,0,.35,1.33A10,10,0,0,1,13.22,27c0,.08,0,.15.07.22.35,1.41-.45,2.81-.83,4.26a6.64,6.64,0,0,0-.16.87,5.85,5.85,0,0,0,0,1,10.76,10.76,0,0,1,.07,1.15c0,.38,0,.75-.06,1.13a8.14,8.14,0,0,0,0,1.48,19.55,19.55,0,0,0,1.43,5,5.07,5.07,0,0,0,1.06,1.34,4.15,4.15,0,0,0,1.23,1c.11-.05.23-.22.16-.27A1.4,1.4,0,0,0,16.72,43a3.27,3.27,0,0,0-.18-1.16c-.11-.3-.24-.6-.36-.91a3.69,3.69,0,0,1-.29-1.51,14.84,14.84,0,0,1,.28-1.48,8.48,8.48,0,0,0-.12-2.07A13.6,13.6,0,0,1,16,34a17.49,17.49,0,0,1,1.23-5.89l.12-.31a5.44,5.44,0,0,0,.41-2.67c-.05-.8-.21-1.61-.19-2.4a4.75,4.75,0,0,1,.15-1.06c.41-1.42,1.59-2.23,2.16-3.58a5.4,5.4,0,0,0,.38-1.47c.22-1.62-.18-3.42.34-5a4.42,4.42,0,0,1,.24-.6c.54-1.12,1.37-2.17,1.18-3.39a1.65,1.65,0,0,0-.78-1.17A5.62,5.62,0,0,0,18,5.74a4.09,4.09,0,0,0-1.87,1C15,7.69,15.07,8.43,15,10Z" transform="translate(-12.12 0)"/><path class="cls-30" d="M14.93,10.15a2.79,2.79,0,0,1-.53,1.71,9.6,9.6,0,0,1-.9.79,2.9,2.9,0,0,0-.71,1.79c0,.45,0,.93,0,1.36,0,.27,0,.51,0,.77a14.59,14.59,0,0,0,.4,2.23c0,.07,0,.15,0,.22a7.39,7.39,0,0,1,.18,2.14,3.28,3.28,0,0,1-.33,1.18c-.17.32-.4.59-.59.88a2.1,2.1,0,0,0-.22.42,1.47,1.47,0,0,0-.12.58,2.73,2.73,0,0,0,.35,1.31A10,10,0,0,1,13.22,27a1.41,1.41,0,0,1,.06.22c.36,1.4-.43,2.78-.81,4.23a5.35,5.35,0,0,0-.17.87,5.74,5.74,0,0,0,0,1,8.65,8.65,0,0,1,.08,1.15c0,.38,0,.75-.06,1.13a9,9,0,0,0,0,1.47A19.89,19.89,0,0,0,13.74,42a5.89,5.89,0,0,0,1,1.35,3.88,3.88,0,0,0,1.13,1c.1-.05.22-.23.13-.27a1.44,1.44,0,0,0,.46-1.12,3.57,3.57,0,0,0-.22-1.17c-.11-.3-.25-.6-.37-.9a3.51,3.51,0,0,1-.31-1.5c0-.51.23-1,.3-1.47a8,8,0,0,0-.11-2.07A15.43,15.43,0,0,1,15.61,34a16.22,16.22,0,0,1,1.16-5.89l.12-.31a5.42,5.42,0,0,0,.44-2.67c0-.79-.2-1.6-.17-2.4a3.71,3.71,0,0,1,.17-1c.42-1.42,1.63-2.2,2.2-3.56a5.22,5.22,0,0,0,.37-1.46c.19-1.62-.23-3.42.29-5a4.54,4.54,0,0,1,.24-.61C21,10,21.81,8.93,21.65,7.7A1.73,1.73,0,0,0,21,6.53a4.83,4.83,0,0,0-3-.78,4,4,0,0,0-1.91,1C14.89,7.77,14.9,8.54,14.93,10.15Z" transform="translate(-12.12 0)"/><path class="cls-31" d="M14.82,10.32a2.69,2.69,0,0,1-.47,1.73,7,7,0,0,1-.89.76,2.86,2.86,0,0,0-.73,1.77,9.92,9.92,0,0,0,0,1.33c0,.28,0,.53.05.78a18.61,18.61,0,0,0,.44,2.2c0,.08,0,.15.05.22a6.9,6.9,0,0,1,.15,2.12A3.26,3.26,0,0,1,13,22.39c-.17.3-.4.57-.59.86a2.67,2.67,0,0,0-.22.41,1.65,1.65,0,0,0-.1.58,2.8,2.8,0,0,0,.35,1.29,10.51,10.51,0,0,1,.74,1.41l.06.22c.36,1.39-.42,2.77-.81,4.21-.07.29-.13.58-.17.87a4.82,4.82,0,0,0,0,1,10.73,10.73,0,0,1,.09,1.14c0,.39,0,.76-.07,1.13a8.88,8.88,0,0,0,0,1.46,19.79,19.79,0,0,0,1.38,4.93,7.07,7.07,0,0,0,.86,1.35,3.83,3.83,0,0,0,1,1c.1-.05.2-.24.1-.28a1.45,1.45,0,0,0,.42-1.15,3.06,3.06,0,0,0-.25-1.16c-.12-.3-.26-.6-.39-.9a3.3,3.3,0,0,1-.32-1.49c0-.51.24-1,.32-1.47a7.54,7.54,0,0,0-.1-2.06,15.09,15.09,0,0,1-.13-1.8,15.82,15.82,0,0,1,1.09-5.9c0-.11.09-.21.13-.31A5.42,5.42,0,0,0,17,25.1c0-.8-.18-1.6-.15-2.4a4.13,4.13,0,0,1,.18-1c.44-1.41,1.68-2.17,2.25-3.52a5.26,5.26,0,0,0,.35-1.47c.17-1.62-.27-3.42.25-5a4.54,4.54,0,0,1,.24-.61C20.61,10,21.46,9,21.33,7.74a1.8,1.8,0,0,0-.62-1.18,4.25,4.25,0,0,0-2.86-.8,4.22,4.22,0,0,0-2,1C14.74,7.86,14.73,8.65,14.82,10.32Z" transform="translate(-12.12 0)"/><path class="cls-32" d="M14.71,10.49a2.61,2.61,0,0,1-.4,1.75,7.08,7.08,0,0,1-.9.74,2.79,2.79,0,0,0-.75,1.73,7.29,7.29,0,0,0,0,1.32c0,.27,0,.53.07.78.11.71.32,1.44.49,2.18,0,.07,0,.14,0,.21a6.41,6.41,0,0,1,.13,2.09A3.11,3.11,0,0,1,13,22.43c-.18.3-.41.56-.6.85a1.76,1.76,0,0,0-.21.41,1.54,1.54,0,0,0-.1.56,2.83,2.83,0,0,0,.36,1.28,9.31,9.31,0,0,1,.73,1.4,1.87,1.87,0,0,1,.07.22c.36,1.39-.41,2.76-.8,4.19a6.72,6.72,0,0,0-.18.87,4.25,4.25,0,0,0,0,1c0,.37.09.74.09,1.13s0,.75-.07,1.12a7.11,7.11,0,0,0,0,1.46,19.59,19.59,0,0,0,1.35,4.91,7.12,7.12,0,0,0,.76,1.35,3.79,3.79,0,0,0,.94,1c.09,0,.19-.25.07-.29a1.47,1.47,0,0,0,.39-1.17,3.3,3.3,0,0,0-.29-1.17c-.12-.29-.27-.59-.41-.89a3.14,3.14,0,0,1-.32-1.48,14.08,14.08,0,0,1,.34-1.46,7.07,7.07,0,0,0-.11-2.05c-.07-.58-.12-1.19-.14-1.81a15.13,15.13,0,0,1,1-5.89l.12-.31a5.27,5.27,0,0,0,.51-2.65c0-.79-.17-1.6-.13-2.39a4.14,4.14,0,0,1,.19-1c.46-1.4,1.72-2.13,2.29-3.48a4.92,4.92,0,0,0,.34-1.47c.14-1.62-.31-3.42.21-5a5,5,0,0,1,.24-.6C20.25,10,21.11,9,21,7.77a1.81,1.81,0,0,0-.53-1.18,3.71,3.71,0,0,0-2.71-.82,4.2,4.2,0,0,0-2,1.06C14.59,7.94,14.56,8.77,14.71,10.49Z" transform="translate(-12.12 0)"/><path class="cls-33" d="M14.6,10.66a2.51,2.51,0,0,1-.34,1.77,6.1,6.1,0,0,1-.89.72,2.7,2.7,0,0,0-.77,1.69,6.38,6.38,0,0,0,0,1.31c0,.27.06.53.11.78.14.72.37,1.42.54,2.15,0,.07,0,.14,0,.21a6.28,6.28,0,0,1,.12,2.07A2.88,2.88,0,0,1,13,22.48c-.18.29-.41.53-.6.82a2,2,0,0,0-.2.41,1.53,1.53,0,0,0-.09.56,3.06,3.06,0,0,0,.36,1.26,9.77,9.77,0,0,1,.73,1.4,1.72,1.72,0,0,1,.07.21c.36,1.38-.4,2.75-.8,4.18a8.58,8.58,0,0,0-.18.85,4.84,4.84,0,0,0,0,1,10.32,10.32,0,0,1,.1,1.13c0,.38,0,.75-.07,1.12a7.66,7.66,0,0,0,0,1.44,19.49,19.49,0,0,0,1.33,4.9,9.43,9.43,0,0,0,.65,1.36,3.78,3.78,0,0,0,.85,1.06c.08-.06.17-.25,0-.3a1.44,1.44,0,0,0,.35-1.19,3.43,3.43,0,0,0-.31-1.17c-.14-.29-.3-.59-.43-.89a2.91,2.91,0,0,1-.34-1.48c0-.5.27-.95.36-1.45a6.38,6.38,0,0,0-.1-2,17.24,17.24,0,0,1-.15-1.8,14.42,14.42,0,0,1,.95-5.9l.13-.31A5.17,5.17,0,0,0,16.19,25c0-.8-.15-1.6-.1-2.39a3.61,3.61,0,0,1,.19-1c.47-1.4,1.77-2.11,2.34-3.45a4.89,4.89,0,0,0,.32-1.47c.12-1.62-.34-3.42.17-5a4,4,0,0,1,.24-.6c.54-1.11,1.41-2.07,1.33-3.32a1.93,1.93,0,0,0-.45-1.18,3.22,3.22,0,0,0-2.56-.85,4.32,4.32,0,0,0-2,1.1C14.44,8,14.39,8.88,14.6,10.66Z" transform="translate(-12.12 0)"/><path class="cls-34" d="M20.36,7.84c-.06-1.67-1.43-2.09-2.78-2a4.38,4.38,0,0,0-2.06,1.13c-1.22,1.19-1.3,2.08-1,3.91a2.43,2.43,0,0,1-.27,1.78c-.25.33-.61.45-.9.7a3.43,3.43,0,0,0-.78,3c.14,1.07.54,2.06.77,3.11A4.37,4.37,0,0,1,13,22.52a5.56,5.56,0,0,0-.81,1.21,2.43,2.43,0,0,0,.29,1.8,7.72,7.72,0,0,1,.8,1.6c.44,1.65-.73,3.29-1,5a13.57,13.57,0,0,0,.11,2.13,24,24,0,0,0-.1,2.55,19.61,19.61,0,0,0,1.31,4.89,6.29,6.29,0,0,0,1.31,2.44c.07-.06.15-.26,0-.31.54-.56.34-1.65,0-2.39a4.44,4.44,0,0,1-.79-2.35,14.48,14.48,0,0,1,.37-1.44,6.1,6.1,0,0,0-.09-2,15.16,15.16,0,0,1,.72-7.69,5.81,5.81,0,0,0,.7-2.94,9.52,9.52,0,0,1,.12-3.41c.49-1.39,1.82-2.07,2.38-3.42.81-1.93-.23-4.4.44-6.41C19.2,10.37,20.41,9.32,20.36,7.84Z" transform="translate(-12.12 0)"/></g><path class="cls-36" d="M459.09,3.69a11.81,11.81,0,0,0-5-3.12c-1.95-.56-3.78.2-5.73.25a57.93,57.93,0,0,0-6.37,1c-15.19,2.17-30.45.65-45.65.15-20.35-.67-40.59,1.56-60.9.58Q304.31,1,273.1,2c-9.82.31-19.64.8-29.45.44-17-.64-33.57-3.27-50.66-2.13-10.1.68-20.22,1.21-30.33,1.2-11.15,0-22.23-.47-33.31-.95a88.36,88.36,0,0,0-14.91.19c-2.88.37-5.59-.25-8.43,0-3.4.24-6.8.48-10.21.66-6.65.35-13.31.56-20,.69-2.52,0-5,.06-7.56.06C60.48,2.08,52.66,2,45,3c-2.54.32-5.08.62-7.63.86-2.37.23-4.72,1-7.12,1.1-2.11.12-4.16-.22-6.25,0-1.53.13-3.06.32-4.58.56s-2.66.29-3.87,1.45-1.3,2.08-1,3.91a2.43,2.43,0,0,1-.27,1.78c-.25.33-.61.45-.9.7a3.43,3.43,0,0,0-.78,3c.14,1.07.54,2.06.77,3.11A4.37,4.37,0,0,1,13,22.52a5.56,5.56,0,0,0-.81,1.21,2.43,2.43,0,0,0,.29,1.8,7.72,7.72,0,0,1,.8,1.6c.44,1.65-.73,3.29-1,5a13.57,13.57,0,0,0,.11,2.13,24,24,0,0,0-.1,2.55,19.61,19.61,0,0,0,1.31,4.89,6.53,6.53,0,0,0,1.12,2.2A4,4,0,0,0,17.23,45c4.87.79,9.78-.36,14.65-.81,2.16-.2,4.3-.1,6.43-.44,3.07-.5,6.14-.25,9.18-.77,3.52-.6,7.09-.89,10.62-1.18,9.72-.82,19.44-.57,29.16-1.11,9.89-.55,19.79-.78,29.67-.41,14.09.53,28.21,1.07,42.31,1.18,6.78,0,13.66-1.08,20.47-1.15,16.2-.16,32.49.92,48.68,1.61q11.34.48,22.7.44c20.11-.08,40.16-2.61,60.23-2,9.75.3,19.8.43,29.66.74,30.69,1,61.3,1.08,92-1.26,4-.31,8.77.14,12.69-.81a3.16,3.16,0,0,0,2.52-2.26,17.33,17.33,0,0,0,.1-3.31,10.13,10.13,0,0,1,1.21-3.66,9.43,9.43,0,0,1,1.76-2.77c.68-.65,1.61-1.13,1.81-2.17a6.11,6.11,0,0,0-.38-2.45c-.18-.82,0-2,.69-2.08.31-.05.68.15.94-.17s-.1-.58,0-.85a2.87,2.87,0,0,1,1.37-1.58,3.89,3.89,0,0,0,1.81-1.41,2.31,2.31,0,0,0-.6-2.86l0-1.05c.53-.29,1.86-.63,2.25-1.18.52-.74,0-1.43-.17-2.28C458.69,6.48,461.28,5.93,459.09,3.69Z" transform="translate(-12.12 0)"/></g></g></svg>