<svg xmlns="http://www.w3.org/2000/svg" viewBox="0 0 250.94 39.91"><defs><style>.cls-1{isolation:isolate;}.cls-2{fill:#05ff1a;opacity:0.7;mix-blend-mode:multiply;}</style></defs><g class="cls-1"><g id="Camada_1" data-name="Camada 1"><path class="cls-2" d="M4.62,33.6a43.41,43.41,0,0,0,16.31,1.94c12.37-.5,194,2.77,206.39,2.11a13.1,13.1,0,0,1,4.74.86,28.4,28.4,0,0,0,14.3.88c-.06-.52-.11-1-.16-1.56l.17-.06a9.35,9.35,0,0,0,1.16-1.48l1.41-1.81c1.92-3.57,1.27-7.82,2-11.7h0l-.45-6.59h0c0-6.13-3.08-9.54-7.52-11.54-4.14-1.86-8.5-3.43-12.82-3.25C222.26,1.72,124.37,0,116.56.5c-5,.31-31.73.51-36.78.81h0C74.53-.87,11.64.15,6.43.93c-2.2.33-3.78,2.17-4.38,4.65C.38,12.41-.62,19.4.43,26.57.87,29.55,1.74,32.49,4.62,33.6Z" transform="translate(0)"/></g></g></svg>