<svg xmlns="http://www.w3.org/2000/svg" viewBox="0 0 79.87 84.28"><defs><style>.cls-1{isolation:isolate;}.cls-2{opacity:0.7;}.cls-2,.cls-3{mix-blend-mode:multiply;}.cls-3{fill:#05ff1a;}</style></defs><g class="cls-1"><g id="Camada_1" data-name="Camada 1"><g class="cls-2"><path class="cls-3" d="M30.57,81.5a14.67,14.67,0,0,0,2.41,2,4.05,4.05,0,0,0,3.62.58c3.06-.77,8-6,8.59-9.11a4.36,4.36,0,0,0,0-.63h0c.21-.69.43-1.38.64-2.07l-.38-.5-1.22-.62h0l-2-2.46C39.29,65.87,30,53,27.42,49.84c-.49-.62-4.37-5.92-4.35-6.68.08-2.84-8.61-10.66-8.73-10.84l-2.9-3.68a5.42,5.42,0,0,0-1.78-1.72,1.06,1.06,0,0,0-1.54.58,17.39,17.39,0,0,0-5.3,5.66h0A12.81,12.81,0,0,0,.44,36.52a2.67,2.67,0,0,0,0,3c.67,1.2,6.05,8.66,6.67,9.88.53.7,1.06,1.4,1.58,2.11.07.41.39.76.31,1.21C10.65,54.78,23,70.89,24.28,73.19A52.16,52.16,0,0,0,30.57,81.5Z" transform="translate(0 0)"/><path class="cls-3" d="M29.59,82.19c1.26.54,2.55,1,3.79,1.6a4.51,4.51,0,0,0,4.25-.09,7,7,0,0,0,3.61-3.37c.54-1.26,6.77-12.83,7.28-14.1a70.74,70.74,0,0,1,3.42-8.14h0c.94-1.42,6.24-11.7,7.66-12.78.18-.37,5.06-9.35,5.25-9.72l-.47-.32h0C65,34.35,71.05,23,72,22.4c.44.12.43,0,.38-.21a.54.54,0,0,0-.07-.3h0c.14-1.49,5.53-11.38,6.17-12.69.41-.83.84-1.67,1.18-2.53a1.88,1.88,0,0,0-.53-2.27c-1-.84-2-1.86-3.47-2h0A24.08,24.08,0,0,0,67.48,0a2.45,2.45,0,0,0-2.69,1.24c-.44.72-5.54,10.08-6,10.8-.78,1.26-7.19,12.86-8,14.1s-6.41,11-7.12,12.33c-1.87,3.42-9,15.14-10.3,18.88a6.1,6.1,0,0,1-.63,1.1,2.94,2.94,0,0,1-.26.57c.14.45-2,4.29-2,4.72L26.41,71.3a1.07,1.07,0,0,0-.58,1.15c-.28.57-.55,1.14-.82,1.71.17.46-.2.87-.11,1.32a2.58,2.58,0,0,0-.09,1.85A9.48,9.48,0,0,0,29.59,82.19Z" transform="translate(0 0)"/></g></g></g></svg>