<svg xmlns="http://www.w3.org/2000/svg" viewBox="0 0 81.81 84.21"><defs><style>.cls-1{isolation:isolate;}.cls-2{opacity:0.7;}.cls-3{fill:#f3c;mix-blend-mode:multiply;}</style></defs><g class="cls-1"><g id="Camada_1" data-name="Camada 1"><g class="cls-2"><path class="cls-3" d="M73.3,82.1a2.92,2.92,0,0,0,2.3-1.5c.7-1.1,1.5-2.1,2.2-3.1.1-.6.2-1.2.3-1.7h0c.5-1.1,1.2-2.1,1.6-3.2,1-2.5.8-3.3-1.8-6C76.6,65,62,50.4,60.5,48.9h0a2.51,2.51,0,0,0-.4-.7A18.46,18.46,0,0,0,57,44.5c-2.2-2.3-11-11.1-13.2-13.3l-2.3-2.3c-.6-1.4-6.9-7.6-8.3-8.3-1.7-1.4-9.9-9.4-11.6-10.9-2.8-3.8-3.8-4.3-7.4-7.4C12.3.6,10.8.3,9.6,1.5c-.2.5-.3.9-.5,1.4-.3-.1-.7-.1-1-.2A24.77,24.77,0,0,0,3.7,8.4a2.2,2.2,0,0,1-.1.8c0-.2.1-.5.1-.8a5.74,5.74,0,0,0-1.6,2.7,1.48,1.48,0,0,0-.1.7H2c-.1.5-.3.9-.4,1.4-.4,2.6.5,5,3.2,7.5A22.84,22.84,0,0,1,7,22.9a1.39,1.39,0,0,0,.5,1,1.43,1.43,0,0,0,1,.4,2.18,2.18,0,0,0,.5-.4H9c3,2.9,17.6,17.7,20.8,20.4s12.7,12.1,15.6,15c2.4,2.4,17.9,17.9,20.4,20.3a33.29,33.29,0,0,0,2.8,2.5C71,83.9,71.7,83.9,73.3,82.1Z" transform="translate(-0.13 0)"/><path class="cls-3" d="M73.9,3.3A40.48,40.48,0,0,0,69.6.4c-1.1-.7-1.4-.5-2.5.7-.4.4-.8.9-1.2,1.3-1.6,1.5-17.6,17.5-19.2,19-3.8,3.8-42,43.8-45.5,47.8C-.3,71-.2,71.5,1.4,74a9.29,9.29,0,0,0,2.2,3.1c1.7,1.7,3.4,3.3,5,4.9a6.2,6.2,0,0,0,4.8,2.2,31.88,31.88,0,0,1,5-6,1.21,1.21,0,0,0-.5-.5H18c1.5-1.6,12.6-12.1,13.3-14.3h0c.8-.8,27.8-27.7,28.5-28.5C60.7,34,76,18.6,76.4,17.3a3.42,3.42,0,0,0,1.5.2c2-1.5,4.4-2.6,4-5.9h0c0-.3-.1-.6-.1-.9h0A55.4,55.4,0,0,0,73.9,3.3Z" transform="translate(-0.13 0)"/></g></g></g></svg>