<svg xmlns="http://www.w3.org/2000/svg" viewBox="0 0 306.32 193.18"><defs><style>.cls-1{isolation:isolate;}.cls-2{fill:#fcee21;}.cls-2,.cls-3{mix-blend-mode:multiply;}</style></defs><g class="cls-1"><g id="Camada_1" data-name="Camada 1"><path d="M65.23,76.43v-1.2h1a2.16,2.16,0,0,0,.46,0A.91.91,0,0,0,67,75a1.08,1.08,0,0,0,.24-.44,2.66,2.66,0,0,0,.09-.77V63a2.69,2.69,0,0,0-.09-.78,1.08,1.08,0,0,0-.24-.44.79.79,0,0,0-.37-.2,1.66,1.66,0,0,0-.46-.05h-1v-1.2H73v1.2h-1a1.64,1.64,0,0,0-.45.05.73.73,0,0,0-.37.19,1,1,0,0,0-.25.41,2.46,2.46,0,0,0-.09.73V75.05h4.2a1.58,1.58,0,0,0,1.24-.5A3.13,3.13,0,0,0,77,73.08l.37-1.7h1.27l-.17,5.05Z" transform="translate(0 0)"/><path d="M86.31,76.65a7.12,7.12,0,0,1-2.54-.42A4.88,4.88,0,0,1,81.94,75a5.15,5.15,0,0,1-1.12-2,8.54,8.54,0,0,1-.38-2.64,9.37,9.37,0,0,1,.38-2.79,5.4,5.4,0,0,1,1.09-2,4.48,4.48,0,0,1,1.77-1.21,6.47,6.47,0,0,1,2.37-.4,6.62,6.62,0,0,1,2.21.34,4.46,4.46,0,0,1,1.67,1,4.37,4.37,0,0,1,1,1.7,7.05,7.05,0,0,1,.36,2.36v1.16H83.93a9.37,9.37,0,0,0,.25,1.95,4,4,0,0,0,.6,1.35,2.27,2.27,0,0,0,.93.79A2.91,2.91,0,0,0,87,75,4.09,4.09,0,0,0,88,74.82a3.64,3.64,0,0,0,.9-.38,3.34,3.34,0,0,0,1.21-1.31,1.15,1.15,0,0,1,.61,1.1,1.7,1.7,0,0,1-.27.92,2.32,2.32,0,0,1-.81.77,4.86,4.86,0,0,1-1.39.53A8.82,8.82,0,0,1,86.31,76.65ZM86.1,65.49a1.7,1.7,0,0,0-1.51.93A5.8,5.8,0,0,0,84,69.17h3.91a11.71,11.71,0,0,0-.1-1.54,4.12,4.12,0,0,0-.32-1.16,1.74,1.74,0,0,0-.55-.73A1.31,1.31,0,0,0,86.1,65.49Z" transform="translate(0 0)"/><path d="M99.39,74.83a5.77,5.77,0,0,0,.85-.06,7.1,7.1,0,0,0,.75-.15v1.47a2.45,2.45,0,0,1-.48.18,6.24,6.24,0,0,1-.7.19c-.27.05-.58.1-.91.13a9.53,9.53,0,0,1-1.11.06,4.91,4.91,0,0,1-1.38-.18,2.51,2.51,0,0,1-1-.61,2.79,2.79,0,0,1-.66-1.1,5.45,5.45,0,0,1-.23-1.68V65.85h-1.7V64.69a2.76,2.76,0,0,0,1.3-.29,3.15,3.15,0,0,0,.92-.66,4.73,4.73,0,0,0,1-2.24H97.9v2.8h2.9v1.55H97.9v7a2.55,2.55,0,0,0,.35,1.5A1.31,1.31,0,0,0,99.39,74.83Z" transform="translate(0 0)"/><path d="M109.45,76.43H101.9v-1.2H102a3.8,3.8,0,0,0,.7-.06,1.19,1.19,0,0,0,.55-.23,1,1,0,0,0,.36-.49,2.23,2.23,0,0,0,.13-.85V67a2.21,2.21,0,0,0-.12-.8,1,1,0,0,0-.33-.47,1.06,1.06,0,0,0-.51-.21,3.45,3.45,0,0,0-.67,0H102V64.3h4.57l.45,1.77h.11a5.31,5.31,0,0,1,.49-.89,2.55,2.55,0,0,1,.64-.63,2.47,2.47,0,0,1,.87-.38,4.63,4.63,0,0,1,1.2-.13,3.31,3.31,0,0,1,2,.47,1.59,1.59,0,0,1,.63,1.36,1.91,1.91,0,0,1-.75,1.61,3.38,3.38,0,0,1-2.12.58,6.56,6.56,0,0,0,0-.82,1.52,1.52,0,0,0-.18-.58.85.85,0,0,0-.34-.36,1.07,1.07,0,0,0-.53-.12,1.19,1.19,0,0,0-.69.2,1.68,1.68,0,0,0-.48.51,2.64,2.64,0,0,0-.33.72,7.19,7.19,0,0,0-.2.8,5.39,5.39,0,0,0-.09.76q0,.38,0,.63v3.91a2.19,2.19,0,0,0,.13.8,1,1,0,0,0,.33.46,1.33,1.33,0,0,0,.5.21,4.1,4.1,0,0,0,.62,0h.73Z" transform="translate(0 0)"/><path d="M119.36,65.4a1.39,1.39,0,0,0-.73.18,1.27,1.27,0,0,0-.46.51,2.12,2.12,0,0,0-.25.77,5.89,5.89,0,0,0-.08,1,6.06,6.06,0,0,1-2.29-.34,1.19,1.19,0,0,1-.76-1.18,1.59,1.59,0,0,1,.37-1.06,2.62,2.62,0,0,1,1-.71,5.89,5.89,0,0,1,1.48-.41,12.79,12.79,0,0,1,1.81-.12,9.85,9.85,0,0,1,2.08.2,4,4,0,0,1,1.48.66,2.82,2.82,0,0,1,.89,1.19,4.93,4.93,0,0,1,.29,1.79v5.76a3.4,3.4,0,0,0,.08.78,1.11,1.11,0,0,0,.22.49.82.82,0,0,0,.42.26,2.38,2.38,0,0,0,.64.08h.09v1.2h-4.21L121,74.87h-.2c-.25.3-.49.57-.71.79a3.31,3.31,0,0,1-.7.56,2.88,2.88,0,0,1-.85.32,5.08,5.08,0,0,1-1.11.11,4.18,4.18,0,0,1-1.39-.22,3,3,0,0,1-1.13-.68,3.35,3.35,0,0,1-.76-1.15,4.45,4.45,0,0,1-.27-1.63,3.11,3.11,0,0,1,1.26-2.73,7.2,7.2,0,0,1,3.8-1l1.86-.06V68c0-.38,0-.72,0-1a3.09,3.09,0,0,0-.19-.82,1.25,1.25,0,0,0-.43-.53A1.33,1.33,0,0,0,119.36,65.4Zm-2,7.66a2.73,2.73,0,0,0,.31,1.46,1.06,1.06,0,0,0,1,.48,1.84,1.84,0,0,0,.88-.2,2.05,2.05,0,0,0,.67-.58,2.65,2.65,0,0,0,.43-.91,4.48,4.48,0,0,0,.15-1.2v-1.7l-1,.07a3.61,3.61,0,0,0-1.13.21,1.83,1.83,0,0,0-.74.5,1.91,1.91,0,0,0-.4.79A4.35,4.35,0,0,0,117.35,73.06Z" transform="translate(0 0)"/><path d="M135.84,76.43V69a8.37,8.37,0,0,0-.09-1.3,3,3,0,0,0-.31-1,1.59,1.59,0,0,0-.56-.59,1.72,1.72,0,0,0-.85-.2,1.46,1.46,0,0,0-.94.29,2,2,0,0,0-.6.76,4,4,0,0,0-.32,1.12,8.16,8.16,0,0,0-.1,1.33v4.32a2.26,2.26,0,0,0,.11.76,1.1,1.1,0,0,0,.33.45,1.31,1.31,0,0,0,.51.21,4.61,4.61,0,0,0,.68,0h.07v1.2h-7v-1.2h.05a5,5,0,0,0,.7,0,1.4,1.4,0,0,0,.56-.22,1.07,1.07,0,0,0,.37-.48,2,2,0,0,0,.13-.81V66.91a2.22,2.22,0,0,0-.11-.76,1.1,1.1,0,0,0-.33-.45,1.15,1.15,0,0,0-.52-.21,4.47,4.47,0,0,0-.67,0h-.07V64.3h4.75l.3,1.62h.11a4.32,4.32,0,0,1,.72-1,3,3,0,0,1,.81-.57,2.94,2.94,0,0,1,.92-.26c.31,0,.65,0,1,0a4.79,4.79,0,0,1,2.13.44A2.74,2.74,0,0,1,139,65.92h.2a3.63,3.63,0,0,1,.74-1,3.06,3.06,0,0,1,.86-.57,3.26,3.26,0,0,1,1-.26c.34,0,.68,0,1,0a4.58,4.58,0,0,1,1.57.25,2.86,2.86,0,0,1,1.17.79,3.5,3.5,0,0,1,.74,1.35,7,7,0,0,1,.25,2v5.24a3.19,3.19,0,0,0,.09.85,1.11,1.11,0,0,0,.28.48,1.06,1.06,0,0,0,.48.22,3.23,3.23,0,0,0,.66.06h.07v1.2h-5V69a5.08,5.08,0,0,0-.4-2.26,1.43,1.43,0,0,0-1.4-.79,1.56,1.56,0,0,0-.9.26,1.89,1.89,0,0,0-.61.7,3.38,3.38,0,0,0-.35,1,6.29,6.29,0,0,0-.11,1.24v4.45a3.19,3.19,0,0,0,.09.85,1,1,0,0,0,.28.48,1.06,1.06,0,0,0,.48.22,3.26,3.26,0,0,0,.67.06h.07v1.2Z" transform="translate(0 0)"/><path d="M155.59,76.65a7.12,7.12,0,0,1-2.54-.42A5,5,0,0,1,151.21,75a5.26,5.26,0,0,1-1.11-2,8.54,8.54,0,0,1-.38-2.64,9.37,9.37,0,0,1,.38-2.79,5.4,5.4,0,0,1,1.09-2A4.52,4.52,0,0,1,153,64.42a7.31,7.31,0,0,1,4.59-.06,4.46,4.46,0,0,1,1.67,1,4.62,4.62,0,0,1,1,1.7,7.05,7.05,0,0,1,.36,2.36v1.16h-7.41a8.74,8.74,0,0,0,.25,1.95,3.83,3.83,0,0,0,.6,1.35,2.31,2.31,0,0,0,.92.79,3,3,0,0,0,1.26.25,4.09,4.09,0,0,0,1.08-.14,3.64,3.64,0,0,0,.9-.38,3.71,3.71,0,0,0,.71-.59,3.45,3.45,0,0,0,.5-.72,1.17,1.17,0,0,1,.61,1.1,1.7,1.7,0,0,1-.27.92,2.35,2.35,0,0,1-.82.77,4.79,4.79,0,0,1-1.38.53A8.82,8.82,0,0,1,155.59,76.65Zm-.21-11.16a1.69,1.69,0,0,0-1.51.93,5.8,5.8,0,0,0-.61,2.75h3.91a11.71,11.71,0,0,0-.1-1.54,4.49,4.49,0,0,0-.32-1.16,1.83,1.83,0,0,0-.55-.73A1.33,1.33,0,0,0,155.38,65.49Z" transform="translate(0 0)"/><path d="M171.05,76.43V69a8.28,8.28,0,0,0-.1-1.3,2.78,2.78,0,0,0-.31-1,1.59,1.59,0,0,0-.56-.59,1.7,1.7,0,0,0-.85-.2,1.44,1.44,0,0,0-.93.29,2,2,0,0,0-.61.76,4,4,0,0,0-.32,1.12,8.16,8.16,0,0,0-.1,1.33v4.32a2.26,2.26,0,0,0,.11.76,1.1,1.1,0,0,0,.33.45,1.31,1.31,0,0,0,.51.21,4.72,4.72,0,0,0,.68,0H169v1.2H162v-1.2h0a4.9,4.9,0,0,0,.7,0,1.4,1.4,0,0,0,.56-.22,1.07,1.07,0,0,0,.37-.48,2,2,0,0,0,.14-.81V67a2.07,2.07,0,0,0-.12-.77,1,1,0,0,0-.33-.44,1.15,1.15,0,0,0-.52-.21,3.39,3.39,0,0,0-.67,0h-.07V64.3h4.75l.3,1.62h.11a4.32,4.32,0,0,1,.72-1,2.89,2.89,0,0,1,.82-.57,2.81,2.81,0,0,1,.91-.26c.32,0,.65,0,1,0a4.58,4.58,0,0,1,1.57.25,2.86,2.86,0,0,1,1.17.79,3.5,3.5,0,0,1,.74,1.35,7,7,0,0,1,.25,2v5.24a3.19,3.19,0,0,0,.09.85,1.11,1.11,0,0,0,.28.48,1.06,1.06,0,0,0,.48.22,3.33,3.33,0,0,0,.67.06h.07v1.2Z" transform="translate(0 0)"/><path d="M183.75,74.83a5.77,5.77,0,0,0,.85-.06c.27,0,.52-.09.76-.15v1.47a3.09,3.09,0,0,1-.48.18,7.14,7.14,0,0,1-.71.19c-.27.05-.57.1-.91.13a9.53,9.53,0,0,1-1.11.06,5,5,0,0,1-1.38-.18,2.51,2.51,0,0,1-1.05-.61,2.91,2.91,0,0,1-.66-1.1,5.45,5.45,0,0,1-.23-1.68V65.85h-1.7V64.69a2.74,2.74,0,0,0,1.3-.29,3.15,3.15,0,0,0,.92-.66,4.73,4.73,0,0,0,1-2.24h1.87v2.8h2.9v1.55h-2.9v7a2.55,2.55,0,0,0,.35,1.5A1.31,1.31,0,0,0,183.75,74.83Z" transform="translate(0 0)"/><path d="M198.61,70.32a6.65,6.65,0,0,1-1.5,4.76,5.78,5.78,0,0,1-4.4,1.57,7.14,7.14,0,0,1-2.44-.39,4.86,4.86,0,0,1-1.84-1.18,5.25,5.25,0,0,1-1.16-2,8.73,8.73,0,0,1-.4-2.79,6.62,6.62,0,0,1,1.5-4.75A5.85,5.85,0,0,1,192.78,64a7.38,7.38,0,0,1,2.43.38A4.72,4.72,0,0,1,197,65.57a5.2,5.2,0,0,1,1.16,2A8.66,8.66,0,0,1,198.61,70.32Zm-8.23,0a14.78,14.78,0,0,0,.13,2.12,5.36,5.36,0,0,0,.41,1.54,2.17,2.17,0,0,0,.73.93,1.88,1.88,0,0,0,1.1.32,1.86,1.86,0,0,0,1.1-.32,2.25,2.25,0,0,0,.73-.93,5.38,5.38,0,0,0,.4-1.54,14.78,14.78,0,0,0,.13-2.12A16.15,16.15,0,0,0,195,68.2a5.45,5.45,0,0,0-.41-1.52,2.12,2.12,0,0,0-.73-.91,2,2,0,0,0-1.11-.31,2,2,0,0,0-1.1.31,2.05,2.05,0,0,0-.73.91,5.47,5.47,0,0,0-.4,1.52A16.31,16.31,0,0,0,190.38,70.32Z" transform="translate(0 0)"/><path d="M71.14,92.53a1.3,1.3,0,0,0-.73.19,1.41,1.41,0,0,0-.47.5,2.47,2.47,0,0,0-.24.78,5.86,5.86,0,0,0-.08,1,5.86,5.86,0,0,1-2.29-.34,1.19,1.19,0,0,1-.76-1.17,1.64,1.64,0,0,1,.36-1.06,2.87,2.87,0,0,1,1-.72,6.35,6.35,0,0,1,1.48-.4,12.69,12.69,0,0,1,1.8-.13,9.22,9.22,0,0,1,2.09.21,3.66,3.66,0,0,1,1.48.66,2.79,2.79,0,0,1,.89,1.18A5,5,0,0,1,76,95v5.76a3.25,3.25,0,0,0,.08.77,1.15,1.15,0,0,0,.22.5.8.8,0,0,0,.42.25,2,2,0,0,0,.64.08h.09v1.21H73.21L72.74,102h-.2c-.25.3-.49.56-.71.79a3.66,3.66,0,0,1-.7.56,3.19,3.19,0,0,1-.85.32,5.08,5.08,0,0,1-1.11.11,4.56,4.56,0,0,1-1.4-.22,3.12,3.12,0,0,1-1.12-.68,3.35,3.35,0,0,1-.76-1.15,4.49,4.49,0,0,1-.27-1.63,3.11,3.11,0,0,1,1.26-2.73,7,7,0,0,1,3.8-1l1.86-.07V95.11c0-.38,0-.72,0-1a3,3,0,0,0-.19-.82,1.19,1.19,0,0,0-.43-.53A1.35,1.35,0,0,0,71.14,92.53Zm-2,7.67a2.67,2.67,0,0,0,.31,1.45,1.05,1.05,0,0,0,1,.49,2,2,0,0,0,.88-.2,2.05,2.05,0,0,0,.67-.58,2.74,2.74,0,0,0,.43-.91,4.48,4.48,0,0,0,.15-1.2v-1.7l-1,.06a3.77,3.77,0,0,0-1.13.22,1.83,1.83,0,0,0-.74.5,1.87,1.87,0,0,0-.4.78A4.37,4.37,0,0,0,69.13,100.2Z" transform="translate(0 0)"/><path d="M84.82,103.79a7.8,7.8,0,0,1-2.28-.32,4.31,4.31,0,0,1-1.77-1.06,4.89,4.89,0,0,1-1.15-1.94,8.86,8.86,0,0,1-.41-2.92,9.53,9.53,0,0,1,.42-3.06,5.26,5.26,0,0,1,1.17-2,4.31,4.31,0,0,1,1.77-1,7.27,7.27,0,0,1,2.18-.32,8.58,8.58,0,0,1,1.93.19,4.84,4.84,0,0,1,1.41.5,2.42,2.42,0,0,1,.85.75,1.65,1.65,0,0,1,.29.94,2.16,2.16,0,0,1-.12.71,1.47,1.47,0,0,1-.45.61,2.52,2.52,0,0,1-.9.43,5.29,5.29,0,0,1-1.45.17,10,10,0,0,0-.07-1.12,3.73,3.73,0,0,0-.24-.92,1.61,1.61,0,0,0-.45-.64,1.05,1.05,0,0,0-.71-.24,1.67,1.67,0,0,0-.89.24,1.92,1.92,0,0,0-.67.81,5.51,5.51,0,0,0-.43,1.54,16,16,0,0,0-.15,2.41,7.29,7.29,0,0,0,.63,3.43,2.16,2.16,0,0,0,2,1.14,4.3,4.3,0,0,0,1.1-.14,3.51,3.51,0,0,0,.93-.39,3.28,3.28,0,0,0,.74-.58,3.21,3.21,0,0,0,.51-.73,1,1,0,0,1,.41.45,1.37,1.37,0,0,1,.13.59,1.7,1.7,0,0,1-.25.87,2.5,2.5,0,0,1-.79.8,4.59,4.59,0,0,1-1.37.59A7.56,7.56,0,0,1,84.82,103.79Z" transform="translate(0 0)"/><path d="M96.6,92.53a1.3,1.3,0,0,0-1.19.69,2.47,2.47,0,0,0-.25.78,5.9,5.9,0,0,0-.07,1,5.83,5.83,0,0,1-2.29-.34A1.19,1.19,0,0,1,92,93.46a1.59,1.59,0,0,1,.37-1.06,2.74,2.74,0,0,1,1-.72,6.49,6.49,0,0,1,1.48-.4,13,13,0,0,1,1.81-.13,9.13,9.13,0,0,1,2.08.21,3.66,3.66,0,0,1,1.48.66,2.79,2.79,0,0,1,.89,1.18,4.77,4.77,0,0,1,.3,1.8v5.76a3.31,3.31,0,0,0,.07.77,1.28,1.28,0,0,0,.22.5.89.89,0,0,0,.42.25,2,2,0,0,0,.64.08h.09v1.21h-4.2L98.2,102H98c-.25.3-.48.56-.7.79a4.06,4.06,0,0,1-.71.56,3.06,3.06,0,0,1-.85.32,5.08,5.08,0,0,1-1.11.11,4.45,4.45,0,0,1-1.39-.22,3.16,3.16,0,0,1-1.13-.68,3.35,3.35,0,0,1-.76-1.15,4.49,4.49,0,0,1-.27-1.63,3.11,3.11,0,0,1,1.26-2.73,7.06,7.06,0,0,1,3.81-1L98,96.35V95.11c0-.38,0-.72,0-1a2.67,2.67,0,0,0-.19-.82,1.19,1.19,0,0,0-.43-.53A1.33,1.33,0,0,0,96.6,92.53Zm-2,7.67a2.67,2.67,0,0,0,.31,1.45,1.05,1.05,0,0,0,1,.49,2,2,0,0,0,.88-.2,2.05,2.05,0,0,0,.67-.58,2.74,2.74,0,0,0,.43-.91,4.48,4.48,0,0,0,.15-1.2v-1.7l-1,.06a3.91,3.91,0,0,0-1.14.22,1.83,1.83,0,0,0-.74.5,2,2,0,0,0-.4.78A4.37,4.37,0,0,0,94.59,100.2Z" transform="translate(0 0)"/><path d="M116,100.78a1.78,1.78,0,0,0,.16.83,1.14,1.14,0,0,0,.41.48,1.59,1.59,0,0,0,.6.22,5.27,5.27,0,0,0,.71,0H118v1.21h-4.39L113,101.8h-.21a4.55,4.55,0,0,1-.58.83,3,3,0,0,1-.75.62,3.53,3.53,0,0,1-1,.4,4.88,4.88,0,0,1-1.2.14,5,5,0,0,1-2-.37,3.65,3.65,0,0,1-1.45-1.14,5.34,5.34,0,0,1-.9-2,11.49,11.49,0,0,1-.3-2.8,11.84,11.84,0,0,1,.3-2.84,5.53,5.53,0,0,1,.89-2,3.59,3.59,0,0,1,1.44-1.16,4.57,4.57,0,0,1,1.94-.38,4.63,4.63,0,0,1,1.16.13,4,4,0,0,1,.92.38,3.47,3.47,0,0,1,.74.57,4,4,0,0,1,.55.73h.15c0-.42-.06-.82-.09-1.18,0-.16,0-.32,0-.48s0-.31,0-.46,0-.27,0-.38V89a1.61,1.61,0,0,0-.15-.75,1,1,0,0,0-.4-.42,1.53,1.53,0,0,0-.58-.19,5.33,5.33,0,0,0-.71,0h-.17v-1.2H116Zm-5.76,1.32a2.14,2.14,0,0,0,1.12-.28,2.07,2.07,0,0,0,.72-.86,5,5,0,0,0,.38-1.44,17.17,17.17,0,0,0,.11-2,16.6,16.6,0,0,0-.11-2,5.34,5.34,0,0,0-.38-1.46,2.16,2.16,0,0,0-.72-.89,1.9,1.9,0,0,0-1.12-.31,1.52,1.52,0,0,0-1,.31,2,2,0,0,0-.65.9,5.28,5.28,0,0,0-.36,1.46,14.67,14.67,0,0,0-.12,2,9.38,9.38,0,0,0,.48,3.45A1.65,1.65,0,0,0,110.24,102.1Z" transform="translate(0 0)"/><path d="M125.21,103.79a7,7,0,0,1-2.53-.42,4.75,4.75,0,0,1-1.84-1.22,5.07,5.07,0,0,1-1.12-2,8.48,8.48,0,0,1-.37-2.63,9.38,9.38,0,0,1,.37-2.79,5.38,5.38,0,0,1,1.09-2,4.48,4.48,0,0,1,1.77-1.21,6.48,6.48,0,0,1,2.38-.41,6.59,6.59,0,0,1,2.2.35,4.37,4.37,0,0,1,1.67,1,4.53,4.53,0,0,1,1,1.7,7.11,7.11,0,0,1,.36,2.37v1.16h-7.4a8.79,8.79,0,0,0,.24,1.95,4.33,4.33,0,0,0,.6,1.35,2.32,2.32,0,0,0,.93.78,2.91,2.91,0,0,0,1.25.26,4.09,4.09,0,0,0,1.08-.14,3.31,3.31,0,0,0,.9-.39,3.1,3.1,0,0,0,.71-.58,3.51,3.51,0,0,0,.5-.73,1.15,1.15,0,0,1,.61,1.11,1.72,1.72,0,0,1-.27.92,2.23,2.23,0,0,1-.81.77,5.18,5.18,0,0,1-1.39.53A8.76,8.76,0,0,1,125.21,103.79Zm-4.12-14.23.63-.74.71-.86q.34-.45.66-.9a6,6,0,0,0,.5-.82h3a6,6,0,0,0,.5.82q.32.45.66.9c.24.3.47.58.71.86l.62.74v.3h-1.56l-.55-.44-.66-.53-.67-.55-.58-.51-.58.51-.66.55-.65.53-.55.44h-1.57ZM125,92.62a1.71,1.71,0,0,0-1.51.94,5.89,5.89,0,0,0-.61,2.75h3.91a10.44,10.44,0,0,0-.1-1.55,4.15,4.15,0,0,0-.32-1.15,1.74,1.74,0,0,0-.55-.73A1.32,1.32,0,0,0,125,92.62Z" transform="translate(0 0)"/><path d="M140.67,103.57V96.12a7.31,7.31,0,0,0-.1-1.3,3,3,0,0,0-.3-.95,1.62,1.62,0,0,0-.57-.59,1.59,1.59,0,0,0-.84-.21,1.5,1.5,0,0,0-.94.29,2,2,0,0,0-.6.77,4.26,4.26,0,0,0-.33,1.11,9.59,9.59,0,0,0-.1,1.34v4.31a2,2,0,0,0,.12.76,1,1,0,0,0,.32.45,1.06,1.06,0,0,0,.52.21,3.56,3.56,0,0,0,.68,0h.06v1.21h-6.94v-1.21h0a4,4,0,0,0,.71,0,1.31,1.31,0,0,0,.56-.21,1.15,1.15,0,0,0,.37-.48,2.27,2.27,0,0,0,.13-.82V94.05a2.07,2.07,0,0,0-.12-.77,1,1,0,0,0-.33-.44,1.06,1.06,0,0,0-.51-.21,3.56,3.56,0,0,0-.68,0h-.06V91.44h4.75l.29,1.61h.11a4.18,4.18,0,0,1,.73-1,3,3,0,0,1,.81-.58,3.15,3.15,0,0,1,.91-.25,8.19,8.19,0,0,1,1-.06,4.65,4.65,0,0,1,2.13.45,2.68,2.68,0,0,1,1.29,1.45h.2a4,4,0,0,1,.75-1,3.18,3.18,0,0,1,.86-.58,3.39,3.39,0,0,1,1-.25,8.64,8.64,0,0,1,1-.06,4.53,4.53,0,0,1,1.57.26,3,3,0,0,1,1.18.78,3.57,3.57,0,0,1,.73,1.35,6.77,6.77,0,0,1,.25,2v5.24a3.19,3.19,0,0,0,.1.85,1,1,0,0,0,.28.48,1,1,0,0,0,.47.22,4.47,4.47,0,0,0,.67,0h.06v1.21h-5V96.12a5.21,5.21,0,0,0-.4-2.25,1.45,1.45,0,0,0-1.4-.8,1.6,1.6,0,0,0-.91.26,2,2,0,0,0-.61.71,3.56,3.56,0,0,0-.35,1,7.06,7.06,0,0,0-.11,1.24v4.45a2.82,2.82,0,0,0,.1.85,1,1,0,0,0,.28.48,1,1,0,0,0,.47.22,4.4,4.4,0,0,0,.68,0h.06v1.21Z" transform="translate(0 0)"/><path d="M154.14,102.36a2.59,2.59,0,0,0,.54,0,1.33,1.33,0,0,0,.51-.2,1.22,1.22,0,0,0,.4-.44,1.59,1.59,0,0,0,.16-.78V94a1.39,1.39,0,0,0-.16-.73,1.16,1.16,0,0,0-.4-.42,1.4,1.4,0,0,0-.53-.19,3.26,3.26,0,0,0-.52,0h-.26v-1.2h5.31v9.45a1.59,1.59,0,0,0,.16.78,1.29,1.29,0,0,0,.39.44,1.42,1.42,0,0,0,.53.2,2.55,2.55,0,0,0,.53,0h.26v1.21h-7.18v-1.21Zm1.29-14.58a1.73,1.73,0,0,1,.15-.75,1.43,1.43,0,0,1,.41-.5,1.63,1.63,0,0,1,.61-.28,2.83,2.83,0,0,1,1.49,0,1.76,1.76,0,0,1,.62.28,1.49,1.49,0,0,1,.43.5,1.73,1.73,0,0,1,.16.75,1.63,1.63,0,0,1-.16.72,1.43,1.43,0,0,1-.43.51,2,2,0,0,1-.62.3,2.83,2.83,0,0,1-1.49,0A1.83,1.83,0,0,1,156,89a1.38,1.38,0,0,1-.41-.51A1.62,1.62,0,0,1,155.43,87.78Z" transform="translate(0 0)"/><path d="M168.12,103.79a7.8,7.8,0,0,1-2.28-.32,4.31,4.31,0,0,1-1.77-1.06,4.89,4.89,0,0,1-1.15-1.94,9.13,9.13,0,0,1-.41-2.92,9.53,9.53,0,0,1,.42-3.06,5.26,5.26,0,0,1,1.17-2,4.31,4.31,0,0,1,1.77-1,7.27,7.27,0,0,1,2.18-.32,8.52,8.52,0,0,1,1.93.19,4.84,4.84,0,0,1,1.41.5,2.42,2.42,0,0,1,.85.75,1.66,1.66,0,0,1,.3.94,2.17,2.17,0,0,1-.13.71,1.47,1.47,0,0,1-.45.61,2.52,2.52,0,0,1-.9.43,5.29,5.29,0,0,1-1.45.17,8.11,8.11,0,0,0-.07-1.12,3.73,3.73,0,0,0-.24-.92,1.61,1.61,0,0,0-.45-.64,1,1,0,0,0-.71-.24,1.67,1.67,0,0,0-.89.24,1.92,1.92,0,0,0-.67.81,5.51,5.51,0,0,0-.43,1.54,16,16,0,0,0-.15,2.41,7.29,7.29,0,0,0,.63,3.43,2.16,2.16,0,0,0,2.05,1.14,4.3,4.3,0,0,0,1.1-.14,3.51,3.51,0,0,0,.93-.39,3.28,3.28,0,0,0,.74-.58,3.21,3.21,0,0,0,.51-.73,1,1,0,0,1,.41.45,1.37,1.37,0,0,1,.13.59,1.7,1.7,0,0,1-.25.87,2.4,2.4,0,0,1-.79.8,4.59,4.59,0,0,1-1.37.59A7.56,7.56,0,0,1,168.12,103.79Z" transform="translate(0 0)"/><path d="M186.16,97.46a6.71,6.71,0,0,1-1.49,4.76,5.84,5.84,0,0,1-4.41,1.57,7.22,7.22,0,0,1-2.44-.4,4.72,4.72,0,0,1-1.83-1.17,5,5,0,0,1-1.16-2,8.61,8.61,0,0,1-.41-2.78,6.62,6.62,0,0,1,1.5-4.75,5.84,5.84,0,0,1,4.41-1.56,7.14,7.14,0,0,1,2.44.39,4.87,4.87,0,0,1,1.83,1.17,5.25,5.25,0,0,1,1.16,2A8.63,8.63,0,0,1,186.16,97.46Zm-8.23,0a16.39,16.39,0,0,0,.13,2.12,5.63,5.63,0,0,0,.41,1.53,2.22,2.22,0,0,0,.73.94,1.91,1.91,0,0,0,1.11.31,1.87,1.87,0,0,0,1.1-.31,2.22,2.22,0,0,0,.73-.94,5.65,5.65,0,0,0,.4-1.53,16.53,16.53,0,0,0,.12-2.12,14.83,14.83,0,0,0-.13-2.13,5.49,5.49,0,0,0-.4-1.51,2.23,2.23,0,0,0-.74-.92,2.19,2.19,0,0,0-2.21,0,2.22,2.22,0,0,0-.73.92,5.51,5.51,0,0,0-.39,1.51A14.83,14.83,0,0,0,177.93,97.46Z" transform="translate(0 0)"/><path d="M69.52,123.51a25.68,25.68,0,0,0,.14,2.65,12,12,0,0,0,.52,2.45,8.4,8.4,0,0,0,1,2.13,6.34,6.34,0,0,0,1.72,1.66v1.45a13.87,13.87,0,0,1-3.23-1.78,9.35,9.35,0,0,1-2.18-2.32,9.6,9.6,0,0,1-1.24-2.85,14.84,14.84,0,0,1,0-6.76,9.48,9.48,0,0,1,1.24-2.83A9.28,9.28,0,0,1,69.7,115a13.86,13.86,0,0,1,3.23-1.77v1.43a6.34,6.34,0,0,0-1.72,1.66,8.33,8.33,0,0,0-1,2.12,11.63,11.63,0,0,0-.52,2.43A25.29,25.29,0,0,0,69.52,123.51Z" transform="translate(0 0)"/><path d="M87.39,119.35a5.66,5.66,0,0,1-.35,2A4.3,4.3,0,0,1,85.89,123a5.85,5.85,0,0,1-2.07,1.15,9.93,9.93,0,0,1-3.1.42H80v3.62a2,2,0,0,0,.1.71.88.88,0,0,0,.26.41.78.78,0,0,0,.39.18,2.3,2.3,0,0,0,.45.05h1.38v1.2H74.27v-1.2h1a2.26,2.26,0,0,0,.47-.05.67.67,0,0,0,.36-.21,1.08,1.08,0,0,0,.24-.44,2.66,2.66,0,0,0,.09-.77v-10.9a2.34,2.34,0,0,0-.09-.72A1,1,0,0,0,76,116a.82.82,0,0,0-.37-.19,2.14,2.14,0,0,0-.45,0h-1v-1.19h7a10,10,0,0,1,2.72.33,5.22,5.22,0,0,1,1.93,1,3.8,3.8,0,0,1,1.14,1.5A5.09,5.09,0,0,1,87.39,119.35ZM80,123.22h.55a4.21,4.21,0,0,0,1.42-.21,2.12,2.12,0,0,0,1-.67,2.76,2.76,0,0,0,.54-1.17,7.78,7.78,0,0,0,.17-1.73,7.21,7.21,0,0,0-.15-1.57,3,3,0,0,0-.47-1.11,2,2,0,0,0-.85-.65,3.48,3.48,0,0,0-1.29-.21H80Z" transform="translate(0 0)"/><path d="M94.61,119.67a1.33,1.33,0,0,0-.72.18,1.44,1.44,0,0,0-.47.51,2.49,2.49,0,0,0-.25.77,6,6,0,0,0-.07,1,5.83,5.83,0,0,1-2.29-.34A1.2,1.2,0,0,1,90,120.6a1.58,1.58,0,0,1,.37-1.06,2.71,2.71,0,0,1,1-.72,6,6,0,0,1,1.48-.4,11.59,11.59,0,0,1,1.81-.13,9.13,9.13,0,0,1,2.08.21,3.72,3.72,0,0,1,1.48.65,2.82,2.82,0,0,1,.89,1.19,4.75,4.75,0,0,1,.3,1.79v5.77a3.31,3.31,0,0,0,.07.77,1.07,1.07,0,0,0,.23.49.82.82,0,0,0,.42.26,2.32,2.32,0,0,0,.64.08h.08v1.2h-4.2l-.48-1.55H96c-.25.3-.48.56-.7.79a3.31,3.31,0,0,1-.71.55,2.83,2.83,0,0,1-.84.33,5.26,5.26,0,0,1-1.11.1,4.2,4.2,0,0,1-1.4-.22,2.9,2.9,0,0,1-1.13-.68,3.06,3.06,0,0,1-.75-1.14,4.28,4.28,0,0,1-.28-1.63,3.11,3.11,0,0,1,1.26-2.73,7.08,7.08,0,0,1,3.81-1l1.85-.07v-1.25c0-.37,0-.72,0-1a2.67,2.67,0,0,0-.19-.82,1.12,1.12,0,0,0-.42-.53A1.3,1.3,0,0,0,94.61,119.67Zm-2,7.66a2.71,2.71,0,0,0,.31,1.46,1.06,1.06,0,0,0,1,.49,1.82,1.82,0,0,0,.88-.21,1.86,1.86,0,0,0,.67-.58,2.65,2.65,0,0,0,.43-.91,4.35,4.35,0,0,0,.15-1.19v-1.7l-1,.06a3.61,3.61,0,0,0-1.14.22,1.83,1.83,0,0,0-.74.5,1.93,1.93,0,0,0-.4.78A4.35,4.35,0,0,0,92.6,127.33Zm.63-10.63c.16-.21.35-.46.55-.74l.61-.87c.21-.29.4-.59.58-.89s.33-.57.45-.82H99v.23a5.25,5.25,0,0,1-.69.75c-.33.29-.69.6-1.09.93s-.82.64-1.25.94-.82.56-1.17.77H93.23Z" transform="translate(0 0)"/><path d="M114.18,119a1.62,1.62,0,0,1-.08.49.93.93,0,0,1-.26.41,1.27,1.27,0,0,1-.5.29,2.44,2.44,0,0,1-.77.1,1.07,1.07,0,0,0-.08-.41,1,1,0,0,0-.19-.3.75.75,0,0,0-.28-.18.87.87,0,0,0-.32-.06,1.29,1.29,0,0,0-.4.08,1.7,1.7,0,0,0-.33.16,5.46,5.46,0,0,1,.43.58,4.67,4.67,0,0,1,.34.71,5.28,5.28,0,0,1,.24.77,3.84,3.84,0,0,1,.09.83,4.46,4.46,0,0,1-.27,1.57,3.3,3.3,0,0,1-.83,1.25,3.94,3.94,0,0,1-1.43.83,6.18,6.18,0,0,1-2,.3h-.69l-.36,0-.26,0a2.17,2.17,0,0,0-.29.2,1.07,1.07,0,0,0-.26.26,1.13,1.13,0,0,0-.19.32.9.9,0,0,0-.07.37.58.58,0,0,0,.29.55,1.46,1.46,0,0,0,.77.18h2.74a7,7,0,0,1,1.94.24,3.73,3.73,0,0,1,1.35.68,2.57,2.57,0,0,1,.79,1.08,4,4,0,0,1,.26,1.46,4.32,4.32,0,0,1-.4,1.87,3.65,3.65,0,0,1-1.21,1.39,6,6,0,0,1-2,.87,12.36,12.36,0,0,1-2.91.31,7.71,7.71,0,0,1-4-.81,2.56,2.56,0,0,1-1.31-2.34,2.28,2.28,0,0,1,.78-1.86,4,4,0,0,1,2.28-.77,3.83,3.83,0,0,1-.61-.3,2.45,2.45,0,0,1-.53-.42,2.18,2.18,0,0,1-.38-.57,1.81,1.81,0,0,1-.14-.72,1.66,1.66,0,0,1,.15-.7,2.84,2.84,0,0,1,.41-.61,3.91,3.91,0,0,1,.64-.55c.24-.17.52-.34.81-.51a3.57,3.57,0,0,1-.92-.5,2.89,2.89,0,0,1-.73-.75,3.93,3.93,0,0,1-.48-1,4.6,4.6,0,0,1,1-4.33,5,5,0,0,1,3.57-1.1,5.11,5.11,0,0,1,1.49.21,5.55,5.55,0,0,1,1.2.49l.42-.43a3,3,0,0,1,.51-.41,2.53,2.53,0,0,1,.64-.31,2.45,2.45,0,0,1,.78-.12,2.24,2.24,0,0,1,.72.1,1.59,1.59,0,0,1,.5.28,1.2,1.2,0,0,1,.42.91Zm-9.84,13.93a1.55,1.55,0,0,0,.68,1.39,3.58,3.58,0,0,0,2,.45,5.46,5.46,0,0,0,2.89-.58,1.86,1.86,0,0,0,.91-1.69,1.09,1.09,0,0,0-.45-1,2.64,2.64,0,0,0-1.37-.29h-2.63a4.23,4.23,0,0,0-.7.06,1.78,1.78,0,0,0-.64.25,1.37,1.37,0,0,0-.48.53A1.74,1.74,0,0,0,104.34,132.94Zm1.51-10.46a7,7,0,0,0,.08,1.07,2.7,2.7,0,0,0,.28.83,1.45,1.45,0,0,0,.48.53,1.63,1.63,0,0,0,1.49,0,1.3,1.3,0,0,0,.48-.53,3,3,0,0,0,.25-.84,9,9,0,0,0,.07-1.1,7.84,7.84,0,0,0-.08-1.14,3,3,0,0,0-.26-.88,1.5,1.5,0,0,0-.48-.57,1.35,1.35,0,0,0-.75-.2,1.24,1.24,0,0,0-.74.21,1.46,1.46,0,0,0-.48.58,3.09,3.09,0,0,0-.26.9A7.94,7.94,0,0,0,105.85,122.48Z" transform="translate(0 0)"/><path d="M114.94,129.5a3.5,3.5,0,0,0,.54-.05,1.2,1.2,0,0,0,.51-.21,1.14,1.14,0,0,0,.4-.44,1.55,1.55,0,0,0,.16-.77v-6.87a1.37,1.37,0,0,0-.16-.72,1.16,1.16,0,0,0-.4-.42,1.4,1.4,0,0,0-.53-.19,3.26,3.26,0,0,0-.52,0h-.26v-1.2H120V128a1.55,1.55,0,0,0,.16.77,1.12,1.12,0,0,0,.39.44,1.28,1.28,0,0,0,.53.21,3.49,3.49,0,0,0,.53.05h.26v1.2h-7.18v-1.2Zm1.29-14.59a1.72,1.72,0,0,1,.15-.74,1.43,1.43,0,0,1,.41-.5,1.82,1.82,0,0,1,.61-.29,3.13,3.13,0,0,1,1.49,0,2,2,0,0,1,.62.29,1.49,1.49,0,0,1,.43.5,1.72,1.72,0,0,1,.16.74,1.64,1.64,0,0,1-.16.73,1.43,1.43,0,0,1-.43.51,2,2,0,0,1-.62.3,2.83,2.83,0,0,1-1.49,0,1.83,1.83,0,0,1-.61-.3,1.38,1.38,0,0,1-.41-.51A1.64,1.64,0,0,1,116.23,114.91Z" transform="translate(0 0)"/><path d="M131.72,130.7v-7.44a8.37,8.37,0,0,0-.09-1.3,3,3,0,0,0-.31-.95,1.45,1.45,0,0,0-.56-.59,1.62,1.62,0,0,0-.85-.21,1.52,1.52,0,0,0-.94.29,2,2,0,0,0-.6.77,3.91,3.91,0,0,0-.32,1.11,8.24,8.24,0,0,0-.1,1.33V128a2.22,2.22,0,0,0,.11.76,1.1,1.1,0,0,0,.33.45,1.06,1.06,0,0,0,.51.21,4.61,4.61,0,0,0,.68.05h.07v1.2h-7v-1.2h0a5,5,0,0,0,.7-.05,1.27,1.27,0,0,0,.56-.22,1,1,0,0,0,.37-.47,2.1,2.1,0,0,0,.13-.82v-6.69a2.22,2.22,0,0,0-.11-.76,1.1,1.1,0,0,0-.33-.45,1.27,1.27,0,0,0-.52-.21,4.47,4.47,0,0,0-.67,0h-.07v-1.2h4.75l.3,1.61H128a4.54,4.54,0,0,1,.72-1,3,3,0,0,1,.81-.57,2.85,2.85,0,0,1,.92-.25,8,8,0,0,1,1-.06,4.48,4.48,0,0,1,1.56.26,2.81,2.81,0,0,1,1.18.78,3.49,3.49,0,0,1,.73,1.35,6.72,6.72,0,0,1,.26,2v5.25a3.16,3.16,0,0,0,.09.84,1,1,0,0,0,.28.48,1,1,0,0,0,.48.22,3.26,3.26,0,0,0,.67.06h.07v1.2Z" transform="translate(0 0)"/><path d="M143.87,119.67a1.33,1.33,0,0,0-.72.18,1.35,1.35,0,0,0-.47.51,2.49,2.49,0,0,0-.25.77,6,6,0,0,0-.07,1,5.92,5.92,0,0,1-2.3-.34,1.19,1.19,0,0,1-.76-1.17,1.58,1.58,0,0,1,.37-1.06,2.63,2.63,0,0,1,1-.72,6,6,0,0,1,1.48-.4,11.59,11.59,0,0,1,1.81-.13,9.13,9.13,0,0,1,2.08.21,3.79,3.79,0,0,1,1.48.65,2.82,2.82,0,0,1,.89,1.19,4.75,4.75,0,0,1,.3,1.79v5.77a3.31,3.31,0,0,0,.07.77,1.17,1.17,0,0,0,.22.49.91.91,0,0,0,.42.26,2.38,2.38,0,0,0,.64.08h.09v1.2h-4.21l-.47-1.55h-.2c-.25.3-.48.56-.71.79a3.26,3.26,0,0,1-.7.55,2.79,2.79,0,0,1-.85.33,5.13,5.13,0,0,1-1.11.1,4.18,4.18,0,0,1-1.39-.22,2.9,2.9,0,0,1-1.13-.68,3.21,3.21,0,0,1-.76-1.14,4.49,4.49,0,0,1-.27-1.63,3.11,3.11,0,0,1,1.26-2.73,7.06,7.06,0,0,1,3.81-1l1.85-.07v-1.25c0-.37,0-.72,0-1a3,3,0,0,0-.19-.82,1.14,1.14,0,0,0-.43-.53A1.25,1.25,0,0,0,143.87,119.67Zm-2,7.66a2.71,2.71,0,0,0,.31,1.46,1.05,1.05,0,0,0,1,.49,1.84,1.84,0,0,0,.88-.21,1.94,1.94,0,0,0,.67-.58,2.65,2.65,0,0,0,.43-.91,4.35,4.35,0,0,0,.15-1.19v-1.7l-1,.06a3.61,3.61,0,0,0-1.14.22,1.78,1.78,0,0,0-1.14,1.28A4.35,4.35,0,0,0,141.86,127.33Z" transform="translate(0 0)"/><path d="M157.38,130.7v-1.2h1a2.26,2.26,0,0,0,.47-.05.67.67,0,0,0,.36-.21,1.08,1.08,0,0,0,.25-.44,3.13,3.13,0,0,0,.08-.77v-10.8a3.13,3.13,0,0,0-.08-.77,1.08,1.08,0,0,0-.25-.44.73.73,0,0,0-.36-.21,2.26,2.26,0,0,0-.47,0h-1v-1.2h7.81v1.2h-.95a2.31,2.31,0,0,0-.46,0,.81.81,0,0,0-.37.21,1.08,1.08,0,0,0-.24.44,2.66,2.66,0,0,0-.09.77V128a2.66,2.66,0,0,0,.09.77,1.08,1.08,0,0,0,.24.44.73.73,0,0,0,.37.21,2.31,2.31,0,0,0,.46.05h.95v1.2Z" transform="translate(0 0)"/><path d="M175.29,130.7v-7.44a8.37,8.37,0,0,0-.09-1.3,2.72,2.72,0,0,0-.31-.95,1.45,1.45,0,0,0-.56-.59,1.62,1.62,0,0,0-.85-.21,1.49,1.49,0,0,0-.93.29,2,2,0,0,0-.61.77,3.91,3.91,0,0,0-.32,1.11,8.24,8.24,0,0,0-.1,1.33V128a2.22,2.22,0,0,0,.11.76,1.1,1.1,0,0,0,.33.45,1.06,1.06,0,0,0,.51.21,4.72,4.72,0,0,0,.68.05h.07v1.2h-6.95v-1.2h0a4.9,4.9,0,0,0,.7-.05,1.27,1.27,0,0,0,.56-.22,1,1,0,0,0,.37-.47,2.1,2.1,0,0,0,.13-.82v-6.69a2,2,0,0,0-.11-.76,1.1,1.1,0,0,0-.33-.45,1.27,1.27,0,0,0-.52-.21,4.36,4.36,0,0,0-.67,0h-.07v-1.2h4.75l.3,1.61h.11a4.54,4.54,0,0,1,.72-1,2.89,2.89,0,0,1,.82-.57,2.79,2.79,0,0,1,.91-.25,8.07,8.07,0,0,1,1-.06,4.48,4.48,0,0,1,1.56.26,2.81,2.81,0,0,1,1.18.78,3.49,3.49,0,0,1,.73,1.35,6.72,6.72,0,0,1,.26,2v5.25a3.16,3.16,0,0,0,.09.84,1,1,0,0,0,.28.48,1,1,0,0,0,.48.22,3.26,3.26,0,0,0,.67.06h.07v1.2Z" transform="translate(0 0)"/><path d="M181.55,129.5a3.5,3.5,0,0,0,.54-.05,1.24,1.24,0,0,0,.52-.21,1.22,1.22,0,0,0,.4-.44,1.66,1.66,0,0,0,.16-.77v-6.87a1.48,1.48,0,0,0-.16-.72,1.18,1.18,0,0,0-.41-.42,1.36,1.36,0,0,0-.52-.19,3.38,3.38,0,0,0-.53,0h-.26v-1.2h5.31V128a1.55,1.55,0,0,0,.16.77,1.22,1.22,0,0,0,.4.44,1.24,1.24,0,0,0,.52.21,3.49,3.49,0,0,0,.53.05h.27v1.2h-7.19v-1.2Zm1.3-14.59a1.72,1.72,0,0,1,.15-.74,1.31,1.31,0,0,1,.4-.5,2,2,0,0,1,.61-.29,3,3,0,0,1,.76-.09,3,3,0,0,1,.74.09,2.08,2.08,0,0,1,.62.29,1.47,1.47,0,0,1,.58,1.24,1.5,1.5,0,0,1-.58,1.24,2.1,2.1,0,0,1-.62.3,3,3,0,0,1-.74.1,3,3,0,0,1-.76-.1,2,2,0,0,1-.61-.3,1.27,1.27,0,0,1-.4-.51A1.64,1.64,0,0,1,182.85,114.91Z" transform="translate(0 0)"/><path d="M195.53,130.92a7.48,7.48,0,0,1-2.28-.32,4.16,4.16,0,0,1-1.77-1.06,5,5,0,0,1-1.15-1.93,9.13,9.13,0,0,1-.41-2.92,9.47,9.47,0,0,1,.43-3.06,4.94,4.94,0,0,1,1.17-2,4.27,4.27,0,0,1,1.76-1,7.38,7.38,0,0,1,2.19-.32,9.25,9.25,0,0,1,1.93.18,5,5,0,0,1,1.4.51,2.46,2.46,0,0,1,.86.75,1.68,1.68,0,0,1,.29.94,1.94,1.94,0,0,1-.13.71,1.37,1.37,0,0,1-.45.61,2.46,2.46,0,0,1-.89.43,5.36,5.36,0,0,1-1.46.17,8,8,0,0,0-.07-1.12,4,4,0,0,0-.23-.93,1.76,1.76,0,0,0-.45-.63,1.07,1.07,0,0,0-.71-.24,1.65,1.65,0,0,0-.89.24,1.93,1.93,0,0,0-.68.81,5.65,5.65,0,0,0-.43,1.54,16,16,0,0,0-.15,2.4,7.34,7.34,0,0,0,.63,3.44,2.17,2.17,0,0,0,2.06,1.13,4.36,4.36,0,0,0,1.1-.13,3.88,3.88,0,0,0,.93-.39,3.26,3.26,0,0,0,.73-.59,3.29,3.29,0,0,0,.52-.72,1,1,0,0,1,.41.45,1.49,1.49,0,0,1,.13.59,1.72,1.72,0,0,1-.26.87,2.4,2.4,0,0,1-.79.8,4.52,4.52,0,0,1-1.36.59A7.62,7.62,0,0,1,195.53,130.92Z" transform="translate(0 0)"/><path d="M201.43,129.5a3.5,3.5,0,0,0,.54-.05,1.2,1.2,0,0,0,.51-.21,1.14,1.14,0,0,0,.4-.44A1.55,1.55,0,0,0,203,128v-6.87a1.37,1.37,0,0,0-.16-.72,1.16,1.16,0,0,0-.4-.42,1.4,1.4,0,0,0-.53-.19,3.26,3.26,0,0,0-.52,0h-.26v-1.2h5.31V128a1.55,1.55,0,0,0,.16.77,1.2,1.2,0,0,0,.39.44,1.28,1.28,0,0,0,.53.21,3.49,3.49,0,0,0,.53.05h.26v1.2h-7.18v-1.2Zm1.29-14.59a1.72,1.72,0,0,1,.15-.74,1.43,1.43,0,0,1,.41-.5,1.82,1.82,0,0,1,.61-.29,3.13,3.13,0,0,1,1.49,0,2,2,0,0,1,.62.29,1.49,1.49,0,0,1,.43.5,1.72,1.72,0,0,1,.16.74,1.64,1.64,0,0,1-.16.73,1.43,1.43,0,0,1-.43.51,2,2,0,0,1-.62.3,2.83,2.83,0,0,1-1.49,0,1.83,1.83,0,0,1-.61-.3,1.38,1.38,0,0,1-.41-.51A1.64,1.64,0,0,1,202.72,114.91Z" transform="translate(0 0)"/><path d="M215.28,119.67a1.39,1.39,0,0,0-.73.18,1.54,1.54,0,0,0-.47.51,2.49,2.49,0,0,0-.24.77,6,6,0,0,0-.08,1,5.86,5.86,0,0,1-2.29-.34,1.19,1.19,0,0,1-.76-1.17,1.62,1.62,0,0,1,.36-1.06,2.75,2.75,0,0,1,1-.72,5.9,5.9,0,0,1,1.48-.4,11.37,11.37,0,0,1,1.8-.13,9.22,9.22,0,0,1,2.09.21,3.79,3.79,0,0,1,1.48.65,2.72,2.72,0,0,1,.88,1.19,4.75,4.75,0,0,1,.3,1.79v5.77a4,4,0,0,0,.07.77,1.18,1.18,0,0,0,.23.49.82.82,0,0,0,.42.26,2.38,2.38,0,0,0,.64.08h.09v1.2h-4.21l-.47-1.55h-.2c-.25.3-.49.56-.71.79a3.08,3.08,0,0,1-.71.55,2.83,2.83,0,0,1-.84.33,5.13,5.13,0,0,1-1.11.1,4.24,4.24,0,0,1-1.4-.22,2.87,2.87,0,0,1-1.12-.68,3.21,3.21,0,0,1-.76-1.14,4.49,4.49,0,0,1-.27-1.63,3.11,3.11,0,0,1,1.26-2.73,7,7,0,0,1,3.8-1l1.86-.07v-1.25c0-.37,0-.72-.05-1a3,3,0,0,0-.18-.82,1.14,1.14,0,0,0-.43-.53A1.27,1.27,0,0,0,215.28,119.67Zm-2,7.66a2.71,2.71,0,0,0,.31,1.46,1.05,1.05,0,0,0,1,.49,1.87,1.87,0,0,0,.88-.21,1.94,1.94,0,0,0,.67-.58,2.65,2.65,0,0,0,.43-.91,4.35,4.35,0,0,0,.15-1.19v-1.7l-1,.06a3.48,3.48,0,0,0-1.13.22,1.78,1.78,0,0,0-1.14,1.28A4.35,4.35,0,0,0,213.27,127.33Z" transform="translate(0 0)"/><path d="M222.94,129.5a3.5,3.5,0,0,0,.54-.05,1.2,1.2,0,0,0,.51-.21,1.14,1.14,0,0,0,.4-.44,1.55,1.55,0,0,0,.16-.77V116.09a1.37,1.37,0,0,0-.16-.72,1.16,1.16,0,0,0-.4-.42,1.4,1.4,0,0,0-.53-.19,3.26,3.26,0,0,0-.52-.05h-.26v-1.19H228V128a1.55,1.55,0,0,0,.16.77,1.12,1.12,0,0,0,.39.44,1.28,1.28,0,0,0,.53.21,3.49,3.49,0,0,0,.53.05h.26v1.2h-7.18v-1.2Z" transform="translate(0 0)"/><path d="M234.37,123.51a25.29,25.29,0,0,0-.14-2.63,11.63,11.63,0,0,0-.51-2.43,8.33,8.33,0,0,0-1-2.12,6.16,6.16,0,0,0-1.71-1.66v-1.43A13.78,13.78,0,0,1,234.2,115a9.28,9.28,0,0,1,2.18,2.3,8.76,8.76,0,0,1,1.23,2.83,14.84,14.84,0,0,1,0,6.76,8.86,8.86,0,0,1-1.23,2.85,9.35,9.35,0,0,1-2.18,2.32,13.79,13.79,0,0,1-3.22,1.78V132.4a6.16,6.16,0,0,0,1.71-1.66,8.4,8.4,0,0,0,1-2.13,12,12,0,0,0,.51-2.45A25.68,25.68,0,0,0,234.37,123.51Z" transform="translate(0 0)"/><path class="cls-2" d="M300.89,175.87h0c-.11-3.77-.21-7.53-.32-11.3h0a3.62,3.62,0,0,0-1.05-2.27,1.27,1.27,0,0,0-.58-.53c-2.54.19-5.14.23-7.61.6A152.17,152.17,0,0,1,267.67,164c-4.36,0-8.68.3-13,.64-6.82.52-13.73,1.24-20.58-.07l0,0c-1.61-1.2-2.94.11-4.4.18-.83.07-1.66.09-2.5.1l.07,0-.56-.23-.6.25H225c-24.39-.22-48.8,3.24-73.21.05a62.37,62.37,0,0,1-7.43,1.41l-3.31,0c-13.89.1-27.78.24-41.66.35a63.91,63.91,0,0,1-6.93-.08c-8.44-.88-16.93-.52-25.4-.57-2.06,0-4.17.12-6.16-.1-7.16-.79-14.36-.53-21.55-.51-6.69,0-13.37.12-20.06.17a21.45,21.45,0,0,1-7.5-.76,5.1,5.1,0,0,0-3.61-.3L7,164c-1.82.25-3.27.67-3.45,2-.19,1.51-.58,3-.88,4.53-1,.65-1,1.3,0,1.94h0l0,0a5.78,5.78,0,0,0-1.23,4.67h0c0,.94,0,1.87,0,2.81h0A4.64,4.64,0,0,0,0,183.52c.14,2.55,1.93,3.74,6.08,3.88,2.31.07,4.63,0,6.94-.05,10.8-.08,21.68-.72,32.36-.08,12.56.75,25.15,0,37.69,1.11,10.14.85,20.5.76,30.76,1.05a31.77,31.77,0,0,0,3.75-.31h.34a19.08,19.08,0,0,0,3.2,1.57c5,.24,10.13-1.09,15.14.15a16.41,16.41,0,0,0,2.26.42,22.69,22.69,0,0,1,4.28,1,9.57,9.57,0,0,0,2.29.28c2,.18,3.91.25,5.87.28,2.47-.05,4.92.26,7.39.19a23.49,23.49,0,0,1,7.63-.35c2.79.06,5.54.39,8.32.51,11.17-1.77,22.5-1.54,33.88-1a379.5,379.5,0,0,0,45-.51c2.56-.18,5.13-.36,6.62-1.91a2.12,2.12,0,0,0,.23-1.2c13.78-.13,27.55-.24,41-2.35a7.57,7.57,0,0,0,1.57-1.06,1.94,1.94,0,0,1,.06-.83C302.11,181.48,303.38,178.53,300.89,175.87Z" transform="translate(0 0)"/><g class="cls-3"><path class="cls-2" d="M25.61,50.76a1.19,1.19,0,0,1,.09-.15q-.12-4.68-.21-9.36C24.42,31.5,23,21.83,22.31,12.08c0-.14-.11-.23-.15-.38C21.64,9.44,21,7.22,20.37,5a9,9,0,0,0-1.27-.18h0a3.47,3.47,0,0,1-.92-1h0c-.44-1.44-1.58-1.74-2.87-1.77h0l-1-1.06L14.43,1c-.07-.09-.15-.14-.23-.23a35.91,35.91,0,0,0-5.61.91C5.3,3.2,2.27,5.49,1,9.59a31.84,31.84,0,0,1-.65,4C.7,21.14,1.49,28.7,1.23,36.3,1,43.63,2,50.91,2.07,58.22c.14,10,0,20.06,0,30.08,0,1.91-.18,3.81-.28,5.72a10.13,10.13,0,0,0-.55,4.6,6.63,6.63,0,0,0,.33-.79,3.16,3.16,0,0,1-.33.79,56.52,56.52,0,0,1-.2,9.47v1a7.82,7.82,0,0,0-.29,2.16,15.16,15.16,0,0,1-.12,4.26C.46,120.24.23,125,0,129.72v.42c0,18.33.18,36.64,1.1,54.91a.84.84,0,0,1,0,.12l.46.9a15,15,0,0,0,1.84,2.6l.62.37h0l.15.1.22.14,7.07,0c0,.08.11.14.32.19s.38-.05.54-.3a13.73,13.73,0,0,0,5.53-8.54A72.67,72.67,0,0,0,20,166.56c.19-4.27.74-8.52,1.19-12.78a7.79,7.79,0,0,1,.68-1.76,46.51,46.51,0,0,1,.19-5.67,122.64,122.64,0,0,0,1.3-20.26h0c.42-2.91.85-5.82,1.24-8.73a4.86,4.86,0,0,0-.78-3.55,16.86,16.86,0,0,0,1-4.11c1.08-7.19.93-14.43.88-21.66h0v-1h0c0-3.14.11-6.28.1-9.43Q25.69,64.19,25.61,50.76Z" transform="translate(0 0)"/><path class="cls-2" d="M23.77,113.81l-.09.08h0Z" transform="translate(0 0)"/><path class="cls-2" d="M305.69,39.45a21.3,21.3,0,0,1-.37-8,1.63,1.63,0,0,0-.17-1.61c0-1.73-.1-3.46-.1-5.19,0-5.36.06-10.71.07-16.07A12.43,12.43,0,0,0,304.33,3l0-.44-.06-.43A2.72,2.72,0,0,0,301.38.26c-2.81,0-5.61,0-8.41-.06,0-.07-.11-.13-.32-.19s-.38,0-.54.3a13.71,13.71,0,0,0-5.53,8.54A72.89,72.89,0,0,0,284.53,23c-.19,4.27-.75,8.53-1.2,12.79a7.08,7.08,0,0,1-.67,1.75,46.61,46.61,0,0,1-.19,5.68,122.64,122.64,0,0,0-1.3,20.26h0c-.42,2.91-.85,5.81-1.24,8.73a4.86,4.86,0,0,0,.78,3.55h0a16.42,16.42,0,0,0-1,4.11c-1.08,7.19-.94,14.42-.89,21.66h0v1h0c0,3.14-.11,6.29-.1,9.43q0,13.44.11,26.88a5.6,5.6,0,0,0-1,5.37c1.69,5.11.77,10.5,1.94,15.64a15.13,15.13,0,0,1,.86,5.12c.09,1.9.18,3.8.42,5.68a31.18,31.18,0,0,1,.07,9.45c-.5,2.9-.06,3.43,2.84,4.44a7,7,0,0,0,1.38.21l0,0a3.54,3.54,0,0,1,.93,1l0,0c.44,1.44,1.57,1.74,2.87,1.78h0l.95,1.06h0l-.06.08a4.5,4.5,0,0,0,3.89,1.78h0v0c2,0,4.07,0,6.1,0,3.51-.12,4.48-1.14,4.44-4.58,0-.64-.11-1.27-.1-1.91.08-10.19-1.47-20.31-1.13-30.5.24-7.33-.75-14.62-.85-21.93-.13-10,0-20,0-30.08,0-1.9.18-3.81.28-5.71a10.16,10.16,0,0,0,.55-4.6,6,6,0,0,0-.33.79,2.88,2.88,0,0,1,.33-.8,56.4,56.4,0,0,1,.2-9.46v-1a7.4,7.4,0,0,0,.3-2.15c-.54-4.22,1.14-8.09,1.87-12.1,1.18-3.9.43-7.8,0-11.7C305.83,49.47,307,44.49,305.69,39.45Zm-25,36.26.09-.09h0Z" transform="translate(0 0)"/></g><path class="cls-2" d="M306.06,5.94c-.18-1.41-1.58-2.29-3.83-2.65a34,34,0,0,0-4.62-.53,112.62,112.62,0,0,1-14-1.24,30.81,30.81,0,0,0-10-.1,17.43,17.43,0,0,1-5.44-.06c-9.25-1.23-18.53-1.93-28-.77a36.8,36.8,0,0,1-4.71.13c-26.19-.13-52.37.2-78.56.13Q96.38.7,35.85.83C26.71.86,17.58,1.55,8.45,2a16.62,16.62,0,0,0-2.95.61l-3,1h0l-1.63,0C.9,5.15.92,6.73,1,8.3a3.69,3.69,0,0,0,.63-.7A2,2,0,0,1,1,8.3c.31,3.83.51,7.68,3.11,11.28a1.77,1.77,0,0,1,.65.62,4.31,4.31,0,0,0-.65-.62,4.54,4.54,0,0,0,1.1,3.29,1.65,1.65,0,0,0,.49.5h0C5.94,25,7.27,26,10.08,26c2.32,0,4.66-.07,7-.19,5.41-.26,10.86-.69,16.23-.22a93.89,93.89,0,0,0,19.33-.07c3.33-.38,6.71-.6,9.82.59,42.93-.39,85.9.94,128.82-.91,6.78-.3,13.62,0,20.43-.06,3.67,0,7.38,0,11-.31a140.71,140.71,0,0,1,14.08-.63c2.88,0,5.79,0,8.41-.88h0c15.71.19,31.45-.26,47.1,1,.51,0,1,0,1.55,0,4.76.89,5.53.74,6.88-1.57a19.15,19.15,0,0,0,1.17-3.07l1.44-.12c0-1.55.05-3.09.08-4.64h0c1-1.59,2-3.18,2.95-4.78C306.24,8.75,306.24,7.34,306.06,5.94Zm-3.36,9.65a2.14,2.14,0,0,1,.6-.66h0A4.08,4.08,0,0,0,302.7,15.59Z" transform="translate(0 0)"/></g></g></svg>