<svg xmlns="http://www.w3.org/2000/svg" viewBox="0 0 99 89.15"><defs><style>.cls-1{isolation:isolate;}.cls-2,.cls-3{mix-blend-mode:multiply;}.cls-3{fill:#05ff1a;opacity:0.8;}</style></defs><g class="cls-1"><g id="Camada_1" data-name="Camada 1"><g class="cls-2"><path class="cls-3" d="M72.68.12c-1.14.42-2.3.82-3.45,1.22-3.86,1.3-45,24.57-49,25.67-1.26.35-16.85,9-18,9.5-1.74.75-2.63,2.14-2,4.59l0,0c0,.43.3.88.16,1.3S.3,43.45.24,44c.67,1.51,1.33,3,2,4.54h0c.1.18.18.37.29.54C3.88,51.11,4.35,51.35,6,50.59a35.23,35.23,0,0,0,3.2-1.73c1-.57,16.34-9.28,17.43-9.63a15.68,15.68,0,0,0,2.46-1c2.8-1.44,43.28-24.09,46.31-25.06a6.64,6.64,0,0,0,3.77-2.57h0c0-.27.07-.53.1-.8-.82-2-1.65-3.93-2.44-5.9a9.37,9.37,0,0,0-2-3A1.91,1.91,0,0,0,72.68.12Z"/><path class="cls-3" d="M12,56.89a14.5,14.5,0,0,0,5.35-2.22c3.7-2.34,59.93-33.12,63.59-35.5a4.46,4.46,0,0,1,1.61-.55,9.44,9.44,0,0,0,4.54-2.21l-.33-.49,0-.05a3.83,3.83,0,0,0,.09-.69c0-.28.07-.56.11-.84-.06-1.5-1-2.78-1.5-4.18h0L84.19,8.08h0A4.29,4.29,0,0,0,79.8,5.62,9.72,9.72,0,0,0,75.29,6.8C73,8.29,42.66,24.9,40.35,26.42c-1.49,1-9.62,5.73-11.12,6.71h0c-2,.21-21.08,11.57-22.53,12.74a2.1,2.1,0,0,0-.51,2.29,21.67,21.67,0,0,0,3.29,7.16C10.15,56.22,11,57,12,56.89Z"/><path class="cls-3" d="M80.53,22.23h0c-1.68-2.14-3.48-2.68-5.4-1.67h0a4,4,0,0,0-2.5.84c-.76.45-9.21,5.45-10,5.73C59.27,28.24,36.34,41.24,33.2,42.72,31.54,43.5,12.07,54.21,11.06,56h0a2.05,2.05,0,0,0-.87,2.28c.76,3,1.8,5.86,4.28,8h0l.65,1h0c1.56.2,2.13-1.65,3.63-1.56,1.6-1.11,21-12,22.9-12.58,3.16-1,33.89-18,36.61-19.92a9.7,9.7,0,0,1,2.3-1.31,4,4,0,0,0,2.34-2.4c-.11-.17-.22-.34-.34-.51l0,0c.09-.41-.28-.81-.23-1.22-.1-.2-.19-.4-.29-.59s0-.42,0-.64C81.53,25.07,81,23.65,80.53,22.23Z"/><path class="cls-3" d="M82.91,35.79c-1.27.28-2.49.72-3.73,1.09-2.27,1.27-23.65,12.93-25.81,14.41s-22.27,13-24.8,14C27.3,65.78,7.24,77.39,6.08,78.15a2.09,2.09,0,0,0-.78,2.49,20.33,20.33,0,0,0,3.07,6.93c1.16,1.6,2,1.91,3.6,1.26C13.25,88.3,33.46,77,34.72,76.42,36.3,75.69,45,71,46.51,70.14,49.65,68.28,82.4,49.72,86.08,49a5.67,5.67,0,0,0,1.39-.7c0-.66,0-1.32.12-2A4.53,4.53,0,0,0,87,43.57a13.66,13.66,0,0,0-2-6h0C84.38,35.92,84,35.55,82.91,35.79Z"/><path class="cls-3" d="M16.5,74.59a2.09,2.09,0,0,0,.23-.08c2-1.14,22.1-11.69,24-13.09h0c1.05-.43,8.79-4.52,9.77-5.08C52.8,55,83.11,38.64,85.3,37.1a3.49,3.49,0,0,1,1.14-.43,11.22,11.22,0,0,0,3.26-1.59A1.73,1.73,0,0,0,91,33.77a1.83,1.83,0,0,0,0-.87,13.41,13.41,0,0,1-.69-2.59,5.4,5.4,0,0,0-.26-.84c-.55-.82-.6-2-1.72-2.37-.38-.33-.77-.64-1.12-1a4.88,4.88,0,0,0-4.68-1.62,13.19,13.19,0,0,0-4.77,1.68c-1.14.76-20,11.48-21.18,12.2H55.41C54.39,39,36.77,49,35.76,49.68,33.2,51.32,12.45,62.12,10,64h0c-.19.61-.38,1.22-.58,1.83h0a24.67,24.67,0,0,0,1.89,5.83C12.63,74.59,14.06,75.37,16.5,74.59Z"/><path class="cls-3" d="M94.16,36.88a12.87,12.87,0,0,0-3.83,1.46C89.23,39,73.71,47.76,72.6,48.4c-1,.76-5.17,3.53-6.21,4.15-2.71,1.65-39.72,22.73-42.67,24a11.55,11.55,0,0,0-1.89,1.11,2,2,0,0,0-.67,2.21,46,46,0,0,0,1.62,5.64c1.39,3.49,3.15,3.94,5,2.76.56-.34,1.13-.66,1.71-.94.74-.36,19.17-10.77,20-11,1.34-.41,9.21-4.79,10.41-5.48,2.33-1.35,32.33-18.35,34.67-19.66a6.65,6.65,0,0,1,2-.9C98.29,50,99,48.82,99,46.82c0-.4,0-.77,0-1.16l-.35-.46a23.53,23.53,0,0,0-1.33-5.68h0a2.5,2.5,0,0,0,0-.29C96.42,36.85,96,36.49,94.16,36.88Z"/></g><path d="M65.79,67.49A1.88,1.88,0,0,0,63.32,66a3.85,3.85,0,0,0,.49,1.48C64.8,68.48,65.79,68.48,65.79,67.49Z"/><path d="M53.92,38.29a1.8,1.8,0,0,0-.5,1.48c0,.5,1,0,1-1C54.91,37.79,54.91,37.79,53.92,38.29Z"/><path d="M57.88,35.81c-.5.5-.5.5-.5,0,.5-.49,0-.49-.49-.49-1,0-1,.49,0,1a1.06,1.06,0,0,0,1,1c.49,0,1-1.49,1-2C58.87,34.33,58.87,34.82,57.88,35.81Z"/><path d="M52.93,66.5c.49.5,1.48,0,1.48-1,0-.49-.49-.49-1-.49C52.43,65,52.43,66,52.93,66.5Z"/><path d="M62.33,36.31a1.84,1.84,0,0,1,.49-1.49c.5,0,1.49-1.48,2-2.47,1-2.48,4-10.4,4-11.39,0-.49,0-1,.5-.49,1,0,1,0,1.48-1,0-.5,0-.5-.49-.5a6,6,0,0,1-.5-2.47l-.49-2H48.47c-17.32,0-21.28,0-22.77.5a24.68,24.68,0,0,1-2.47,1c-1.49,0-1.49,5.44-.5,5.93.5.5,1,2.48,1.49,4.46,2,6.43,4.45,8.91,11.38,12.37,3,1.49,5.45,4,5.45,5.45,0,2-2,4-4.95,5.94a21.39,21.39,0,0,0-8.91,10.89c-2,5.44-2.48,6.93-2,9.9q.73,2.22,0,3c-.5.49,0,4.45.49,4.94a5.08,5.08,0,0,0,2,.5c2,.49,5.94.49,10.89-.5,4.46-1.48,9.41-1.48,21.78-2,4.95,0,9.4-.5,9.4-.5.5,0,1-1,1.49-2.47a5.3,5.3,0,0,0-.5-3A69.28,69.28,0,0,1,70.25,64c-.5-8.42-.5-8.91-5-11.88a25.66,25.66,0,0,1-5.44-3.47c-5.45-2.47-5.45-4-1-8.41A43,43,0,0,0,62.33,36.31ZM24.22,19c.49-2,2-2.47,5.44-3,4.46-.5,38.61,0,39.1,1,.5,0,.5.5,0,.5-.49.49-13.36,1.48-34.64,2-2,0-4.95.49-6.93.49C23.72,20.47,23.72,20.47,24.22,19Zm45,55v1c-18.81.49-26.23,1-32.17,2.47a30.77,30.77,0,0,1-6.44.49l-3,.5v-2c0-2.47,0-2.47,10.4-3,14.35-.49,17.32-.49,22.27-1C66.29,72,69.26,72.44,69.26,73.93ZM57.38,39.28c-4,3.46-4.45,5.94-3,8.41a28.46,28.46,0,0,0,5.94,4c7.42,4,7.92,5,7.92,11.39.49,4.45,0,5.44-.5,4.95-1-.5-2.47.49-2,1.48,0,1,0,1-2,1a24,24,0,0,0-5.44.5c-2,0-7.92.49-13.36.49-19.31.5-17.82,1-18.32-2.47-.49-2,2-8.91,4-11.88,1.49-2.48,5.45-5.45,7.92-6.93a6.79,6.79,0,0,0,4-5.45c.5-3.46-1.48-5.44-7.92-8.41-3.46-2-4.95-3-5.94-5-3-4-4.45-9.41-2.47-9.9h5.94a31.28,31.28,0,0,0,7.92-1h19.8a26.21,26.21,0,0,1,6.92,0c.5.49-.49,3.46-2,8.41A30.76,30.76,0,0,1,57.38,39.28Z"/><path d="M55.4,65.51c0,.5.5,1,.5,1.49s0,.49-.5.49-.49,0-.49-.49a1.53,1.53,0,0,0-1,.49c-.5.5-1,0-2-.49-.5-.5-1-1-1-.5s-1,.5-1.49.5c-1-.5-1.48,0-1,.49a1.74,1.74,0,0,0,1,.5c1,0,1.49,0,2,.49h2.48c1.48,1,2,1,2.47,0,0-.49.5-.49,1,0,1.49,1,2.48.5,2-.49-.49-.5-.49-.5-1-.5-1,0-1,0,0-.49,1-1.49,1-1.49,0-1.49-.49,0-.49,0-.49.5,0,1.48-1,1-2-1.49-1-2-1.49-2.47-1.49-.49v1C54.91,65,55.4,65,55.4,65.51Z"/><path d="M46,68.48c-1,0-1.49.5-1,1s1.48.5,1.48-.49A.48.48,0,0,0,46,68.48Z"/><path d="M41.54,39.28v.49c.5,1,1.49,1,1.49.5C43,39.28,42,38.78,41.54,39.28Z"/><path d="M46,66c-.5,0-1,.49-1.49.49h-1v1c.5.5,2,0,3.47-1C48,65.51,47.48,65,46,66Z"/><path d="M44,41.75c-.5,1,0,1.49.49,1.49s1-.5.5-2c-.5-2.48-.5-2.48-1.49-2-.49.49-.49,1,0,1S44,41.26,44,41.75Z"/><path d="M39.56,67c-.49,0-1.48,2-1.48,2.47.49,1,1.48,1,1.48,0,0-.49,0-1.48.5-1.48C41.05,67.49,40.55,66.5,39.56,67Z"/><path d="M36.1,70c-.5.49-.5.49,0,1a1.54,1.54,0,0,0,1-.5C37.58,69.47,36.59,69,36.1,70Z"/><path d="M48,47.2a.94.94,0,0,0,0-1.49c-.5-.49-.5,0-.5,1C47.48,47.2,47.48,47.69,48,47.2Z"/><path d="M48,42.25c-.5,0-2,2-1.49,2.47A1,1,0,0,0,48,44.23a1.84,1.84,0,0,1,.49-1.49C48.47,42.25,48.47,42.25,48,42.25Z"/><path d="M50.45,43.73H51a1.89,1.89,0,0,0-1.49-2.47C49,41.26,49.46,43.24,50.45,43.73Z"/><path d="M48,59.08h1.48a1.74,1.74,0,0,0,.5-1c0-1-.5-1-.5-1-.49,0-.49,0-.49.49a1.74,1.74,0,0,1-1,.5c-.5,0-.5,0-.5.49S47.48,59.57,48,59.08Z"/><path d="M29.17,70c-1.49,0-2,.49-1.49,1s1,.49,2-.5C30.16,70,29.66,70,29.17,70Z"/><path d="M30.65,68c0,.49,0,1,.5,1a1.07,1.07,0,0,0,1-1A.75.75,0,0,0,30.65,68Z"/><path d="M51.94,62.54c-.5,0-1,0-1.49-1S49,60.07,49,60.56c-.5,0,0,.5,0,1,1,1,1,1.49-.5.5h-2c-.49.49,1.49,2,3,2,.5,0,1,0,1,.49a1.74,1.74,0,0,0,1,.5l.5-.5c0-.49,0-.49.49-.49a1.06,1.06,0,0,0,1-1C53.42,62.05,52.43,61.55,51.94,62.54Z"/><path d="M62.82,65c0-1-1-1.49-2-1a1.54,1.54,0,0,0,.5,1C61.83,66,62.82,66,62.82,65Z"/><path d="M48,52.64a2.16,2.16,0,0,0,.49-1.48.48.48,0,0,0-.49-.5c-.5,0-.5.5-.5,1S47.48,52.64,48,52.64Z"/><path d="M39.56,36.31c-.49,0-.49-.5-.49-1s0-1-.5-1c0-.5-.49,0-.49,0-.5.49-.5.49-1.49,0s-2,0-1.48,1a3,3,0,0,0,2,.49c1-.49,1,0,1.48.5,0,1.48,1.49,1.48,1.49.49A.49.49,0,0,0,39.56,36.31Z"/><path d="M43.52,36.8c0-.49-.49-.49-1.48-.49-1.49,0-2,.49-1,1S43.52,37.3,43.52,36.8Z"/><path d="M41.05,34.33c-1,0-1,0-1,.49s0,1,.49.5C42,35.32,42,34.33,41.05,34.33Z"/><path d="M50.45,37.79c0-.49-.49-.49-1-.49-1,0-1,1-.49,1.48S50.45,38.78,50.45,37.79Z"/><path d="M34.12,68a1.71,1.71,0,0,0,1,.49c.49,0,.49-1.48,0-2C34.12,66,33.62,67,34.12,68Z"/><path d="M45.5,64.52c.5-1.48.5-2,0-2s-.49,0-.49.5a2.14,2.14,0,0,1-.5,1.48c-.49,0-.49.5-.49,1S45,65.51,45.5,64.52Z"/><path d="M46.49,38.78c1.49,1,2,1,2,0,0-1.48-1-2-1.48-1-.5-1-1.49-1-1.49,0C45.5,37.79,46,38.78,46.49,38.78Z"/><path d="M45.5,60.56c.5-.49,0-1-1-.49a.48.48,0,0,0-.49.49C44.51,61.55,45,61.55,45.5,60.56Z"/><path d="M45.5,35.32c0-1-.49-1-2-.5-.49,0-.49.5-.49,1C43.52,36.31,45.5,36.31,45.5,35.32Z"/><path d="M33.62,33.34c-.49,0-.49.49-.49,1a.93.93,0,0,0,1.48,0C35.11,33.34,34.12,32.35,33.62,33.34Z"/><path d="M68.27,70h0Z"/></g></g></svg>