<svg xmlns="http://www.w3.org/2000/svg" viewBox="0 0 99 236.58"><defs><style>.cls-1{isolation:isolate;}.cls-2{fill:#9fffff;}.cls-2,.cls-3,.cls-4{mix-blend-mode:multiply;}.cls-4{fill:#05ff1a;opacity:0.8;}.cls-5{fill:#231f20;stroke:#000;stroke-linecap:round;stroke-linejoin:round;}</style></defs><g class="cls-1"><g id="Camada_1" data-name="Camada 1"><path class="cls-2" d="M51.28,138.56H49.53l-.57,0a.39.39,0,0,0-.61,0h0a12.72,12.72,0,0,0-4.11.61c-2.07,1-2.82,2.68-2.67,5,.18,2.55-.22,5.16.12,7.67.31,2.34-.7,4.86.82,7l.55.07h0c-.06,4.45.25,8.9-.5,13.32a8.81,8.81,0,0,0-.06,1.78c0,2.23.93,3,3.13,2.67a24.94,24.94,0,0,0,3.32-1h0a13.51,13.51,0,0,0,5.39-.87,5.64,5.64,0,0,0,4-5.83,15.72,15.72,0,0,1,.61-4.68,8.54,8.54,0,0,1-.57-3.81c.15-3.87-.5-7.74-.15-11.61a3,3,0,0,0-.09-.89,18.78,18.78,0,0,1-.18-5.65c.2-2.1-.23-2.57-2.5-3.21h0a1,1,0,0,0-.32-.19,3.75,3.75,0,0,0-2-.4,1.31,1.31,0,0,0-1.77,0Zm1.77,0a2.65,2.65,0,0,0,.39.23.88.88,0,0,1-.39-.23Z" transform="translate(0)"/><path class="cls-2" d="M51.28,198.32H49.53l-.57,0a.39.39,0,0,0-.61,0h0a12.72,12.72,0,0,0-4.11.61c-2.07,1-2.82,2.68-2.67,5,.18,2.55-.22,5.16.12,7.67.31,2.34-.7,4.86.82,7l.55.07h0c-.06,4.45.25,8.9-.5,13.32a8.81,8.81,0,0,0-.06,1.78c0,2.23.93,3,3.13,2.67a24.94,24.94,0,0,0,3.32-1h0a13.51,13.51,0,0,0,5.39-.87,5.64,5.64,0,0,0,4-5.83,15.72,15.72,0,0,1,.61-4.68,8.54,8.54,0,0,1-.57-3.81c.15-3.87-.5-7.74-.15-11.61a3,3,0,0,0-.09-.89,18.78,18.78,0,0,1-.18-5.65c.2-2.1-.23-2.57-2.5-3.21h0a1,1,0,0,0-.32-.19,3.75,3.75,0,0,0-2-.4,1.31,1.31,0,0,0-1.77,0Zm1.77,0a2.65,2.65,0,0,0,.39.23.88.88,0,0,1-.39-.23Z" transform="translate(0)"/><path class="cls-2" d="M49.52,86.21h0a9,9,0,0,0-4.13.45h0c-3,.42-3.46.89-3.51,3.54,0,.79,0,1.59,0,2.39a2,2,0,0,1,0,.49,1.61,1.61,0,0,1,.27,1c-.34,5.05.28,10.1-.07,15.15a1.08,1.08,0,0,0,.61,1.11,1.77,1.77,0,0,0,.32,0c-.94,1.41-.82,3.06-.79,4.55.07,2.62,2.14,4.62,4.17,4.08,2.39-.64,5-.58,7.2-1.75h0c0-.17,0-.33,0-.49a11.59,11.59,0,0,0,1.43-.26,4.32,4.32,0,0,0,3.37-3.64,12.33,12.33,0,0,0,.06-3.69c-.28-2-.92-4-.35-6.09a1.63,1.63,0,0,0,0-.79,26,26,0,0,1-.38-6.65,41.2,41.2,0,0,0-.61-6.64A1.88,1.88,0,0,0,56,87.22h0a1.06,1.06,0,0,0-.33-.18,4.18,4.18,0,0,0-2-.36,7.87,7.87,0,0,0-4.08-.47Zm4.09.48a2.27,2.27,0,0,0,.41.21,1,1,0,0,1-.41-.21Z" transform="translate(0)"/><g class="cls-3"><path class="cls-4" d="M72.68.12c-1.14.42-2.3.82-3.45,1.22-3.86,1.3-45,24.57-49,25.67-1.26.35-16.85,9-18,9.5-1.74.75-2.63,2.14-2,4.59l0,0c0,.43.3.88.16,1.3S.3,43.45.24,44c.67,1.51,1.33,3,2,4.54h0c.1.18.18.37.29.54C3.88,51.11,4.35,51.35,6,50.59a35.23,35.23,0,0,0,3.2-1.73c1-.57,16.34-9.28,17.43-9.63a15.68,15.68,0,0,0,2.46-1c2.8-1.44,43.28-24.09,46.31-25.06a6.64,6.64,0,0,0,3.77-2.57h0c0-.27.07-.53.1-.8-.82-2-1.65-3.93-2.44-5.9a9.37,9.37,0,0,0-2-3A1.91,1.91,0,0,0,72.68.12Z" transform="translate(0)"/><path class="cls-4" d="M12,56.89a14.5,14.5,0,0,0,5.35-2.22c3.7-2.34,59.93-33.12,63.59-35.5a4.46,4.46,0,0,1,1.61-.55,9.44,9.44,0,0,0,4.54-2.21l-.33-.49,0-.05a3.83,3.83,0,0,0,.09-.69c0-.28.07-.56.11-.84-.06-1.5-1-2.78-1.5-4.18h0L84.19,8.08h0A4.29,4.29,0,0,0,79.8,5.62,9.72,9.72,0,0,0,75.29,6.8C73,8.29,42.66,24.9,40.35,26.42c-1.49,1-9.62,5.73-11.12,6.71h0c-2,.21-21.08,11.57-22.53,12.74a2.1,2.1,0,0,0-.51,2.29,21.67,21.67,0,0,0,3.29,7.16C10.15,56.22,11,57,12,56.89Z" transform="translate(0)"/><path class="cls-4" d="M80.53,22.23h0c-1.68-2.14-3.48-2.68-5.4-1.67h0a4,4,0,0,0-2.5.84c-.76.45-9.21,5.45-10,5.73C59.27,28.24,36.34,41.24,33.2,42.72,31.54,43.5,12.07,54.21,11.06,56h0a2.05,2.05,0,0,0-.87,2.28c.76,3,1.8,5.86,4.28,8h0l.65,1h0c1.56.2,2.13-1.65,3.63-1.56,1.6-1.11,21-12,22.9-12.58,3.16-1,33.89-18,36.61-19.92a9.7,9.7,0,0,1,2.3-1.31,4,4,0,0,0,2.34-2.4c-.11-.17-.22-.34-.34-.51l0,0c.09-.41-.28-.81-.23-1.22-.1-.2-.19-.4-.29-.59s0-.42,0-.64C81.53,25.07,81,23.65,80.53,22.23Z" transform="translate(0)"/><path class="cls-4" d="M82.91,35.79c-1.27.28-2.49.72-3.73,1.09-2.27,1.27-23.65,12.93-25.81,14.41s-22.27,13-24.8,14C27.3,65.78,7.24,77.39,6.08,78.15a2.09,2.09,0,0,0-.78,2.49,20.33,20.33,0,0,0,3.07,6.93c1.16,1.6,2,1.91,3.6,1.26C13.25,88.3,33.46,77,34.72,76.42,36.3,75.69,45,71,46.51,70.14,49.65,68.28,82.4,49.72,86.08,49a5.67,5.67,0,0,0,1.39-.7c0-.66,0-1.32.12-2A4.53,4.53,0,0,0,87,43.57a13.66,13.66,0,0,0-2-6h0C84.38,35.92,84,35.55,82.91,35.79Z" transform="translate(0)"/><path class="cls-4" d="M16.5,74.59a2.09,2.09,0,0,0,.23-.08c2-1.14,22.1-11.69,24-13.09h0c1.05-.43,8.79-4.52,9.77-5.08C52.8,55,83.11,38.64,85.3,37.1a3.49,3.49,0,0,1,1.14-.43,11.22,11.22,0,0,0,3.26-1.59A1.73,1.73,0,0,0,91,33.77a1.83,1.83,0,0,0,0-.87,13.41,13.41,0,0,1-.69-2.59,5.4,5.4,0,0,0-.26-.84c-.55-.82-.6-2-1.72-2.37-.38-.33-.77-.64-1.12-1a4.88,4.88,0,0,0-4.68-1.62,13.19,13.19,0,0,0-4.77,1.68c-1.14.76-20,11.48-21.18,12.2H55.41C54.39,39,36.77,49,35.76,49.68,33.2,51.32,12.45,62.12,10,64h0c-.19.61-.38,1.22-.58,1.83h0a24.67,24.67,0,0,0,1.89,5.83C12.63,74.59,14.06,75.37,16.5,74.59Z" transform="translate(0)"/><path class="cls-4" d="M94.16,36.88a12.87,12.87,0,0,0-3.83,1.46C89.23,39,73.71,47.76,72.6,48.4c-1,.76-5.17,3.53-6.21,4.15-2.71,1.65-39.72,22.73-42.67,24a11.55,11.55,0,0,0-1.89,1.11,2,2,0,0,0-.67,2.21,46,46,0,0,0,1.62,5.64c1.39,3.49,3.15,3.94,5,2.76.56-.34,1.13-.66,1.71-.94.74-.36,19.17-10.77,20-11,1.34-.41,9.21-4.79,10.41-5.48,2.33-1.35,32.33-18.35,34.67-19.66a6.65,6.65,0,0,1,2-.9C98.29,50,99,48.82,99,46.82c0-.4,0-.77,0-1.16l-.35-.46a23.53,23.53,0,0,0-1.33-5.68h0a2.5,2.5,0,0,0,0-.29C96.42,36.85,96,36.49,94.16,36.88Z" transform="translate(0)"/></g><path class="cls-5" d="M37.05,21a8.66,8.66,0,0,0,1.6,2.29,9.55,9.55,0,0,0,2.22,1.68,12.8,12.8,0,0,0,3.63,1.34,18.33,18.33,0,0,0,3.84.39,22.53,22.53,0,0,0,7.54-1.36,20.2,20.2,0,0,0,3.5-1.63,16.64,16.64,0,0,0,3.09-2.34,11.62,11.62,0,0,0,2.33-3.13,9.8,9.8,0,0,0,1-3.79,9.39,9.39,0,0,0-.09-2,7.35,7.35,0,0,0-.56-1.93,7,7,0,0,0-1.11-1.69,8.17,8.17,0,0,0-1.52-1.3,11.61,11.61,0,0,0-1.78-.93,4.12,4.12,0,0,0-.81-.7,6.81,6.81,0,0,0-1.28-.67A11.7,11.7,0,0,0,56,4.54a18.27,18.27,0,0,0-2.76-.17,24.34,24.34,0,0,0-5.44.69q-1,.24-2,.57-3,.36-5.89,1c-1,.22-1.81.65-1.73.94s.94.32,2,.11c0,0,.75-.17,2.1-.41a13.84,13.84,0,0,0-3.9,3.21,10.31,10.31,0,0,0-1.45,2.38,9.45,9.45,0,0,0-.71,2.7,10.86,10.86,0,0,0,.07,2.79A9.34,9.34,0,0,0,37.05,21ZM53.24,5.14a17.93,17.93,0,0,1,2.64.18,12.27,12.27,0,0,1,1.6.33c-.78-.14-1.56-.24-2.34-.31-1.24-.1-2.48-.13-3.72-.11C52,5.18,52.63,5.15,53.24,5.14ZM36.83,15.59a9,9,0,0,1,.67-2.51,9.77,9.77,0,0,1,1.37-2.22A13.31,13.31,0,0,1,43,7.62a18.15,18.15,0,0,1,1.73-.81c1.38-.2,3-.4,4.87-.52a41,41,0,0,1,4.6,0,21.69,21.69,0,0,1,5,.77c.4.11.8.25,1.19.4a2.21,2.21,0,0,1,.37,1,2.93,2.93,0,0,1-.15,1.16l.79.26a3.59,3.59,0,0,0,.18-1.5,3,3,0,0,0-.07-.43l.12.06a7.24,7.24,0,0,1,2,1.67A5.91,5.91,0,0,1,64.82,12,8.2,8.2,0,0,1,65,14.75a8.58,8.58,0,0,1-.68,2.63,10.41,10.41,0,0,1-1.41,2.33,14.67,14.67,0,0,1-4.08,3.44,20.78,20.78,0,0,1-4.63,2,22,22,0,0,1-4.42.82A18.58,18.58,0,0,1,46,25.89a14.4,14.4,0,0,1-2.77-.59,12,12,0,0,1-1.63-.65l-.44-.23a8.92,8.92,0,0,1-2.07-1.59,7.8,7.8,0,0,1-1.47-2.13,8.68,8.68,0,0,1-.74-2.5A9.92,9.92,0,0,1,36.83,15.59Z" transform="translate(0)"/><path class="cls-5" d="M25.67,52.27l1.1,2.51L27.32,56l.79,1.84.55-1.1h.48v-1l0-.07.26-.53L33,48.57l-.74-.38L29.11,54.5,29,46.35l.19-11.72,21.26-1.21.18,12.07-.12,10.9,0-.06-.75-1.95-1.51-3.91c-.07-.17-.34-.22-.62-.1s-.44.34-.37.51l1.22,2.77,1.09,2.5.55,1.26.79,1.84.68-1.36.37-.77.26-.52L55.79,50l-.74-.38-3.36,6.76-.51.93-.2.33-.12-.35-.13-.34h.63l-.12-11.41.18-12.12L58.86,33l19.87-.87.21,13.1-.1,9.44-.29-.76-.76-2L76.29,48c-.07-.17-.35-.21-.62-.1s-.44.34-.37.51l1.21,2.77,1.1,2.51.55,1.25.78,1.84.5-1h.22v-.43l.35-.7.25-.53,3.57-6.65-.74-.38-3.36,6.76-.08.16-.1-8.84L79.75,32l1,0,0-.83-.9,0,0-.91a.54.54,0,0,0-1.07,0v1L58.83,32.35l-7.4.31,0-3.17a.54.54,0,0,0-1.07,0l.05,3.21-21.23.87,0-1.84a.55.55,0,0,0-1.08,0l0,1.88c-.53,0-.95.29-.93.58s.43.51.94.49l.19,11.67L28.31,56l-.13.22-.12-.35L27.71,55,27,53l-1.51-3.91c-.07-.17-.35-.21-.62-.1s-.44.34-.37.51Z" transform="translate(0)"/><path class="cls-5" d="M78.79,59.05a52.38,52.38,0,0,0-5.86.72c-.8.15-1.4.53-1.33.82s.75.38,1.53.23c0,0,.72-.14,2-.34s2.75-.38,4.67-.48l-.65.23a15,15,0,0,0-1.94.92,17,17,0,0,0-3.37,2.59,14.72,14.72,0,0,0-2.56,3.41A11.64,11.64,0,0,0,70,71.22a10.94,10.94,0,0,0,0,2.14,6.65,6.65,0,0,0,.52,2.13,5.49,5.49,0,0,0,1.26,1.79A6.7,6.7,0,0,0,73.5,78.5a10.7,10.7,0,0,0,4.16.91,17.84,17.84,0,0,0,5.86-.78,18.74,18.74,0,0,0,5.35-2.57,12.77,12.77,0,0,0,4-4.4,9.34,9.34,0,0,0,1-2.86,9.46,9.46,0,0,0,0-3,6.74,6.74,0,0,0-1.16-2.86,7.51,7.51,0,0,0-2.3-2,12.19,12.19,0,0,0-2.81-1.14,19.66,19.66,0,0,0-2.93-.56A34.47,34.47,0,0,0,78.79,59.05Zm4.36,1.63a1.32,1.32,0,0,1,.58.54A1.9,1.9,0,0,1,84,62l.83,0a2.58,2.58,0,0,0-.34-1.18,2.24,2.24,0,0,0-.8-.79l.3,0a18.87,18.87,0,0,1,3.83.66,8.79,8.79,0,0,1,3.55,1.89,5.53,5.53,0,0,1,1.22,1.62,6.08,6.08,0,0,1,.59,2,8.65,8.65,0,0,1-.48,4.13,10.25,10.25,0,0,1-2.18,3.42,14.58,14.58,0,0,1-3,2.41,18.8,18.8,0,0,1-8.06,2.64,13.17,13.17,0,0,1-1.74,0,10.11,10.11,0,0,1-3.92-.89,5.88,5.88,0,0,1-1.63-1.11,4.92,4.92,0,0,1-1.1-1.6,5.86,5.86,0,0,1-.45-1.91,9.66,9.66,0,0,1,.06-2,10.77,10.77,0,0,1,1.26-3.81,14,14,0,0,1,2.45-3.22,15.39,15.39,0,0,1,3.24-2.44A11.71,11.71,0,0,1,79.42,61a7.64,7.64,0,0,1,1.92-.49A3.29,3.29,0,0,1,83.15,60.68Z" transform="translate(0)"/><path class="cls-5" d="M43.14,70.35a9.77,9.77,0,0,1,3.7-5.06,13.2,13.2,0,0,1,2.82-1.52A20.17,20.17,0,0,1,56,62.48c.9,0,1.62-.26,1.64-.55s-.75-.57-1.69-.52a22.53,22.53,0,0,0-2.38.26,21.32,21.32,0,0,0-2.67.6,15.57,15.57,0,0,0-3.3,1.37,11.88,11.88,0,0,0-3.31,2.68,10.85,10.85,0,0,0-2.17,4.2A12.77,12.77,0,0,0,41.72,73c0,.42,0,.84,0,1.26a11.15,11.15,0,0,0,.07,1.29,8.15,8.15,0,0,0,.7,2.54,6.64,6.64,0,0,0,1.61,2.15,7.43,7.43,0,0,0,2.28,1.35,9.84,9.84,0,0,0,2.53.57,15.26,15.26,0,0,0,4.94-.35A18.66,18.66,0,0,0,61.55,78a12.56,12.56,0,0,0,2.31-2.56A8.78,8.78,0,0,0,65,73.05a7.44,7.44,0,0,0,.33-1.61c0-.3,0-.46,0-.48a9.57,9.57,0,0,0-.23-2.44,5.4,5.4,0,0,0-1.08-2.25A4.82,4.82,0,0,0,62,64.82a7.89,7.89,0,0,0-2.44-.44,13.9,13.9,0,0,0-3,.26l1.25-.72-.42-.72-3.81,2.23a30.71,30.71,0,0,0-3.36,1.37c-.73.35-1.44.72-2.14,1.12a19.19,19.19,0,0,0-2,1.35,4.41,4.41,0,0,0-.49.42.36.36,0,0,0-.08.09l0,.07,0,.08s0,0,0,.07a.49.49,0,0,0,0,.13.44.44,0,0,0,.08.17.32.32,0,0,0,.13.11.25.25,0,0,0,.16,0,.54.54,0,0,0,.13,0l.12,0,.32-.12c.38-.17.74-.35,1.1-.53.71-.37,1.41-.75,2.1-1.13Q52,67.29,54.44,65.9l.52-.16a15.36,15.36,0,0,1,4.59-.7,6.74,6.74,0,0,1,2.23.38,4.22,4.22,0,0,1,1.8,1.25,4.79,4.79,0,0,1,1,2A8.66,8.66,0,0,1,64.77,71,7.47,7.47,0,0,1,64,74,10.57,10.57,0,0,1,62,76.62a16.45,16.45,0,0,1-5.46,3.53,17,17,0,0,1-6.36,1.29A10.54,10.54,0,0,1,47.05,81a6.73,6.73,0,0,1-2.69-1.59,6.07,6.07,0,0,1-1.52-2.68,8.2,8.2,0,0,1-.26-1.56c0-.27,0-.53,0-.8s0-.54,0-.81A12.55,12.55,0,0,1,43.14,70.35Z" transform="translate(0)"/><path class="cls-5" d="M19.6,80.94a17.07,17.07,0,0,0,5.83,1.14,31.21,31.21,0,0,0,5.88-.4c.81-.14,1.4-.52,1.33-.81s-.62-.36-1.3-.28l.39-.15A9.88,9.88,0,0,0,35.21,78a9.2,9.2,0,0,0,2-3.74,10.73,10.73,0,0,0,.36-2.1c0-.35,0-.71,0-1.06A9.59,9.59,0,0,0,37.6,70a8.21,8.21,0,0,0-1.52-4,9.4,9.4,0,0,0-3.22-2.76,13.72,13.72,0,0,0-5.67-1.58,15.31,15.31,0,0,0-5.85.73,11.33,11.33,0,0,0-5,3.2,9.11,9.11,0,0,0-1.59,2.55,9.65,9.65,0,0,0-.7,2.93,10.78,10.78,0,0,0,0,1.5,12.67,12.67,0,0,0,.14,1.5A9.34,9.34,0,0,0,15.09,77,8,8,0,0,0,17,79.39,9.68,9.68,0,0,0,19.6,80.94Zm-3.53-4a8.3,8.3,0,0,1-.81-1.85,10,10,0,0,1-.36-2,11.43,11.43,0,0,1,0-2.11A8.77,8.77,0,0,1,16.28,67a9.45,9.45,0,0,1,2.9-2.77,12.64,12.64,0,0,1,3.51-1.46,14.72,14.72,0,0,1,3.37-.44,14,14,0,0,1,5,.78,11,11,0,0,1,1.23.52l.35.18a8.89,8.89,0,0,1,3,2.59A7.75,7.75,0,0,1,37,70.09a12.14,12.14,0,0,1,0,2,10.85,10.85,0,0,1-.36,2,8.44,8.44,0,0,1-1.91,3.45,9.11,9.11,0,0,1-3.24,2.24,11.58,11.58,0,0,1-3.89.87,9.9,9.9,0,0,1-3.91-.55,4.67,4.67,0,0,1-1.61-1,2.13,2.13,0,0,1-.7-1.54H20.5a2.77,2.77,0,0,0,.26,1.17,3.32,3.32,0,0,0,.69,1,5.6,5.6,0,0,0,1.9,1.15l.4.13a15.15,15.15,0,0,1-3.18-.66,9,9,0,0,1-3.25-1.85A7.09,7.09,0,0,1,16.07,76.92Z" transform="translate(0)"/></g></g></svg>