<svg xmlns="http://www.w3.org/2000/svg" viewBox="0 0 99 225.78"><defs><style>.cls-1{isolation:isolate;}.cls-2{fill:#9fffff;}.cls-2,.cls-3,.cls-4{mix-blend-mode:multiply;}.cls-4{fill:#05ff1a;opacity:0.8;}.cls-5{fill:#222020;}</style></defs><g class="cls-1"><g id="Camada_1" data-name="Camada 1"><path class="cls-2" d="M54.84,85.51a23.68,23.68,0,0,0-3.33,1h0a13.73,13.73,0,0,0-5.39.86,5.64,5.64,0,0,0-4,5.84,16.33,16.33,0,0,1-.61,4.67,8.72,8.72,0,0,1,.56,3.81c-.15,3.88.5,7.74.15,11.62a3.37,3.37,0,0,0,.09.89,18.77,18.77,0,0,1,.18,5.65c-.2,2.09.24,2.57,2.5,3.21h0a1.18,1.18,0,0,0,.32.19,3.86,3.86,0,0,0,2,.4,1.31,1.31,0,0,0,1.77,0h1.76a3.62,3.62,0,0,0,.57,0,.38.38,0,0,0,.6,0h0a12.82,12.82,0,0,0,4.12-.61c2.07-1,2.82-2.68,2.66-5-.17-2.54.22-5.15-.12-7.66-.31-2.34.71-4.86-.82-7a5,5,0,0,1-.54-.07h0c.05-4.44-.26-8.9.5-13.31A9.61,9.61,0,0,0,58,88.18C57.91,85.94,57,85.13,54.84,85.51ZM47.4,123.68h0a2.28,2.28,0,0,0-.39-.24A1,1,0,0,1,47.4,123.68Z" transform="translate(0 -5.58)"/><path class="cls-2" d="M46.87,145.05h0c0,.16,0,.33,0,.49h0a11,11,0,0,0-1.43.26,4.31,4.31,0,0,0-3.37,3.64,12.33,12.33,0,0,0-.07,3.69c.28,2,.92,4,.35,6.09a1.63,1.63,0,0,0,0,.79,25.59,25.59,0,0,1,.37,6.65,41,41,0,0,0,.61,6.63A1.86,1.86,0,0,0,44.49,175h0a1,1,0,0,0,.33.18,4.19,4.19,0,0,0,2,.37,7.87,7.87,0,0,0,4.08.47h0a9,9,0,0,0,4.13-.45h0c3-.42,3.46-.89,3.52-3.54,0-.8,0-1.59,0-2.39a4,4,0,0,1,0-.49,1.54,1.54,0,0,1-.26-1c.33-5-.28-10.1.07-15.15a1.1,1.1,0,0,0-.61-1.11,1.53,1.53,0,0,0-.32.05c.93-1.41.82-3.06.78-4.55-.06-2.62-2.13-4.63-4.16-4.08C51.68,143.94,49.09,143.88,46.87,145.05Zm0,30.5h0a4,4,0,0,0-.4-.22A1.26,1.26,0,0,1,46.85,175.55Z" transform="translate(0 -5.58)"/><path class="cls-2" d="M41.56,199.35h0c0,1.38,0,2.76-.07,4.15-.12,5,.86,9.94.67,14.94a2.81,2.81,0,0,0,.51,1.77h0c0,2.74,0,5.48,0,8.23a2.81,2.81,0,0,0,.56,2h0l.61.46h0a3.74,3.74,0,0,0,2.21.48,52.32,52.32,0,0,0,8.95-1c.84-.22,1.67-.45,2.48-.72,1-.33,1.62-1,1.4-1.82a25,25,0,0,1-.41-5.31,2.52,2.52,0,0,0-.32-1.35,4.31,4.31,0,0,1-.47-3.6,6.18,6.18,0,0,0-.09-3,4,4,0,0,1-.23-1.37c.17-3.56-.72-7.07-.66-10.62,0-2.85-.27-3-4.08-3.23a8.43,8.43,0,0,0-3.47-.47h0A10.75,10.75,0,0,0,41.56,199.35Z" transform="translate(0 -5.58)"/><g class="cls-3"><path class="cls-4" d="M72.68,5.7c-1.14.42-2.3.82-3.45,1.21-3.86,1.31-45,24.57-49,25.68-1.26.35-16.85,9-18,9.5-1.74.75-2.63,2.14-2,4.59l0,0c0,.43.3.88.16,1.3s-.1,1-.16,1.54c.67,1.51,1.33,3,2,4.54h0c.1.18.18.37.29.54C3.88,56.69,4.35,56.93,6,56.17a35.23,35.23,0,0,0,3.2-1.73c1-.58,16.34-9.29,17.43-9.63a15.68,15.68,0,0,0,2.46-1.05c2.8-1.44,43.28-24.09,46.31-25.07a6.57,6.57,0,0,0,3.77-2.56h0c0-.27.07-.53.1-.8-.82-2-1.65-3.93-2.44-5.91a9.44,9.44,0,0,0-2-3A1.89,1.89,0,0,0,72.68,5.7Z" transform="translate(0 -5.58)"/><path class="cls-4" d="M12,62.47a14.35,14.35,0,0,0,5.35-2.23C21.08,57.91,77.31,27.13,81,24.75a4.46,4.46,0,0,1,1.61-.55A9.37,9.37,0,0,0,87.12,22l-.33-.48,0-.05a3.83,3.83,0,0,0,.09-.69c0-.28.07-.56.11-.84-.06-1.51-1-2.78-1.5-4.18h0l-1.32-2.08h0A4.29,4.29,0,0,0,79.8,11.2a9.61,9.61,0,0,0-4.51,1.18C73,13.86,42.66,30.47,40.35,32c-1.49,1-9.62,5.73-11.12,6.71h0c-2,.21-21.08,11.57-22.53,12.74a2.1,2.1,0,0,0-.51,2.29A21.76,21.76,0,0,0,9.48,60.9C10.15,61.8,11,62.61,12,62.47Z" transform="translate(0 -5.58)"/><path class="cls-4" d="M80.53,27.8h0c-1.68-2.13-3.48-2.67-5.4-1.66h0a4,4,0,0,0-2.5.84c-.76.45-9.21,5.45-10,5.73-3.32,1.11-26.25,14.1-29.39,15.58-1.66.79-21.13,11.5-22.14,13.29h0a2.07,2.07,0,0,0-.87,2.29c.76,3,1.8,5.86,4.28,8h0l.65,1h0c1.56.2,2.13-1.65,3.63-1.56,1.6-1.11,21-12,22.9-12.58,3.16-1,33.89-18,36.61-19.92a9.37,9.37,0,0,1,2.3-1.31,3.94,3.94,0,0,0,2.34-2.41c-.11-.17-.22-.34-.34-.5l0,0c.09-.41-.28-.81-.23-1.22L82,32.7q0-.31,0-.63C81.53,30.65,81,29.22,80.53,27.8Z" transform="translate(0 -5.58)"/><path class="cls-4" d="M82.91,41.37c-1.27.28-2.49.72-3.73,1.09-2.27,1.27-23.65,12.93-25.81,14.41s-22.27,13-24.8,14C27.3,71.36,7.24,83,6.08,83.73a2.09,2.09,0,0,0-.78,2.49,20.41,20.41,0,0,0,3.07,6.93c1.16,1.6,2,1.91,3.6,1.26C13.25,93.88,33.46,82.58,34.72,82c1.58-.73,10.31-5.4,11.79-6.28C49.65,73.86,82.4,55.3,86.08,54.6a5.63,5.63,0,0,0,1.39-.69c0-.66,0-1.32.12-2A4.53,4.53,0,0,0,87,49.15a13.7,13.7,0,0,0-2-6h0C84.38,41.49,84,41.13,82.91,41.37Z" transform="translate(0 -5.58)"/><path class="cls-4" d="M16.5,80.17a2.18,2.18,0,0,0,.23-.09c2-1.13,22.1-11.68,24-13.08h0c1.05-.43,8.79-4.52,9.77-5.08,2.3-1.34,32.61-17.7,34.8-19.24a3.49,3.49,0,0,1,1.14-.43,11.22,11.22,0,0,0,3.26-1.59A1.73,1.73,0,0,0,91,39.35a1.83,1.83,0,0,0,0-.87,13.6,13.6,0,0,1-.69-2.59,4.81,4.81,0,0,0-.26-.84c-.55-.82-.6-2-1.72-2.37-.38-.33-.77-.64-1.12-1a4.91,4.91,0,0,0-4.68-1.63,13.4,13.4,0,0,0-4.77,1.69c-1.14.75-20,11.48-21.18,12.2H55.41c-1,.64-18.64,10.66-19.65,11.31C33.2,56.9,12.45,67.7,10,69.56h0c-.19.61-.38,1.22-.58,1.83h0a24.67,24.67,0,0,0,1.89,5.83C12.63,80.17,14.06,80.94,16.5,80.17Z" transform="translate(0 -5.58)"/><path class="cls-4" d="M94.16,42.46a12.35,12.35,0,0,0-3.83,1.46c-1.1.66-16.62,9.42-17.73,10-1,.77-5.17,3.53-6.21,4.16-2.71,1.65-39.72,22.73-42.67,24a10.28,10.28,0,0,0-1.89,1.11,2,2,0,0,0-.67,2.21,46.47,46.47,0,0,0,1.62,5.64c1.39,3.48,3.15,3.94,5,2.76.56-.35,1.13-.66,1.71-.95.74-.35,19.17-10.76,20-11,1.34-.41,9.21-4.79,10.41-5.48C62.21,75,92.21,58,94.55,56.73a6.42,6.42,0,0,1,2-.9c1.74-.28,2.47-1.43,2.4-3.44,0-.39,0-.77,0-1.15l-.35-.46a23.42,23.42,0,0,0-1.33-5.68h0c0-.1,0-.2,0-.3C96.42,42.43,96,42.07,94.16,42.46Z" transform="translate(0 -5.58)"/></g><path class="cls-5" d="M21.43,88.45V87.11c.44,0,.89-.9.89-1.34,0-1.79,1.35-3.14,4-4.93.9-.45,1.35-.9,1.35-1.34h.89s1.35-.9,2.24-1.35c2.24-1.79,8.06-3.58,12.54-3.58,4-.45,8.51.45,8.51,1.34,0,1.35,5.82,1.8,7.16.45.45,0,.9-1.34,1.8-2.69,1.34-3.13,4.47-5.37,11.19-7.61,2.24-.89,4.48-1.34,9-1.34,3.58-.45,6.27-.45,6.27-.9v-.89c-.9-1.35-2.24-5.82-2.69-7.17a6.52,6.52,0,0,0-.89-2.69c-1.35-3.58-2.24-5.82-2.69-7.16a10.43,10.43,0,0,0-.9-3.58c-.45-.9-.89-2.69-1.34-3.59,0-1.34-1.34-4-2.69-6.71-1.79-3.59-2.24-4-3.13-4s-1.35-.45-1.79-1.8c-.45-.89-4-2.68-4.93-2.68-.45.45-1.79-6.72-1.79-10.3a16.87,16.87,0,0,1,.89-4A2.89,2.89,0,0,0,66.21,7C65.76,6.05,64,6.5,64,7.4c-.45.44-1.79,1.34-3.13,2.68-4,3.59-8.51,8.06-9.86,10.75-.89.9-1.34,1.79-1.79,2.24L47.4,25.76c-2.24,2.68-2.24,3.13-3.58,2.68A35.3,35.3,0,0,0,28.59,28a31.22,31.22,0,0,0-14.78,7.61,35.89,35.89,0,0,1-3.13,1.79c-.9,0-.9.45-.9,1.34,0,1.35,0,1.8-1.34,1.8-.9,0-.9.44-.9,1.34A78.43,78.43,0,0,0,10.23,54a52.78,52.78,0,0,0,3.14,10.3c1.34,5.37,5.82,21.94,5.82,23.29V88.9C20.08,89.35,21.43,88.9,21.43,88.45ZM29,77.71c-.45,0-.9,0-1.34.89-1.35.45-1.79.9-1.79.45S29,76.81,29,77.26C29.49,77.26,29,77.71,29,77.71Zm13.88-4.93h0Zm2.69-.45h0Zm1.79.45c-.89-.45-.89-.45,0-.45a4.42,4.42,0,0,1,1.79.45Zm23.29-8.06C65.76,66.51,64,67.85,64,68.3a1.57,1.57,0,0,1-.89.45c-.9,0-3.59,3.58-4.93,5.82,0,.45-.45.9-.9,1.34a3.51,3.51,0,0,1-3.58-.44q-2-2,1.34-1.35c1.8,0,2.24,0,2.24-.89,0-1.79,4-6.27,5.38-6.27.45,0,1.79-.9,3.13-1.35C68.45,64.27,72.93,63.37,70.69,64.72Zm1.79-34.93c.45,0,.9.89,1.34,2.68a64.41,64.41,0,0,0,2.69,6.27,42.24,42.24,0,0,1,2.69,6.72c.44,1.79,1.79,4.93,2.24,7.17C82.78,56.21,85,62,85,62.48s-1.79.45-2.69,0h-.45c.9-.45.45-2.24-.44-3.14A12.67,12.67,0,0,1,79.64,54c0-.45-.44-.9-.44-1.34-.9-1.35-4.48-13-5.38-17a20.58,20.58,0,0,1-1.34-4.93ZM68,26.2a1.93,1.93,0,0,1,1.34.45c.45,0,2.24,4.48,2.69,7.62.9,2.23,1.79,5.82,2.69,8.06,3.58,12.09,5.37,16.57,5.82,17.46l.9,1.35h-1.8c-.89-.45-1.34,0-.44,0,.44.44,0,.44-1.79.44-5.38.45-16.57,4-19.26,6.72-.45.45-.9,1.34-1.34,1.34-.9,0,1.79-9.85,4.47-15.22C64,48.6,70.24,41,71.58,41c.45,0,.45-.44.45-.89-.45-.9-.45-1.35,0-1.79s.45-.45,0-1.35a16.34,16.34,0,0,1-3.13-6.27,3.42,3.42,0,0,0-.9-1.79c-.45-.89-1.34-1.79-1.34-2.24C66.21,25.76,66.66,25.76,68,26.2ZM47,29.34c.45-.9,1.35-2.24,1.35-2.24.89-1.79,5.37-8.51,7.16-9.85,2.24-2.69,7.17-6.72,7.62-6.72v.9c-.45,1.34.44,8.51,1.34,12.09A58.09,58.09,0,0,0,68.9,34.71c1.79,3.59,1.79,3.59,1.34,4.93A11.83,11.83,0,0,1,68,42.33c-2.24,2.24-7.61,11.19-9,14.78a34.79,34.79,0,0,0-2.23,6.26A19.94,19.94,0,0,0,55.46,67a20.34,20.34,0,0,0-1.34-3.59c-.45-1.79-1.34-4.47-1.79-6.26a87.24,87.24,0,0,1-2.24-9,53.6,53.6,0,0,0-1.35-6.27,88.47,88.47,0,0,1-2.68-9.41A11.63,11.63,0,0,1,47,29.34Zm-34,8.51c7.16-6.27,13.43-9,21.49-9,4.93,0,9.86.9,9.86,1.79A1.68,1.68,0,0,0,44.71,32a3.35,3.35,0,0,1,.9,1.79v2.24a109.1,109.1,0,0,1,4,14.33c.9,3.58,1.79,7.61,2.24,8.06a53.6,53.6,0,0,0,1.79,6.72c1.34,4.47,1.34,5.37.9,6.27-.45,1.34-1.79,1.34-3.14.44s-4.92-.89-8.06-.44c-2.69,0-13.43,4-16.12,5.37a13.57,13.57,0,0,0-3.14,2.24l-1.79,1.79-.89-4c-.9-2.69-1.79-6.27-2.69-8.06-1.34-4.48-3.14-11.64-3.58-14.33-.45-1.35-.9-4-1.79-6.72C12.92,45.46,12,42.33,12,41,12,39.19,12,39.19,12.92,37.85Zm5.37,39c0-.45-.89-3.14-1.79-6.72-4-12.54-3.58-11.19-5.37-21.94-.9-3.14-.9-4.48,0-4.48a1.58,1.58,0,0,1,.44.9,17.27,17.27,0,0,0,.45,4,78.53,78.53,0,0,1,3.14,12.09c.44,2.68,1.79,7.61,2.24,8.06a4.51,4.51,0,0,1,.44,1.34A20.29,20.29,0,0,0,19.19,75,57.49,57.49,0,0,0,21,81.29c.45,1.34.45,2.69,0,2.69-.45.44-.45,0-1.34-3.59A9.8,9.8,0,0,0,18.29,76.81Z" transform="translate(0 -5.58)"/></g></g></svg>