<svg xmlns="http://www.w3.org/2000/svg" viewBox="0 0 99 89.15"><defs><style>.cls-1{isolation:isolate;}.cls-2,.cls-3{mix-blend-mode:multiply;}.cls-3{fill:#05ff1a;opacity:0.8;}.cls-4{fill:#222020;}</style></defs><g class="cls-1"><g id="Camada_1" data-name="Camada 1"><g class="cls-2"><path class="cls-3" d="M72.68.12c-1.14.42-2.3.82-3.45,1.22-3.86,1.3-45,24.57-49,25.67-1.26.35-16.85,9-18,9.5-1.74.75-2.63,2.14-2,4.59l0,0c0,.43.3.88.16,1.3S.3,43.45.24,44c.67,1.51,1.33,3,2,4.54h0c.1.18.18.37.29.54C3.88,51.11,4.35,51.35,6,50.59a35.23,35.23,0,0,0,3.2-1.73c1-.57,16.34-9.28,17.43-9.63a15.68,15.68,0,0,0,2.46-1c2.8-1.44,43.28-24.09,46.31-25.06a6.64,6.64,0,0,0,3.77-2.57h0c0-.27.07-.53.1-.8-.82-2-1.65-3.93-2.44-5.9a9.37,9.37,0,0,0-2-3A1.91,1.91,0,0,0,72.68.12Z" transform="translate(0 0)"/><path class="cls-3" d="M12,56.89a14.5,14.5,0,0,0,5.35-2.22c3.7-2.34,59.93-33.12,63.59-35.5a4.46,4.46,0,0,1,1.61-.55,9.44,9.44,0,0,0,4.54-2.21l-.33-.49,0-.05a3.83,3.83,0,0,0,.09-.69c0-.28.07-.56.11-.84-.06-1.5-1-2.78-1.5-4.18h0L84.19,8.08h0A4.29,4.29,0,0,0,79.8,5.62,9.72,9.72,0,0,0,75.29,6.8C73,8.29,42.66,24.9,40.35,26.42c-1.49,1-9.62,5.73-11.12,6.71h0c-2,.21-21.08,11.57-22.53,12.74a2.1,2.1,0,0,0-.51,2.29,21.67,21.67,0,0,0,3.29,7.16C10.15,56.22,11,57,12,56.89Z" transform="translate(0 0)"/><path class="cls-3" d="M80.53,22.23h0c-1.68-2.14-3.48-2.68-5.4-1.67h0a4,4,0,0,0-2.5.84c-.76.45-9.21,5.45-10,5.73C59.27,28.24,36.34,41.24,33.2,42.72,31.54,43.5,12.07,54.21,11.06,56h0a2.05,2.05,0,0,0-.87,2.28c.76,3,1.8,5.86,4.28,8h0l.65,1h0c1.56.2,2.13-1.65,3.63-1.56,1.6-1.11,21-12,22.9-12.58,3.16-1,33.89-18,36.61-19.92a9.7,9.7,0,0,1,2.3-1.31,4,4,0,0,0,2.34-2.4c-.11-.17-.22-.34-.34-.51l0,0c.09-.41-.28-.81-.23-1.22-.1-.2-.19-.4-.29-.59s0-.42,0-.64C81.53,25.07,81,23.65,80.53,22.23Z" transform="translate(0 0)"/><path class="cls-3" d="M82.91,35.79c-1.27.28-2.49.72-3.73,1.09-2.27,1.27-23.65,12.93-25.81,14.41s-22.27,13-24.8,14C27.3,65.78,7.24,77.39,6.08,78.15a2.09,2.09,0,0,0-.78,2.49,20.33,20.33,0,0,0,3.07,6.93c1.16,1.6,2,1.91,3.6,1.26C13.25,88.3,33.46,77,34.72,76.42,36.3,75.69,45,71,46.51,70.14,49.65,68.28,82.4,49.72,86.08,49a5.67,5.67,0,0,0,1.39-.7c0-.66,0-1.32.12-2A4.53,4.53,0,0,0,87,43.57a13.66,13.66,0,0,0-2-6h0C84.38,35.92,84,35.55,82.91,35.79Z" transform="translate(0 0)"/><path class="cls-3" d="M16.5,74.59a2.09,2.09,0,0,0,.23-.08c2-1.14,22.1-11.69,24-13.09h0c1.05-.43,8.79-4.52,9.77-5.08C52.8,55,83.11,38.64,85.3,37.1a3.49,3.49,0,0,1,1.14-.43,11.22,11.22,0,0,0,3.26-1.59A1.73,1.73,0,0,0,91,33.77a1.83,1.83,0,0,0,0-.87,13.41,13.41,0,0,1-.69-2.59,5.4,5.4,0,0,0-.26-.84c-.55-.82-.6-2-1.72-2.37-.38-.33-.77-.64-1.12-1a4.88,4.88,0,0,0-4.68-1.62,13.19,13.19,0,0,0-4.77,1.68c-1.14.76-20,11.48-21.18,12.2H55.41C54.39,39,36.77,49,35.76,49.68,33.2,51.32,12.45,62.12,10,64h0c-.19.61-.38,1.22-.58,1.83h0a24.67,24.67,0,0,0,1.89,5.83C12.63,74.59,14.06,75.37,16.5,74.59Z" transform="translate(0 0)"/><path class="cls-3" d="M94.16,36.88a12.87,12.87,0,0,0-3.83,1.46C89.23,39,73.71,47.76,72.6,48.4c-1,.76-5.17,3.53-6.21,4.15-2.71,1.65-39.72,22.73-42.67,24a11.55,11.55,0,0,0-1.89,1.11,2,2,0,0,0-.67,2.21,46,46,0,0,0,1.62,5.64c1.39,3.49,3.15,3.94,5,2.76.56-.34,1.13-.66,1.71-.94.74-.36,19.17-10.77,20-11,1.34-.41,9.21-4.79,10.41-5.48,2.33-1.35,32.33-18.35,34.67-19.66a6.65,6.65,0,0,1,2-.9C98.29,50,99,48.82,99,46.82c0-.4,0-.77,0-1.16l-.35-.46a23.53,23.53,0,0,0-1.33-5.68h0a2.5,2.5,0,0,0,0-.29C96.42,36.85,96,36.49,94.16,36.88Z" transform="translate(0 0)"/></g><path class="cls-4" d="M21.43,82.88V81.53c.44,0,.89-.89.89-1.34,0-1.79,1.35-3.14,4-4.93.9-.45,1.35-.89,1.35-1.34h.89s1.35-.9,2.24-1.34C33.07,70.78,38.89,69,43.37,69c4-.44,8.51.45,8.51,1.35,0,1.34,5.82,1.79,7.16.44.45,0,.9-1.34,1.8-2.68C62.18,65,65.31,62.72,72,60.48c2.24-.89,4.48-1.34,9-1.34,3.58-.45,6.27-.45,6.27-.9v-.89c-.9-1.34-2.24-5.82-2.69-7.17a6.44,6.44,0,0,0-.89-2.68c-1.35-3.59-2.24-5.82-2.69-7.17a10.48,10.48,0,0,0-.9-3.58c-.45-.9-.89-2.69-1.34-3.58,0-1.35-1.34-4-2.69-6.72-1.79-3.58-2.24-4-3.13-4s-1.35-.45-1.79-1.79c-.45-.9-4-2.69-4.93-2.69-.45.45-1.79-6.72-1.79-10.3a16.87,16.87,0,0,1,.89-4,2.89,2.89,0,0,0,.9-2.24C65.76.47,64,.92,64,1.82c-.45.45-1.79,1.34-3.13,2.69-4,3.58-8.51,8.06-9.86,10.74-.89.9-1.34,1.79-1.79,2.24L47.4,20.18c-2.24,2.69-2.24,3.13-3.58,2.69a35.16,35.16,0,0,0-15.23-.45A31.22,31.22,0,0,0,13.81,30a33.19,33.19,0,0,1-3.13,1.79c-.9,0-.9.45-.9,1.35,0,1.34,0,1.79-1.34,1.79-.9,0-.9.45-.9,1.34a78.43,78.43,0,0,0,2.69,12.09,52.78,52.78,0,0,0,3.14,10.3c1.34,5.38,5.82,22,5.82,23.29v1.34C20.08,83.77,21.43,83.32,21.43,82.88ZM29,72.13c-.45,0-.9,0-1.34.89-1.35.45-1.79.9-1.79.45S29,71.23,29,71.68C29.49,71.68,29,72.13,29,72.13ZM42.92,67.2h0Zm2.69-.45h0Zm1.79.45c-.89-.45-.89-.45,0-.45a4.42,4.42,0,0,1,1.79.45Zm23.29-8.06C65.76,60.93,64,62.28,64,62.72a1.57,1.57,0,0,1-.89.45c-.9,0-3.59,3.58-4.93,5.82,0,.45-.45.9-.9,1.35a3.54,3.54,0,0,1-3.58-.45q-2-2,1.34-1.34c1.8,0,2.24,0,2.24-.9,0-1.79,4-6.27,5.38-6.27.45,0,1.79-.9,3.13-1.34C68.45,58.69,72.93,57.8,70.69,59.14Zm1.79-34.93c.45,0,.9.9,1.34,2.69a65.48,65.48,0,0,0,2.69,6.27,41.77,41.77,0,0,1,2.69,6.71c.44,1.8,1.79,4.93,2.24,7.17C82.78,50.63,85,56.45,85,56.9s-1.79.45-2.69,0h-.45c.9-.45.45-2.24-.44-3.13a12.71,12.71,0,0,1-1.8-5.38c0-.45-.44-.89-.44-1.34-.9-1.34-4.48-13-5.38-17a20.67,20.67,0,0,1-1.34-4.92ZM68,20.63a2,2,0,0,1,1.34.44c.45,0,2.24,4.48,2.69,7.62.9,2.24,1.79,5.82,2.69,8.06,3.58,12.09,5.37,16.57,5.82,17.46l.9,1.35h-1.8c-.89-.45-1.34,0-.44,0,.44.45,0,.45-1.79.45-5.38.44-16.57,4-19.26,6.71-.45.45-.9,1.35-1.34,1.35-.9,0,1.79-9.86,4.47-15.23,2.69-5.82,9-13.43,10.3-13.43.45,0,.45-.45.45-.9-.45-.9-.45-1.34,0-1.79s.45-.45,0-1.34a16.48,16.48,0,0,1-3.13-6.27,3.41,3.41,0,0,0-.9-1.8c-.45-.89-1.34-1.79-1.34-2.24C66.21,20.18,66.66,20.18,68,20.63ZM47,23.76c.45-.89,1.35-2.24,1.35-2.24.89-1.79,5.37-8.51,7.16-9.85C57.7,9,62.63,5,63.08,5v.9c-.45,1.34.44,8.51,1.34,12.09a58.43,58.43,0,0,0,4.48,11.2c1.79,3.58,1.79,3.58,1.34,4.92A11.83,11.83,0,0,1,68,36.75C65.76,39,60.39,47.94,59,51.53a34.89,34.89,0,0,0-2.23,6.27,19.7,19.7,0,0,0-1.35,3.58,20.09,20.09,0,0,0-1.34-3.58c-.45-1.79-1.34-4.48-1.79-6.27a85.92,85.92,0,0,1-2.24-9,54.17,54.17,0,0,0-1.35-6.27,87.52,87.52,0,0,1-2.68-9.4A11.68,11.68,0,0,1,47,23.76Zm-34,8.51c7.16-6.27,13.43-9,21.49-9,4.93,0,9.86.9,9.86,1.8a1.67,1.67,0,0,0,.44,1.34,3.39,3.39,0,0,1,.9,1.79v2.24a109.1,109.1,0,0,1,4,14.33c.9,3.58,1.79,7.61,2.24,8.06,0,.9.9,3.58,1.79,6.72C55,64.07,55,65,54.57,65.86c-.45,1.34-1.79,1.34-3.14.45s-4.92-.9-8.06-.45c-2.69,0-13.43,4-16.12,5.37a13.88,13.88,0,0,0-3.14,2.24l-1.79,1.79-.89-4c-.9-2.68-1.79-6.27-2.69-8.06-1.34-4.48-3.14-11.64-3.58-14.33-.45-1.34-.9-4-1.79-6.72C12.92,39.88,12,36.75,12,35.41,12,33.61,12,33.61,12.92,32.27Zm5.37,39c0-.45-.89-3.13-1.79-6.72-4-12.53-3.58-11.19-5.37-21.94-.9-3.13-.9-4.48,0-4.48a1.58,1.58,0,0,1,.44.9A17.23,17.23,0,0,0,12,43a78.83,78.83,0,0,1,3.14,12.09c.44,2.69,1.79,7.61,2.24,8.06a4.62,4.62,0,0,1,.44,1.34,20.29,20.29,0,0,0,1.35,4.93A56.84,56.84,0,0,0,21,75.71c.45,1.34.45,2.69,0,2.69-.45.45-.45,0-1.34-3.59A9.8,9.8,0,0,0,18.29,71.23Z" transform="translate(0 0)"/></g></g></svg>