<svg xmlns="http://www.w3.org/2000/svg" viewBox="0 0 99 89.15"><defs><style>.cls-1{isolation:isolate;}.cls-2,.cls-3{mix-blend-mode:multiply;}.cls-3{fill:#05ff1a;opacity:0.8;}</style></defs><g class="cls-1"><g id="Camada_1" data-name="Camada 1"><g class="cls-2"><path class="cls-3" d="M72.68.12c-1.14.42-2.3.82-3.45,1.22-3.86,1.3-45,24.57-49,25.67-1.26.35-16.85,9-18,9.5-1.74.75-2.63,2.14-2,4.59l0,0c0,.43.3.88.16,1.3S.3,43.45.24,44c.67,1.51,1.33,3,2,4.54h0c.1.18.18.37.29.54C3.88,51.11,4.35,51.35,6,50.59a35.23,35.23,0,0,0,3.2-1.73c1-.57,16.34-9.28,17.43-9.63a15.68,15.68,0,0,0,2.46-1c2.8-1.44,43.28-24.09,46.31-25.06a6.64,6.64,0,0,0,3.77-2.57h0c0-.27.07-.53.1-.8-.82-2-1.65-3.93-2.44-5.9a9.37,9.37,0,0,0-2-3A1.91,1.91,0,0,0,72.68.12Z" transform="translate(0 0)"/><path class="cls-3" d="M12,56.89a14.5,14.5,0,0,0,5.35-2.22c3.7-2.34,59.93-33.12,63.59-35.5a4.46,4.46,0,0,1,1.61-.55,9.44,9.44,0,0,0,4.54-2.21l-.33-.49,0-.05a3.83,3.83,0,0,0,.09-.69c0-.28.07-.56.11-.84-.06-1.5-1-2.78-1.5-4.18h0L84.19,8.08h0A4.29,4.29,0,0,0,79.8,5.62,9.72,9.72,0,0,0,75.29,6.8C73,8.29,42.66,24.9,40.35,26.42c-1.49,1-9.62,5.73-11.12,6.71h0c-2,.21-21.08,11.57-22.53,12.74a2.1,2.1,0,0,0-.51,2.29,21.67,21.67,0,0,0,3.29,7.16C10.15,56.22,11,57,12,56.89Z" transform="translate(0 0)"/><path class="cls-3" d="M80.53,22.23h0c-1.68-2.14-3.48-2.68-5.4-1.67h0a4,4,0,0,0-2.5.84c-.76.45-9.21,5.45-10,5.73C59.27,28.24,36.34,41.24,33.2,42.72,31.54,43.5,12.07,54.21,11.06,56h0a2.05,2.05,0,0,0-.87,2.28c.76,3,1.8,5.86,4.28,8h0l.65,1h0c1.56.2,2.13-1.65,3.63-1.56,1.6-1.11,21-12,22.9-12.58,3.16-1,33.89-18,36.61-19.92a9.7,9.7,0,0,1,2.3-1.31,4,4,0,0,0,2.34-2.4c-.11-.17-.22-.34-.34-.51l0,0c.09-.41-.28-.81-.23-1.22-.1-.2-.19-.4-.29-.59s0-.42,0-.64C81.53,25.07,81,23.65,80.53,22.23Z" transform="translate(0 0)"/><path class="cls-3" d="M82.91,35.79c-1.27.28-2.49.72-3.73,1.09-2.27,1.27-23.65,12.93-25.81,14.41s-22.27,13-24.8,14C27.3,65.78,7.24,77.39,6.08,78.15a2.09,2.09,0,0,0-.78,2.49,20.33,20.33,0,0,0,3.07,6.93c1.16,1.6,2,1.91,3.6,1.26C13.25,88.3,33.46,77,34.72,76.42,36.3,75.69,45,71,46.51,70.14,49.65,68.28,82.4,49.72,86.08,49a5.67,5.67,0,0,0,1.39-.7c0-.66,0-1.32.12-2A4.53,4.53,0,0,0,87,43.57a13.66,13.66,0,0,0-2-6h0C84.38,35.92,84,35.55,82.91,35.79Z" transform="translate(0 0)"/><path class="cls-3" d="M16.5,74.59a2.09,2.09,0,0,0,.23-.08c2-1.14,22.1-11.69,24-13.09h0c1.05-.43,8.79-4.52,9.77-5.08C52.8,55,83.11,38.64,85.3,37.1a3.49,3.49,0,0,1,1.14-.43,11.22,11.22,0,0,0,3.26-1.59A1.73,1.73,0,0,0,91,33.77a1.83,1.83,0,0,0,0-.87,13.41,13.41,0,0,1-.69-2.59,5.4,5.4,0,0,0-.26-.84c-.55-.82-.6-2-1.72-2.37-.38-.33-.77-.64-1.12-1a4.88,4.88,0,0,0-4.68-1.62,13.19,13.19,0,0,0-4.77,1.68c-1.14.76-20,11.48-21.18,12.2H55.41C54.39,39,36.77,49,35.76,49.68,33.2,51.32,12.45,62.12,10,64h0c-.19.61-.38,1.22-.58,1.83h0a24.67,24.67,0,0,0,1.89,5.83C12.63,74.59,14.06,75.37,16.5,74.59Z" transform="translate(0 0)"/><path class="cls-3" d="M94.16,36.88a12.87,12.87,0,0,0-3.83,1.46C89.23,39,73.71,47.76,72.6,48.4c-1,.76-5.17,3.53-6.21,4.15-2.71,1.65-39.72,22.73-42.67,24a11.55,11.55,0,0,0-1.89,1.11,2,2,0,0,0-.67,2.21,46,46,0,0,0,1.62,5.64c1.39,3.49,3.15,3.94,5,2.76.56-.34,1.13-.66,1.71-.94.74-.36,19.17-10.77,20-11,1.34-.41,9.21-4.79,10.41-5.48,2.33-1.35,32.33-18.35,34.67-19.66a6.65,6.65,0,0,1,2-.9C98.29,50,99,48.82,99,46.82c0-.4,0-.77,0-1.16l-.35-.46a23.53,23.53,0,0,0-1.33-5.68h0a2.5,2.5,0,0,0,0-.29C96.42,36.85,96,36.49,94.16,36.88Z" transform="translate(0 0)"/></g><path d="M40.32,73.74c1-.28,1.62-1.5,2.3-2.73A83.82,83.82,0,0,1,49,59.34c2.69-4.91,10.48-20.6,16.25-32.6.67-1.23,1.4-4,2.88-6,1-1.84,1.88-4.16,2.55-5.39.2-1.09,1-1.84.87-2.32,1-.27-1.25-4.27-2.62-5.42-2.12-2-6.67-1.66-8.77,0C59,9,47.73,30.32,40.75,45.25c-3.22,6.62-9.27,17.67-10.08,18.42-1,.28-.67,1.23-.59,3.27.64,3.94.15,12.85-1,14.22A1.83,1.83,0,0,0,29,82.72a21.46,21.46,0,0,0,3.39-2.54C37.27,75.67,39.37,74,40.32,73.74ZM59.1,11c1.82-2.6,4.39-4.38,6.7-3.51,2.8.73,5.33,4.11,4.19,5.48a6.53,6.53,0,0,0-.87,2.31,5,5,0,0,1-1.21,2.93l-.53,1.71L66,18.78c-1.23-.67-1.36-1.15-1.5-1.62a13.5,13.5,0,0,0-4.58-3.3,1.8,1.8,0,0,1-1.09-.2C58.23,13.32,58.09,12.85,59.1,11Zm-.93,3.88c.95-.28,2-.08,4.16,1.87a14.74,14.74,0,0,1,2,2.15,23,23,0,0,0-3.62-2.2C58.92,15.7,57.69,15,58.17,14.89Zm-2.63,3.35c1-1.85,1.48-2,2-2.13a24.79,24.79,0,0,1,7,4.65L66,22.38l-.54,1.71c-1,1.84-1.48,2-1.62,1.5-.42-1.42-4.85-4.25-7-4.64l-2.79-.73ZM56.65,22c2.18.39,6.14,3.36,6.7,5.26.14.47-.06,1.56-.54,1.7,0,0-.47.14-.14-.48-.55-1.9-4.65-5.34-7.58-6.54C52.91,21.58,54.33,21.17,56.65,22ZM39.38,65.25c-.47.14-1.22-.67-1.36-1.15-.28-.95-.76-.81-1.71-.53-1.28.89-1.42.42-1.42.42-.14-.48.33-.62.81-.76a1.55,1.55,0,0,0,.81-.75,69.56,69.56,0,0,0,3.22-6.61,47.68,47.68,0,0,0,4.57-9.08c8.32-17.39,11-22.3,11.48-22.44s.95-.28,1.7.54c1.23.67,1.23.67-.64,4.83-1.35,2.45-3.7,6.75-5.86,10C48.43,45.07,44,54.61,40,62a26.93,26.93,0,0,0-.73,2.8C39.72,64.64,39.38,65.25,39.38,65.25Zm-6.14-3.36c.2-1.09,1.35-2.46,2-3.68a107.64,107.64,0,0,0,7.79-15.69c1-1.84,2.88-6,4.56-9.07,1.54-3.55,3.56-7.23,4.23-8.46a2.72,2.72,0,0,1,2-2.12c.48-.14.61.34.75.81a72.92,72.92,0,0,1-3.22,6.62,104.45,104.45,0,0,0-5.1,10.77c-1,1.84-1.87,4.16-2.55,5.39S41,51.37,39.12,55.53c-2,3.68-3.7,6.75-3.84,6.28a.48.48,0,0,0-.61-.34,2.48,2.48,0,0,0-1.29.89l-1.15,1.37Zm-1.91,9.33c-.36-3,1-7,2.47-7.43l.28.95c.28,1,.28,1,1.7.53s1.43-.41,2.18.4a1.07,1.07,0,0,0,1.23.67c.33-.61,1-.28.89,1.29.83,2.85,1.78,2.57,1.42-.42l-.69-2.38a8.5,8.5,0,0,1,.25-2.65C43,56.46,59,26.51,60.08,26.7a5.25,5.25,0,0,1,1,1.77c1,1.76,1,1.76-.85,5.92a53.75,53.75,0,0,0-3.41,7.7c-1,1.84-2.22,4.77-3.23,6.62l-3.69,6.75c-1.49,2-2.69,4.91-3.84,6.28l-3,5.53c-.54,1.7-1.54,3.54-2,3.68l-.95.28c.14.47-1,1.84-3.1,3.49-3.25,3-3.25,3-3.39,2.53s-.14-.47.34-.61q2.85-.84-.84-2.85C31.89,73.12,31.27,72.78,31.33,71.22Z" transform="translate(0 0)"/><path d="M62.2,6.61c2.25-.66,5.16-.45,6.73,1C70.3,8.76,72.5,12.76,71.55,13c.14.48-.67,1.23-.87,2.32-.67,1.23-1.54,3.55-2.55,5.39-1.48,2-2.21,4.77-2.88,6-5.77,12-13.56,27.69-16.25,32.6A83.82,83.82,0,0,0,42.62,71c-.68,1.23-1.35,2.45-2.3,2.73s-3,1.93-7.91,6.44A21.46,21.46,0,0,1,29,82.72a1.83,1.83,0,0,1,.06-1.56c1.15-1.37,1.64-10.28,1-14.22-.08-2-.36-3,.59-3.27.81-.75,6.86-11.8,10.08-18.42C47.73,30.32,59,9,60.16,7.6a6,6,0,0,1,2-1m-.14-.48a6.65,6.65,0,0,0-2.2,1.08l0,0,0,0C58.61,8.68,47.28,30.1,40.3,45c-3.28,6.75-9,17.07-9.9,18.2-1,.38-1,1.37-.87,2.72,0,.3,0,.63.06,1V67c.65,4,.09,12.65-.89,13.82l0,0,0,0a2.27,2.27,0,0,0-.1,1.94l.18.61.54-.32a21.8,21.8,0,0,0,3.47-2.6c4.43-4.11,6.81-6.07,7.72-6.33,1.15-.34,1.88-1.68,2.59-3v0a84,84,0,0,1,6.35-11.59h0v0C52.21,54.51,60.23,38.33,65.69,27a17.19,17.19,0,0,0,.75-1.76A18.29,18.29,0,0,1,68.53,21l0,0,0,0c.56-1,1.08-2.21,1.54-3.25.37-.83.71-1.61,1-2.14l0-.07,0-.08a4,4,0,0,1,.51-1.24,2.82,2.82,0,0,0,.37-.92.83.83,0,0,0,.2-.41c.26-1.25-1.76-4.6-3-5.64-1.8-1.66-5-1.74-7.19-1.1Z" transform="translate(0 0)"/></g></g></svg>