<svg xmlns="http://www.w3.org/2000/svg" viewBox="0 0 99 89.15"><defs><style>.cls-1{isolation:isolate;}.cls-2,.cls-3{mix-blend-mode:multiply;}.cls-3{fill:#05ff1a;opacity:0.8;}.cls-4{stroke:#000;stroke-miterlimit:10;}</style></defs><g class="cls-1"><g id="Camada_1" data-name="Camada 1"><g class="cls-2"><path class="cls-3" d="M72.68.12c-1.14.42-2.3.82-3.45,1.22-3.86,1.3-45,24.57-49,25.67-1.26.35-16.85,9-18,9.5-1.74.75-2.63,2.14-2,4.59l0,0c0,.43.3.88.16,1.3S.3,43.45.24,44c.67,1.51,1.33,3,2,4.54h0c.1.18.18.37.29.54C3.88,51.11,4.35,51.35,6,50.59a35.23,35.23,0,0,0,3.2-1.73c1-.57,16.34-9.28,17.43-9.63a15.68,15.68,0,0,0,2.46-1c2.8-1.44,43.28-24.09,46.31-25.06a6.64,6.64,0,0,0,3.77-2.57h0c0-.27.07-.53.1-.8-.82-2-1.65-3.93-2.44-5.9a9.37,9.37,0,0,0-2-3A1.91,1.91,0,0,0,72.68.12Z" transform="translate(0 0)"/><path class="cls-3" d="M12,56.89a14.5,14.5,0,0,0,5.35-2.22c3.7-2.34,59.93-33.12,63.59-35.5a4.46,4.46,0,0,1,1.61-.55,9.44,9.44,0,0,0,4.54-2.21l-.33-.49,0-.05a3.83,3.83,0,0,0,.09-.69c0-.28.07-.56.11-.84-.06-1.5-1-2.78-1.5-4.18h0L84.19,8.08h0A4.29,4.29,0,0,0,79.8,5.62,9.72,9.72,0,0,0,75.29,6.8C73,8.29,42.66,24.9,40.35,26.42c-1.49,1-9.62,5.73-11.12,6.71h0c-2,.21-21.08,11.57-22.53,12.74a2.1,2.1,0,0,0-.51,2.29,21.67,21.67,0,0,0,3.29,7.16C10.15,56.22,11,57,12,56.89Z" transform="translate(0 0)"/><path class="cls-3" d="M80.53,22.23h0c-1.68-2.14-3.48-2.68-5.4-1.67h0a4,4,0,0,0-2.5.84c-.76.45-9.21,5.45-10,5.73C59.27,28.24,36.34,41.24,33.2,42.72,31.54,43.5,12.07,54.21,11.06,56h0a2.05,2.05,0,0,0-.87,2.28c.76,3,1.8,5.86,4.28,8h0l.65,1h0c1.56.2,2.13-1.65,3.63-1.56,1.6-1.11,21-12,22.9-12.58,3.16-1,33.89-18,36.61-19.92a9.7,9.7,0,0,1,2.3-1.31,4,4,0,0,0,2.34-2.4c-.11-.17-.22-.34-.34-.51l0,0c.09-.41-.28-.81-.23-1.22-.1-.2-.19-.4-.29-.59s0-.42,0-.64C81.53,25.07,81,23.65,80.53,22.23Z" transform="translate(0 0)"/><path class="cls-3" d="M82.91,35.79c-1.27.28-2.49.72-3.73,1.09-2.27,1.27-23.65,12.93-25.81,14.41s-22.27,13-24.8,14C27.3,65.78,7.24,77.39,6.08,78.15a2.09,2.09,0,0,0-.78,2.49,20.33,20.33,0,0,0,3.07,6.93c1.16,1.6,2,1.91,3.6,1.26C13.25,88.3,33.46,77,34.72,76.42,36.3,75.69,45,71,46.51,70.14,49.65,68.28,82.4,49.72,86.08,49a5.67,5.67,0,0,0,1.39-.7c0-.66,0-1.32.12-2A4.53,4.53,0,0,0,87,43.57a13.66,13.66,0,0,0-2-6h0C84.38,35.92,84,35.55,82.91,35.79Z" transform="translate(0 0)"/><path class="cls-3" d="M16.5,74.59a2.09,2.09,0,0,0,.23-.08c2-1.14,22.1-11.69,24-13.09h0c1.05-.43,8.79-4.52,9.77-5.08C52.8,55,83.11,38.64,85.3,37.1a3.49,3.49,0,0,1,1.14-.43,11.22,11.22,0,0,0,3.26-1.59A1.73,1.73,0,0,0,91,33.77a1.83,1.83,0,0,0,0-.87,13.41,13.41,0,0,1-.69-2.59,5.4,5.4,0,0,0-.26-.84c-.55-.82-.6-2-1.72-2.37-.38-.33-.77-.64-1.12-1a4.88,4.88,0,0,0-4.68-1.62,13.19,13.19,0,0,0-4.77,1.68c-1.14.76-20,11.48-21.18,12.2H55.41C54.39,39,36.77,49,35.76,49.68,33.2,51.32,12.45,62.12,10,64h0c-.19.61-.38,1.22-.58,1.83h0a24.67,24.67,0,0,0,1.89,5.83C12.63,74.59,14.06,75.37,16.5,74.59Z" transform="translate(0 0)"/><path class="cls-3" d="M94.16,36.88a12.87,12.87,0,0,0-3.83,1.46C89.23,39,73.71,47.76,72.6,48.4c-1,.76-5.17,3.53-6.21,4.15-2.71,1.65-39.72,22.73-42.67,24a11.55,11.55,0,0,0-1.89,1.11,2,2,0,0,0-.67,2.21,46,46,0,0,0,1.62,5.64c1.39,3.49,3.15,3.94,5,2.76.56-.34,1.13-.66,1.71-.94.74-.36,19.17-10.77,20-11,1.34-.41,9.21-4.79,10.41-5.48,2.33-1.35,32.33-18.35,34.67-19.66a6.65,6.65,0,0,1,2-.9C98.29,50,99,48.82,99,46.82c0-.4,0-.77,0-1.16l-.35-.46a23.53,23.53,0,0,0-1.33-5.68h0a2.5,2.5,0,0,0,0-.29C96.42,36.85,96,36.49,94.16,36.88Z" transform="translate(0 0)"/></g><path class="cls-4" d="M13.35,13.7c.79,6.19.93,12.51,1.48,18.73q.78,8.91,1.6,17.81c0,.21.67.42.65.22Q16.29,41.73,15.46,33c-.61-6.5-1.69-13-2-19.57,0,0-.11.18-.1.26Z" transform="translate(0 0)"/><path class="cls-4" d="M16.7,50.42c14.68-2.21,29.27-5,43.89-7.56l2.23-.41c.58-.1.13-.44-.26-.37L41.64,45.76c-7.91,1.39-15.94,2.45-23.75,4.3-.36.09-.72.16-1.08.23,0,0-.08.12-.11.13Z" transform="translate(0 0)"/><path class="cls-4" d="M61.22,11.78a1.83,1.83,0,0,1-.16-.69s-.09.05-.09.08a1.52,1.52,0,0,0,.14.84s.07-.1.07-.11a.17.17,0,0,0,0-.12Z" transform="translate(0 0)"/><path class="cls-4" d="M60.81,10.32c0,1.69-.09,3.38,0,5.07.11,3.69.35,7.38.56,11.06q.47,8,.92,15.94c0,.29.9.09.88-.26q-.45-7.82-.89-15.65c-.21-3.5-.38-7-.66-10.5-.16-1.88-.53-3.74-.67-5.62,0-.16-.1-.28-.1,0Z" transform="translate(0 0)"/><path class="cls-4" d="M13.81,14c15-.84,29.94-2,44.9-3l2.61-.18c.12,0-.17-.48-.33-.47-14.84,1.05-29.69,2-44.51,3.26l-2.56.22c-.06,0-.09.21-.11.21Z" transform="translate(0 0)"/><path class="cls-4" d="M11.81,8.77c-2-.51-1.41,5.41-1.38,6.28.17,3.88.62,7.75,1.07,11.61.62,5.28.9,10.55,1.19,15.85a53.17,53.17,0,0,0,1.12,9.84c.44,1.75,1.83,2.19,3.45,2.32.4,0,.78-.36.21-.4-1.2-.07-2.16-.27-2.68-1.43a14.84,14.84,0,0,1-.76-4c-.44-3.42-.57-6.87-.74-10.3-.21-4.26-.62-8.48-1.12-12.7-.42-3.54-.81-7.09-1-10.65,0-.45-.25-6.32.74-6,.06,0,0-.42-.12-.45Z" transform="translate(0 0)"/><path class="cls-4" d="M11.29,9c.54-.36,1.6-.18,2.2-.24,1.59-.14,3.17-.3,4.76-.42C23,8,27.67,7.76,32.38,7.49Q44.1,6.84,55.81,6.32c.54,0,1-.11,1.58-.19,1.75-.24,3.94-.49,4.73,1.47.52,1.29.26,2.88.36,4.25.19,2.93.41,5.86.61,8.79.31,4.57.62,9.13,1,13.69.12,1.6.24,3.2.4,4.8.23,2.4.76,4.55-.95,6.58-.15.19.63.33.8.13,1.76-2.09,1.2-4.34,1-6.82-.19-1.92-.33-3.85-.48-5.78C64.4,28,64,22.75,63.68,17.5c-.12-1.67-.23-3.34-.35-5-.15-2,.31-4.5-1.18-6.06s-4.36-.81-6-.52C55.83,6,55,6,54.59,6Q42.5,6.54,30.43,7.2c-4.36.24-8.72.49-13.08.81-1.44.1-2.88.17-4.31.37a4.33,4.33,0,0,0-1.66.42c-.05,0-.07.23-.09.24Z" transform="translate(0 0)"/><path class="cls-4" d="M17,53.7a6.37,6.37,0,0,0,.77.88l.1.42a16.74,16.74,0,0,1,4-1.28c1.36-.29,3.2-.17,4.42-.81a.55.55,0,0,0,.1-.23,15.41,15.41,0,0,0-4.36.49,13.59,13.59,0,0,0-4.31,1.38c-.09.06.05.38.1.43l.15.16s0-.32,0-.36c-.22-.53-.64-.87-.89-1.36,0,0-.12.21-.08.28Z" transform="translate(0 0)"/><path class="cls-4" d="M17.64,54.17a46.33,46.33,0,0,1,8.69-1.9l-.26-.37a1.82,1.82,0,0,0,.42.9s.13-.26.06-.32l-.19-.31c0-.1-.14-.39-.28-.37a43.29,43.29,0,0,0-8.38,2.06c-.07,0-.06.31-.06.31Z" transform="translate(0 0)"/><path class="cls-4" d="M27.43,52.52a65,65,0,0,0,8.77-1.37c3.71-.71,7.4-1.48,11.1-2.22,6.32-1.27,12.87-3,19.34-3,.07,0,.08-.35,0-.35-6.43,0-12.91,1.52-19.19,2.78-6.67,1.34-13.36,2.49-20,3.77-.06,0-.05.37,0,.37Z" transform="translate(0 0)"/><path class="cls-4" d="M56.53,46c.16.47.49.8.68,1.24,0,.09.17.34.29.31.69-.16,1.37-.35,2.06-.52s1.61-.21,2.35-.45c.05,0,.09-.34,0-.35-1.6-.17-3.21.49-4.75.86l.22.19c-.27-.46-.51-.93-.78-1.39,0,0-.11.09-.11.11Z" transform="translate(0 0)"/><path class="cls-4" d="M56.88,46.46c.88-.19,1.74-.45,2.62-.63a7.11,7.11,0,0,1,1.3-.16c.47,0,.36,0,.56.4,0,0,.21.31.27.24.45-.59-.55-1-1-1.1-1.3-.15-2.77.49-4,.79-.08,0,.13.5.28.46Z" transform="translate(0 0)"/><path class="cls-4" d="M62,46.6l.93-.24.4-.12c.22-.06.17-.15.21-.4,0,0,0,0,0,0a1.21,1.21,0,0,0-.81.1,7.52,7.52,0,0,0-.8.27c-.08,0,0,.44.07.43Z" transform="translate(0 0)"/><path class="cls-4" d="M14.49,57.08c.57-2,3.3-2.52,4.93-3.18l-.15-.19-.55.1a7.46,7.46,0,0,0-.8.26,10.17,10.17,0,0,0-1.48.64c-.64.34-1.78,1-1.46,1.87,0,0,.16.32.21.26.28-.3.43-.67.7-1A3.78,3.78,0,0,1,17,55.05a27.77,27.77,0,0,1,2.59-1.22c.05,0,.1-.24.1-.24-2.07.12-4.83,1.34-5.29,3.54,0,.15.05,0,.07-.05Z" transform="translate(0 0)"/><path class="cls-4" d="M15.09,56a2.08,2.08,0,0,0,.51,2.82c.11.1,0-.17,0-.19a9.92,9.92,0,0,0-.69-1.28l0,.37.61.45s.11-.32,0-.36a1.24,1.24,0,0,1-.6-.46.84.84,0,0,0,0,.35,4.5,4.5,0,0,0,.67,1.09l-.1-.4a1.82,1.82,0,0,1-.39-2.1,1,1,0,0,0,0-.29Z" transform="translate(0 0)"/><path class="cls-4" d="M15.05,56.63c2.69.35,5,1.78,7.41,2.88,2.65,1.19,5.21,2.5,7.79,3.82,4.83,2.46,10.07,4.07,14.62,7.06.4.27,1-.74.55-1-4.48-2.89-9.65-4.45-14.5-6.59-2.67-1.17-5.31-2.39-8-3.48-1.57-.64-3.1-1.34-4.61-2.11a6.36,6.36,0,0,0-3.19-.91c-.06,0-.09.33,0,.34Z" transform="translate(0 0)"/><path class="cls-4" d="M15.33,58.57c5.51,4.4,12.51,7,18.85,9.92a48.07,48.07,0,0,0,7.66,3c1.75.47,3.31.76,4.31-.94.13-.23-.76-.35-.84,0-.4,1.65-10.15-2.65-11.23-3.13-2.1-1-4.19-1.88-6.35-2.73a57.34,57.34,0,0,1-12.3-6.29s-.14.23-.1.26Z" transform="translate(0 0)"/><path class="cls-4" d="M45.5,69.83c-.09.15-.19.28-.27.44a1.17,1.17,0,0,0-.06.2c-.06.22.11.29.27.51h0a.17.17,0,0,0,.17,0l.13-.09a.46.46,0,0,0,.11-.22c.06-.22-.12-.39-.18-.59,0,0-.13-.34-.18-.25Z" transform="translate(0 0)"/><path class="cls-4" d="M45.26,70.06a1.42,1.42,0,0,1-.43.76l.15-.09-.15.07c-.17.09.05.23.14.26s.5.09.61-.07h0a.7.7,0,0,1,.13-.16l.18-.2a.37.37,0,0,0,0-.34.45.45,0,0,0-.29-.23c-.06,0-.36-.13-.39,0Z" transform="translate(0 0)"/><path class="cls-4" d="M45.05,71.63c1.89-.42,3.74-1,5.61-1.57,4.06-1.12,8.15-2.15,12.21-3.24Q76.45,63.18,90,59.43c1.72-.48,4-1.32,5.56-1.56.42-.06.83-1.08.26-1a46.79,46.79,0,0,0-5.07,1.36l-12,3.31c-9.35,2.59-18.65,5.41-28,8.05-1.93.54-3.91,1-5.81,1.6-.08,0,0,.46.12.44Z" transform="translate(0 0)"/><path class="cls-4" d="M66.63,45.93a19.89,19.89,0,0,0,3.6,1.24c1.42.4,2.78,1.15,4.16,1.66l4.72,1.72c5.59,2.07,11.37,4,16.71,6.65.36.18,1-.66.58-.88a139.2,139.2,0,0,0-16.66-6.39c-3.07-1-6.13-2.1-9.26-3-1.23-.35-2.5-1.19-3.79-1.32,0,0-.11.29-.06.31Z" transform="translate(0 0)"/><path class="cls-4" d="M52.87,60.24c2.49.66,4.76,1.86,7.19,2.68.29.1-.1-.36-.23-.41C57.54,61.69,55.41,60.38,53,60c0,0-.12.23-.11.24Z" transform="translate(0 0)"/><path class="cls-4" d="M60.39,63.2c1.53-.29,3-.72,4.55-1.13,1.29-.36,3.26-.62,4.27-1.52a.85.85,0,0,0,.09-.25,25,25,0,0,0-4,1.15c-1.61.48-3.27.84-4.85,1.39-.08,0-.06.36,0,.36Z" transform="translate(0 0)"/><path class="cls-4" d="M52.87,60.22a5.55,5.55,0,0,0,1.6-.28l3.8-.89c1.78-.42,3.56-.86,5.34-1.29.07,0-.15-.5-.31-.46-1.73.43-3.46.85-5.19,1.3-1.15.29-2.3.58-3.44.89A5.74,5.74,0,0,0,53,60a.68.68,0,0,0-.11.2Z" transform="translate(0 0)"/><path class="cls-4" d="M63.25,57.49c2,1.35,4.34,2.08,6.41,3.31.13.08-.09-.38-.2-.44-2-1.17-4.07-2.08-6.11-3.11,0,0-.13.22-.1.24Z" transform="translate(0 0)"/><path class="cls-4" d="M21.45,56.17c14.59-2.45,29-5.94,43.5-9l1.21-.26c.25-.06-.34-.42-.52-.38q-9.33,2-18.65,4c-8,1.69-16.11,3.18-24,5.28l-1.44.39s-.05,0-.07,0Z" transform="translate(0 0)"/><path class="cls-4" d="M33.38,61.8c14.45-3,28.73-6.89,43.05-10.45L77.74,51c.26-.06-.34-.42-.52-.38Q68,53,58.72,55.22c-8,2-16,3.74-23.85,6.1l-1.43.44s0,0-.06,0Z" transform="translate(0 0)"/><path class="cls-4" d="M22.16,56.33c3.94,1.69,7.65,4.05,11.66,5.54.18.07,0-.25,0-.29a5.27,5.27,0,0,0-1.86-1.06L28.78,59c-2.25-1.08-4.52-2.08-6.81-3-.28-.12.07.33.19.38Z" transform="translate(0 0)"/><path class="cls-4" d="M66.19,47.08c2.44.71,4.81,1.83,7.21,2.69,1.29.46,2.6.79,3.89,1.22.18.07,1.08.6.86.13s0-.14-.31-.26c-.86-.31-1.68-.75-2.54-1-3.08-1.08-6.37-1.89-9.36-3.19-.13-.06.09.41.25.46Z" transform="translate(0 0)"/><path class="cls-4" d="M34.15,62.27c7.55-1.61,15-3.5,22.55-5.29l13.57-3.25c2.55-.61,5.15-1.54,7.73-1.93h0c.14,0-.27-.48-.44-.43C63.16,54.81,48.67,58.08,34.3,61.77c-.21,0-.63,0-.78.19s.53.33.63.31Z" transform="translate(0 0)"/><path class="cls-4" d="M45.11,69.89c9.18-2,18.24-4.69,27.3-7.16,5-1.35,9.94-2.71,14.89-4.13A48.25,48.25,0,0,0,95,56.18L94.47,56l.46.45c.12.13.8.29.54,0L95,56c-.12-.12-.39-.27-.57-.19a47.8,47.8,0,0,1-7.89,2.46c-5,1.43-10,2.79-15,4.15-8.79,2.39-17.69,4.5-26.41,7.15-.07,0-.08.31-.07.31Z" transform="translate(0 0)"/><path class="cls-4" d="M55,68.33c0,.09-.12.12-.13.21s0,.57.08.39a.37.37,0,0,0,0-.15c0-.17,0,.31.1.16s.12-.13.13-.24a.6.6,0,0,0-.1-.32s-.1-.16-.11,0Z" transform="translate(0 0)"/><path class="cls-4" d="M48.47,70.82c1.91-.47,3.76-1.09,5.62-1.69s3.79-1,5.65-1.56c.06,0,.1-.25.1-.25-3.86.18-7.6,2.21-11.32,3.16-.07,0-.05.34-.05.34Z" transform="translate(0 0)"/><path class="cls-4" d="M53.68,69a35.29,35.29,0,0,1,4.69-1.66c1.66-.46,3.4-.61,5-1.14.05,0,.11-.25.1-.25a21.65,21.65,0,0,0-9.8,2.69c-.08,0,0,.36,0,.36Z" transform="translate(0 0)"/><path class="cls-4" d="M57.81,67.79c1.86-.66,3.77-1.14,5.68-1.64a22.64,22.64,0,0,0,5.42-1.77s.08-.28.08-.28a77.92,77.92,0,0,0-11.18,3.31c-.09,0,0,.38,0,.38Z" transform="translate(0 0)"/><path class="cls-4" d="M65,65.67c3.69-1.16,7.57-1.92,11.06-3.63.05,0,.08-.18.11-.18C72.4,62.82,68.64,64,65,65.25c-.09,0,0,.44.06.42Z" transform="translate(0 0)"/><path class="cls-4" d="M74.61,63.07c1.19-.42,2.4-.79,3.61-1.14a12.34,12.34,0,0,0,4-1.52.67.67,0,0,0,.08-.27,54,54,0,0,0-7.69,2.52c-.09,0,0,.42,0,.41Z" transform="translate(0 0)"/><path class="cls-4" d="M79.07,62c2.39-1.28,5.15-1.47,7.53-2.73,0,0,.09-.17.11-.17A24.57,24.57,0,0,0,79,61.58c-.1.06.06.46.1.44Z" transform="translate(0 0)"/><path class="cls-4" d="M85.16,60c1.84-1,4.18-.88,5.87-2.11,0,0,.09-.18.11-.18a17.61,17.61,0,0,0-6,1.86c-.09.06,0,.44.07.43Z" transform="translate(0 0)"/><path class="cls-4" d="M91.22,58.17a11.09,11.09,0,0,1,2.12-.58c.58-.12,1.36-.11,1.7-.64a.49.49,0,0,0,.06-.13,6.26,6.26,0,0,0-1.9.32,7.43,7.43,0,0,0-2,.66c-.09,0,0,.37,0,.37Z" transform="translate(0 0)"/><path class="cls-4" d="M33.61,66.45l.39,0-.28-.1a9.78,9.78,0,0,0,1.82.78c.33.11,1.05-.56.59-.69S35,66,34.42,65.85c-.29-.09-1,.59-.62.73s.91.46,1.39.64l.67-.77a5.14,5.14,0,0,1-1.17-.59l-.7.78a4.11,4.11,0,0,0,.6.17,6,6,0,0,1,1.2.11s0-.46-.22-.47c.41,0-.45-.49-.23-.36a3.7,3.7,0,0,0-.72-.28c-.36-.11-1,.56-.63.83a5.32,5.32,0,0,0,1.2.58c.37.12,1.08-.63.67-.77S35,66,34.51,65.87l-.63.73c.57.15,1.09.43,1.66.58l.59-.69c-.39,0-.78-.09-1.16-.15A4.11,4.11,0,0,1,33.48,66s0,.43.13.45Z" transform="translate(0 0)"/><path class="cls-4" d="M37.94,68.1l.09.14a2,2,0,0,0,.37.39,3.21,3.21,0,0,0,1.28.57c.31.07,1-.62.62-.74a6.64,6.64,0,0,1-1.7-.81l-.65.81a3.07,3.07,0,0,1,1.16.57c.31.29.89-.32.81-.65s-.34-.39-.54-.54l.1.21v0l-.38.46h0l-.41.06.17.14c.22.17.64,0,.85-.11s.16-.2,0-.27a.77.77,0,0,0-.72,0l.79,0c-.13-.29-.35-.62-.71-.51a.73.73,0,0,0-.49.52c-.05.32.41.35.47.6l.81-.64a3.4,3.4,0,0,0-1.28-.66c-.36-.11-1.06.54-.65.81a5.3,5.3,0,0,0,1.73.74l.54-.76a12.14,12.14,0,0,1-1.76-.5c-.07,0-.65,0-.52.16Z" transform="translate(0 0)"/><path class="cls-4" d="M37.77,9.89a3.48,3.48,0,0,1,.79,0c.08,0,.44,0,.47-.07a1.15,1.15,0,0,0,.06-.17c0-.13-.25-.49-.4-.42a2.78,2.78,0,0,1-.63.16,1.1,1.1,0,0,0-.5.17c-.14.12.38.42.48.41.32,0,.62-.15.93-.17.08,0,.1-.06.06-.12a.57.57,0,0,0-.32-.23c-.17-.07-1-.35-1,0,0,.18.6.42.68.24h0s0,0,0,0a.32.32,0,0,1,.16,0l.2.06-.27-.35c-.29,0-.57.12-.86.13l.44.42a1,1,0,0,1,.46-.14,2.22,2.22,0,0,0,.55-.14l-.4-.39a1.23,1.23,0,0,0,.08.23V9.37c-.28.16-.62.07-.9.26,0,0-.08.26-.08.26Z" transform="translate(0 0)"/><path class="cls-4" d="M63.36,61.08a.77.77,0,0,0,0-.3c-.07-.13-.19.1-.2.12s0,0,0,.05,0,.07.1.07a.1.1,0,0,1,.05,0,.6.6,0,0,1,0,.23s0-.06,0-.06a.39.39,0,0,0,.06-.15Z" transform="translate(0 0)"/><path class="cls-4" d="M63.09,61.13a3,3,0,0,1,1.68.65s.06-.33,0-.41c-.35-.29-1.1-.8-1.54-.43a.77.77,0,0,0-.11.19Z" transform="translate(0 0)"/></g></g></svg>