<svg xmlns="http://www.w3.org/2000/svg" viewBox="0 0 99 227.49"><defs><style>.cls-1{isolation:isolate;}.cls-2{fill:#9fffff;}.cls-2,.cls-3,.cls-4{mix-blend-mode:multiply;}.cls-4{fill:#05ff1a;opacity:0.8;}</style></defs><g class="cls-1"><g id="Camada_1" data-name="Camada 1"><path class="cls-2" d="M49.52,194.67h0a9,9,0,0,0-4.13.45h0c-3,.42-3.46.9-3.51,3.54,0,.8,0,1.59,0,2.39a2,2,0,0,1,0,.49,1.62,1.62,0,0,1,.27,1c-.34,5.05.28,10.1-.07,15.15a1.08,1.08,0,0,0,.61,1.12,1.8,1.8,0,0,0,.32-.06c-.94,1.42-.82,3.06-.79,4.55.07,2.62,2.14,4.63,4.17,4.08,2.39-.64,5-.58,7.2-1.75h0c0-.16,0-.32,0-.49A11.59,11.59,0,0,0,55,224.9a4.32,4.32,0,0,0,3.37-3.64,12.33,12.33,0,0,0,.06-3.69c-.28-2-.92-4-.35-6.09a1.63,1.63,0,0,0,0-.79,26,26,0,0,1-.38-6.65,41,41,0,0,0-.61-6.63A1.86,1.86,0,0,0,56,195.69h0a.89.89,0,0,0-.33-.18,4.19,4.19,0,0,0-2-.37,7.87,7.87,0,0,0-4.08-.47Zm4.09.48a3.23,3.23,0,0,0,.41.22,1,1,0,0,1-.41-.22Z" transform="translate(0)"/><path class="cls-2" d="M46.69,139.38a23.15,23.15,0,0,0-4.08.43,4.25,4.25,0,0,0-1.26,3c0,1.11,0,2.22.1,3.31a79.61,79.61,0,0,1,.8,12.43,5.54,5.54,0,0,0,.47,3.25h0L42.6,169c0,.68-.07,1.37,0,2,.1,1.4.73,2,2.37,2.08a28.35,28.35,0,0,0,3.19-.12c1.26-.06,2.52-.15,3.78-.22a33.44,33.44,0,0,1,4.89-1.4A2.59,2.59,0,0,0,59,169c.07-1.26.1-2.51.15-3.76a3.79,3.79,0,0,0-.17-1.16,69.15,69.15,0,0,0-.56-7.46l0-.12a37.84,37.84,0,0,0-.53-4,11.87,11.87,0,0,1-.1-5.77,11,11,0,0,1-1-5.66h0c.13-.75-.51-1-1.11-1.22a11.11,11.11,0,0,0-3.59-.41h0a16.19,16.19,0,0,0-5.29-.05Zm5.87.28a1.2,1.2,0,0,1-.58-.23Z" transform="translate(0)"/><path class="cls-2" d="M41.56,85.71h0c0,1.38,0,2.76-.07,4.14-.12,5,.86,10,.67,14.94a2.82,2.82,0,0,0,.51,1.78h0c0,2.74,0,5.48,0,8.22a2.82,2.82,0,0,0,.56,2h0l.61.46h0a3.66,3.66,0,0,0,2.21.47,51.34,51.34,0,0,0,8.95-1c.84-.21,1.67-.45,2.48-.71,1-.33,1.62-1,1.4-1.82a25,25,0,0,1-.41-5.31,2.52,2.52,0,0,0-.32-1.35,4.33,4.33,0,0,1-.47-3.61,6.14,6.14,0,0,0-.09-3,4.11,4.11,0,0,1-.23-1.37c.17-3.56-.72-7.07-.66-10.62,0-2.85-.27-3-4.08-3.23a8.11,8.11,0,0,0-3.47-.47h0A10.75,10.75,0,0,0,41.56,85.71Z" transform="translate(0)"/><g class="cls-3"><path class="cls-4" d="M72.68.12c-1.14.42-2.3.82-3.45,1.22-3.86,1.3-45,24.57-49,25.67-1.26.35-16.85,9-18,9.5-1.74.75-2.63,2.14-2,4.59l0,0c0,.43.3.88.16,1.3S.3,43.45.24,44c.67,1.51,1.33,3,2,4.54h0c.1.18.18.37.29.54C3.88,51.11,4.35,51.35,6,50.59a35.23,35.23,0,0,0,3.2-1.73c1-.57,16.34-9.28,17.43-9.63a15.68,15.68,0,0,0,2.46-1c2.8-1.44,43.28-24.09,46.31-25.06a6.64,6.64,0,0,0,3.77-2.57h0c0-.27.07-.53.1-.8-.82-2-1.65-3.93-2.44-5.9a9.37,9.37,0,0,0-2-3A1.91,1.91,0,0,0,72.68.12Z" transform="translate(0)"/><path class="cls-4" d="M12,56.89a14.5,14.5,0,0,0,5.35-2.22c3.7-2.34,59.93-33.12,63.59-35.5a4.46,4.46,0,0,1,1.61-.55,9.44,9.44,0,0,0,4.54-2.21l-.33-.49,0-.05a3.83,3.83,0,0,0,.09-.69c0-.28.07-.56.11-.84-.06-1.5-1-2.78-1.5-4.18h0L84.19,8.08h0A4.29,4.29,0,0,0,79.8,5.62,9.72,9.72,0,0,0,75.29,6.8C73,8.29,42.66,24.9,40.35,26.42c-1.49,1-9.62,5.73-11.12,6.71h0c-2,.21-21.08,11.57-22.53,12.74a2.1,2.1,0,0,0-.51,2.29,21.67,21.67,0,0,0,3.29,7.16C10.15,56.22,11,57,12,56.89Z" transform="translate(0)"/><path class="cls-4" d="M80.53,22.23h0c-1.68-2.14-3.48-2.68-5.4-1.67h0a4,4,0,0,0-2.5.84c-.76.45-9.21,5.45-10,5.73C59.27,28.24,36.34,41.24,33.2,42.72,31.54,43.5,12.07,54.21,11.06,56h0a2.05,2.05,0,0,0-.87,2.28c.76,3,1.8,5.86,4.28,8h0l.65,1h0c1.56.2,2.13-1.65,3.63-1.56,1.6-1.11,21-12,22.9-12.58,3.16-1,33.89-18,36.61-19.92a9.7,9.7,0,0,1,2.3-1.31,4,4,0,0,0,2.34-2.4c-.11-.17-.22-.34-.34-.51l0,0c.09-.41-.28-.81-.23-1.22-.1-.2-.19-.4-.29-.59s0-.42,0-.64C81.53,25.07,81,23.65,80.53,22.23Z" transform="translate(0)"/><path class="cls-4" d="M82.91,35.79c-1.27.28-2.49.72-3.73,1.09-2.27,1.27-23.65,12.93-25.81,14.41s-22.27,13-24.8,14C27.3,65.78,7.24,77.39,6.08,78.15a2.09,2.09,0,0,0-.78,2.49,20.33,20.33,0,0,0,3.07,6.93c1.16,1.6,2,1.91,3.6,1.26C13.25,88.3,33.46,77,34.72,76.42,36.3,75.69,45,71,46.51,70.14,49.65,68.28,82.4,49.72,86.08,49a5.67,5.67,0,0,0,1.39-.7c0-.66,0-1.32.12-2A4.53,4.53,0,0,0,87,43.57a13.66,13.66,0,0,0-2-6h0C84.38,35.92,84,35.55,82.91,35.79Z" transform="translate(0)"/><path class="cls-4" d="M16.5,74.59a2.09,2.09,0,0,0,.23-.08c2-1.14,22.1-11.69,24-13.09h0c1.05-.43,8.79-4.52,9.77-5.08C52.8,55,83.11,38.64,85.3,37.1a3.49,3.49,0,0,1,1.14-.43,11.22,11.22,0,0,0,3.26-1.59A1.73,1.73,0,0,0,91,33.77a1.83,1.83,0,0,0,0-.87,13.41,13.41,0,0,1-.69-2.59,5.4,5.4,0,0,0-.26-.84c-.55-.82-.6-2-1.72-2.37-.38-.33-.77-.64-1.12-1a4.88,4.88,0,0,0-4.68-1.62,13.19,13.19,0,0,0-4.77,1.68c-1.14.76-20,11.48-21.18,12.2H55.41C54.39,39,36.77,49,35.76,49.68,33.2,51.32,12.45,62.12,10,64h0c-.19.61-.38,1.22-.58,1.83h0a24.67,24.67,0,0,0,1.89,5.83C12.63,74.59,14.06,75.37,16.5,74.59Z" transform="translate(0)"/><path class="cls-4" d="M94.16,36.88a12.87,12.87,0,0,0-3.83,1.46C89.23,39,73.71,47.76,72.6,48.4c-1,.76-5.17,3.53-6.21,4.15-2.71,1.65-39.72,22.73-42.67,24a11.55,11.55,0,0,0-1.89,1.11,2,2,0,0,0-.67,2.21,46,46,0,0,0,1.62,5.64c1.39,3.49,3.15,3.94,5,2.76.56-.34,1.13-.66,1.71-.94.74-.36,19.17-10.77,20-11,1.34-.41,9.21-4.79,10.41-5.48,2.33-1.35,32.33-18.35,34.67-19.66a6.65,6.65,0,0,1,2-.9C98.29,50,99,48.82,99,46.82c0-.4,0-.77,0-1.16l-.35-.46a23.53,23.53,0,0,0-1.33-5.68h0a2.5,2.5,0,0,0,0-.29C96.42,36.85,96,36.49,94.16,36.88Z" transform="translate(0)"/></g><path d="M45.62,8.2a17.78,17.78,0,0,0-9.28-.88,16.4,16.4,0,0,0-5.51,2,14.9,14.9,0,0,0-2.57,1.91,17.17,17.17,0,0,0-1.55,1.64A15.67,15.67,0,0,0,25.34,15a16,16,0,0,0-1.67,4.49,19.2,19.2,0,0,0,.45,9.28A22.21,22.21,0,0,0,25.84,33a26.18,26.18,0,0,0,2.57,4,25.85,25.85,0,0,0,3.15,3.38,21.35,21.35,0,0,0,3.6,2.52,20.88,20.88,0,0,0,4.2,1.83,17,17,0,0,0,2.23.57,13.71,13.71,0,0,0,2.39.22,9.38,9.38,0,0,0,2.18-.22l.36-.06a11,11,0,0,0,4.32-2.27,16.91,16.91,0,0,0,3.32-3.79,22.07,22.07,0,0,0,3.37-9.21A21.74,21.74,0,0,0,52.86,13.3,17.63,17.63,0,0,0,45.62,8.2ZM53,17.84a20.75,20.75,0,0,1,1.74,4.7A22.26,22.26,0,0,1,55.2,28a21.41,21.41,0,0,1-.85,4.9,21.15,21.15,0,0,1-2.07,4.57,16.9,16.9,0,0,1-2.44,3,12.46,12.46,0,0,1-2.25,1.64,9.08,9.08,0,0,1-1.66.65h0a9.93,9.93,0,0,1-2.31.2,15.1,15.1,0,0,1-3.4-.63,21.71,21.71,0,0,1-4.59-2.12,22.87,22.87,0,0,1-2-1.42,20.44,20.44,0,0,1-1.8-1.68A25.93,25.93,0,0,1,28.13,32a22.9,22.9,0,0,1-1.91-5.06,18.88,18.88,0,0,1-.43-4.5,17.53,17.53,0,0,1,.67-3.87,15.3,15.3,0,0,1,1.32-2.88,14.21,14.21,0,0,1,2-2.52,15.36,15.36,0,0,1,2.75-2A16.37,16.37,0,0,1,36,9.9a17.06,17.06,0,0,1,4-.35,17.44,17.44,0,0,1,3.87.68,16.77,16.77,0,0,1,3.53,1.6,16.63,16.63,0,0,1,3,2.47A18.77,18.77,0,0,1,53,17.84Z" transform="translate(0)"/><path d="M38.32,2.8a22.23,22.23,0,0,0-9.39,3A20.38,20.38,0,0,0,26.6,7.41a21.47,21.47,0,0,0-8,18.77,24.21,24.21,0,0,0,3,9.33,26.69,26.69,0,0,0,6.08,7.56,25.46,25.46,0,0,0,11.41,5.7c1.33.27,4.79-.3,5.87.58a10.53,10.53,0,0,1,2.78,6.55,28.14,28.14,0,0,0,1.48,10.52c1.23,4.16,2.29,8.76,5,12.23,2.34,2.94,7.54,5,9.26.23,2.16-5.92-1.93-13.17-4.8-18.12-1.33-2.31-3.11-4.33-4.47-6.61a1,1,0,0,0-.08-.14.87.87,0,0,0-.1-.24,49.05,49.05,0,0,1-2.31-4.86c-.41-1-.82-1.4-.12-2.12a17.91,17.91,0,0,1,2.19-1.42A21.07,21.07,0,0,0,61.6,33.73a26.68,26.68,0,0,0-5.68-23.58A20.61,20.61,0,0,0,38.32,2.8ZM50.18,58c0-.47,0-.93,0-1.37l2.23-.72c.23.37.49.74.76,1.14L50.4,60.2C50.29,59.43,50.21,58.69,50.18,58ZM61.33,77.66a5.32,5.32,0,0,1-.29.79,4.15,4.15,0,0,1-.3.43l-.29.24-.33.15-.41.07a4.16,4.16,0,0,1-.58-.07h0c.31-.45.61-.9.93-1.34.46-.6.93-1.18,1.43-1.75A9,9,0,0,1,61.33,77.66Zm-.24-4.73L61,73a36.65,36.65,0,0,0-4,5,9.84,9.84,0,0,1-.76-.82A23.5,23.5,0,0,1,58,74.49a34.87,34.87,0,0,1,2.72-3.1C60.86,71.92,61,72.43,61.09,72.93ZM59.78,68.8a32.64,32.64,0,0,0-5,6c-.27-.57-.51-1.14-.73-1.71l.12-.16c.34-.57.71-1.12,1.1-1.65,1.16-1.53,2.47-2.93,3.69-4.41Q59.41,67.87,59.78,68.8Zm-2.45-5.33c.15.31.3.63.46.94a.74.74,0,0,0-.19.16c-1.48,1.87-3.15,3.59-4.56,5.52l-.18-.6-.33-1.11c.3-.49.62-1,1-1.42,1.09-1.44,2.31-2.77,3.54-4.1ZM55.7,60.64a60.62,60.62,0,0,0-4.09,4.7c-.07-.25-.15-.5-.22-.75-.13-.47-.25-.91-.35-1.33l3.65-4.17c.36.5.72,1,1.06,1.51A.1.1,0,0,0,55.7,60.64Zm1-45.21c3.72,6.92,4.4,16.08.2,23A16.8,16.8,0,0,1,42.4,46.73c-13-.31-24.16-14.93-20.7-27.46A19.22,19.22,0,0,1,32.24,7.2a18.71,18.71,0,0,1,17.92.91A19.72,19.72,0,0,1,56.74,15.43Z" transform="translate(0)"/><path d="M49.36,15.94a10.82,10.82,0,0,0-1.55-1.32,1.16,1.16,0,0,0-1-.11,1.48,1.48,0,0,0-.29.12,1.32,1.32,0,0,0-.45.46,1.28,1.28,0,0,0-.11,1,1.34,1.34,0,0,0,.57.73,11.39,11.39,0,0,1,1.71,1.69,13.83,13.83,0,0,1,1.54,2.59,14.4,14.4,0,0,1,.92,3.13A11.76,11.76,0,0,1,50.81,27c0,.2-.05.41-.09.61a1.29,1.29,0,0,0,.14.94,1.27,1.27,0,0,0,.77.57,1.26,1.26,0,0,0,1.51-.91,14,14,0,0,0-.78-7.48,15.23,15.23,0,0,0-1.78-3.3A14.08,14.08,0,0,0,49.36,15.94Z" transform="translate(0)"/><path d="M49.92,31.91a1.25,1.25,0,1,0,1.71.43A1.26,1.26,0,0,0,49.92,31.91Z" transform="translate(0)"/></g></g></svg>