<svg xmlns="http://www.w3.org/2000/svg" viewBox="0 0 17.75 1328.75"><defs><style>.cls-1{isolation:isolate;}.cls-2{opacity:0.7;}.cls-3{fill:#9fffff;mix-blend-mode:multiply;}</style></defs><g class="cls-1"><g id="Camada_1" data-name="Camada 1"><g class="cls-2"><path class="cls-3" d="M9.93,275.25H8.18a3.62,3.62,0,0,0-.57,0,.39.39,0,0,0-.61,0H7a12.71,12.71,0,0,0-4.11.6c-2.07,1-2.82,2.68-2.67,5,.18,2.55-.22,5.15.12,7.66.31,2.35-.7,4.86.82,7l.55.07h0c-.06,4.44.25,8.9-.5,13.32a8.72,8.72,0,0,0-.06,1.77c.05,2.24.94,3.05,3.13,2.67a24.89,24.89,0,0,0,3.32-1h0a13.69,13.69,0,0,0,5.39-.87,5.66,5.66,0,0,0,4-5.84,15.69,15.69,0,0,1,.61-4.67A8.56,8.56,0,0,1,17,297.2c.15-3.88-.5-7.74-.15-11.62a3,3,0,0,0-.09-.89,19,19,0,0,1-.18-5.64c.2-2.1-.23-2.57-2.5-3.22h0a.93.93,0,0,0-.32-.18,3.85,3.85,0,0,0-2-.41,1.31,1.31,0,0,0-1.77,0Zm1.77,0a2.74,2.74,0,0,0,.39.24,1.09,1.09,0,0,1-.39-.24Z" transform="translate(0 0)"/><path class="cls-3" d="M8.17,222.89h0a9.18,9.18,0,0,0-4.13.45H4c-3,.43-3.46.9-3.51,3.54,0,.8,0,1.6,0,2.39a2,2,0,0,1,0,.49,1.56,1.56,0,0,1,.27,1c-.34,5.05.28,10.1-.07,15.15a1.1,1.1,0,0,0,.61,1.12,1.8,1.8,0,0,0,.32-.06c-.94,1.42-.82,3.06-.79,4.56C.94,254.17,3,256.17,5,255.63c2.39-.64,5-.59,7.2-1.76h0c0-.16,0-.32,0-.49a9.73,9.73,0,0,0,1.43-.26,4.32,4.32,0,0,0,3.37-3.63,12.74,12.74,0,0,0,.07-3.7c-.29-2-.92-4-.36-6.08a1.67,1.67,0,0,0,0-.8,25.52,25.52,0,0,1-.37-6.64,43.37,43.37,0,0,0-.61-6.64,1.9,1.9,0,0,0-1.16-1.72h0a.89.89,0,0,0-.33-.18,4.07,4.07,0,0,0-2-.36,7.88,7.88,0,0,0-4.08-.48Zm4.09.48a2.32,2.32,0,0,0,.41.22.87.87,0,0,1-.41-.22Z" transform="translate(0 0)"/><path class="cls-3" d="M13.49.09a23.68,23.68,0,0,0-3.33,1h0A13.73,13.73,0,0,0,4.77,2a5.64,5.64,0,0,0-4,5.84,16.33,16.33,0,0,1-.61,4.67A8.72,8.72,0,0,1,.75,16.3C.6,20.18,1.25,24,.9,27.92a3.37,3.37,0,0,0,.09.89,18.77,18.77,0,0,1,.18,5.65c-.2,2.09.24,2.57,2.5,3.21h0a1,1,0,0,0,.31.19,3.86,3.86,0,0,0,2,.4,1.31,1.31,0,0,0,1.77,0H9.58a3.62,3.62,0,0,0,.57,0,.38.38,0,0,0,.6,0h0a12.82,12.82,0,0,0,4.12-.61c2.07-1,2.82-2.68,2.66-5-.17-2.54.22-5.15-.12-7.66-.31-2.34.71-4.86-.82-7a5,5,0,0,1-.54-.07h0c.06-4.44-.26-8.9.5-13.31a9.61,9.61,0,0,0,.06-1.78C16.56.52,15.68-.29,13.49.09ZM6.05,38.26h0A2.28,2.28,0,0,0,5.66,38,1,1,0,0,1,6.05,38.26Z" transform="translate(0 0)"/><path class="cls-3" d="M5.52,59.63h0c0,.16,0,.33,0,.49h0a11,11,0,0,0-1.43.26A4.31,4.31,0,0,0,.7,64a12.33,12.33,0,0,0-.07,3.69c.28,2,.92,4,.35,6.09a1.63,1.63,0,0,0,0,.79,25.59,25.59,0,0,1,.37,6.65A41,41,0,0,0,2,87.87a1.86,1.86,0,0,0,1.15,1.72h0a1,1,0,0,0,.33.18,4.19,4.19,0,0,0,2,.37,7.89,7.89,0,0,0,4.08.47h0a9,9,0,0,0,4.13-.45h0c3-.42,3.46-.89,3.52-3.54,0-.8,0-1.59,0-2.39a4,4,0,0,1,0-.49,1.54,1.54,0,0,1-.26-1c.34-5-.28-10.1.07-15.15a1.1,1.1,0,0,0-.61-1.11,1.53,1.53,0,0,0-.32.05c.93-1.42.82-3.06.78-4.55-.06-2.62-2.13-4.63-4.16-4.08C10.33,58.52,7.74,58.46,5.52,59.63Zm0,30.5h0a4.1,4.1,0,0,0-.41-.22A1.26,1.26,0,0,1,5.5,90.13Z" transform="translate(0 0)"/><path class="cls-3" d="M.21,113.93h0c0,1.38,0,2.76-.07,4.15C0,123.07,1,128,.81,133a2.81,2.81,0,0,0,.51,1.77h0c0,2.74,0,5.48,0,8.23a2.81,2.81,0,0,0,.56,2h0l.61.46h0a3.74,3.74,0,0,0,2.21.48,52.2,52.2,0,0,0,9-1c.84-.22,1.67-.45,2.48-.72,1-.33,1.62-1,1.4-1.82a25,25,0,0,1-.41-5.31,2.52,2.52,0,0,0-.32-1.35,4.31,4.31,0,0,1-.47-3.6,6.18,6.18,0,0,0-.09-3,4,4,0,0,1-.23-1.37c.17-3.56-.72-7.07-.66-10.62,0-2.85-.27-3-4.08-3.23a8.43,8.43,0,0,0-3.47-.47h0A10.75,10.75,0,0,0,.21,113.93Z" transform="translate(0 0)"/></g><g class="cls-2"><path class="cls-3" d="M9.93,659.3H8.18l-.57,0a.39.39,0,0,0-.61,0H7a12.72,12.72,0,0,0-4.11.61c-2.07,1-2.82,2.68-2.67,5,.18,2.55-.22,5.16.12,7.67.31,2.34-.7,4.86.82,7l.55.07h0c-.06,4.45.25,8.9-.5,13.32a8.81,8.81,0,0,0-.06,1.78c.05,2.23.94,3,3.13,2.67a24.94,24.94,0,0,0,3.32-1h0a13.51,13.51,0,0,0,5.39-.87,5.64,5.64,0,0,0,4-5.83,15.76,15.76,0,0,1,.61-4.68,8.54,8.54,0,0,1-.57-3.81c.15-3.87-.5-7.74-.15-11.61a3,3,0,0,0-.09-.89,19.11,19.11,0,0,1-.18-5.65c.2-2.1-.23-2.57-2.5-3.21h0a1,1,0,0,0-.32-.19,3.75,3.75,0,0,0-2-.4,1.31,1.31,0,0,0-1.77,0Zm1.77,0a2.65,2.65,0,0,0,.39.23.93.93,0,0,1-.39-.23Z" transform="translate(0 0)"/><path class="cls-3" d="M13.49,384.14a26.64,26.64,0,0,0-3.33,1h0a13.74,13.74,0,0,0-5.39.87,5.63,5.63,0,0,0-4,5.84,16.37,16.37,0,0,1-.61,4.67,8.7,8.7,0,0,1,.56,3.81c-.15,3.88.5,7.74.15,11.62a3.37,3.37,0,0,0,.09.89,18.71,18.71,0,0,1,.18,5.64c-.2,2.1.24,2.57,2.5,3.22h0a.84.84,0,0,0,.31.19,3.86,3.86,0,0,0,2,.41,1.31,1.31,0,0,0,1.77,0H9.58a5.43,5.43,0,0,0,.57,0,.38.38,0,0,0,.6,0h0a12.81,12.81,0,0,0,4.12-.6c2.07-1,2.82-2.68,2.66-5-.17-2.55.22-5.15-.12-7.67-.31-2.34.71-4.85-.82-7l-.54-.07h0c.06-4.44-.26-8.9.5-13.32a9.58,9.58,0,0,0,.06-1.78C16.56,384.58,15.68,383.77,13.49,384.14ZM6.05,422.31h0a3.07,3.07,0,0,0-.39-.23A1,1,0,0,1,6.05,422.31Z" transform="translate(0 0)"/><path class="cls-3" d="M5.52,443.68h0c0,.16,0,.32,0,.48h0a12.92,12.92,0,0,0-1.43.26A4.31,4.31,0,0,0,.7,448.07a12.4,12.4,0,0,0-.07,3.7c.28,2,.92,4,.35,6.08a1.67,1.67,0,0,0,0,.8,25.49,25.49,0,0,1,.37,6.64A41,41,0,0,0,2,471.93a1.88,1.88,0,0,0,1.15,1.72h0a1,1,0,0,0,.33.18,4.07,4.07,0,0,0,2,.36,7.78,7.78,0,0,0,4.08.47h0a9,9,0,0,0,4.13-.44h0c3-.43,3.46-.9,3.52-3.54,0-.8,0-1.6,0-2.39a4,4,0,0,1,0-.49,1.57,1.57,0,0,1-.26-1c.34-5-.28-10.11.07-15.15a1.11,1.11,0,0,0-.61-1.12,1.07,1.07,0,0,0-.32.06c.93-1.42.82-3.06.78-4.56-.06-2.62-2.13-4.62-4.16-4.08C10.33,442.57,7.74,442.52,5.52,443.68Zm0,30.51h0a2.73,2.73,0,0,0-.41-.22A1,1,0,0,1,5.5,474.19Z" transform="translate(0 0)"/><path class="cls-3" d="M5.34,551.65a23.15,23.15,0,0,0-4.08.43,4.27,4.27,0,0,0-1.26,3c0,1.1,0,2.21.1,3.31a80.78,80.78,0,0,1,.81,12.43,5.56,5.56,0,0,0,.46,3.25h0l-.12,7.13c0,.68-.07,1.36,0,2,.1,1.39.73,2,2.37,2.08a28.35,28.35,0,0,0,3.19-.12l3.78-.23a34.73,34.73,0,0,1,4.89-1.4,2.57,2.57,0,0,0,2.14-2.38c.07-1.25.1-2.5.15-3.75a3.85,3.85,0,0,0-.17-1.17,69,69,0,0,0-.56-7.45.51.51,0,0,1,0-.13c-.13-1.33-.28-2.65-.54-4a11.87,11.87,0,0,1-.1-5.77,11.06,11.06,0,0,1-1-5.67h0c.13-.74-.51-1-1.11-1.21a11.11,11.11,0,0,0-3.59-.41h0a16.47,16.47,0,0,0-5.29-.06Zm5.87.29a1.31,1.31,0,0,1-.58-.23Z" transform="translate(0 0)"/><path class="cls-3" d="M.21,498h0c0,1.38,0,2.76-.07,4.14-.12,5,.86,10,.67,14.94a2.84,2.84,0,0,0,.51,1.78h0c0,2.75,0,5.49,0,8.23a2.8,2.8,0,0,0,.56,2h0l.61.47h0a3.73,3.73,0,0,0,2.21.47,51.22,51.22,0,0,0,9-1c.84-.22,1.67-.45,2.48-.71,1-.34,1.62-1,1.4-1.83a24.88,24.88,0,0,1-.41-5.3,2.48,2.48,0,0,0-.32-1.35,4.34,4.34,0,0,1-.47-3.61,6.13,6.13,0,0,0-.09-3,4.11,4.11,0,0,1-.23-1.37c.17-3.56-.72-7.07-.66-10.63,0-2.84-.27-3-4.08-3.22a8.11,8.11,0,0,0-3.47-.47h0A10.75,10.75,0,0,0,.21,498Z" transform="translate(0 0)"/></g><g class="cls-2"><path class="cls-3" d="M9.93,997.69H8.18a5.43,5.43,0,0,0-.57,0,.39.39,0,0,0-.61,0H7a12.46,12.46,0,0,0-4.11.61c-2.07,1-2.82,2.67-2.67,5,.18,2.55-.22,5.15.12,7.67.31,2.34-.7,4.85.82,7l.55.07h0c-.06,4.44.25,8.9-.5,13.32a8.79,8.79,0,0,0-.06,1.78c.05,2.23.94,3,3.13,2.67a26.5,26.5,0,0,0,3.32-1h0A13.69,13.69,0,0,0,13,1034a5.65,5.65,0,0,0,4-5.84,15.69,15.69,0,0,1,.61-4.67,8.56,8.56,0,0,1-.57-3.81c.15-3.87-.5-7.74-.15-11.62a3,3,0,0,0-.09-.89,19,19,0,0,1-.18-5.64c.2-2.1-.23-2.57-2.5-3.22h0a1,1,0,0,0-.32-.19,3.75,3.75,0,0,0-2-.4,1.3,1.3,0,0,0-1.77,0Zm1.77,0a4,4,0,0,0,.39.23,1.06,1.06,0,0,1-.39-.23Z" transform="translate(0 0)"/><path class="cls-3" d="M8.17,945.34h0a9,9,0,0,0-4.13.44H4c-3,.43-3.46.9-3.51,3.54,0,.8,0,1.6,0,2.39a2.09,2.09,0,0,1,0,.5,1.53,1.53,0,0,1,.27,1c-.34,5,.28,10.11-.07,15.16a1.09,1.09,0,0,0,.61,1.11,1.2,1.2,0,0,0,.32-.06C.72,970.85.84,972.49.87,974,.94,976.61,3,978.61,5,978.07c2.39-.64,5-.58,7.2-1.75h0c0-.16,0-.32,0-.48a13.35,13.35,0,0,0,1.43-.26,4.32,4.32,0,0,0,3.37-3.64,12.74,12.74,0,0,0,.07-3.7c-.29-2-.92-4-.36-6.08a1.67,1.67,0,0,0,0-.8,25.49,25.49,0,0,1-.37-6.64,43.49,43.49,0,0,0-.61-6.64,1.91,1.91,0,0,0-1.16-1.72h0a.89.89,0,0,0-.33-.18,4.18,4.18,0,0,0-2-.36,7.87,7.87,0,0,0-4.08-.47Zm4.09.47a2.32,2.32,0,0,0,.41.22.87.87,0,0,1-.41-.22Z" transform="translate(0 0)"/><path class="cls-3" d="M13.49,722.53a25.07,25.07,0,0,0-3.33,1h0a13.56,13.56,0,0,0-5.39.87,5.62,5.62,0,0,0-4,5.83,16.39,16.39,0,0,1-.61,4.68,8.7,8.7,0,0,1,.56,3.81c-.15,3.87.5,7.74.15,11.62a3.29,3.29,0,0,0,.09.88,18.78,18.78,0,0,1,.18,5.65c-.2,2.1.24,2.57,2.5,3.22h0a.84.84,0,0,0,.31.19,3.76,3.76,0,0,0,2,.4,1.31,1.31,0,0,0,1.77,0H9.58l.57,0a.38.38,0,0,0,.6,0h0a12.82,12.82,0,0,0,4.12-.61c2.07-1,2.82-2.67,2.66-5-.17-2.55.22-5.15-.12-7.67-.31-2.34.71-4.85-.82-7l-.54-.07h0c.06-4.45-.26-8.9.5-13.32a9.61,9.61,0,0,0,.06-1.78C16.56,723,15.68,722.16,13.49,722.53ZM6.05,760.7h0a2.22,2.22,0,0,0-.39-.23A.88.88,0,0,1,6.05,760.7Z" transform="translate(0 0)"/><path class="cls-3" d="M5.52,782.07h0c0,.17,0,.33,0,.49h0a11,11,0,0,0-1.43.26A4.31,4.31,0,0,0,.7,786.46a12.39,12.39,0,0,0-.07,3.7c.28,2,.92,4,.35,6.08A1.63,1.63,0,0,0,1,797a25.59,25.59,0,0,1,.37,6.65A41.2,41.2,0,0,0,2,810.32,1.88,1.88,0,0,0,3.14,812h0a1.19,1.19,0,0,0,.33.18,4.18,4.18,0,0,0,2,.36,7.89,7.89,0,0,0,4.08.47h0a9,9,0,0,0,4.13-.45h0c3-.42,3.46-.89,3.52-3.54,0-.79,0-1.59,0-2.39a4,4,0,0,1,0-.49,1.53,1.53,0,0,1-.26-1c.34-5-.28-10.11.07-15.16a1.11,1.11,0,0,0-.61-1.11,1.53,1.53,0,0,0-.32.05c.93-1.41.82-3.05.78-4.55-.06-2.62-2.13-4.62-4.16-4.08C10.33,781,7.74,780.9,5.52,782.07Zm0,30.5h0a2.65,2.65,0,0,0-.41-.21A1.07,1.07,0,0,1,5.5,812.57Z" transform="translate(0 0)"/><path class="cls-3" d="M5.34,890a23.15,23.15,0,0,0-4.08.43,4.25,4.25,0,0,0-1.26,3c0,1.1,0,2.21.1,3.3a81,81,0,0,1,.81,12.44,5.52,5.52,0,0,0,.46,3.24h0l-.12,7.14c0,.68-.07,1.36,0,2,.1,1.39.73,2,2.37,2.08a30.92,30.92,0,0,0,3.19-.12l3.78-.23a33.44,33.44,0,0,1,4.89-1.4,2.58,2.58,0,0,0,2.14-2.38c.07-1.25.1-2.5.15-3.76a3.83,3.83,0,0,0-.17-1.16,68.77,68.77,0,0,0-.56-7.45.59.59,0,0,1,0-.13c-.13-1.33-.28-2.66-.54-4a11.87,11.87,0,0,1-.1-5.77,11,11,0,0,1-1-5.66h0c.13-.75-.51-1-1.11-1.22a11.11,11.11,0,0,0-3.59-.4h0A16.19,16.19,0,0,0,5.34,890Zm5.87.29a1.44,1.44,0,0,1-.58-.23Z" transform="translate(0 0)"/></g><g class="cls-2"><path class="cls-3" d="M8.17,1295.93h0a9.18,9.18,0,0,0-4.13.45H4c-3,.43-3.46.9-3.51,3.54,0,.8,0,1.6,0,2.39a2,2,0,0,1,0,.49,1.58,1.58,0,0,1,.27,1c-.34,5,.28,10.1-.07,15.15a1.1,1.1,0,0,0,.61,1.12,1.2,1.2,0,0,0,.32-.06c-.94,1.42-.82,3.06-.79,4.56.07,2.62,2.14,4.62,4.17,4.08,2.39-.64,5-.59,7.2-1.75h0c0-.16,0-.32,0-.48a13.35,13.35,0,0,0,1.43-.26,4.35,4.35,0,0,0,3.37-3.64,12.74,12.74,0,0,0,.07-3.7c-.29-2-.92-4-.36-6.08a1.67,1.67,0,0,0,0-.8,25.49,25.49,0,0,1-.37-6.64,43.37,43.37,0,0,0-.61-6.64,1.91,1.91,0,0,0-1.16-1.72h0a.89.89,0,0,0-.33-.18,4.07,4.07,0,0,0-2-.36,7.88,7.88,0,0,0-4.08-.48Zm4.09.47a2.32,2.32,0,0,0,.41.22.87.87,0,0,1-.41-.22Z" transform="translate(0 0)"/><path class="cls-3" d="M13.49,1073.12a25.07,25.07,0,0,0-3.33,1h0a13.56,13.56,0,0,0-5.39.87,5.62,5.62,0,0,0-4,5.83,16.44,16.44,0,0,1-.61,4.68,8.67,8.67,0,0,1,.56,3.81c-.15,3.87.5,7.74.15,11.61a3.32,3.32,0,0,0,.09.89,18.78,18.78,0,0,1,.18,5.65c-.2,2.1.24,2.57,2.5,3.21h0a.84.84,0,0,0,.31.19,3.76,3.76,0,0,0,2,.4,1.31,1.31,0,0,0,1.77,0H9.58l.57,0a.38.38,0,0,0,.6,0h0a12.82,12.82,0,0,0,4.12-.61c2.07-1,2.82-2.68,2.66-5-.17-2.55.22-5.16-.12-7.67-.31-2.34.71-4.86-.82-7l-.54-.07h0c.06-4.45-.26-8.9.5-13.32a9.61,9.61,0,0,0,.06-1.78C16.56,1073.56,15.68,1072.74,13.49,1073.12Zm-7.44,38.17h0a2.28,2.28,0,0,0-.39-.24A1,1,0,0,1,6.05,1111.29Z" transform="translate(0 0)"/><path class="cls-3" d="M5.34,1240.63a23.15,23.15,0,0,0-4.08.43,4.25,4.25,0,0,0-1.26,3c0,1.1,0,2.21.1,3.3a80.94,80.94,0,0,1,.81,12.43,5.54,5.54,0,0,0,.46,3.25h0l-.12,7.14c0,.68-.07,1.36,0,2,.1,1.39.73,2,2.37,2.08a30.92,30.92,0,0,0,3.19-.12l3.78-.23a33.44,33.44,0,0,1,4.89-1.4,2.59,2.59,0,0,0,2.14-2.38c.07-1.25.1-2.51.15-3.76a3.83,3.83,0,0,0-.17-1.16,68.77,68.77,0,0,0-.56-7.45.69.69,0,0,1,0-.13c-.13-1.33-.28-2.66-.54-4a11.87,11.87,0,0,1-.1-5.77,11,11,0,0,1-1-5.66h0c.13-.75-.51-1-1.11-1.22a11.11,11.11,0,0,0-3.59-.4h0a16.19,16.19,0,0,0-5.29-.06Zm5.87.29a1.44,1.44,0,0,1-.58-.23Z" transform="translate(0 0)"/><path class="cls-3" d="M.21,1187h0c0,1.38,0,2.77-.07,4.15-.12,5,.86,10,.67,14.94a2.81,2.81,0,0,0,.51,1.77h0c0,2.74,0,5.48,0,8.23a2.81,2.81,0,0,0,.56,2h0l.61.46h0a3.74,3.74,0,0,0,2.21.48,52.2,52.2,0,0,0,9-1c.84-.22,1.67-.45,2.48-.72,1-.33,1.62-1,1.4-1.82a24.88,24.88,0,0,1-.41-5.3,2.48,2.48,0,0,0-.32-1.35,4.34,4.34,0,0,1-.47-3.61,6.18,6.18,0,0,0-.09-3,4,4,0,0,1-.23-1.37c.17-3.55-.72-7.07-.66-10.62,0-2.85-.27-3-4.08-3.23a8.43,8.43,0,0,0-3.47-.47h0A10.75,10.75,0,0,0,.21,1187Z" transform="translate(0 0)"/></g></g></g></svg>