<svg xmlns="http://www.w3.org/2000/svg" viewBox="0 0 313.22 39.91"><defs><style>.cls-1{isolation:isolate;}.cls-2{fill:#9fffff;opacity:0.7;mix-blend-mode:multiply;}</style></defs><g class="cls-1"><g id="Camada_1" data-name="Camada 1"><path class="cls-2" d="M5.76,33.6c6.68,1.88,13.64,2.16,20.37,1.94,15.43-.5,242.2,2.77,257.61,2.11a20,20,0,0,1,5.92.86,43.91,43.91,0,0,0,17.85.88c-.07-.52-.14-1-.2-1.56l.21-.06A10.13,10.13,0,0,0,309,36.29l1.76-1.81c2.4-3.57,1.59-7.82,2.49-11.7h-.05q-.27-3.3-.56-6.59h0c0-6.13-3.84-9.54-9.4-11.54-5.16-1.86-10.61-3.43-16-3.25-9.78.34-132-1.35-141.72-.88-6.3.31-39.6.51-45.91.81h0C93-.87,14.52.15,8,.93A6.43,6.43,0,0,0,2.55,5.58c-2.07,6.83-3.33,13.82-2,21C1.09,29.55,2.17,32.49,5.76,33.6Z"/></g></g></svg>