<svg id="Camada_1" data-name="Camada 1" xmlns="http://www.w3.org/2000/svg" viewBox="0 0 141.17 48.12"><defs><style>.cls-1{fill:#f3c;opacity:0.75;}</style></defs><path class="cls-1" d="M.65,22.83c.26-.7.39-1.45,1-1.65s1.41-.42,1.65-.91a2,2,0,0,1,2-.5c.47.24.6,1.23.63,1.74s.32,1.41.35,1.92S6,25.05,6.23,25.35s.09.32.31,1.26.82,1.59.66,2-.08,1.2-.78,1.59S2.87,32.32,2,30.71,1,26,.74,24.72A4.78,4.78,0,0,1,.65,22.83Z" transform="translate(-0.6 0.84)"/><path class="cls-1" d="M140.65,25.09c0-.77,1-3.6,1.12-5.54s-2.23-2-3.08-1.72-3.13.08-4.32.11-5.46-.45-8.19-.68-9.29-.47-12.37-.52-15.48-.12-18.08-.3a43.11,43.11,0,0,0-8.17.09c-2,.33-8.83.3-10.2.42s-2.51,0-4.15,0-2.2,0-2.95,0-1.26.61-2.22.42a4.51,4.51,0,0,0-1.9-.08,8.29,8.29,0,0,1-1.37.11c-.44,0-10.87.63-12.42.83s-25.28,1.21-28.72,1.33S3.43,20.64,2.37,20.71,1.05,21.9.8,22.58c0,0,.14,2.48.19,3.57A13.6,13.6,0,0,0,1.65,30c.41.91,1,1.42,1.77,1.25a19.56,19.56,0,0,1,3.9-.57c1.32,0,6.64-.79,8-.9S38.88,27.68,41,27.54s17.76-.88,20.1-.8,16.18-1,19.4-.89,21.35-.19,24.8-.31,24.12,1.57,26.1,1.83,5.86,1.36,7.28,1.11S140.67,25.85,140.65,25.09Zm-89.14-5.7c-.61.35-.42.2-1.15.3s-.67-.1-1.13,0-.49-.18-.49-.18c.27-.18.34-.16.75-.15s.5,0,1-.07S51.92,19.15,51.51,19.39Zm27.14-.95c-.44,0-1.37-.07-1.75,0a10.41,10.41,0,0,1-1.88.18c-.62,0-1.38.15-1.94.16s-.79-.5-1-.21-.59.29-1,.22a8.35,8.35,0,0,0-1.25-.07,3.19,3.19,0,0,0-1.06.1,5.47,5.47,0,0,1-1,0,5.75,5.75,0,0,0-.94,0c-.2,0-.93,0-1.28.06S64.5,19,64.5,19a6.68,6.68,0,0,1-.9.05A3.12,3.12,0,0,0,62.46,19c-.32.12-.26.33-.55.23a1.55,1.55,0,0,0-.92-.14c-.31.08-.49.2-.82.08a3.91,3.91,0,0,0-1.24-.06c-.37,0-.52.29-1,.21a8.54,8.54,0,0,0-1.38-.07c-.37,0-.6.26-1,.2a2.65,2.65,0,0,0-1.09,0c-.4.09-.61,0-.68-.1-.19-.33.45-.49.91-.4A19.85,19.85,0,0,0,57,18.93c.42,0,2.14.05,2.52,0s.51-.24.88-.11a1.4,1.4,0,0,0,1.08.1,2.29,2.29,0,0,1,1.09-.1,7.25,7.25,0,0,0,1.81,0c.25-.12.5,0,.91,0a8.34,8.34,0,0,0,1.21-.07c.44-.06.51-.25,1-.19a16.25,16.25,0,0,0,1.9,0c.35,0,1.08-.11,1.38-.14s.84.37.89,0,.35-.38.65-.26a4.62,4.62,0,0,0,1,.14c.27,0,2,0,2.52,0s1.38-.15,1.94-.16.73.12,1.43.09a2,2,0,0,1,1,.14S79.09,18.38,78.65,18.44Z" transform="translate(-0.6 0.84)"/><path class="cls-1" d="M94,.11c-.63-.37-.76-.78-1.34-.92A2.5,2.5,0,0,0,90.53.35a16.23,16.23,0,0,0-1.66,3.21A20.52,20.52,0,0,0,87.7,6.8,2.08,2.08,0,0,0,89.15,9c1.17.43,3.64,1.11,5.56,1.8s12.21,3.85,15.87,5.31,12.38,5.71,14.36,6.78,7.2,3.26,8.34,4,3.12,2.93,4.26,1.33,1.76-4.47,2.23-5.38,2.25-3.71,1.43-4.15-6.54-2.37-8-3.2-8.88-4.58-11.63-5.65S109.4,5.46,108.17,5,104.29,3.39,104,3.58s-.24.27-.71,0a6.43,6.43,0,0,0-.88-.46,6,6,0,0,0-1-.21l-.42.2-.34-.62a7.26,7.26,0,0,1-1-.14c-.25-.09-1.84-.53-2.88-.9A24.59,24.59,0,0,1,94,.11Z" transform="translate(-0.6 0.84)"/><path class="cls-1" d="M83.34,38.55c0-.64,1.1-1.68,2.11-2s6.64-2.33,7.29-2.6,9.45-3.55,10.48-3.9,14.33-4.87,15.26-5.32,3-1.85,3.66-2.2,7.31-3.25,8.4-3.57,2.08-.54,2.42-.7,1.22.29,2,1.31,1,2.74,1.67,3.48,2.64,4.47,1.23,4.9a36.92,36.92,0,0,1-4.76.79c-1.54.23-10.92,3.59-13,4.34s-10.53,4-13.22,4.92S98,41.5,94.78,42.41a72,72,0,0,0-8.44,3.48c-.8.28-2,1.8-3.19,1.29s-.94-1.85-.88-2.77S83.34,38.55,83.34,38.55Z" transform="translate(-0.6 0.84)"/><path class="cls-1" d="M83.34,38.55a3.87,3.87,0,0,1,2-1.56c.61-.14,1.78-.87,2.85-.34s1.15,1.43,1.35,2.43.37,2.44.58,3,.4,1.22-.05,1.49-2.67,1.4-3.36,1.94A6.29,6.29,0,0,1,84.11,47a1.81,1.81,0,0,1-1.87-1.75c0-.86.65-3.93.77-4.47S83.34,38.55,83.34,38.55Z" transform="translate(-0.6 0.84)"/></svg>