<svg id="Camada_1" data-name="Camada 1" xmlns="http://www.w3.org/2000/svg" viewBox="0 0 682.59 45.3"><defs><style>.cls-1{fill:#9fffff;}</style></defs><path class="cls-1" d="M681.23,3.69A20.85,20.85,0,0,0,673.68.57c-3-.56-5.77.2-8.74.25-3.24.06-6.48.65-9.71,1-23.15,2.17-46.41.65-69.57.15-31-.67-61.87,1.56-92.83.58Q445.34,1,397.76,2c-15,.31-29.93.8-44.89.44C327,1.77,301.72-.86,275.67.28c-15.4.68-30.82,1.21-46.23,1.2-17,0-33.88-.47-50.77-.95a205.16,205.16,0,0,0-22.73.19c-4.38.37-8.51-.25-12.83,0-5.19.24-10.38.48-15.56.66-10.15.35-20.29.56-30.44.69-3.83,0-7.67.06-11.52.06-11.88,0-23.8-.07-35.52.9-3.87.32-7.74.62-11.62.86-3.61.23-7.2,1-10.86,1.1-3.21.12-6.34-.22-9.52,0q-3.5.2-7,.56C8.83,5.7,7,5.76,5.19,6.92S3.2,9,3.61,10.83a1.74,1.74,0,0,1-.41,1.78,7.35,7.35,0,0,1-1.37.7,2.71,2.71,0,0,0-1.19,3,28.62,28.62,0,0,0,1.17,3.11,3,3,0,0,1-.47,3.14c-.4.41-1,.72-1.22,1.21a1.73,1.73,0,0,0,.43,1.8,7.3,7.3,0,0,1,1.22,1.6c.67,1.65-1.11,3.29-1.49,5a9.39,9.39,0,0,0,.17,2.13,16.64,16.64,0,0,0-.16,2.55,15,15,0,0,0,2,4.89A6.37,6.37,0,0,0,4,43.91,7.94,7.94,0,0,0,7.79,45c7.43.79,14.91-.36,22.33-.81,3.3-.2,6.56-.1,9.8-.44,4.67-.5,9.37-.25,14-.77,5.36-.6,10.81-.89,16.2-1.18,14.81-.82,29.62-.57,44.44-1.11,15.06-.55,30.15-.78,45.21-.41,21.48.53,43,1.07,64.49,1.18,10.32,0,20.81-1.08,31.2-1.15,24.69-.16,49.52.92,74.18,1.61q17.3.48,34.61.44c30.64-.08,61.2-2.61,91.8-2,14.85.3,30.16.43,45.19.74,46.79,1,93.44,1.08,140.24-1.26,6.16-.31,13.36.14,19.34-.81,1.64-.19,3.32-1,3.85-2.26.43-1.06,0-2.2.14-3.31a8.07,8.07,0,0,1,1.85-3.66,10.32,10.32,0,0,1,2.67-2.77c1-.65,2.46-1.13,2.78-2.17.25-.83-.32-1.64-.59-2.45a1.51,1.51,0,0,1,1-2.08c.48-.05,1,.15,1.43-.17s-.14-.58,0-.85a3.67,3.67,0,0,1,2.09-1.58,6.19,6.19,0,0,0,2.76-1.41A1.86,1.86,0,0,0,678,13.5c0-.35,0-.7,0-1.05.8-.29,2.84-.63,3.42-1.18.79-.74-.06-1.43-.24-2.28C680.62,6.48,684.57,5.93,681.23,3.69Z" transform="translate(0 0)"/></svg>