<svg id="Camada_1" data-name="Camada 1" xmlns="http://www.w3.org/2000/svg" viewBox="0 0 382.69 45.3"><defs><style>.cls-1{fill:#ff9cff;}</style></defs><path class="cls-1" d="M381.93,3.69A10,10,0,0,0,377.69.57c-1.66-.56-3.23.2-4.9.25a43,43,0,0,0-5.44,1c-13,2.17-26,.65-39,.15-17.39-.67-34.68,1.56-52,.58Q249.68,1,223,2c-8.38.31-16.78.8-25.16.44C183.31,1.77,169.16-.86,154.55.28c-8.63.68-17.27,1.21-25.92,1.2-9.52,0-19-.47-28.46-.95A64.56,64.56,0,0,0,87.43.72c-2.46.37-4.77-.25-7.2,0-2.91.24-5.81.48-8.72.66-5.69.35-11.38.56-17.06.69-2.15,0-4.31.06-6.46.06-6.67,0-13.35-.07-19.92.9-2.17.32-4.34.62-6.51.86s-4,1-6.09,1.1c-1.8.12-3.56-.22-5.34,0-1.31.13-2.61.32-3.92.56s-2.27.29-3.3,1.45S1.79,9,2,10.83a2.76,2.76,0,0,1-.23,1.78c-.2.33-.51.45-.76.7a3.87,3.87,0,0,0-.67,3c.12,1.07.46,2.06.66,3.11a5,5,0,0,1-.27,3.14,6,6,0,0,0-.69,1.21,2.8,2.8,0,0,0,.25,1.8A8.46,8.46,0,0,1,1,27.13c.38,1.65-.62,3.29-.83,5a16.55,16.55,0,0,0,.09,2.13c0,.87-.16,1.66-.09,2.55a23.54,23.54,0,0,0,1.12,4.89,7.12,7.12,0,0,0,1,2.2A3.23,3.23,0,0,0,4.37,45c4.16.79,8.36-.36,12.52-.81,1.84-.2,3.67-.1,5.49-.44,2.62-.5,5.25-.25,7.85-.77a90,90,0,0,1,9.07-1.18c8.31-.82,16.61-.57,24.92-1.11a233.1,233.1,0,0,1,25.35-.41c12,.53,24.1,1.07,36.16,1.18,5.78,0,11.66-1.08,17.49-1.15,13.84-.16,27.76.92,41.59,1.61q9.69.48,19.4.44c17.18-.08,34.31-2.61,51.46-2,8.33.3,16.92.43,25.34.74,26.23,1,52.39,1.08,78.63-1.26,3.45-.31,7.49.14,10.84-.81a2.91,2.91,0,0,0,2.16-2.26,21.38,21.38,0,0,0,.08-3.31,11.19,11.19,0,0,1,1-3.66,10,10,0,0,1,1.5-2.77c.58-.65,1.38-1.13,1.55-2.17a6.63,6.63,0,0,0-.33-2.45c-.15-.82,0-2,.6-2.08.26-.05.58.15.8-.17s-.08-.58,0-.85a2.79,2.79,0,0,1,1.17-1.58,3.41,3.41,0,0,0,1.54-1.41,2.58,2.58,0,0,0-.51-2.86l0-1.05c.45-.29,1.59-.63,1.92-1.18.44-.74,0-1.43-.14-2.28C381.58,6.48,383.8,5.93,381.93,3.69Z" transform="translate(0 0)"/></svg>