<svg xmlns="http://www.w3.org/2000/svg" viewBox="0 0 199.46 24.3"><defs><style>.cls-1{isolation:isolate;}.cls-2{fill:#ff9cff;mix-blend-mode:multiply;}</style></defs><g class="cls-1"><g id="Camada_1" data-name="Camada 1"><path class="cls-2" d="M3.67,20.46a44.47,44.47,0,0,0,13,1.18c9.83-.3,154.23,1.68,164.05,1.28a13.16,13.16,0,0,1,3.77.53,29.21,29.21,0,0,0,11.36.54l-.12-1,.13,0a7.2,7.2,0,0,0,.93-.9l1.11-1.1c1.53-2.18,1-4.76,1.59-7.13h0l-.36-4h0c0-3.74-2.45-5.81-6-7a29.11,29.11,0,0,0-10.19-2c-6.23.21-84-.82-90.25-.53-4,.18-25.22.31-29.23.49h0C59.24-.53,9.25.09,5.11.57A4,4,0,0,0,1.63,3.4C.3,7.56-.5,11.81.34,16.18.69,18,1.38,19.78,3.67,20.46Z"/></g></g></svg>