<svg xmlns="http://www.w3.org/2000/svg" viewBox="0 0 43.96 70"><defs><style>.cls-1{isolation:isolate;}.cls-2{fill:#ff9cff;mix-blend-mode:multiply;}</style></defs><g class="cls-1"><g id="Camada_1" data-name="Camada 1"><path class="cls-2" d="M12.45,69.86c.89-.19,1.77-.44,2.67-.61a3,3,0,0,0,2.26-1.7A4.67,4.67,0,0,0,18,64.33c-.19-.89-1.33-9.55-1.55-10.43a48.85,48.85,0,0,1-1.32-5.72h0c0-1.13-1.17-8.74-.83-9.87,0-.27-.9-7-.94-7.28H13c-.05-.72-1.17-9.21-.86-9.92.28-.1.22-.18.12-.26a.33.33,0,0,0-.15-.13h0c-.51-.86-1.44-8.29-1.6-9.25-.11-.61-.2-1.22-.36-1.82A1.24,1.24,0,0,0,9,8.63a4.35,4.35,0,0,0-2.64.28h0A16.22,16.22,0,0,0,1,10.82a1.64,1.64,0,0,0-1,1.72c0,.56.93,7.59,1,8.15.07,1,1.11,9.73,1.16,10.71s.84,8.44,1,9.42c.31,2.57,1,11.66,1.77,14.18a4.69,4.69,0,0,1,.09.84,1.86,1.86,0,0,1,.08.41c.25.19.59,3.09.75,3.33l.71,5.65a.72.72,0,0,0,.14.84c.07.42.15.83.22,1.24.27.18.23.55.45.75a1.73,1.73,0,0,0,.67,1A6.25,6.25,0,0,0,12.45,69.86Z"/><path class="cls-2" d="M43.51,5.19c-.31-.86-.65-1.7-.93-2.57A3.33,3.33,0,0,0,40.94.54,2.78,2.78,0,0,0,38.51.15c-.6.25-6.61,2-7.2,2.28a24.47,24.47,0,0,1-3.86,1.7h0c-.8.13-6.05,1.79-6.93,1.54L15.46,7.12c0,.12,0,.25.07.37h0c-.51.1-6.4,1.82-7,1.57-.13-.27-.17-.2-.21-.1a.34.34,0,0,0-.07.16h0c-.52.56-5.69,2-6.34,2.24a9.47,9.47,0,0,0-1.25.48,1,1,0,0,0-.51,1.21,5.93,5.93,0,0,0,.68,2.57h0a21.38,21.38,0,0,0,2.36,5.1c.38.67.85,1,1.4.83S9.91,20.09,10.31,20c.69-.14,6.78-1.8,7.47-1.92s5.91-1.43,6.59-1.62c1.79-.5,8.19-1.84,9.86-2.77a2.25,2.25,0,0,1,.58-.15,1.08,1.08,0,0,1,.28-.11c.09-.26,2.11-.8,2.25-1l3.93-1.11a.4.4,0,0,0,.58-.19l.85-.31c.08-.27.35-.26.46-.49a1.19,1.19,0,0,0,.62-.74A8.24,8.24,0,0,0,43.51,5.19Z"/><path class="cls-2" d="M39.29,32.48c-.29-.86-.61-1.71-.88-2.58A3.84,3.84,0,0,0,37,27.75c-.7-.47-1.37-.8-2-.51-.48.22-5.3,1.61-5.76,1.86a16,16,0,0,1-3.07,1.47h0c-.65.09-4.85,1.44-5.58,1.15l-4,1.16c0,.12.06.24.08.36h0c-.41.07-5.13,1.45-5.6,1.18-.12-.28-.15-.21-.18-.11a.28.28,0,0,0-.05.15h0c-.39.52-4.53,1.68-5.06,1.87a7.59,7.59,0,0,0-1,.4c-.31.17-.46.56-.36,1.17A7.38,7.38,0,0,0,5,40.46H5a26.46,26.46,0,0,0,2.17,5.16c.35.69.75,1,1.19.89S12.64,45.36,13,45.3c.55-.1,5.44-1.41,6-1.5s4.75-1.09,5.29-1.24c1.43-.39,6.59-1.37,7.9-2.2a1.24,1.24,0,0,1,.47-.11.62.62,0,0,1,.22-.1c.06-.24,1.68-.67,1.79-.84l3.14-.88c.22.13.37.07.47-.16l.68-.26c0-.26.27-.24.35-.46a1,1,0,0,0,.47-.69A9.89,9.89,0,0,0,39.29,32.48Z"/></g></g></svg>