<svg xmlns="http://www.w3.org/2000/svg" viewBox="0 0 55.36 70"><defs><style>.cls-1{isolation:isolate;}.cls-2{fill:#9fffff;mix-blend-mode:multiply;}</style></defs><g class="cls-1"><g id="Camada_1" data-name="Camada 1"><path class="cls-2" d="M22.91,65.23a22,22,0,0,0,1.9,2.88,4.24,4.24,0,0,0,3,1.87c2.63.32,7.11-3.09,7.84-6a5.92,5.92,0,0,0,.06-.62h0l.67-1.83-.28-.63-1-1h0c-.5-1-1-2.1-1.52-3.15-2.32-3.89-9.33-20-11.27-24.08-.38-.79-3.3-7.45-3.23-8.2.25-2.8-6.56-13.68-6.64-13.9C11.72,8.94,11,7.37,10.25,5.8A8.1,8.1,0,0,0,8.86,3.46c-.56-.58-1-.5-1.33,0A10.11,10.11,0,0,0,2.69,7.23h0c-1,.5-1.52,1.6-2.22,2.49a3,3,0,0,0-.17,3c.49,1.43,4.53,10.77,5,12.21l1.2,2.66c0,.44.28.9.18,1.32C7.88,31.54,17.19,52,18.15,54.73A82.45,82.45,0,0,0,22.91,65.23Z"/><path class="cls-2" d="M25.75,67.7c1,.27,2.09.48,3.11.78a3.5,3.5,0,0,0,3.26-.57,5.47,5.47,0,0,0,2.38-3c.26-1,3.68-10.67,3.91-11.71a55.12,55.12,0,0,1,1.67-6.67h0c.55-1.2,3.41-9.74,4.37-10.74.1-.31,2.78-7.8,2.88-8.1l-.4-.19h0c.34-.78,3.68-10.24,4.37-10.81.35,0,.32-.08.26-.21a.37.37,0,0,0-.08-.22h0c-.08-1.16,2.9-9.42,3.23-10.5a21.66,21.66,0,0,0,.6-2.09A1.45,1.45,0,0,0,54.64,2,5.08,5.08,0,0,0,51.73.85h0A18.66,18.66,0,0,0,45.13,0,1.91,1.91,0,0,0,43.2,1.27c-.25.61-3.06,8.42-3.31,9-.45,1.07-4,10.75-4.47,11.8s-3.62,9.26-4,10.33c-1,2.86-5.14,12.72-5.68,15.75a4.69,4.69,0,0,1-.35.92,2.85,2.85,0,0,1-.13.48c.16.32-1,3.53-1,3.86s-2.19,6.1-2.25,6.28a.84.84,0,0,0-.31.95c-.14.47-.28.94-.43,1.41.19.33-.05.69.08,1a2,2,0,0,0,.15,1.44A7.29,7.29,0,0,0,25.75,67.7Z"/></g></g></svg>